<svg width="256" height="58" viewBox="0 0 256 58" fill="none" xmlns="http://www.w3.org/2000/svg">
<g clip-path="url(#clip0_1046_397)">
<path d="M150.768 25.127C151.55 25.127 152.184 24.4928 152.184 23.7105C152.184 22.9282 151.55 22.2941 150.768 22.2941C149.986 22.2941 149.352 22.9282 149.352 23.7105C149.352 24.4928 149.986 25.127 150.768 25.127Z" fill="black"/>
<path d="M182.925 28.4295C180.739 28.3818 176.465 31.8146 175.961 32.3426L178.194 28.5257H174.832C170.51 35.8473 161.48 42.9773 157.47 43.1213C153.844 43.3849 153.58 40.7928 154.781 37.7205V37.744C159.92 38.272 168.949 32.9909 166.115 29.0779C163.69 26.6532 157.158 29.1983 153.004 34.743L152.716 35.1755L152.092 36.0875C150.627 38.0561 147.601 40.8883 147.601 40.8883C143.711 44.7051 141.958 42.4729 143.591 39.7127L150.002 28.5977H147.121C146.328 29.6778 142.438 36.8078 136.123 41.273C132.544 44.009 129.759 42.8334 132.257 39.2802L138.524 28.5977L142.006 28.5741L142.462 28.0939H138.884L142.678 21.4677H139.508C137.827 24.3248 133.89 30.9746 129.951 32.6546C130.648 31.7184 130.407 30.4701 130.407 30.4701C130.119 29.0301 128.51 28.8862 128.51 28.8862C128.51 28.8862 126.229 28.5499 123.635 30.8541L125.028 28.5499H121.835C119.049 33.4947 111.653 44.009 107.618 43.0008C106.538 42.5206 106.466 41.1526 107.595 39.3044L113.982 28.5022H110.812C110.38 29.1506 109.083 31.6229 109.107 31.5745C109.227 30.9261 109.395 28.4295 106.946 27.9258C106.393 27.8054 106.009 27.7818 105.481 27.7818C102.768 27.7576 100.031 29.1741 97.3405 31.551C95.4438 33.231 93.6426 35.4633 92.1299 38.2485C85.622 44.2256 78.9466 44.5612 76.7613 42.329C74.4557 39.9521 73.5437 35.0793 77.818 26.8691C79.3306 24.7331 84.9501 15.467 93.0427 13.3302C99.0939 11.7221 101.543 15.1307 101.759 19.0915C101.759 19.0915 103.584 15.6594 105.65 13.5226C104.376 14.0505 101.591 14.6982 100.294 13.9066C96.38 11.41 88.8396 11.7941 79.1867 20.7723C70.9017 29.1741 65.0186 45.4974 81.4439 44.2256C87.255 43.5053 92.1299 38.8719 92.1299 38.8719C91.3612 41.6806 92.6102 43.7931 95.0113 44.2256C95.8998 44.3931 97.1488 44.153 98.2054 43.7454C99.0939 43.3849 100.967 42.6168 103.416 40.6959C102.648 43.7689 107.402 48.3539 116.168 37.5281L112.109 44.0333L115.807 44.009C115.807 44.009 121.979 33.1106 123.107 32.0063C125.508 28.8143 129.927 28.2136 129.855 30.4459C129.374 30.2065 128.943 30.1345 128.582 30.2065C127.526 30.3739 127.045 31.6949 127.262 32.6069C127.382 32.919 127.55 33.231 128.054 33.4712C128.054 33.4712 130.119 34.9111 135.09 28.6938L134.37 29.9664C134.37 29.9664 129.351 38.6083 128.703 39.8324C126.157 44.7059 132.185 45.1619 135.786 42.0646C135.786 42.0646 138.716 39.9043 142.054 36.2556C142.009 36.333 141.969 36.4132 141.934 36.4957C140.204 39.5922 138.307 42.7607 140.757 44.1294C141.453 44.4415 143.351 44.6574 145.704 43.0008C145.704 43.0008 149.473 39.9043 151.467 37.3835C150.626 39.3286 149.858 42.5206 153.268 43.9613C155.189 44.5612 156.75 44.1772 158.671 43.5288C164.699 41.5609 172.407 32.7273 172.407 32.7273C172.407 32.7273 165.875 43.5773 165.659 43.9848L168.972 43.9613C168.972 43.9613 173.68 35.9913 174.64 34.6475C177.21 30.6147 182.781 27.8538 183.357 29.246C181.292 28.8378 180.788 31.8866 182.421 32.5107C184.966 33.4947 186.431 28.6219 182.925 28.4295ZM162.918 28.6575C163.807 28.7537 164.239 29.2097 164.143 30.458C163.854 33.1477 159.916 37.5417 154.873 37.3977C156.627 33.2674 160.805 28.4651 162.918 28.6575ZM102.336 40.9032C101.375 41.7198 100.198 42.3681 100.198 42.3681C95.3725 44.7935 94.2917 42.1523 94.8196 39.7034C95.2756 37.5901 97.1495 34.4922 98.6857 32.5955C100.079 31.0351 101.543 29.8338 103.417 28.9218C107.427 26.9525 109.875 29.4256 108.219 32.9318C107.115 35.2367 105.338 38.334 102.336 40.9032Z" fill="black"/>
</g>
<defs>
<clipPath id="clip0_1046_397">
<rect width="114" height="32.0625" fill="white" transform="translate(71 12.5813)"/>
</clipPath>
</defs>
</svg>
