<svg width="256" height="58" viewBox="0 0 256 58" fill="none" xmlns="http://www.w3.org/2000/svg">
<mask id="mask0_1046_327" style="mask-type:luminance" maskUnits="userSpaceOnUse" x="14" y="15" width="229" height="28">
<path d="M243 15H14V42.8984H243V15Z" fill="white"/>
</mask>
<g mask="url(#mask0_1046_327)">
<path d="M24.6586 31.834L16.13 20.907H14.0001V42.6299H16.2821V24.7068L24.6586 35.329L33.0351 24.7068V42.5994H35.3169V20.8643L33.181 20.9131L24.6586 31.834Z" fill="black"/>
<path d="M47.8606 20.9072L38.4193 42.6301H40.8838L43.9477 35.6311H53.9032L56.9673 42.6301H59.4318L49.9904 20.9072H47.8606ZM44.8758 33.3408L48.8829 24.149L52.9144 33.3408H44.8758Z" fill="black"/>
<path d="M64.8164 20.9072H62.5344V42.6301H64.8164V20.9072Z" fill="black"/>
<path d="M77.2778 30.7091L75.8415 30.2883C72.9845 29.4862 71.5971 28.1932 71.5971 26.3329C71.5971 25.7321 71.7097 25.2137 71.9347 24.7897C72.163 24.3597 72.4673 24.0029 72.8445 23.7254C73.234 23.4387 73.6783 23.2222 74.1681 23.0819C74.6763 22.9355 75.2087 22.8532 75.7473 22.8349C76.4167 22.8166 77.0647 22.899 77.6794 23.0789C78.2665 23.2527 78.7534 23.5119 79.1246 23.8504L79.5049 24.1981L81.0019 22.5848L80.6307 22.228C80.0617 21.6821 79.3193 21.2613 78.4187 20.9837C77.5455 20.7123 76.6327 20.5751 75.7016 20.5751C74.9105 20.5751 74.1255 20.6879 73.374 20.9075C72.6102 21.1301 71.9135 21.4778 71.3049 21.9383C70.6842 22.4079 70.1792 23.0118 69.8019 23.7376C69.4216 24.4695 69.2269 25.3417 69.2269 26.3268C69.2269 27.8485 69.7776 29.1386 70.8638 30.1632C71.9044 31.1423 73.3832 31.8802 75.2604 32.3529L76.4715 32.7585C77.7737 33.219 78.7046 33.7649 79.2433 34.381C79.7544 34.9695 80.0131 35.8174 80.0131 36.9031C80.0131 37.4795 79.8914 37.9888 79.651 38.4218C79.4046 38.867 79.0698 39.2482 78.6591 39.5593C78.2362 39.8764 77.7402 40.1296 77.1895 40.3064C76.6297 40.4894 76.0425 40.5901 75.44 40.6053C74.588 40.642 73.7422 40.5231 72.9328 40.2485C72.1509 39.9833 71.4966 39.5593 70.9916 38.9829L70.6052 38.5407L69.1052 40.212L69.4186 40.5627C70.1427 41.3739 71.0708 41.9838 72.1843 42.3772C73.1671 42.7249 74.1955 42.8988 75.2362 42.8988C75.3456 42.8988 75.4582 42.8957 75.5678 42.8927C76.3984 42.8713 77.229 42.728 78.0293 42.4687C78.8417 42.2035 79.5688 41.8161 80.1865 41.3128C80.8072 40.8097 81.3184 40.1875 81.7018 39.4709C82.0942 38.7389 82.295 37.8729 82.295 36.9061C82.295 35.3112 81.8783 33.9998 81.0536 33.0117C80.2443 32.0449 78.9756 31.2703 77.2778 30.7091Z" fill="black"/>
<path d="M104.048 23.899C103.054 22.8896 101.866 22.0875 100.522 21.5111C99.1737 20.9347 97.7228 20.642 96.2071 20.642C94.6892 20.642 93.2376 20.9347 91.8926 21.5111C90.5513 22.0875 89.3613 22.8896 88.3544 23.896C87.3504 24.9024 86.5468 26.0918 85.9752 27.4275C85.3998 28.7663 85.1077 30.2271 85.1077 31.7703C85.1077 33.3104 85.3998 34.7711 85.9752 36.1131C86.5497 37.4488 87.3504 38.6351 88.3544 39.6415C89.3613 40.6509 90.5513 41.4529 91.8926 42.0264C93.2376 42.6028 94.6892 42.8955 96.2071 42.8955C97.7257 42.8955 99.1773 42.6028 100.522 42.0264C101.864 41.4499 103.05 40.6478 104.048 39.6384C105.044 38.6321 105.841 37.4457 106.425 36.1131C107.012 34.7711 107.307 33.3104 107.307 31.7672C107.307 30.2271 107.009 28.7632 106.425 27.4214C105.844 26.0887 105.044 24.9054 104.048 23.899ZM105.028 31.7398C105.028 32.9596 104.793 34.1247 104.334 35.1951C103.872 36.2716 103.239 37.2139 102.454 38.0007C101.669 38.7876 100.729 39.4189 99.6545 39.8854C98.587 40.346 97.4273 40.5808 96.2071 40.5808C94.9876 40.5808 93.8279 40.346 92.7604 39.8854C91.6858 39.4219 90.7459 38.7876 89.961 38.0007C89.1761 37.2139 88.5433 36.2716 88.0806 35.1951C87.6207 34.1247 87.3865 32.9627 87.3865 31.7398C87.3865 30.5168 87.6207 29.3549 88.0806 28.2845C88.5433 27.2079 89.1761 26.2656 89.961 25.4788C90.7459 24.692 91.6858 24.0607 92.7604 23.5941C93.8279 23.1336 94.9904 22.8987 96.2071 22.8987C97.4244 22.8987 98.587 23.1336 99.6545 23.5941C100.729 24.0576 101.669 24.692 102.454 25.4788C103.239 26.2656 103.872 27.2079 104.334 28.2845C104.793 29.3549 105.028 30.5168 105.028 31.7398Z" fill="black"/>
<path d="M124.946 38.324L113.247 20.8707L111.096 20.9195V42.6303H113.378V25.183L124.919 42.3984L125.074 42.6303H127.228V20.9073H124.946V38.324Z" fill="black"/>
<path d="M160.862 30.7091L159.426 30.2883C156.568 29.4862 155.181 28.1932 155.181 26.3329C155.181 25.7321 155.294 25.2137 155.519 24.7897C155.747 24.3597 156.052 24.0029 156.429 23.7254C156.818 23.4387 157.265 23.2222 157.752 23.0819C158.257 22.9355 158.792 22.8532 159.332 22.8349C159.998 22.8166 160.648 22.899 161.263 23.0789C161.851 23.2527 162.337 23.5119 162.712 23.8504L163.092 24.1981L164.589 22.5848L164.218 22.228C163.65 21.6821 162.907 21.2613 162.006 20.9837C161.133 20.7123 160.22 20.5751 159.288 20.5751C158.498 20.5751 157.713 20.6879 156.962 20.9075C156.195 21.1301 155.5 21.4778 154.892 21.9383C154.272 22.4079 153.766 23.0118 153.389 23.7376C153.009 24.4695 152.814 25.3417 152.814 26.3268C152.814 27.8485 153.364 29.1416 154.451 30.1632C155.489 31.1422 156.97 31.8802 158.848 32.3529L160.059 32.7585C161.36 33.219 162.292 33.7649 162.831 34.381C163.342 34.9695 163.6 35.8174 163.6 36.9031C163.6 37.4795 163.479 37.9888 163.238 38.4218C162.989 38.867 162.657 39.2482 162.246 39.5593C161.82 39.8764 161.328 40.1296 160.776 40.3064C160.217 40.4894 159.632 40.5901 159.027 40.6053C158.175 40.642 157.33 40.5231 156.52 40.2485C155.738 39.9863 155.086 39.5593 154.579 38.9799L154.192 38.5377L152.689 40.2089L153.003 40.5596C153.726 41.3708 154.657 41.9808 155.768 42.3741C156.751 42.7218 157.781 42.8957 158.82 42.8957C158.93 42.8957 159.043 42.8927 159.151 42.8896C159.983 42.8682 160.813 42.7249 161.613 42.4657C162.426 42.2004 163.154 41.813 163.771 41.3098C164.391 40.8066 164.902 40.1845 165.285 39.4678C165.679 38.7359 165.879 37.8728 165.879 36.9031C165.879 35.3081 165.462 33.9967 164.638 33.0086C163.828 32.0449 162.556 31.2703 160.862 30.7091Z" fill="black"/>
<path d="M176.71 20.9072L167.269 42.6301H169.73L172.794 35.6311H182.75L185.813 42.6301H188.278L178.835 20.9072H176.71ZM173.722 33.3408L177.73 24.149L181.761 33.3408H173.722Z" fill="black"/>
<path d="M204.917 32.8651C204.514 32.3834 204.026 31.9594 203.473 31.6087C203.254 31.4714 203.028 31.3464 202.795 31.2335C203.349 30.8646 203.83 30.4132 204.228 29.8856C204.885 29.0196 205.22 27.9521 205.22 26.7201C205.22 25.8173 205.043 24.9939 204.696 24.2773C204.352 23.5636 203.869 22.9476 203.26 22.4474C202.663 21.9565 201.958 21.5722 201.164 21.3069C200.375 21.0446 199.533 20.9104 198.656 20.9104H191.211V42.6332H199.631C200.531 42.6332 201.389 42.4899 202.18 42.2032C202.977 41.9166 203.683 41.4988 204.282 40.9652C204.882 40.4284 205.363 39.7787 205.703 39.0378C206.047 38.2906 206.223 37.458 206.223 36.5583C206.223 35.8508 206.108 35.1737 205.883 34.5485C205.654 33.9173 205.329 33.3531 204.917 32.8651ZM193.46 32.6456H199.45C200.077 32.6456 200.668 32.7401 201.209 32.9261C201.742 33.1091 202.21 33.3745 202.599 33.713C202.983 34.0484 203.293 34.4571 203.515 34.9299C203.737 35.3994 203.85 35.9362 203.85 36.5247C203.85 37.1104 203.737 37.641 203.518 38.0984C203.297 38.562 202.986 38.9675 202.599 39.303C202.21 39.6415 201.745 39.9068 201.209 40.0898C200.668 40.2758 200.075 40.3704 199.45 40.3704H193.46V32.6456ZM198.477 30.3583H193.487V23.1641H198.504C199.119 23.1641 199.708 23.2465 200.256 23.4081C200.789 23.5667 201.257 23.7984 201.647 24.1004C202.024 24.3961 202.329 24.7683 202.547 25.2074C202.767 25.6435 202.877 26.1619 202.877 26.7475C202.877 27.333 202.77 27.8546 202.56 28.2937C202.351 28.7329 202.052 29.1079 201.671 29.4099C201.285 29.721 200.82 29.9558 200.287 30.1143C199.743 30.276 199.13 30.3583 198.477 30.3583Z" fill="black"/>
<path d="M220.362 32.5296C221.077 32.2185 221.705 31.7945 222.233 31.267C222.759 30.7393 223.175 30.1081 223.467 29.3976C223.756 28.6869 223.903 27.8971 223.903 27.0432C223.903 26.1252 223.73 25.2744 223.385 24.5089C223.041 23.7434 222.561 23.0877 221.956 22.5571C221.358 22.0325 220.641 21.6208 219.825 21.3342C219.017 21.0505 218.131 20.9072 217.191 20.9072H209.949V42.6301H212.232V33.1792H216.345L222.387 42.6301H225.071L218.889 32.99C219.405 32.8834 219.899 32.7308 220.362 32.5296ZM217.224 30.9499L212.234 30.9223V23.1945H217.224C217.851 23.1945 218.441 23.289 218.983 23.4751C219.518 23.6611 219.987 23.9203 220.377 24.2527C220.757 24.576 221.064 24.9816 221.286 25.4604C221.508 25.9422 221.621 26.4821 221.621 27.0706C221.621 27.6805 221.512 28.2295 221.298 28.6992C221.085 29.1688 220.784 29.5683 220.403 29.8886C220.014 30.2179 219.546 30.4802 219.01 30.6662C218.469 30.8552 217.869 30.9499 217.224 30.9499Z" fill="black"/>
<path d="M231.412 40.4009V32.4106H242.405V30.1813H231.412V23.1335H242.462V20.9072H229.13V42.6301H242.523V40.4009H231.412Z" fill="black"/>
<path d="M238.815 15.0001H235.622L233.17 19.532H235.519L238.815 15.0001Z" fill="black"/>
<path d="M137.15 28.7302C136.949 28.6417 136.755 28.5685 136.557 28.5106C136.103 28.3764 135.574 28.3094 134.987 28.3094C133.502 28.3094 132.342 28.718 131.542 29.5262C130.672 30.4045 130.237 31.7524 130.252 33.5273C130.264 35.2412 130.66 36.5374 131.424 37.376C132.202 38.2329 133.401 38.666 134.987 38.666C135.543 38.666 136.1 38.5746 136.636 38.3946C136.833 38.3275 137.022 38.2543 137.202 38.1689V38.5197H138.948V24.8418H137.15V28.7302ZM137.171 36.2842C137.099 36.3361 137.016 36.3879 136.925 36.4336C136.745 36.5282 136.551 36.6105 136.347 36.6806C136.14 36.7508 135.924 36.8057 135.705 36.8423C135.488 36.8789 135.279 36.8972 135.081 36.8972C133.958 36.8972 133.183 36.6319 132.772 36.1134C132.334 35.5553 132.108 34.6831 132.108 33.5243C132.108 32.9448 132.163 32.4234 132.272 31.9811C132.373 31.5724 132.54 31.2218 132.765 30.9381C132.987 30.6637 133.271 30.4562 133.636 30.3099C134.016 30.1544 134.5 30.0781 135.078 30.0781C135.522 30.0781 135.966 30.136 136.392 30.2489C136.7 30.3312 136.97 30.4441 137.202 30.5844L137.171 36.2842Z" fill="black"/>
<path d="M149.152 29.7301C148.75 29.3336 148.246 28.9983 147.659 28.7328C147.058 28.4615 146.371 28.3242 145.616 28.3242C144.898 28.3242 144.217 28.4645 143.59 28.7389C142.97 29.0104 142.418 29.3855 141.953 29.849C141.487 30.3157 141.117 30.8707 140.852 31.4929C140.584 32.1211 140.45 32.7951 140.45 33.5026C140.45 34.2498 140.596 34.9481 140.885 35.5793C141.171 36.2015 141.558 36.7504 142.035 37.2111C142.513 37.6715 143.078 38.0344 143.718 38.2845C144.354 38.5376 145.03 38.6627 145.729 38.6627C146.021 38.6627 146.325 38.6475 146.63 38.6138C146.946 38.5804 147.269 38.5163 147.585 38.4247C147.908 38.3303 148.227 38.196 148.532 38.0283C148.839 37.8575 149.136 37.6318 149.42 37.3634L149.8 37.0005L148.568 35.7198L148.194 36.0857C147.832 36.4394 147.453 36.656 147.043 36.7444C146.578 36.8451 146.137 36.8939 145.729 36.8939C145.257 36.8939 144.813 36.8084 144.402 36.6437C143.992 36.476 143.626 36.2442 143.323 35.9545C143.018 35.6648 142.771 35.3202 142.591 34.9237C142.485 34.692 142.409 34.4449 142.366 34.1857H148.179C148.802 34.1857 149.301 34.0179 149.663 33.6886C150.026 33.3593 150.232 32.9475 150.281 32.4626C150.327 32.0265 150.251 31.5569 150.058 31.0629C149.867 30.584 149.562 30.1358 149.152 29.7301ZM142.397 32.4382C142.452 32.24 142.524 32.0449 142.616 31.8589C142.795 31.4989 143.035 31.1848 143.328 30.9226C143.624 30.6572 143.966 30.4437 144.356 30.2851C144.733 30.1296 145.154 30.0535 145.601 30.0535C145.961 30.0535 146.286 30.0961 146.574 30.1785C146.864 30.2607 147.126 30.3736 147.345 30.5108C147.57 30.6481 147.758 30.8006 147.914 30.9652C148.066 31.1269 148.185 31.2947 148.269 31.4653C148.352 31.6301 148.403 31.7918 148.428 31.9442C148.445 32.0692 148.44 32.1699 148.413 32.2461C148.391 32.3071 148.358 32.3467 148.306 32.3834C148.251 32.42 148.148 32.4382 148.021 32.4382H142.397Z" fill="black"/>
</g>
</svg>
