<svg width="256" height="58" viewBox="0 0 256 58" fill="none" xmlns="http://www.w3.org/2000/svg">
<path d="M133.818 13.0531C132.396 13.2057 130.545 13.7654 129.327 14.4168C125.574 16.4216 123.078 20.6653 122.474 26.0591C122.229 28.3387 122.393 31.6869 122.873 33.8647C124.264 40.2151 128.857 44.2655 134.892 44.469C136.661 44.5301 138.236 44.3062 139.761 43.7566C142.43 42.8 144.783 40.6221 146.215 37.7625C148.035 34.1497 148.721 29.0612 147.974 24.6547C146.695 17.1238 142.082 12.8902 135.25 13.0022C134.657 13.0022 134.012 13.0327 133.818 13.0531ZM137.643 15.7296C138.359 15.8822 139.556 16.3809 140.231 16.8083C144.067 19.2406 145.99 25.5401 144.905 32.0634C144.056 37.162 141.581 40.5306 137.889 41.5889C136.815 41.8943 134.564 41.9757 133.419 41.7416C129.123 40.8766 126.484 37.447 125.594 31.6055C125.512 31.0356 125.451 29.8754 125.451 28.7559C125.441 24.7055 126.361 21.449 128.192 18.9862C129.409 17.3579 131.128 16.2079 132.979 15.7703C134.309 15.4548 136.252 15.4344 137.643 15.7296Z" fill="black"/>
<path d="M39 28.6949V43.7159H40.432H41.864V37.101V30.486H45.4235L48.9727 30.4962L53.3505 36.6227C55.7542 39.9912 57.8715 42.9629 58.0556 43.2275L58.3829 43.7058L60.2036 43.7159C61.6356 43.7159 62.014 43.6854 61.9424 43.5938C61.9015 43.5226 61.0628 42.3624 60.0706 41.0191C54.5473 33.5391 52.3993 30.5878 52.3993 30.5064C52.3993 30.4657 52.5936 30.4148 52.8391 30.4046C54.9768 30.3029 57.0635 29.5905 58.4545 28.5015C60.94 26.5578 61.8299 22.8229 60.6741 19.2406C60.2752 17.999 59.7535 17.1442 58.8432 16.2384C57.493 14.9053 55.9792 14.2031 53.729 13.8978C53.2994 13.8367 49.8933 13.7655 45.986 13.7248L39 13.6637V28.6949ZM54.3427 16.5743C56.4293 17.2052 57.7385 18.5995 58.1784 20.6654C58.7818 23.5047 57.6567 26.1609 55.4269 27.1786C54.0461 27.8197 53.596 27.8604 47.418 27.9113L41.864 27.9622V22.141V16.33L47.8272 16.3707C53.0028 16.4013 53.8517 16.4216 54.3427 16.5743Z" fill="black"/>
<path d="M71.6288 28.7153V43.7159H73.0608H74.4927V28.7051V13.6841L73.0608 13.7044L71.6288 13.7146V28.7153Z" fill="black"/>
<path d="M86.0509 28.7152V43.7159H87.4829H88.9149L88.9251 31.0661C88.9251 23.3317 88.966 18.5078 89.0274 18.63C89.0785 18.7419 89.7331 20.4313 90.4798 22.3954C91.2367 24.3493 93.3847 29.9568 95.2565 34.8315L98.6728 43.7159H99.7979H100.933L105.741 31.1984C108.38 24.3188 110.558 18.7012 110.568 18.7216C110.589 18.7317 110.609 24.3595 110.63 31.2085L110.65 43.665L112.113 43.6955L113.565 43.7261L113.545 28.7356L113.514 13.7451H111.683H109.853L105.679 24.2781C103.388 30.0687 101.128 35.7678 100.667 36.9279C100.207 38.0983 99.7979 39.0142 99.757 38.9633C99.7263 38.9226 97.4658 33.2439 94.7451 26.3644C92.0243 19.4746 89.7434 13.8163 89.6922 13.7654C89.6308 13.7247 88.7819 13.6942 87.8204 13.7044L86.0509 13.7145V28.7152Z" fill="black"/>
<path d="M152.74 13.8061C152.74 13.8774 154.704 20.5534 157.098 28.644C159.491 36.7346 161.465 43.4411 161.496 43.5429C161.547 43.7057 161.67 43.7159 162.734 43.6955L163.91 43.665L167.459 31.6767C169.403 25.0923 171.019 19.6985 171.049 19.6985C171.08 19.6985 172.696 25.0923 174.64 31.6869L178.179 43.665L179.345 43.6955L180.521 43.7261L184.909 28.9391C187.313 20.8078 189.307 14.0504 189.338 13.9181L189.379 13.6942H187.896C186.832 13.6942 186.392 13.7349 186.32 13.8163C186.269 13.8875 184.694 19.4238 182.812 26.1099C180.94 32.7961 179.375 38.3018 179.345 38.3425C179.304 38.3934 177.718 33.0811 175.816 26.5374C173.903 20.0038 172.287 14.4473 172.205 14.1725L172.062 13.6942H171.111C170.466 13.6942 170.119 13.7349 170.047 13.8163C169.965 13.9283 166.426 25.9471 163.358 36.5616C163.061 37.5894 162.795 38.3832 162.754 38.3425C162.713 38.3018 161.158 32.8165 159.287 26.1608C157.415 19.495 155.84 13.969 155.788 13.8672C155.707 13.7145 155.523 13.6942 154.224 13.6942C153.17 13.6942 152.74 13.7247 152.74 13.8061Z" fill="black"/>
<path d="M202.256 13.8672C202.134 14.1115 201.602 15.4039 194.984 31.5546C193.081 36.1952 191.179 40.8359 190.76 41.8536L189.992 43.7159H191.609H193.225L193.532 42.9323C193.695 42.4947 194.462 40.4593 195.24 38.3934L196.651 34.6585L203.494 34.6789L210.347 34.7094L212.045 39.2178L213.743 43.7159H215.359H216.975L216.781 43.2376C216.679 42.9629 215.154 39.2483 213.395 34.9639C211.636 30.6794 208.987 24.1967 207.493 20.5636C206 16.9203 204.732 13.8876 204.681 13.8164C204.609 13.7349 204.23 13.6942 203.463 13.6942C202.512 13.6942 202.338 13.7146 202.256 13.8672ZM206.368 24.7565C207.913 28.7763 209.202 32.1245 209.222 32.1957C209.242 32.2975 208.138 32.328 203.535 32.3179C200.385 32.3179 197.787 32.2975 197.766 32.267C197.715 32.2161 203.402 17.4698 203.484 17.4597C203.514 17.4597 204.813 20.7468 206.368 24.7565Z" fill="black"/>
</svg>
