<svg width="256" height="58" viewBox="0 0 256 58" fill="none" xmlns="http://www.w3.org/2000/svg">
<g clip-path="url(#clip0_1046_254)">
<path d="M239.554 39.5731C238.952 39.4558 238.338 39.3795 237.75 39.2139C234.689 38.3492 232.874 36.0227 232.822 32.6787C232.756 28.3158 232.804 23.9512 232.803 19.5866C232.803 19.5481 232.815 19.5087 232.827 19.4404H235.929C235.929 19.581 235.929 19.7345 235.929 19.888C235.929 24.0243 235.923 28.1607 235.939 32.297C235.941 32.8137 236.006 33.3425 236.128 33.8448C236.526 35.4778 237.675 36.4928 239.383 36.6608C240.134 36.7347 240.916 36.7315 241.659 36.6101C243.48 36.312 244.56 35.121 244.784 33.2879C244.835 32.8644 244.864 32.4344 244.864 32.0077C244.87 27.9782 244.868 23.9488 244.868 19.9193V19.401H247.999V33.1432C247.973 33.2453 247.934 33.3457 247.922 33.4502C247.584 36.4197 245.79 38.4987 242.888 39.2533C242.348 39.3939 241.791 39.4679 241.242 39.5731H239.553H239.554Z" fill="black"/>
<path d="M57.9189 39.5732C57.3687 39.4663 56.8121 39.3884 56.2699 39.2485C53.3153 38.4859 51.4555 36.2574 51.2367 33.2188C51.1909 32.5783 51.1796 31.9346 51.1788 31.2925C51.174 27.5033 51.1764 23.7134 51.1764 19.9242V19.4476H54.3015V19.929C54.3015 24.0131 54.2951 28.0972 54.3095 32.1813C54.3112 32.7125 54.3659 33.2558 54.4857 33.7725C54.8509 35.3525 55.8476 36.3064 57.4516 36.6142C58.3163 36.7806 59.1818 36.795 60.0474 36.6263C61.8275 36.2799 62.8797 35.2014 63.1411 33.3988C63.2272 32.8058 63.2425 32.199 63.2441 31.5979C63.2529 27.7147 63.2489 23.8315 63.2489 19.9483C63.2489 19.79 63.2489 19.6317 63.2489 19.442H66.3491C66.3555 19.5859 66.3676 19.7289 66.3676 19.8712C66.3676 24.022 66.3692 28.1736 66.366 32.3244C66.3644 34.057 65.9726 35.6756 64.8561 37.0466C63.6278 38.5558 61.9643 39.2437 60.0795 39.4888C59.9211 39.5097 59.765 39.5443 59.6074 39.5724H57.9181L57.9189 39.5732Z" fill="black"/>
<path d="M82.9359 19C83.8368 21.1023 84.7337 23.2071 85.6387 25.3078C87.5813 29.8186 89.528 34.3278 91.4722 38.8379C91.5294 38.9697 91.5776 39.1047 91.6573 39.3072C90.9381 39.3072 90.2745 39.3112 89.6117 39.3056C89.2111 39.3024 88.7212 39.4221 88.4364 39.2349C88.1541 39.0492 88.0704 38.5518 87.9144 38.1853C87.5934 37.4347 87.2716 36.6849 86.9732 35.9255C86.8767 35.6804 86.7633 35.5727 86.4825 35.5743C84.0025 35.5855 81.5225 35.5839 79.0418 35.5743C78.7948 35.5735 78.687 35.6707 78.6009 35.8821C78.1762 36.9228 77.7322 37.9555 77.3115 38.9978C77.2166 39.2325 77.0911 39.3168 76.8369 39.3128C75.9295 39.2975 75.0221 39.3072 74.0416 39.3072C74.1928 38.9399 74.3135 38.6345 74.443 38.334C77.1546 32.0278 79.8687 25.7216 82.5787 19.4147C82.635 19.2837 82.6576 19.139 82.6962 19C82.7766 19 82.8571 19 82.9375 19L82.9359 19ZM85.6733 32.8162C84.7201 30.5049 83.7813 28.229 82.8048 25.8623C81.8105 28.2266 80.8549 30.4993 79.8808 32.8162H85.6733Z" fill="black"/>
<path d="M216.387 19C219.292 25.7401 222.198 32.4811 225.141 39.3072C224.821 39.3072 224.574 39.3072 224.328 39.3072C223.631 39.3072 222.934 39.2911 222.237 39.3144C221.929 39.3249 221.792 39.2051 221.682 38.9319C221.273 37.9145 220.832 36.9099 220.424 35.8917C220.328 35.6498 220.197 35.5767 219.949 35.5775C217.47 35.5839 214.991 35.5863 212.511 35.5743C212.238 35.5727 212.141 35.7013 212.052 35.9166C211.63 36.9437 211.189 37.9627 210.778 38.9938C210.681 39.2357 210.561 39.3152 210.309 39.312C209.4 39.2992 208.49 39.3072 207.491 39.3072C210.42 32.5004 213.323 25.7506 216.226 19C216.28 19 216.333 19 216.387 19ZM219.141 32.8186C218.188 30.5057 217.249 28.2274 216.275 25.8631C215.28 28.2282 214.324 30.5025 213.349 32.8186H219.141Z" fill="black"/>
<path d="M7 35.3943C7.86152 34.9643 8.72384 34.5344 9.61351 34.0907C9.73578 34.2764 9.8492 34.4524 9.96665 34.6252C11.2722 36.5507 13.9219 37.331 16.0681 36.4221C17.853 35.6667 18.277 33.4736 16.8202 32.1845C16.2121 31.6469 15.439 31.2788 14.7054 30.9011C13.4932 30.2759 12.2214 29.7623 11.0325 29.0977C9.6296 28.3126 8.60801 27.1786 8.26694 25.5336C7.6202 22.4179 9.51457 19.6871 12.6759 19.2523C14.5003 19.0008 16.2611 19.1848 17.8426 20.24C18.614 20.7551 19.2044 21.4398 19.6992 22.278C18.9157 22.79 18.1378 23.2987 17.343 23.8186C16.7808 22.9049 16.048 22.2531 15.003 22.0144C14.2726 21.8481 13.5422 21.828 12.8199 22.0506C11.9559 22.3174 11.3792 22.8663 11.2255 23.7792C11.0727 24.6906 11.2891 25.5039 12.0565 26.0656C12.5391 26.4184 13.0773 26.7045 13.6146 26.9705C14.9805 27.648 16.3874 28.2491 17.7284 28.9716C19.0894 29.7053 20.152 30.7661 20.5293 32.326C21.0216 34.36 20.8398 36.2791 19.2696 37.8429C18.2174 38.8901 16.8684 39.3096 15.4302 39.4944C15.2999 39.5113 15.172 39.5467 15.0433 39.5732H13.354C13.2518 39.5483 13.1505 39.5121 13.0467 39.4992C10.5595 39.1995 8.63053 38.0157 7.29683 35.8845C7.20754 35.7414 7.09894 35.6112 7 35.4746C7 35.4481 7 35.4208 7 35.3943Z" fill="black"/>
<path d="M110.174 31.43C111.764 34.0466 113.339 36.6367 114.962 39.3072C114.253 39.3072 113.63 39.3113 113.008 39.3056C112.527 39.3016 111.959 39.4398 111.589 39.2325C111.22 39.0252 111.043 38.4699 110.793 38.0592C109.619 36.1256 108.445 34.1921 107.281 32.2529C107.149 32.0327 107.012 31.9363 106.745 31.9411C105.78 31.9588 104.815 31.9475 103.85 31.9491C103.732 31.9491 103.616 31.9644 103.459 31.9756V39.2791H100.355V19.4316C100.482 19.4244 100.599 19.4123 100.716 19.4123C102.686 19.4107 104.656 19.4067 106.626 19.4123C108.158 19.4163 109.652 19.6317 111.009 20.3912C113.205 21.6199 114.098 23.5752 114.015 26.015C113.929 28.5465 112.743 30.3531 110.362 31.3239C110.313 31.344 110.27 31.3761 110.175 31.43H110.174ZM103.473 29.2087C104.93 29.2087 106.339 29.2842 107.738 29.1902C109.534 29.0697 110.541 28.078 110.748 26.416C110.784 26.1251 110.784 25.8278 110.777 25.5345C110.739 23.6435 109.817 22.5063 107.942 22.3119C106.496 22.1616 105.029 22.2275 103.57 22.2001C103.538 22.2001 103.505 22.2371 103.473 22.2564V29.2095V29.2087Z" fill="black"/>
<path d="M153.838 26.6933C153.838 22.7386 157.096 19.4967 161.069 19.4983C165.052 19.4999 168.283 22.7257 168.279 26.6973C168.277 30.7115 165.062 33.9341 161.063 33.9325C157.071 33.9301 153.838 30.6914 153.838 26.6933ZM161.045 30.8425C163.342 30.8473 165.191 29.023 165.207 26.7351C165.223 24.4592 163.364 22.5891 161.085 22.5891C158.778 22.5891 156.933 24.4117 156.928 26.6957C156.924 28.9901 158.758 30.8376 161.045 30.8425Z" fill="black"/>
<path d="M127.575 39.279V22.1945H121.681V19.4396H136.574V22.1631H130.715V39.279H127.575Z" fill="black"/>
<path d="M27.6161 19.4259H42.525V22.1687H36.6343V22.7337C36.6343 28.0779 36.6343 33.4213 36.6343 38.7655C36.6343 39.1266 36.453 39.3071 36.0905 39.3071C35.2499 39.3071 34.4085 39.3071 33.5204 39.3071V22.184H27.6153V19.4259H27.6161Z" fill="black"/>
<path d="M199.976 36.521V39.2799C199.834 39.2904 199.717 39.3064 199.6 39.3064C195.901 39.308 192.202 39.3048 188.504 39.3145C188.196 39.3145 188.089 39.2373 188.09 38.9118C188.099 32.5253 188.097 26.1388 188.097 19.7523C188.097 19.6606 188.108 19.5682 188.116 19.4445H191.211V36.521H199.977H199.976Z" fill="black"/>
<path d="M168.256 36.4703V39.226C168.087 39.226 167.943 39.226 167.8 39.226C163.298 39.226 158.795 39.2204 154.293 39.2341C153.916 39.2349 153.81 39.1288 153.827 38.7631C153.855 38.1218 153.846 37.4781 153.831 36.836C153.825 36.5571 153.92 36.4559 154.2 36.4687C154.587 36.4864 154.977 36.4703 155.365 36.4703C159.465 36.4703 163.565 36.4703 167.666 36.4703C167.85 36.4703 168.035 36.4703 168.255 36.4703H168.256Z" fill="black"/>
</g>
<defs>
<clipPath id="clip0_1046_254">
<rect width="241" height="20.5732" fill="white" transform="translate(7 19)"/>
</clipPath>
</defs>
</svg>
