<svg width="256" height="58" viewBox="0 0 256 58" fill="none" xmlns="http://www.w3.org/2000/svg">
<path fill-rule="evenodd" clip-rule="evenodd" d="M166.694 26.9194C166.694 29.3506 165.396 29.5655 165.396 29.5655C166.465 30.2306 166.772 32.0643 166.772 33.4809V37.8978H163.714V34.1056C163.714 33.801 163.716 33.5215 163.718 33.2651V33.265L163.718 33.263C163.741 30.6286 163.743 30.4262 160.906 30.4201H160.748L135.296 30.4859L135.288 37.8978H132.529V20.0543H157.681C158.894 20.0187 159.945 20 160.856 20C166.734 19.9989 166.725 20.7843 166.698 23.1958C166.696 23.3681 166.694 23.5487 166.694 23.7379V26.9194ZM163.843 26.3786V24.5214C163.945 22.9002 163.066 22.6841 160.075 22.6841C160.027 22.6831 159.979 22.6837 159.931 22.6843L159.896 22.6847H159.712C159.32 22.6861 158.894 22.6903 158.433 22.6948C157.73 22.7017 156.944 22.7095 156.068 22.7095H135.288V27.672H158.429C158.887 27.672 159.311 27.6738 159.703 27.6755L159.891 27.6763H160.078C160.14 27.6763 160.2 27.6763 160.26 27.6769H160.438C162.934 27.6739 163.843 27.5556 163.843 26.3786ZM211.986 24.4335L211.986 24.435C211.977 24.7962 211.968 25.1806 211.969 25.5883V31.618C211.969 32.0804 211.973 32.5096 211.977 32.9079C212.021 37.5441 212.026 37.9996 204.994 37.9996H185.838L185.361 37.9997C180.985 38.0009 179.055 38.0014 178.207 37.0436C177.537 36.2877 177.542 34.9346 177.55 32.5135C177.551 32.2299 177.552 31.9317 177.552 31.618V26.6216C177.552 26.4331 177.552 26.2499 177.552 26.072C177.55 20.4762 177.55 20.0401 182.616 20.0366H182.812C183.197 20.0369 183.61 20.0394 184.053 20.0422C184.601 20.0456 185.194 20.0493 185.838 20.0493H205.097C205.583 20.0318 206.035 20.0233 206.456 20.0221H206.664C212.087 20.0415 212.055 21.4494 211.986 24.4335ZM208.935 32.5029V26.0108C208.929 25.4953 208.935 25.0572 208.94 24.6847C208.967 22.807 208.97 22.602 207.251 22.6C207.214 22.5994 207.178 22.6 207.141 22.6012H207.025C206.855 22.602 206.67 22.6042 206.468 22.6067C206.205 22.6099 205.915 22.6134 205.593 22.6145L186.47 22.6175C185.791 22.6175 185.186 22.6117 184.649 22.6065C184.27 22.6029 183.924 22.5995 183.609 22.5988H183.459C180.31 22.6 180.319 22.9049 180.402 25.8964L180.402 25.9215V31.95C180.283 35.2337 180.843 35.2233 183.545 35.1731C183.915 35.1662 184.326 35.1586 184.78 35.1586H205.025C205.391 35.1595 205.722 35.1628 206.023 35.1659L206.023 35.1659C206.322 35.1689 206.591 35.1716 206.832 35.1713H206.95C208.926 35.155 208.935 34.8634 208.935 32.5029ZM121.683 20.0363H87.7902V23.0747H103.219V37.8882H106.065V23.0747H121.683V20.0363ZM43 20.067H76.8V23.004H45.7508V27.4928H76.6969V30.4298H45.6572V34.883H76.7851V37.9105H43V20.067Z" fill="black"/>
</svg>
