<svg width="256" height="58" viewBox="0 0 256 58" fill="none" xmlns="http://www.w3.org/2000/svg">
<path d="M158.143 13.6679H151.426C150.715 13.6679 150.135 14.247 150.135 14.9568V43.7235C150.135 44.4333 150.715 45.0124 151.426 45.0124H158.143C170.493 45.0124 173.075 36.5692 173.075 29.4709C173.075 19.8882 167.218 13.6679 158.143 13.6679ZM159.303 40.3238H155.58V18.4125H158.05C164.187 18.4125 167.854 22.5594 167.854 29.5269C167.854 36.9801 162.859 40.3238 159.303 40.3238Z" fill="black"/>
<path d="M177.846 45.031C177.135 45.031 176.555 44.4519 176.555 43.7421V14.9754C176.555 14.2656 177.135 13.6865 177.846 13.6865H180.709C181.42 13.6865 182 14.2656 182 14.9754V43.7421C182 44.4519 181.42 45.031 180.709 45.031H177.846Z" fill="black"/>
<path d="M119.823 17.0862C119.823 17.7961 119.243 18.3751 118.532 18.3751H103.975V26.5195H116.455C117.166 26.5195 117.746 27.0985 117.746 27.8084V29.9192C117.746 30.629 117.166 31.2081 116.455 31.2081H103.975V40.1743H118.495C119.206 40.1743 119.786 40.7534 119.786 41.4632V43.7047C119.786 44.4146 119.206 44.9936 118.495 44.9936H99.5967C98.8857 44.9936 98.3056 44.4146 98.3056 43.7047V14.9381C98.3056 14.2282 98.8857 13.6492 99.5967 13.6492H118.551C119.262 13.6492 119.842 14.2282 119.842 14.9381V17.0862H119.823Z" fill="black"/>
<path d="M74 14.9568C74 14.2469 74.58 13.6679 75.2911 13.6679H94.1331C94.8441 13.6679 95.4241 14.2469 95.4241 14.9568V17.0489C95.4241 17.7587 94.8441 18.3378 94.1331 18.3378H79.3514V26.4448H89.3243C90.0353 26.4448 90.6154 27.0238 90.6154 27.7337V29.9939C90.6154 30.7037 90.0353 31.2828 89.3243 31.2828H79.3701V43.7421C79.3701 44.452 78.79 45.031 78.079 45.031H75.2911C74.58 45.031 74 44.452 74 43.7421V14.9568Z" fill="black"/>
<path d="M128.954 23.9417V43.7235C128.954 44.4333 128.374 45.0124 127.663 45.0124H124.801C124.09 45.0124 123.51 44.4333 123.51 43.7235V14.9568C123.51 14.247 124.09 13.6679 124.801 13.6679H127.645C128.58 13.6679 129.067 13.8173 129.441 14.5085L140.499 34.4397V14.9568C140.499 14.247 141.079 13.6679 141.79 13.6679H144.616C145.327 13.6679 145.907 14.247 145.907 14.9568V43.7235C145.907 44.4333 145.327 45.0124 144.616 45.0124H141.884C140.948 45.0124 140.462 44.8629 140.088 44.1718L128.954 23.9417Z" fill="black"/>
</svg>
