<svg width="256" height="58" viewBox="0 0 256 58" fill="none" xmlns="http://www.w3.org/2000/svg">
<g clip-path="url(#clip0_989_2070)">
<path d="M79.7704 37.0174H82.0514V41.3936H73.9391V37.0174H76.2127V34.4571H69V37.0174H71.2902V49.9077H69V52.4625H76.2127V49.9077H73.9391V43.9281H82.0422V49.9077H79.7704V52.4625H86.9904V49.9077H84.6911V37.0174H86.9996V34.4571H79.7704M166.724 49.9077H159.62V43.9022H165.727V41.3567H159.62V37.0174H166.778V39.4817H169.292V34.4571H154.561V37.0174H156.969V49.9077H154.561V52.4625H169.329V46.4625H166.724M105.126 46.4625H102.521V49.9077H95.4154V43.9022H101.532V41.3567H95.4154V37.0174H102.582V39.4817H105.097V34.4571H90.3678V37.0174H92.7757V49.9077H90.3678V52.4625H105.126M160.302 33.5723H165.468L164.147 31.9836H158.857M183.692 42.1602C181.896 41.6448 180.62 41.7631 178.788 41.1479C177.125 40.5882 176.803 39.5704 176.803 38.8943C176.803 38.2182 177.529 36.4485 180.134 36.4485C182.739 36.4485 184.437 38.172 184.536 39.696L184.545 39.6867V39.696H187.051V34.4479H184.624V35.5932L184.705 35.9534C184.687 35.8998 184.615 35.7558 184.365 35.5027C184.365 35.5027 184.362 35.4965 184.356 35.4842C183.593 34.7896 182.128 34.0415 179.926 34.0415C177.268 34.0415 174.125 35.7022 174.125 38.9053C174.125 42.1085 176.378 43.1264 178.282 43.6288C180.195 44.135 181.164 44.135 182.767 44.5691C184.356 45.0013 185.388 45.9656 185.388 47.3899C185.388 48.8141 184.553 50.5117 181.194 50.5117C177.835 50.5117 176.486 48.6903 176.1 46.082L176.073 46.0912H173.692V52.4588H176.17V51.258L176.08 50.9421C176.08 50.9421 176.17 51.1601 176.448 51.3578L176.475 51.3855C177.734 52.359 179.387 53 181.507 53C183.868 53 188 51.7827 188 47.4693C187.994 44.388 186.368 42.9361 183.692 42.1602ZM143.899 49.9077V52.4625H151.212V49.9077H148.813V37.0174H151.212V34.4571H144.672L140.342 44.9718L140.252 45.4872L140.162 44.9662L135.841 34.4571H129.31V37.0174H131.702V49.9077H129.303V52.4532H136.613V49.9077H134.323V38.0556L134.341 37.2724L134.557 37.893L139.542 49.8726H140.96L145.954 37.893L146.142 37.2631L146.168 37.9743V49.9077M93.953 26.8815V27.4652H96.4143C96.1696 27.2842 95.9378 27.0865 95.7134 26.8815H93.953ZM160.372 26.8889H159.09C158.73 26.9627 158.47 27.2602 158.441 27.4652H160.372V26.8889ZM93.953 29.1906H160.363V27.9363H117.646C116.561 28.459 115.175 28.4406 114.088 27.9363H101.129C99.8983 28.4775 98.4874 28.4775 97.2568 27.9436L93.953 27.9363V29.1906ZM112.652 26.8815H102.619C102.582 26.9535 102.124 27.3507 101.946 27.4652H113.292C113.056 27.2953 112.839 27.0958 112.652 26.8815Z" fill="black"/>
<path d="M95.0935 22.2541C94.9666 22.6494 94.904 23.0558 94.8967 23.4714C95.0475 29.0465 103.303 29.0465 103.463 23.4714C103.463 22.9653 103.364 22.4776 103.204 22.0287C103.69 21.9382 104.175 21.8384 104.65 21.7036C104.874 21.6408 104.865 21.541 104.694 21.4893C104.057 21.2916 103.382 21.1365 102.691 21.0109C101.892 19.8563 100.579 19.171 99.1791 19.171C98.6309 19.171 98.1103 19.28 97.6247 19.4684C97.6247 19.4684 97.6155 19.4591 97.6063 19.4591C97.4095 19.0971 97.3929 18.6648 97.5621 18.2954C97.9926 17.5731 98.962 17.3015 99.7622 17.2313C100.022 17.2221 100.667 17.2498 100.732 17.3219C100.892 17.4493 101.153 17.4918 101.44 17.3939C101.712 17.5029 101.782 17.5842 102.098 17.6728C104.828 18.6112 107.854 19.1063 110.91 18.5392C111.386 18.9992 111.645 19.7935 111.986 20.3421C112.076 20.4788 112.183 20.2461 113.685 20.1888C114.215 20.1611 114.87 20.1703 115.435 20.1796C114.269 20.3163 113.253 20.9831 112.659 21.9382C111.715 22.2356 110.989 22.5256 110.72 22.6863C110.378 22.8932 110.325 23.0022 110.72 23.1112C111.197 23.235 111.664 23.3181 112.129 23.3717C112.092 23.5619 112.065 23.7596 112.065 23.9591C112.065 29.0557 119.673 29.0557 119.673 23.9591C119.673 23.3015 119.495 22.6863 119.197 22.1562C119.682 21.9751 120.184 21.7867 120.714 21.578C121.128 21.7313 121.415 21.9751 121.711 22.3261C121.952 22.5958 122.493 22.4868 122.824 22.4074C123.347 22.2707 123.426 21.8495 123.426 21.3711C123.426 21.1549 123.435 20.937 123.534 20.767C124.152 19.3612 126.615 19.171 127.872 18.8643C127.872 18.8643 127.217 19.6587 126.75 19.8378C126.65 21.8938 125.869 23.6802 125.769 25.6364C126.371 25.6641 126.343 26.331 126.488 26.7097C126.317 27.0717 126.03 26.7097 125.769 26.8371C124.873 26.331 125.986 25.5219 125.251 24.8975C125.628 23.2553 126.246 21.65 126.203 19.9099C125.959 19.9376 125.87 20.1981 125.771 20.3883C125.611 22.0398 125.135 23.5453 124.704 25.0693C124.892 25.1691 125.223 25.2596 125.205 25.5477C124.631 25.9098 125.223 26.488 124.991 26.8926H119.116L118.47 27.4781H127.471L127.561 27.1456C126.231 25.7639 126.733 23.682 127.344 22.1118L128.889 20.0115C130.171 19.5053 130.962 17.9278 132.311 17.4327C132.311 18.0996 131.485 18.3896 131.028 18.7683C130.559 19.8859 129.06 20.0133 128.843 21.2473C129.41 21.9234 130.265 22.3483 130.981 22.9708C131.716 23.4308 131.457 24.3784 132.049 24.8569C132.149 25.001 132.049 25.2171 131.88 25.3353C131.258 25.4886 131.277 25.9117 131.654 26.2645C131.895 26.4899 132.167 26.7891 132.139 26.8944H127.98C127.98 27.0828 128.153 27.1567 128.332 27.48H151.289C151.46 27.1567 151.083 26.778 150.93 26.4529C149.304 25.8378 149.313 24.2953 149.214 22.6013C149.232 22.5385 149.124 22.376 149.14 22.025C148.899 21.7978 147.829 19.0768 148.314 16.9376L148.673 16.2338C149.006 15.7554 148.647 15.5041 148.89 14.998L153.723 14.0614C153.813 14.0152 153.785 13.8157 153.695 13.7271L152.231 14.006C151.063 13.5128 149.348 12.4192 148.217 10.9395C148.566 8.53994 148.395 6.59107 148.163 5.29429C148.863 4.7087 149.446 4.14898 149.446 4.14898C149.931 4.44639 150.038 4.30045 150.1 4.14898C150.029 4.05846 149.302 3.74258 149.42 3.4267C149.878 3.55416 149.977 3.41007 150.047 3.15699L149.723 3.03877H149.714L149.769 2.86882C149.86 2.67855 150.288 2.85958 150.461 2.80601C150.748 2.63422 150.424 2.36267 150.524 2.12991C149.85 1.55356 148.638 1.54248 147.9 1.01232C147.678 0.578207 147.579 0.399022 147.343 0.227226C147.093 0.0535825 146.033 -0.0461701 145.835 0.0203316C145.636 0.0923751 145.259 0.443356 145.259 0.443356C144.495 0.607763 144.037 0.35284 143.517 0.0388043C143.517 0.0388043 143.625 0.641014 144.227 0.895937C143.695 1.11946 143.464 1.5628 143.373 2.13176C142.645 2.28508 142.619 3.0166 142.709 3.33987C142.117 3.70194 142.169 4.18038 142.386 4.65882C141.847 5.01904 141.928 5.53997 142.08 5.93898C141.631 6.21792 142.08 6.98454 142.152 7.43712C143.438 7.16742 145.046 10.0251 147.361 10.3761C147.794 8.33674 147.244 7.33737 146.751 6.32691C147.128 6.11263 147.533 5.80598 147.928 5.48825C148.163 6.77949 148.324 8.64523 148.073 10.7825C148.055 10.764 148.037 10.7548 148.027 10.7363C147.875 10.7363 147.731 10.6366 147.613 10.5923C147.641 10.6551 147.91 11.0799 147.856 11.1612C147.856 11.1612 147.102 11.6581 145.619 11.0338C145.224 11.9648 140.123 14.2554 140.123 14.2554C140.312 15.6704 140.986 16.6088 141.676 17.368C142.772 18.1882 143.94 18.6039 145.321 18.892C145.608 19.6402 146.545 22.1488 146.626 22.5459C146.725 22.9523 146.948 22.9523 146.948 22.9523C147.074 23.1315 147.514 23.924 147.56 24.3027L147.669 25.6549C147.722 25.9615 148.118 25.738 148.198 25.9985L148.011 26.8981L132.743 26.9073C132.956 25.8359 132.41 24.8957 132.697 23.9406C132.079 22.8674 130.416 22.1192 130.694 20.7134C131.503 19.594 134.025 18.4949 133.451 17.1408C135.741 15.977 136.955 17.9167 139.119 17.78C139.873 17.7356 140.717 17.6544 141.409 17.4475C140.546 16.7067 139.729 15.6076 139.297 14.6322C134.763 16.4629 130.344 17.9776 125.411 18.9807L125.033 18.8625C124.666 18.916 119.241 20.1445 117.795 20.7024C117.418 20.477 117.004 20.3144 116.572 20.2332H116.699C117.157 20.2332 117.867 19.9801 118.362 19.8083C120.473 19.0324 121.246 16.0214 122.188 14.1076C123.023 17.0836 124.936 17.3292 126.058 16.9598L126.157 17.8982C126.157 17.8982 127.129 17.8613 127.866 17.5638C127.784 17.3921 127.693 16.9155 127.622 16.2948C128.063 16.0694 128.304 15.8976 128.503 15.7794C128.565 16.4832 128.611 17.1501 128.394 17.5121L130.911 16.836C131.387 14.6636 132.697 11.6415 135.015 9.43032C131.906 8.18526 129.581 9.60212 128.988 10.1692C126.06 11.1095 125.944 15.1661 126.034 16.5645C125.521 16.6642 123.393 17.4031 122.388 13.7067C122.971 12.288 124.084 10.7031 125.333 9.4765C125.451 9.38414 125.324 9.24005 125.074 9.38414C122.559 11.1169 121.643 14.1667 120.286 16.7363C119.226 18.3342 117.799 19.1987 115.659 19.1082C112.983 19.0731 111.679 16.2671 110.457 14.4457C108.581 10.3152 103.713 11.793 100.101 10.91C99.8965 10.8102 99.501 9.60951 98.916 9.65569C98.5113 9.69079 98.8976 10.1157 98.6622 10.2524C98.2041 10.0602 97.827 9.72773 97.2531 9.82748C96.9036 9.89953 96.8043 10.2782 96.83 10.6126C97.1115 11.9297 98.5113 12.506 99.5617 12.9845C99.9664 13.5811 99.8119 15.663 99.4808 16.3761C99.0485 17.1796 97.3506 16.8896 97.0103 18.7202C96.9459 19.0915 97.0268 19.4056 97.1795 19.7122C96.5247 20.065 95.9654 20.5694 95.5626 21.2011C94.8433 21.3729 94.1443 21.5706 93.4858 21.8033C93.3147 21.868 93.3147 21.9677 93.541 22.0195C94.045 22.1192 94.5637 22.2097 95.0862 22.2744V22.2541H95.0935ZM148.644 12.0331C149.262 12.7092 150.746 13.7474 151.697 14.0817L148.949 14.5934C149.254 13.4223 148.202 12.9715 148.644 12.0331ZM148.94 2.57141C149.039 2.52708 149.335 2.63606 149.451 2.67116C149.525 2.68964 149.497 2.84296 149.46 2.97781C149.28 3.02214 149.002 2.92424 148.966 2.82633C148.914 2.72658 148.842 2.61759 148.94 2.57141ZM148.956 3.27522C148.993 3.48211 149.083 3.70748 149.199 3.88851C149.19 3.97903 148.686 4.44639 148.094 4.95069C147.952 4.23026 147.807 3.73334 147.772 3.53568C148.005 3.36574 148.634 3.1847 148.956 3.27522ZM146.335 0.750003C146.434 0.713058 146.65 0.777712 146.703 0.822046C146.756 0.868228 146.712 1.03818 146.712 1.10098C146.712 1.1564 146.453 1.28386 146.453 1.28386C146.453 1.28386 146.199 1.0936 146.199 1.02894H146.19C146.228 0.929188 146.28 0.838672 146.335 0.750003ZM146.657 6.09046C146.326 5.42914 146.066 4.72717 146.138 3.70748C146.453 3.70748 146.911 3.91438 147.512 3.63544C147.512 3.63544 147.693 4.2044 147.88 5.13357C147.43 5.50303 146.964 5.87248 146.657 6.09046ZM142.544 17.5361C141.558 17.0392 142.167 17.453 142.454 17.2387C144.008 17.9592 144.799 17.7892 145.967 17.6525C146.127 17.8686 146.363 18.0682 146.363 18.3471C144.931 18.7627 143.819 18.2289 142.535 17.5361H142.544ZM148.151 25.2393C148.06 24.48 148.014 23.9388 147.665 23.5786C147.396 22.8304 146.596 20.7264 146.02 18.8329C146.37 18.4912 146.633 18.6722 146.865 19.6088C147.082 20.3662 147.35 20.9979 147.547 21.6297C147.816 22.2688 148.014 23.1186 148.221 23.5601C148.221 23.5601 148.392 23.597 148.498 23.839C148.993 25.2393 149.127 25.4628 149.039 26.1296C149.162 26.6543 149.902 26.2294 149.828 26.8796H148.276L148.956 26.8704C148.482 26.3661 148.824 25.6179 148.151 25.2393ZM117.745 26.4935C117.315 26.8168 116.792 27.0256 116.228 27.0865C116.174 27.0699 116.128 26.9609 116.128 26.887L116.038 24.94C116.029 24.9215 116.066 24.8938 116.084 24.8846C116.138 24.8661 116.274 24.8125 116.316 24.7848C116.344 24.7756 116.397 24.7664 116.415 24.7848L117.692 26.2737C117.736 26.3273 117.773 26.4455 117.736 26.4972L117.745 26.4935ZM115.77 27.1142C115.256 27.0958 114.771 26.9535 114.342 26.7171C114.315 26.6635 114.324 26.5379 114.361 26.4843L115.427 24.8513C115.437 24.8329 115.483 24.8329 115.501 24.8421C115.545 24.8513 115.652 24.8864 115.714 24.8957C115.742 24.8957 115.788 24.9234 115.788 24.9511L115.878 26.9073C115.887 26.9812 115.823 27.0958 115.77 27.1142ZM113.084 23.0558C113.012 23.0299 112.915 22.9394 112.915 22.884C113.014 22.6143 113.137 22.352 113.301 22.1266C113.56 22.0546 113.829 21.9807 114.09 21.9105L114.953 23.0022L114.918 23.0114C114.362 23.0743 113.84 23.1112 113.345 23.1204L113.086 23.0465V23.0558H113.084ZM115.51 20.8206C115.564 20.8372 115.61 20.9536 115.61 21.0164L115.617 21.1716C115.106 21.2713 114.594 21.3877 114.109 21.5041C114.081 21.4413 114.064 21.3692 114.09 21.3323C114.504 21.0533 114.99 20.8815 115.503 20.8206H115.51ZM115.238 22.9468L114.361 21.8477C114.782 21.7479 115.214 21.6482 115.634 21.5687L115.698 22.8563C115.525 22.8932 115.383 22.9209 115.238 22.9468ZM115.148 23.2996V23.3255C115.104 23.3901 115.067 23.4529 115.034 23.5176C115.025 23.5342 114.979 23.5712 114.951 23.5712L114.324 23.4012C114.592 23.3643 114.872 23.3458 115.15 23.2922V23.2996H115.148ZM116.318 23.065C116.299 23.0743 116.264 23.0743 116.237 23.065H116.228L116.318 23.0465V23.065ZM115.948 22.7935L115.886 21.5115C116.413 21.4117 116.927 21.3304 117.429 21.2695C117.422 21.323 117.403 21.3785 117.385 21.4209L116.603 22.6124C116.371 22.6863 116.156 22.7417 115.948 22.7935ZM117.593 21.5595C117.62 21.5041 117.734 21.4413 117.789 21.4505C118.012 21.6315 118.22 21.8384 118.389 22.0656C117.931 22.2171 117.445 22.3704 116.962 22.5164L117.593 21.5595ZM115.869 21.1254L115.86 21.0016C115.86 20.9277 115.913 20.804 115.968 20.7947C116.299 20.804 116.605 20.8668 116.903 20.9665C116.551 21.009 116.209 21.0626 115.869 21.1254ZM111.303 22.9394C111.132 22.884 111.18 22.8396 111.278 22.7935C111.618 22.6568 111.995 22.5238 112.4 22.3963C112.3 22.6124 112.229 22.847 112.164 23.0909C111.879 23.065 111.592 23.0207 111.303 22.9394ZM112.76 23.4345C113.023 23.4529 113.283 23.4437 113.542 23.4437L114.879 23.8039C114.898 23.8132 114.916 23.8501 114.916 23.8778C114.916 23.9314 114.925 24.0681 114.935 24.129C114.935 24.1568 114.925 24.1752 114.898 24.1845L113.121 24.9677C113.047 24.9954 112.924 24.9954 112.876 24.9511C112.768 24.6352 112.705 24.3008 112.705 23.9591C112.705 23.7781 112.734 23.6063 112.76 23.4345ZM113.056 25.3741C113.056 25.3205 113.156 25.23 113.211 25.2023L115.006 24.4449C115.025 24.4357 115.06 24.4634 115.069 24.48C115.106 24.517 115.15 24.5798 115.196 24.6167C115.214 24.6352 115.231 24.6888 115.223 24.7072L114.155 26.3495C114.118 26.4049 114 26.4677 113.947 26.4492C113.57 26.161 113.273 25.8008 113.066 25.3759H113.056V25.3741ZM114.125 26.5933C114.107 26.5841 114.088 26.5748 114.079 26.5656L114.125 26.5933ZM118.104 26.1961C118.051 26.222 117.924 26.1592 117.881 26.1056L116.605 24.626C116.586 24.6075 116.605 24.5724 116.614 24.5447C116.651 24.4985 116.686 24.4449 116.704 24.3895C116.723 24.3636 116.759 24.3359 116.785 24.3359L118.663 24.8606C118.726 24.8772 118.825 24.9418 118.843 24.9954C118.678 25.4443 118.437 25.8599 118.104 26.1961ZM118.965 24.5632C118.93 24.6167 118.794 24.6352 118.724 24.6167L116.855 24.1013C116.829 24.0939 116.82 24.057 116.82 24.0293C116.82 23.9572 116.811 23.8871 116.802 23.8132C116.802 23.7873 116.811 23.7319 116.838 23.7226L118.652 23.0299C118.715 23.0114 118.842 23.0207 118.884 23.065C118.965 23.344 119.02 23.6432 119.02 23.9499C119.02 24.1568 119.002 24.3655 118.958 24.5742L118.965 24.5632ZM118.724 22.6143C118.724 22.6771 118.625 22.7768 118.564 22.8045L118.687 22.7584L116.748 23.4899C116.73 23.4991 116.693 23.4714 116.684 23.4529C116.64 23.3994 116.594 23.3347 116.542 23.2811C116.524 23.2719 116.505 23.2183 116.515 23.1999L116.686 22.9449C117.271 22.7824 117.909 22.5847 118.58 22.352C118.636 22.4425 118.689 22.533 118.726 22.6217V22.6143H118.724ZM123.772 19.8268C122.936 20.4382 123.332 21.1531 122.811 21.2972C122.622 21.2695 121.562 21.469 121.402 21.5392C121.044 21.2067 120.676 20.9259 120.126 20.7818C121.169 20.3495 122.828 19.9265 123.772 19.8268ZM120.35 21.3415C120.17 21.432 119.686 21.6204 119.038 21.8477C118.875 21.602 118.687 21.3785 118.472 21.1808C119.29 21.1346 119.955 21.1808 120.35 21.3415ZM129.439 10.644C128.162 11.9352 128.326 13.8471 128.479 15.3619C128.183 15.5688 127.824 15.7498 127.589 15.8865C127.447 14.0356 127.653 11.2665 129.439 10.644ZM97.5897 11.2942C97.3727 11.006 97.0581 10.5719 97.3028 10.2634C97.483 10.0473 97.8509 10.2191 98.057 10.3189C98.2464 10.4094 99.6647 11.1852 100.06 11.2942C102.934 12.0147 106.572 10.9506 108.862 13.027C108.971 13.1322 109.052 13.232 109.024 13.3779C105.673 11.0781 100.634 14.4697 97.5897 11.2942ZM100.292 15.0017C100.535 15.1439 100.625 15.5263 100.893 15.7406C101.317 16.4536 102.124 16.6975 102.556 17.3108C102.411 17.3292 102.269 17.32 102.124 17.2831C101.846 17.2295 101.738 17.1501 101.497 17.0411C101.379 16.8434 101.065 16.7714 100.824 16.9044C100.627 16.9413 100.088 16.9136 99.7272 16.8139C99.8008 16.2357 100.347 15.687 100.292 15.0017ZM96.9422 21.1808L97.8234 22.1654C97.1869 22.1562 96.5743 22.1284 95.9912 22.0823C95.947 22.0195 95.9287 21.9677 95.9378 21.9308C96.0464 21.6943 96.1788 21.4801 96.3425 21.2732C96.5412 21.2362 96.7454 21.2104 96.9422 21.1919V21.1808ZM102.133 21.4228C102.242 21.578 102.332 21.7479 102.411 21.9197C101.981 21.9825 101.524 22.0287 101.039 22.0656L101.729 21.4801C101.902 21.3415 102.091 21.3692 102.133 21.4228ZM101.532 21.2695L100.564 22.0989C100.312 22.1174 100.06 22.1266 99.8082 22.1358L100.204 21.009C100.699 21.0256 101.182 21.0533 101.626 21.0995C101.607 21.1623 101.589 21.2233 101.543 21.2713H101.532V21.2695ZM101.3 26.3753C100.951 26.6266 100.564 26.8076 100.141 26.935C100.069 26.9166 99.9241 26.7983 99.8818 26.6284L99.5047 24.565C99.4955 24.5373 99.5047 24.5096 99.5304 24.4911C99.604 24.4745 99.6757 24.4375 99.7364 24.4006C99.764 24.3821 99.7916 24.3914 99.8082 24.4098L101.212 25.9615C101.353 26.1241 101.344 26.3125 101.302 26.3679V26.3753H101.3ZM98.3182 22.714C98.3366 22.7325 98.3458 22.7768 98.3274 22.7953C98.2906 22.8489 98.2722 22.8674 98.2372 22.932C98.228 22.9486 98.1913 22.9579 98.1655 22.9486L96.6019 22.3815C97.0875 22.4185 97.5732 22.4277 98.057 22.4277L98.3182 22.714ZM99.8707 22.642C99.8247 22.5958 99.7714 22.5589 99.7162 22.5238C99.6905 22.5145 99.6813 22.4961 99.6905 22.4591L99.7162 22.3778L100.266 22.352L99.9425 22.6309C99.9241 22.6494 99.8983 22.6586 99.8707 22.642ZM99.5028 22.1451C99.3667 22.1543 99.2306 22.1543 99.0981 22.1635H99.0889L98.8719 20.9998C98.9436 20.9998 99.008 20.9905 99.0705 20.9813C99.3575 20.9813 99.6371 20.9905 99.9149 20.9998L99.5028 22.1451ZM98.5959 21.0164L98.8038 22.1635H98.2005L97.277 21.1328C97.6964 21.0903 98.1379 21.0441 98.5959 21.0164ZM98.8204 22.4148C98.8204 22.424 98.8204 22.4425 98.8112 22.4425C98.7394 22.4683 98.675 22.5053 98.6051 22.5422C98.5867 22.5589 98.5518 22.5515 98.5426 22.533L98.4433 22.424C98.5684 22.4148 98.7026 22.424 98.8296 22.4148H98.8204ZM95.6932 22.5958C95.7392 22.533 95.9195 22.4536 96.0979 22.5053L98.0662 23.2183C98.0919 23.2257 98.1103 23.2534 98.1103 23.2811C98.0919 23.344 98.0919 23.4086 98.0919 23.4714C98.0919 23.4991 98.0662 23.5176 98.0386 23.525L95.9802 23.9037C95.7815 23.9406 95.6398 23.8409 95.6123 23.7707C95.6031 23.6709 95.5773 23.5712 95.5773 23.464C95.5791 23.1629 95.6233 22.8747 95.6932 22.5958ZM95.73 24.4542C95.7392 24.3803 95.8569 24.2196 96.0353 24.1845L98.0809 23.8039C98.1085 23.7965 98.1361 23.8132 98.1453 23.8409C98.1729 23.8963 98.1729 23.9314 98.217 23.9868C98.2262 24.0127 98.217 24.0404 98.1986 24.0588L96.5633 25.3759C96.383 25.5126 96.2046 25.4849 96.1586 25.4314C95.971 25.1303 95.8293 24.7959 95.73 24.4542ZM96.2248 25.5274C96.2064 25.4997 96.188 25.4812 96.1788 25.4535C96.188 25.472 96.2064 25.4997 96.2248 25.5274ZM96.6111 25.9966C96.5743 25.932 96.6019 25.7177 96.7436 25.5995L98.3697 24.2898C98.3881 24.2639 98.4249 24.2547 98.4433 24.2824C98.4874 24.3175 98.5573 24.3784 98.6235 24.4061C98.6511 24.4246 98.6585 24.4431 98.6511 24.4782L97.9411 26.4548C97.8693 26.6543 97.7075 26.7337 97.6357 26.7152C97.2568 26.5379 96.9073 26.294 96.6111 25.9966ZM97.805 26.8076C97.7792 26.7983 97.7608 26.7891 97.7424 26.7817L97.805 26.8076ZM98.2998 26.9628C98.228 26.9166 98.1379 26.7466 98.2005 26.5656L98.9105 24.5798C98.9197 24.5539 98.9455 24.5354 98.9638 24.5447C99.0282 24.5539 99.0908 24.5632 99.1625 24.5632C99.1901 24.5632 99.2085 24.5798 99.2177 24.6167L99.604 26.6838C99.6298 26.8815 99.5396 27.0071 99.4679 27.0533C99.3777 27.0625 99.2802 27.0791 99.1809 27.0791C98.8737 27.0773 98.5776 27.033 98.2998 26.9628ZM101.696 26.041C101.714 26.0225 101.73 26.0059 101.74 25.9874C101.719 26.0059 101.714 26.0225 101.696 26.041ZM101.819 25.8969C101.756 25.932 101.55 25.9227 101.425 25.7879L100.023 24.2177C100.014 24.1992 100.005 24.1734 100.023 24.1457C100.06 24.1087 100.088 24.0552 100.114 24.009C100.123 23.9831 100.15 23.9831 100.178 23.9923L102.181 24.7035C102.387 24.7848 102.441 24.9548 102.422 25.0194C102.26 25.3353 102.063 25.6309 101.83 25.895H101.819V25.8969ZM102.422 24.9954C102.45 24.9418 102.485 24.8606 102.521 24.7682C102.485 24.8513 102.459 24.9234 102.422 24.9843V24.9954ZM102.656 24.3359C102.628 24.3987 102.45 24.4967 102.26 24.4449L100.275 23.7226C100.248 23.7134 100.229 23.6875 100.229 23.6691C100.239 23.597 100.248 23.5693 100.248 23.4973C100.248 23.4696 100.275 23.4511 100.292 23.4419L102.393 23.1186C102.599 23.0909 102.735 23.1906 102.753 23.2627C102.753 23.3255 102.772 23.3994 102.772 23.4696C102.773 23.7688 102.727 24.057 102.656 24.3359ZM102.647 22.5681C102.647 22.6494 102.52 22.8027 102.341 22.8396L100.257 23.1629C100.229 23.1722 100.202 23.1537 100.193 23.1278C100.176 23.0539 100.139 22.9819 100.103 22.9209C100.093 22.9025 100.093 22.8747 100.112 22.847L100.743 22.315C101.333 22.2688 101.918 22.206 102.501 22.1174C102.556 22.2688 102.601 22.4148 102.637 22.5681H102.647ZM103.715 21.4874C103.85 21.5318 103.903 21.6205 103.725 21.6685C103.552 21.7128 103.329 21.7498 103.123 21.7922C103.051 21.6112 102.943 21.4413 102.845 21.2787C103.167 21.3323 103.463 21.4043 103.715 21.4874ZM100.31 20.7208L100.391 20.4659C100.474 20.2682 100.634 20.2054 100.715 20.2147C101.048 20.3754 101.352 20.5841 101.624 20.8354C101.192 20.7836 100.752 20.7467 100.31 20.7208ZM100.033 19.9708C100.104 20.017 100.185 20.2054 100.132 20.3772L100.014 20.7116C99.6923 20.6931 99.3777 20.6746 99.0613 20.6839C98.9804 20.6839 98.9013 20.7024 98.8112 20.7024L98.7302 20.2498C98.7026 20.054 98.802 19.9173 98.8645 19.8896C98.973 19.8803 99.0705 19.8545 99.1699 19.8545C99.4679 19.8545 99.7548 19.8988 100.033 19.9708ZM98.1913 20.0078C98.2722 20.017 98.4157 20.1352 98.4598 20.3144L98.515 20.5934C98.3366 20.4308 98.1747 20.2498 98.0202 20.0595L98.1913 20.0078ZM98.0754 20.7559C97.7332 20.7929 97.4021 20.828 97.0783 20.8834C97.0066 20.7467 97.0066 20.6229 97.0416 20.5767C97.2053 20.4493 97.3837 20.3421 97.564 20.2516C97.7148 20.4234 97.8841 20.5934 98.0754 20.7559ZM94.4442 21.7294C94.7164 21.6297 95.0383 21.5392 95.4044 21.4597C95.3051 21.6297 95.226 21.82 95.1542 22.0084C94.904 21.9807 94.6502 21.9456 94.4442 21.9086C94.2749 21.8828 94.3117 21.7756 94.4442 21.7294ZM157.744 11.4752C157.67 11.5381 157.654 11.6175 157.707 11.6286C157.815 11.647 157.878 11.6914 158.012 11.8078C158.075 11.8447 158.056 11.7357 158.04 11.6748C157.975 11.5103 157.834 11.4106 157.753 11.4771H157.744V11.4752Z" fill="black"/>
<path d="M155.155 26.8889H151.769C151.725 27.1253 151.993 27.286 152.146 27.4652H155.849L156.89 26.9609C157.07 26.5083 156.701 26.1112 156.71 25.7417C156.772 24.6611 156.169 23.5786 155.854 22.5847C156.061 22.3667 156.324 21.8643 156.664 21.9973C157.455 23.2331 157.598 24.8218 157.464 26.3919C157.383 26.7873 156.726 27.1401 156.745 27.5095C156.754 27.637 157.626 27.5816 157.985 27.2749C158.049 27.0237 158.516 26.7078 158.658 26.6727C158.829 26.1943 158.568 26.2109 158.614 25.9227C158.695 25.7269 158.586 23.5786 158.433 23.3532C158.378 23.3181 158.36 23.3181 158.351 23.3181C158.191 22.8932 158.594 22.2448 158.755 21.8384L159.942 21.7294C159.797 20.6746 159.419 19.5737 159.188 18.4912C159.331 18.2381 159.591 18.0386 159.833 17.8964C161.073 17.0743 159.977 15.7387 159.942 14.7117C159.727 14.1815 159 13.764 158.926 13.1692C159.081 13.2874 159.199 13.2412 159.223 13.2505C159.583 13.0085 159.565 12.6446 159.386 12.2049C159.935 11.5565 160.264 11.2591 160.363 11.0504C160.328 10.5091 159.456 9.70556 158.954 9.70556C158.649 9.86628 158.45 10.2025 157.904 10.6347C157.885 10.6532 157.24 10.4112 157.041 10.6181C156.853 10.7696 156.914 11.2757 157.267 11.5454C157.221 11.6803 157.186 11.7357 157.113 11.8872C157.078 11.9703 157.059 12.0608 157.104 12.1033C157.221 12.2031 157.267 12.3638 157.186 12.6187C157.094 12.8792 157.39 13.0694 157.49 13.1156C157.508 13.1156 157.545 13.1507 157.58 13.1969C157.617 13.4943 156.627 14.0079 156.627 14.2332C156.555 14.9186 156.136 14.8484 155.722 17.0836C155.775 17.6267 155.766 18.1125 155.731 18.5355C155.227 19.8711 154.813 20.6469 154.473 21.6112C154.195 22.4055 155.775 24.7146 155.803 26.2848C155.463 26.8076 155.181 26.7355 155.155 26.8889ZM157.733 24.4893C157.652 24.2842 157.578 23.9757 157.624 23.7596C157.76 23.6229 158.02 23.7226 158.154 23.706C158.318 24.4449 158.351 24.5539 157.733 24.4985V24.4893ZM157.744 13.4869C157.788 13.45 157.834 13.341 157.861 13.2967C158.382 12.9623 158.023 13.2061 157.501 12.9272C157.33 12.8441 157.33 12.6834 157.348 12.4488C157.385 12.1661 157.267 12.1052 157.221 12.0146C157.203 11.9777 157.286 11.8429 157.348 11.7449C157.475 11.5547 157.58 11.176 157.635 11.0873C158.498 11.1132 158.308 11.5011 158.327 11.575C158.399 11.7653 158.757 12.1606 158.936 12.2862C158.882 12.8108 158.478 12.5023 158.658 12.9808C158.614 13.8933 157.536 13.7843 157.069 14.5325C157.023 13.7843 157.677 13.7936 157.744 13.4869ZM156.763 17.4087C156.997 17.6156 157.249 17.8871 157.427 17.9333C157.545 18.2473 157.168 18.2843 157.023 18.4358C156.71 18.4819 156.583 18.1383 156.395 18.2935C156.349 18.3286 156.16 18.2935 156.16 18.2566C156.268 17.9776 156.555 17.5805 156.763 17.3994V17.4087ZM154.714 22.0453C154.6 21.4136 155.433 20.4382 155.991 18.517C156.217 18.4358 156.331 18.9604 156.664 18.7516C157.159 18.7701 156.942 20.078 157.409 19.2486C157.4 18.8791 157.39 18.4635 157.677 18.264C157.992 18.1919 158.2 18.3729 158.218 18.6519L157.733 19.4C158.649 19.437 157.446 20.9148 158.649 20.6451C158.614 21.1974 158.318 22.7565 158.102 22.6752C157.941 21.8089 157.806 22.1691 157.806 22.424C157.834 22.7565 157.834 23.0299 158.031 23.2996C157.959 23.3717 157.716 23.3624 157.644 23.3809C156.962 22.4074 156.989 21.0626 156.548 19.9985C156.476 19.9893 156.388 20.0798 156.388 20.1611C156.333 20.8021 156.092 21.7313 155.562 22.0287C155.238 22.2282 156.289 22.11 155.426 22.5164C155.757 22.7344 155.453 23.0318 155.093 23.0318C154.915 22.6438 154.78 22.328 154.725 22.0472H154.714V22.0453ZM155.623 24.1752C155.496 24.0201 155.308 23.6081 155.227 23.4252L155.731 23.2202C155.884 23.392 156.044 23.7134 156.062 23.996C155.954 24.057 155.794 24.1567 155.623 24.1752ZM139.527 13.8471C139.455 12.8293 139.867 11.9629 139.391 10.8712C139.4 10.4205 139.715 10.0769 139.634 9.66308L138.861 9.84411C138.743 10.7105 138.602 10.9894 138.716 11.8004C138.914 12.7203 139.023 13.5664 139.527 13.8471ZM131.56 16.7049C134.514 15.8754 136.545 15.1624 138.99 14.1353C137.973 11.9537 138.199 11.3201 138.28 9.92354C138.28 9.92354 137.04 9.94201 135.594 9.56332C133.887 10.6717 131.893 14.6322 131.56 16.7049ZM141.681 17.3385C141.755 17.4364 141.521 17.1833 141.681 17.3385ZM145.22 10.7253C143.98 9.85889 143.02 7.86753 141.664 8.00238C141.538 6.53195 140.892 4.0326 142.919 1.38916C143.182 1.27463 143.611 1.2266 143.774 1.02894C142.947 0.94766 141.861 1.46305 141.07 1.01047C141.07 1.01047 141.429 1.65332 141.861 1.75122C141.582 2.12991 141.034 2.39961 141.366 3.06833C140.693 3.46549 140.943 4.06955 141.151 4.4039C140.818 4.74749 140.612 5.37741 141.061 5.7561C140.504 6.35092 141.194 6.85707 141.348 7.05658C141.07 7.64955 141.339 8.11137 141.339 8.11137C141.33 8.54363 140.575 9.14769 140.298 9.34719C139.974 10.3558 140.101 12.3767 140.143 13.7104C141.997 12.8274 143.802 11.9777 145.22 10.7253ZM124.016 46.2261C124.016 45.1713 123.315 43.9262 122.344 43.3406C122.112 43.1984 121.849 43.1079 121.571 43.0894C121.807 43.0986 122.121 43.0802 122.425 42.9619C122.434 42.9527 122.443 42.9527 122.453 42.9527C123.431 42.5112 124.609 41.2477 124.609 39.1104C124.609 37.5236 123.935 36.2527 122.786 35.414C121.708 34.6289 120.431 34.4497 119.154 34.4497H109.122V37.01H111.377V49.9262H109.122V52.4772H116.246V49.9262H114.018V44.2347H118.95C120.648 44.2532 121.303 45.38 121.34 46.3443L121.456 52.4698H126.387V49.9243H124.079L124.016 46.2261ZM119.478 41.7631H114.017V37.0174H119.182C119.723 37.0174 120.387 36.999 120.907 37.2631C121.537 37.5864 122.138 38.281 122.138 39.4263C122.136 40.7434 120.933 41.7631 119.478 41.7631Z" fill="black"/>
</g>
<defs>
<clipPath id="clip0_989_2070">
<rect width="119" height="53" fill="white" transform="translate(69)"/>
</clipPath>
</defs>
</svg>
