<svg width="256" height="58" viewBox="0 0 256 58" fill="none" xmlns="http://www.w3.org/2000/svg">
<path d="M73.6762 39.2058C71.1656 39.2058 69.9589 37.2757 70.589 35.043C71.8901 30.4153 80.2503 23.5577 85.9475 23.5577C90.1019 23.5577 89.7856 27.2751 87.3501 30.4458L86.0039 31.936C81.1753 36.6743 76.699 39.2058 73.6762 39.2058ZM94.0389 8C86.7679 8.00282 78.7612 12.4509 73.7327 16.6635L74.1296 17.2389C81.9348 11.7676 92.7649 8.21006 95.7505 13.5464C97.3271 16.3614 94.651 22.0466 90.8823 26.5399C91.7835 24.5556 91.1883 20.7456 85.9333 20.7456C77.1976 20.7456 60 32.3178 60 44.161C60 48.9049 63.291 52 68.712 52C83.2223 52 102.901 28.2153 102.901 16.2693C102.901 12.0494 100.473 8 94.0389 8Z" fill="black"/>
<path d="M112.72 39.2059C111.876 39.2059 111.173 38.9111 110.733 38.373C110.274 37.8088 110.138 37.0092 110.355 36.1837C110.838 34.3925 112.768 32.9853 114.754 32.9853H119.424L117.755 39.2059H112.72ZM126.142 20.5576C124.807 18.9155 122.644 18.1808 121.097 18.1808H112.611L111.17 23.5533H119.174L119.941 23.634C119.949 23.634 120.675 23.7187 121.081 24.2642C121.408 24.7205 121.456 25.3981 121.221 26.2869L120.842 27.7009H115.8C111.46 27.7009 105.409 30.8146 104.06 35.8437C103.389 38.3515 103.977 40.5239 105.28 42.1202C106.573 43.7048 109.014 44.5795 111.65 44.5795H116.32H116.318H122.253L125.037 34.183L127.086 26.541C127.891 23.5363 127.019 21.6277 126.142 20.5576Z" fill="black"/>
<path d="M184.436 18.1807C182.14 18.1807 180.006 18.86 178.272 20.1458C176.52 21.4429 175.554 23.0015 174.978 25.1512C173.728 29.8105 177.389 32.0591 180.332 33.6532C182.442 34.7961 184.267 35.7821 183.872 37.2424C183.593 38.2904 183.135 39.2075 180.539 39.2075H172.614L171.177 44.5794H179.948C182.3 44.5794 184.471 44.0898 186.22 42.7469C187.97 41.3996 188.959 39.5226 189.571 37.2316C190.158 35.0514 189.762 32.9688 188.359 31.4148C187.19 30.1098 185.507 29.2034 184.025 28.4027C182.126 27.3806 180.334 26.4161 180.647 25.2472C180.839 24.5397 181.541 23.5532 183.075 23.5532H190.783L192.224 18.1807H184.436Z" fill="black"/>
<path d="M138.448 18.1808C136.152 18.1808 134.02 18.8601 132.284 20.1459C130.533 21.443 129.566 23.0016 128.985 25.1513C127.738 29.8106 131.402 32.0592 134.344 33.6533C136.455 34.7962 138.276 35.7822 137.884 37.2425C137.603 38.2905 137.147 39.2076 134.551 39.2076H126.628L125.187 44.5795H133.958C136.313 44.5795 138.483 44.0899 140.232 42.7471C141.985 41.3997 142.972 39.5227 143.584 37.2317C144.169 35.0515 143.772 32.9689 142.375 31.4149C141.205 30.1099 139.52 29.2036 138.035 28.4028C136.138 27.3807 134.349 26.4162 134.663 25.2473C134.851 24.5398 135.556 23.5533 137.087 23.5533H144.791L146.234 18.1808H138.448Z" fill="black"/>
<path d="M150.415 18.1807L143.535 44.5794H149.348L156.222 18.1807H150.415Z" fill="black"/>
<path d="M171.685 18.1807C161.452 18.2174 156.097 25.0321 154.398 31.3803C152.384 38.9076 156.391 44.5799 163.719 44.5799H168.63L170.067 39.208H165.158C162.416 39.208 158.644 37.0498 160.164 31.3803C161.372 26.8741 165.765 23.5537 170.585 23.5537H173.703L175.144 18.1813L171.685 18.1807Z" fill="black"/>
</svg>
