<svg width="256" height="58" viewBox="0 0 256 58" fill="none" xmlns="http://www.w3.org/2000/svg">
<path d="M215.394 18L225 40.2222H222.24L219.479 33.6667H211.198L208.438 40.2222H205.677L215.394 18ZM215.394 23.5556L211.971 31.4444H218.706L215.394 23.5556ZM47.4519 22.3333C45.9061 21.2222 44.1394 20.6667 42.152 20.6667C40.1645 20.6667 37.6249 21.6667 36.0791 23.2222C34.4229 24.8889 33.65 27 33.65 29.5556C33.65 32.1111 34.0916 33.2222 35.0854 34.5556C36.7416 37 39.3916 38.3333 42.2624 38.3333C45.1332 38.3333 45.9061 37.7778 47.4519 36.6667V39.4444C45.7957 40.3333 43.9186 40.6667 42.0415 40.6667C40.1645 40.6667 37.6249 40 35.7479 38.6667C32.6562 36.6667 31 33.3333 31 29.5556C31 25.7778 32.1042 23.5556 34.3125 21.4444C36.5208 19.3333 39.0603 18.3333 42.2624 18.3333C45.4644 18.3333 45.7957 18.7778 47.4519 19.5556V22.3333ZM69.4246 18L79.0307 40.2222H76.2703L73.51 33.6667H65.2288L62.4684 40.2222H59.708L69.4246 18ZM69.4246 23.5556L66.0017 31.4444H72.7371L69.4246 23.5556ZM94.0472 20.8889V28H96.0347C99.3472 28 101.003 27.5556 101.003 24.5556C101.003 21.5556 99.3472 20.8889 96.0347 20.8889H94.0472ZM91.5077 40.2222V18.7778H96.4764C98.4639 18.7778 100.01 18.7778 101.335 19.8889C102.549 20.8889 103.322 22.5556 103.322 24.6667C103.322 28.2222 101.335 30 97.5805 30H97.2493L105.31 40.2222H102.108L94.3785 30H94.0472V40.2222H91.5077ZM128.166 41L121.541 25.6667L118.891 40.2222H116.462L120.768 18L128.166 35.6667L135.563 18L139.87 40.2222H137.441L134.791 25.6667L128.166 41ZM154.555 40.2222V18.7778H157.094V40.1111H154.555V40.2222ZM172.332 40.2222V18L187.79 35V18.7778H190.219V41L174.651 24.1111V40.1111H172.332V40.2222Z" fill="black"/>
</svg>
