<svg width="256" height="58" viewBox="0 0 256 58" fill="none" xmlns="http://www.w3.org/2000/svg">
<path d="M98.2679 50.2987C97.2201 50.2987 96.2354 50.1757 95.2033 50.0455L95.0455 50.0269C91.2502 49.5303 87.7665 49.2584 84.3201 49.2584C77.3024 49.2584 71.8134 49.9295 65.6024 50.8726C60.7464 51.6024 56.6584 52.1261 52.8919 52.232C47.5665 52.398 42 51.3305 42 44.8453C42 37.2439 50.4287 27.8725 58.3809 21.5146C66.0718 15.3729 74.5292 11.0084 79.9981 8.80901C83.6483 7.34082 88.1067 6 90.8899 6C93.567 6 93.1478 8.36111 91.1828 11.7354C89.3325 14.9136 88.4957 15.7206 85.9062 16.0512L85.4813 16.1041C80.9943 16.6579 74.5665 17.4492 62.6828 26.5216C55.7038 31.8477 49.3579 39.2258 49.4756 43.0279C49.5431 45.4377 51.3344 46.2061 53.5234 46.2061C56.5966 46.2061 60.0718 45.5737 64.3981 44.788L64.9895 44.6793C65.8837 44.5176 66.8038 44.3473 67.7455 44.1727C74.4244 42.9349 82.1612 41.5011 88.7971 41.5011C90.8411 41.5011 92.7488 41.7243 94.4813 42.1622C95.8048 42.5028 96.6632 43.2698 97.5187 44.3988C98.2099 45.3256 98.8125 46.3149 99.3187 47.3538C99.7478 48.2381 100.117 49.1225 99.8454 49.6863C99.6588 50.0655 99.2426 50.2987 98.2679 50.2987Z" fill="black"/>
<path fill-rule="evenodd" clip-rule="evenodd" d="M189.323 44.4661C184.447 43.0766 181.935 39.9843 180.962 37.2039C182.172 36.1879 183.606 35.2606 185.071 34.3133L185.083 34.3047C185.548 34.0042 186.016 33.7023 186.479 33.3932C187.609 32.6448 187.922 31.8763 188.378 30.6915C188.924 29.2619 189.479 27.2314 189.508 26.2197C189.527 25.4813 189.469 24.9075 188.535 24.9461C187.628 24.9747 184.474 27.0167 183.708 27.5419C179.404 30.4683 175.735 34.0457 172.562 38.1669C173.993 32.3629 175.638 23.8085 176.337 19.4726L176.355 19.3667L176.383 19.2008V19.1993C176.605 17.8313 176.892 16.0755 176.163 14.8663C175.57 13.8747 173.885 11.9099 172.562 11.1615C171.297 10.4518 170.645 11.2975 170.411 12.4451C169.791 15.5031 169.371 17.5566 168.914 19.7774L168.818 20.2439L168.388 22.3503C167.394 27.2214 166.507 31.0893 164.308 36.5342C163.072 39.605 160.279 45.0113 157.135 45.0299C154.599 45.0385 154.913 39.9599 155.091 37.0636C155.129 36.4583 155.16 35.9475 155.159 35.6012C155.159 34.8914 155.043 33.1513 153.349 32.7621C149.908 31.988 148.247 31.0077 147.222 30.4024C146.562 30.0132 146.166 29.7785 145.727 29.8558C145.036 29.9817 144.627 30.6142 144.334 31.5572C144.115 32.2942 143.914 33.0168 143.717 33.728L143.716 33.7309L143.714 33.7352V33.738C142.908 36.6286 142.158 39.3231 140.394 41.9962C139.372 43.5517 137.483 45.3805 136.034 45.389C134.574 45.389 134.077 44.0969 134.077 42.7947C134.077 39.7066 134.809 36.5628 135.311 34.4092C135.403 34.0199 135.487 33.6636 135.556 33.346C135.907 31.7905 135.06 31.5172 134.262 31.2853C133.229 30.9834 131.945 30.9448 131.469 30.9448C127.078 30.9634 123.02 32.3629 119.622 35.1433C118.322 36.2122 117.257 37.4915 116.19 38.7751L115.895 39.1285L115.766 39.2845C114.373 40.9645 110.733 45.3518 108.527 45.3604C106.951 45.3604 106.776 43.5817 106.766 42.3554C106.745 36.9606 109.364 28.7382 111.291 23.8099C111.693 22.7825 112.102 21.788 112.489 20.8521C113.331 18.8001 114.06 17.03 114.347 15.8279C114.688 14.3898 114.309 13.1062 113.511 12.0359C112.448 10.5977 111.261 9.59747 110.2 9.10235C109.451 8.75176 108.722 8.96498 108.215 9.67474C107.455 10.7423 106.487 12.82 105.988 13.8918L105.969 13.9319L105.85 14.1852C102.462 21.5146 99.9215 30.069 99.9517 38.1669C99.9617 42.5128 100.448 50.4647 106.405 50.4447C109.685 50.4347 112.556 48.4413 114.649 46.0516C115.058 48.8606 117.297 50.4547 120.392 50.4447C123.818 50.4347 126.923 48.4814 129.016 45.8856C129.696 48.7433 131.944 50.4547 134.875 50.4447C141.911 50.4247 146.097 42.6774 147.966 36.8833C148.19 37.0293 148.56 37.1266 148.56 37.1266C148.501 37.9553 148.468 38.7857 148.463 39.6165C148.473 44.1641 149.554 50.4633 155.49 50.4447C160.552 50.4247 163.811 45.7396 166.148 41.8517H166.295C166.166 42.6615 166.026 43.4696 165.876 44.2757V44.2786L165.874 44.2886C165.576 45.9285 165.29 47.4983 165.165 49.3257C165.093 50.3989 166.5 50.3846 167.297 50.3774H167.472C170.722 50.3774 170.928 49.6877 171.642 47.3166C171.722 47.0476 171.811 46.7542 171.91 46.4394C172.542 44.4174 174.06 42.9106 175.57 41.5111C176.338 43.1338 178.032 45.8856 180.544 47.9949C182.091 49.287 184.252 50.4061 186.139 50.4061C186.957 50.4061 187.365 50.2987 187.989 49.8122C189.294 48.8019 190.315 46.644 190.443 45.877C190.578 45.1272 189.956 44.6507 189.323 44.4661ZM125.347 44.0768C124.694 44.6406 123.768 45.0113 122.941 45.0113C121.9 45.0113 121.003 44.4375 121.003 42.9306C120.995 39.1872 126.085 35.833 129.482 35.863C129.439 36.0262 129.399 36.1893 129.359 36.3524L129.352 36.3811C128.657 39.1343 127.984 41.7987 125.347 44.0768Z" fill="black"/>
<path d="M202.325 48.1208C205.751 46.2649 208.302 43.795 208.088 40.4122C207.871 37.0064 203.246 36.1521 200.051 35.5612C199.359 35.4338 198.735 35.3179 198.237 35.192C197.548 35.0074 197.129 34.8127 197.129 34.4622C197.129 34.1903 197.351 33.9184 197.742 33.7238C198.784 33.2158 201.554 32.6076 202.922 32.3085C203.226 32.2427 203.46 32.1912 203.592 32.1597C205.226 31.7519 205.908 29.9532 206.219 28.475C206.355 27.8138 206.035 27.3187 205.275 27.3187C204.653 27.3187 203.017 27.5334 201.596 27.9312C198.433 28.8155 190.315 31.1194 190.315 36.0477C190.315 38.8782 194.021 39.5808 197.107 40.1646C199.309 40.5824 201.197 40.9402 201.197 41.9676C201.197 43.3671 199.444 44.1556 197.77 44.6707C196.674 45.0056 195.416 45.1072 194.513 45.1787C194.238 45.2016 193.995 45.2217 193.8 45.2431C192.465 45.3891 191.776 46.0116 191.298 46.936C190.912 47.6859 190.649 48.4927 190.519 49.3257C190.384 50.3088 190.811 50.7653 191.473 50.8239C194.569 51.0958 198.725 50.0655 202.325 48.1208Z" fill="black"/>
<path fill-rule="evenodd" clip-rule="evenodd" d="M212.312 46.0988C212.109 45.9342 211.799 45.8469 211.369 45.8469H209.987V49.4143H210.541V47.8789H211.125L212.099 49.4143H212.693L211.671 47.8403C211.916 47.82 212.149 47.7285 212.343 47.577C212.528 47.421 212.615 47.1877 212.615 46.8672C212.615 46.5266 212.518 46.2648 212.312 46.0988ZM211.125 47.421C211.252 47.421 211.369 47.421 211.476 47.411C211.579 47.4057 211.681 47.383 211.777 47.3437C211.862 47.3076 211.933 47.2467 211.982 47.1691C212.037 47.068 212.064 46.9536 212.058 46.8386C212.065 46.7402 212.042 46.642 211.992 46.5567C211.946 46.4903 211.886 46.4338 211.817 46.3907C211.738 46.3492 211.652 46.323 211.563 46.3134C211.47 46.3022 211.376 46.2955 211.282 46.2934H210.551V47.431H211.125V47.421Z" fill="black"/>
<path fill-rule="evenodd" clip-rule="evenodd" d="M208.351 46.4107C208.666 45.6813 209.257 45.105 209.996 44.8066C210.366 44.6506 210.765 44.5734 211.183 44.5734C211.602 44.5734 212.001 44.6506 212.371 44.8066C213.105 45.1085 213.691 45.6834 214.006 46.4093C214.173 46.7799 214.249 47.1777 214.249 47.6056C214.249 48.0435 214.173 48.4513 214.006 48.8305C213.841 49.1997 213.626 49.5317 213.345 49.8036C213.072 50.0755 212.74 50.2901 212.371 50.4447C211.994 50.5978 211.59 50.6737 211.183 50.6679C210.765 50.6679 210.366 50.5906 209.996 50.4447C209.631 50.2936 209.298 50.0762 209.014 49.8036C208.727 49.5294 208.501 49.1978 208.351 48.8305C208.184 48.4437 208.101 48.0264 208.107 47.6056C208.107 47.1878 208.186 46.7799 208.351 46.4107ZM208.849 48.6559C208.975 48.9765 209.15 49.2498 209.374 49.483C209.606 49.7258 209.885 49.9184 210.195 50.0489C210.505 50.1794 210.838 50.2449 211.174 50.2415C211.524 50.2415 211.856 50.1728 212.156 50.0368C212.459 49.9009 212.732 49.7149 212.956 49.483C213.183 49.2425 213.365 48.9621 213.491 48.6559C213.617 48.3354 213.686 47.9948 213.686 47.6156C213.686 47.2564 213.617 46.9159 213.491 46.5953C213.373 46.2882 213.191 46.01 212.956 45.7797C212.729 45.5451 212.457 45.3595 212.156 45.2345C211.847 45.0968 211.512 45.027 211.174 45.0298C210.814 45.0298 210.482 45.0985 210.172 45.2345C209.874 45.3632 209.603 45.5478 209.374 45.7782C208.907 46.2763 208.649 46.9337 208.652 47.6156C208.664 47.9848 208.721 48.3354 208.849 48.6559Z" fill="black"/>
</svg>
