<svg width="256" height="58" viewBox="0 0 256 58" fill="none" xmlns="http://www.w3.org/2000/svg">
<path fill-rule="evenodd" clip-rule="evenodd" d="M198.5 16.15L216.21 34.09L216.04 19.6C216.04 18.79 215.74 18.31 215.36 17.87C214.99 17.43 214.38 17.26 213.13 17.13C212.59 17.1 212.32 16.93 212.32 16.59C212.32 16.25 212.52 16.08 212.96 16.08L220.61 16.15C221.02 16.15 221.08 16.32 221.08 16.66C221.08 17 220.61 17.17 220.1 17.24C218.85 17.38 218.37 17.34 218.03 17.71C217.69 18.08 217.45 18.73 217.45 19.61L217.38 20.9C217.38 28.35 217.62 36.1 217.62 43.55L193.79 19.92C193.82 25.07 193.82 30.21 193.86 35.39C193.83 37.12 193.89 38.44 193.93 39.42C193.93 40.74 194.51 41.25 195.01 41.42C196.23 41.86 198.09 41.56 197.92 42.33C197.85 42.67 197.72 42.84 197.28 42.84L189.15 42.7C188.74 42.7 188.44 42.53 188.47 42.16C188.54 41.21 192.02 42.43 192.16 40.37C192.19 39.93 192.3 39.49 192.33 38.95L192.36 37.66V19.98C192.43 17.61 190.73 17.31 188.81 17.17C188.34 17.1 188.1 16.93 188.03 16.87C187.96 16.84 187.93 16.67 187.93 16.46C187.93 16.16 188.03 16.02 188.3 16.02L198.49 16.16L198.5 16.15ZM172.77 37.82V21.09L172.74 19.77C172.74 18.96 172.57 18.35 172.23 17.94C171.93 17.53 171.11 17.23 169.86 17.09C169.39 17.06 169.12 16.85 169.12 16.55C169.12 16.18 169.32 16.01 169.73 16.01H181.95C182.32 16.01 182.53 16.18 182.53 16.55C182.53 16.85 182.29 17.06 181.79 17.09C180.57 17.23 179.83 17.5 179.52 17.87C179.18 18.24 179.01 18.89 178.98 19.77L178.95 21.09V37.81L178.98 39.13C179.01 40.08 179.18 40.72 179.52 41.03C179.66 41.2 179.93 41.3 180.26 41.4C180.63 41.47 180.97 41.54 181.31 41.6C181.65 41.63 181.92 41.74 182.16 41.84C182.43 41.98 182.53 42.14 182.53 42.38C182.53 42.72 182.33 42.89 181.95 42.89H169.73C169.32 42.89 169.12 42.72 169.12 42.38C169.12 42.04 169.49 41.84 170.24 41.7C170.95 41.6 171.42 41.5 171.56 41.43C172.07 41.23 172.37 40.96 172.54 40.55C172.68 40.14 172.74 39.67 172.74 39.13L172.77 37.81V37.82ZM151.99 36.13L158.56 21.06C159.03 19.98 159.41 19.27 159.41 18.79C159.41 17.71 158.56 17.1 156.94 16.93C156.2 16.83 155.76 16.76 155.65 16.73C155.55 16.7 155.51 16.56 155.51 16.36C155.51 16.02 155.65 15.85 155.88 15.85H166.17C166.64 15.85 166.85 16.02 166.85 16.36C166.85 16.63 166.61 16.8 166.14 16.8C164.07 16.94 162.38 18.36 160.99 21.07L149.51 43.55L135.97 20.39C134.82 18.43 133.6 17.24 131.81 17C131.13 16.9 130.79 16.7 130.79 16.36C130.79 16.02 131.03 15.85 131.5 15.85H144.43C144.63 15.85 144.73 15.99 144.73 16.26C144.73 16.63 144.53 16.87 144.12 16.9C142.66 16.97 141.95 17.44 141.95 18.36C141.95 18.83 142.05 19.58 142.53 20.39L151.98 36.13H151.99ZM106.69 16.08L123.96 33.65L123.76 19.9C123.73 17.33 122.41 17.19 120.07 17.16C119.53 17.16 119.26 16.92 119.26 16.62C119.26 16.25 119.46 16.08 119.87 16.08H128.44C128.81 16.08 129.02 16.25 129.02 16.62C129.02 16.92 128.78 17.09 128.28 17.16C127.06 17.3 125.84 17.36 125.47 17.74C125.13 18.11 125.37 18.93 125.33 19.84L125.3 21.13V43C125.3 43.34 125.1 43.54 124.76 43.54H124.49C124.25 43.54 124.08 43.47 124.02 43.4C123.95 43.37 123.78 43.2 123.51 42.93L102.93 22.35V37.75L102.96 39.04C102.99 39.72 103.06 40.16 103.16 40.43C103.26 40.7 103.53 40.97 103.94 41.17C104.38 41.37 105.02 41.54 105.9 41.71C106.41 41.74 106.68 41.95 106.68 42.25C106.68 42.59 106.48 42.76 106.04 42.76H97.54C97.17 42.76 96.96 42.59 96.96 42.25C96.96 41.95 97.33 41.74 98.04 41.61C98.78 41.51 99.23 41.41 99.43 41.34C99.94 41.14 100.28 40.83 100.41 40.43C100.58 40.06 100.65 39.58 100.65 39.04L100.68 37.75V20.04C100.65 17.77 99.39 17.26 97.77 17.16C97.33 17.13 97.09 16.96 97.03 16.89C96.93 16.82 96.89 16.69 96.89 16.45C96.89 16.18 97.03 16.01 97.26 16.01L106.71 16.08H106.69ZM74.12 22.38L68.67 33.21L80.62 33.14L74.12 22.37V22.38ZM81.43 34.26L68.26 34.5L67.07 37.17C66.9 37.51 66.73 37.85 66.56 38.19C66.39 38.53 66.26 38.87 66.15 39.21C66.05 39.55 66.01 39.82 66.01 40.02C66.01 40.76 66.28 41.24 66.86 41.44C67.44 41.68 68.21 41.81 69.16 41.85C69.94 41.92 70.31 42.12 70.31 42.49C70.31 42.83 70.07 43 69.57 43H60.33C59.75 43 59.45 42.83 59.45 42.49C59.45 42.08 59.79 41.85 60.43 41.78C61.72 41.58 62.63 41.1 63.17 40.36C63.71 39.62 64.36 38.36 65.13 36.64L76.59 15L89.62 36.94C90.4 38.23 91.14 39.14 91.52 39.72C91.86 40.33 92.2 40.77 92.54 41.04C92.88 41.34 93.22 41.55 93.62 41.62C93.99 41.69 94.33 41.76 94.67 41.79C95.45 41.86 95.48 42.13 95.48 42.5C95.48 42.84 95.21 43.01 94.7 43.01H82.21C81.74 43.01 81.43 42.84 81.43 42.5C81.43 42.06 81.7 41.72 82.45 41.69C82.75 41.69 83.03 41.59 83.26 41.52C83.84 41.32 84.11 40.98 84.11 40.5C84.11 40.16 84.11 39.76 83.77 39.08L81.43 34.27V34.26ZM37.69 37.82V21.09L37.66 19.77C37.66 18.92 37.49 18.31 37.15 17.91C36.81 17.54 36 17.23 34.75 17.1C34.24 17.07 34.01 16.86 34.01 16.56C34.01 16.19 34.21 16.02 34.62 16.02H47.11C47.52 16.02 47.69 16.19 47.69 16.56C47.69 16.86 47.45 17.07 46.98 17.1C45.76 17.24 44.95 17.51 44.61 17.88C44.27 18.25 44.1 18.9 44.03 19.78L44 21.1V37.42C44 38.67 44.14 39.55 44.37 40.09C44.64 40.63 45.05 40.97 45.55 41.11C46.09 41.25 46.87 41.52 48.06 41.52C51.34 41.52 52.63 40.91 54.02 40.27C56.93 39.02 60.86 33.06 61.27 33.06C62.93 33.06 58.02 41.79 57.78 42.91H34.61C34.2 42.91 34 42.74 34 42.4C34 42.1 34.34 41.89 35.08 41.76C35.79 41.62 36.26 41.52 36.43 41.46C36.94 41.26 37.28 40.99 37.41 40.58C37.58 40.17 37.65 39.7 37.65 39.16L37.68 37.84L37.69 37.82Z" fill="#231F20"/>
</svg>
