<svg width="256" height="58" viewBox="0 0 256 58" fill="none" xmlns="http://www.w3.org/2000/svg">
<path fill-rule="evenodd" clip-rule="evenodd" d="M126.391 24.0405L130.627 16.6582L145.014 15.7355L145.518 14.8337L132.221 13.9109L135.346 8.52097H160.01C167.602 8.52097 173.201 11.2474 171.02 19.1959C170.37 21.6287 167.287 27.7107 158.227 30.2483C160.156 30.479 164.938 32.5972 164.099 38.092C162.631 47.8441 150.027 52.479 143.001 52.479L113.87 52.5L112.423 46.8584L127.691 45.7888L128.215 44.887L111.647 43.8804L109.865 37.1902L133.417 35.806L133.941 34.9252L91.6397 32.2826L93.674 28.7593L139.226 25.8022L139.75 24.9214L126.391 24.0405ZM145.455 25.5086L149.649 25.4876C152.459 25.4666 155.375 24.1873 156.444 21.6077C157.43 19.1959 156.109 17.1406 154.347 17.1616H150.278L145.455 25.5086ZM140.61 33.8765L135.556 42.664H140.379C142.623 42.664 146.629 41.5524 147.867 38.3646C149.02 35.3866 146.902 33.8765 145.434 33.8765H140.61ZM103.867 47.4457L100.93 52.4581L80 52.5L82.0343 48.9766L103.867 47.4457ZM105.335 8.5L122.175 8.52097L123.455 13.2817L103.342 12.0234L105.335 8.5ZM124.398 17.0567L126.244 24.0405L97.4909 22.153L99.5043 18.6506L124.398 17.0567ZM109.76 37.1902L106.111 43.5238L85.8303 42.3704L87.8646 38.847L109.76 37.1902Z" fill="black"/>
</svg>
