<svg width="296" height="296" viewBox="0 0 296 296" fill="none" xmlns="http://www.w3.org/2000/svg">
<rect width="296" height="296" fill="white"/>
<path fill-rule="evenodd" clip-rule="evenodd" d="M215.963 42H79.7848C56.1554 42 37 60.3134 37 82.904V213.096C37 235.687 56.1554 254 79.7848 254H215.963C239.592 254 258.748 235.687 258.748 213.096V82.904C258.748 60.3134 239.592 42 215.963 42ZM197.339 90.1093C183.597 75.9778 156.517 75.3154 140.466 88.6465C130.015 97.3407 127.215 108.215 126.493 114.563H96.8148C97.7675 107.36 101.521 100.708 107.381 95.9054C112.693 91.5997 119.391 89.1157 126.406 88.8121C128.745 85.1688 133.364 81.4151 135.154 80.0351L135.587 79.7039C135.009 79.5107 134.403 79.3727 133.768 79.2899C121.527 77.8823 109.056 81.3875 100.395 88.6465C84.2565 102.171 86.1908 119.283 86.2774 120.001L86.8259 124.306H136.453V119.09C136.453 114.867 137.348 110.672 139.109 106.808C140.87 102.944 143.468 99.4107 146.73 96.485C164.197 104.544 164.023 121.27 163.995 121.988V133.553H170.519C172.886 133.553 174.445 133.47 174.445 133.47V122.236C174.676 114.646 171.01 99.9627 156.835 90.7993C168.209 86.9076 182.038 88.9501 189.66 96.7887L189.775 96.8991C200.197 106.946 199.071 116.606 199.013 116.965L198.956 117.268V117.655C198.551 123.561 196.126 129.192 192.056 133.691C189.371 136.616 186.051 138.962 182.298 140.591C178.574 142.219 174.503 143.102 170.375 143.158H141.592V152.928H170.375C176.004 152.873 181.547 151.686 186.628 149.478C191.738 147.27 196.271 144.068 199.966 140.094C205.596 133.884 208.916 126.128 209.406 118.013C209.666 115.585 210.33 102.75 197.339 90.1921V90.1093ZM199.992 155.989C199.501 155.465 198.837 154.775 198.346 154.305V154.333C198.346 154.333 196.297 155.603 193.987 156.789C191.706 157.949 188.617 159.163 188.617 159.163C189.859 160.157 191.013 161.206 192.082 162.365C196.152 166.864 198.577 172.494 198.982 178.401V178.787L199.039 179.091C199.097 179.45 200.223 189.11 189.801 199.156L189.685 199.267C182.064 207.105 168.235 209.148 156.861 205.256C171.036 196.038 174.702 181.354 174.471 173.764V162.558C174.471 162.558 172.912 162.475 170.545 162.475H164.02V174.04C164.049 174.757 164.222 191.483 146.756 199.543C143.494 196.617 140.896 193.112 139.135 189.22C137.374 185.356 136.479 181.161 136.479 176.938V171.721H86.8518L86.3033 176.027C86.2167 176.745 84.2824 193.857 100.421 207.381C109.081 214.64 121.553 218.118 133.794 216.71C134.429 216.628 135.035 216.49 135.613 216.296L135.18 215.965C133.39 214.585 128.771 210.859 126.432 207.188C119.417 206.885 112.719 204.4 107.407 200.095C101.546 195.292 97.7934 188.641 96.8407 181.437H126.519C127.24 187.785 130.041 198.66 140.492 207.354C156.514 220.685 183.623 220.022 197.365 205.891C210.356 193.333 209.692 180.471 209.432 178.07C208.942 169.955 205.622 162.199 199.992 155.989Z" fill="#0A0A0A"/>
</svg>
