<svg width="754" height="129" viewBox="0 0 754 129" fill="none" xmlns="http://www.w3.org/2000/svg">
<path fill-rule="evenodd" clip-rule="evenodd" d="M226.619 35.4825V20.7529H155.587V35.4825H183.225V105.244H198.981V35.4825H226.619Z" fill="white"/>
<path fill-rule="evenodd" clip-rule="evenodd" d="M294.16 74.113V105.24H278.387V74.3298C278.422 71.3939 277.724 68.4914 276.363 65.8557C275.107 63.4203 273.222 61.3018 270.867 59.7337C268.651 58.2324 265.964 57.415 263.224 57.4317C260.031 57.4317 257.397 58.199 255.285 59.7337C253.122 61.3184 251.499 63.437 250.574 65.8557C249.51 68.5748 248.987 71.444 249.022 74.3298V105.24H233.144V14.7109H248.899V50.6424C250.487 47.7065 252.633 45.7548 255.355 44.7873C258.374 43.7697 261.567 43.286 264.777 43.336C270.727 43.336 275.892 44.7372 280.271 47.5397C284.668 50.3588 288.175 54.2289 290.444 58.7328C292.887 63.537 294.16 68.8083 294.16 74.1297V74.113Z" fill="white"/>
<path fill-rule="evenodd" clip-rule="evenodd" d="M334.591 58.1189C335.917 58.5526 337.19 59.1365 338.359 59.8704L340.907 44.0899C339.633 43.723 338.325 43.5061 336.999 43.4227C335.638 43.3393 334.242 43.3059 332.776 43.3059C329.234 43.2559 325.727 44.0566 322.604 45.658C319.585 47.2427 316.95 49.4113 314.892 51.9969V44.8906H299.136V105.26H315.031V74.3498C314.996 71.4306 315.607 68.5447 316.846 65.8757C317.945 63.4402 319.725 61.3217 322.01 59.7537C324.383 58.1856 327.227 57.3849 330.124 57.4516C331.642 57.4516 333.16 57.6685 334.608 58.1189H334.591Z" fill="white"/>
<path fill-rule="evenodd" clip-rule="evenodd" d="M401.729 66.1914C400.455 61.9044 398.274 57.8842 395.326 54.3811C392.447 50.9614 388.8 48.159 384.647 46.1906C380.355 44.1722 375.609 43.1546 370.793 43.2046C366.466 43.188 362.209 44.022 358.266 45.6902C354.392 47.3249 350.885 49.6436 347.971 52.5462C345.005 55.4987 342.649 58.9351 341.027 62.6884C339.334 66.6085 338.479 70.7955 338.514 75.0325C338.444 80.6374 339.945 86.1423 342.876 91.0299C345.668 95.734 349.681 99.7041 354.566 102.557C359.435 105.409 365.07 106.894 370.811 106.844C377.075 106.894 383.199 105.109 388.311 101.723C393.424 98.4197 397.489 93.8824 400.054 88.5944L383.984 85.0913C382.554 87.1932 380.617 88.9614 378.331 90.2625C376.063 91.5303 373.446 92.1642 370.811 92.0975C368.316 92.0975 365.856 91.5303 363.64 90.4293C361.563 89.3951 359.784 87.9272 358.405 86.1423C357.009 84.3073 355.997 82.2555 355.439 80.0703H402.636C403.387 75.4329 403.073 70.7121 401.729 66.1914ZM354.915 69.0439C355.439 66.6585 356.521 64.4065 358.056 62.4382C359.539 60.5365 361.441 58.9351 363.64 57.7841C365.838 56.6331 368.298 56.0492 370.811 56.0659C373.341 56.0659 375.836 56.6498 378.052 57.8174C380.285 58.9685 382.205 60.5699 383.705 62.5049C385.223 64.4399 386.253 66.6919 386.706 69.0439H354.933H354.915Z" fill="white"/>
<path fill-rule="evenodd" clip-rule="evenodd" d="M470.752 66.1914C469.479 61.9044 467.315 57.8842 464.366 54.3811C461.487 50.9614 457.841 48.159 453.688 46.1906C449.396 44.1722 444.65 43.1546 439.834 43.2046C435.524 43.188 431.25 44.022 427.306 45.6902C423.415 47.3082 419.891 49.6436 416.977 52.5462C414.011 55.4987 411.655 58.9351 410.05 62.6884C408.357 66.6085 407.502 70.7955 407.52 75.0325C407.45 80.6374 408.951 86.1423 411.882 91.0299C414.656 95.734 418.687 99.7041 423.572 102.557C428.44 105.409 434.076 106.894 439.817 106.844C446.081 106.894 452.205 105.109 457.335 101.723C462.447 98.4197 466.513 93.8824 469.095 88.5944L453.025 85.0913C451.594 87.1932 449.658 88.9614 447.372 90.2625C445.104 91.5303 442.486 92.1642 439.852 92.0975C437.356 92.0975 434.896 91.5303 432.698 90.4293C430.621 89.3951 428.824 87.9272 427.463 86.1423C426.067 84.3073 425.073 82.2555 424.497 80.0703H471.695C472.428 75.4329 472.131 70.7121 470.787 66.1914H470.752ZM423.886 69.0439C424.41 66.6585 425.474 64.4065 427.01 62.4382C428.493 60.5198 430.395 58.9351 432.593 57.7841C434.774 56.6331 437.252 56.0492 439.747 56.0659C442.277 56.0659 444.772 56.6498 446.971 57.8174C449.204 58.9685 451.123 60.5699 452.624 62.5049C454.142 64.4399 455.171 66.6919 455.625 69.0439H423.852H423.886Z" fill="white"/>
<path fill-rule="evenodd" clip-rule="evenodd" d="M529.921 14.7109V52.394C527.88 49.6749 525.21 47.4229 522.105 45.7882C518.772 44.07 515.003 43.2026 511.199 43.286C506.68 43.2526 502.196 44.1034 498.026 45.7548C493.978 47.3729 490.314 49.7083 487.208 52.6108C484.102 55.5134 481.607 58.9497 479.88 62.7197C478.1 66.6231 477.193 70.8268 477.228 75.0638C477.193 79.3009 478.1 83.5045 479.88 87.408C481.607 91.1946 484.102 94.6143 487.208 97.5168C490.314 100.419 493.995 102.755 498.026 104.373C502.179 106.041 506.663 106.875 511.199 106.842C515.003 106.908 518.772 106.041 522.105 104.306C525.193 102.671 527.845 100.419 529.921 97.7337V105.274H545.677V14.7109H529.921ZM526.379 83.9383C525.001 86.5239 522.907 88.7258 520.307 90.3105C517.655 91.8952 514.549 92.7293 511.391 92.6626C508.216 92.6792 505.092 91.8785 502.388 90.3105C499.666 88.7591 497.415 86.5739 495.827 83.9716C494.187 81.2693 493.332 78.1999 493.385 75.0972C493.35 71.9945 494.187 68.9251 495.827 66.2227C497.398 63.6205 499.649 61.4352 502.353 59.8505C505.058 58.2658 508.198 57.4317 511.391 57.4651C514.532 57.415 517.62 58.2324 520.272 59.8171C522.89 61.3852 524.983 63.5871 526.379 66.1894C527.862 68.9418 528.613 72.0111 528.578 75.0972C528.613 78.1665 527.862 81.2025 526.379 83.9383Z" fill="white"/>
<path fill-rule="evenodd" clip-rule="evenodd" d="M561.468 35.3809C562.463 35.7478 563.527 35.9313 564.609 35.9147C565.673 35.9313 566.738 35.7645 567.732 35.3975C568.727 35.0306 569.634 34.4801 570.384 33.7795C571.152 33.0788 571.763 32.2448 572.181 31.3106C572.583 30.3765 572.775 29.3756 572.757 28.3747C572.775 27.3738 572.583 26.3897 572.181 25.4555C571.78 24.538 571.169 23.704 570.402 23.0034C569.651 22.2861 568.744 21.7356 567.75 21.3686C566.755 21.0016 565.691 20.8181 564.626 20.8348C563.545 20.8181 562.48 21.0016 561.486 21.3686C560.491 21.7356 559.584 22.3027 558.816 23.0034C558.048 23.6873 557.42 24.5213 557.019 25.4555C556.6 26.373 556.408 27.3738 556.426 28.3747C556.391 29.3756 556.6 30.3765 557.001 31.3106C557.42 32.2448 558.031 33.0788 558.816 33.7795C559.584 34.4801 560.491 35.0306 561.486 35.3975L561.468 35.3809Z" fill="white"/>
<path d="M572.427 44.9065H556.671V105.276H572.427V44.9065Z" fill="white"/>
<path fill-rule="evenodd" clip-rule="evenodd" d="M580.749 75.9836V44.8896H596.505V75.75C596.47 78.7026 597.185 81.6218 598.563 84.2575C599.855 86.743 601.844 88.8615 604.304 90.3795C606.799 91.8975 609.713 92.6815 612.697 92.6482C615.593 92.7149 618.437 91.9309 620.81 90.3795C623.113 88.8115 624.928 86.6929 626.044 84.2575C627.283 81.5718 627.911 78.6692 627.877 75.75V44.8896H643.632V105.259H627.877V98.0862C625.818 100.705 623.218 102.89 620.234 104.525C617.128 106.177 613.621 107.027 610.062 106.961C604.077 106.961 598.912 105.559 594.568 102.757C590.188 99.9212 586.681 96.0511 584.43 91.5305C581.97 86.6596 580.714 81.3549 580.749 75.9669V75.9836Z" fill="white"/>
<path fill-rule="evenodd" clip-rule="evenodd" d="M652.878 44.8892V105.259H668.686V73.164C668.651 70.7285 669.244 68.3264 670.413 66.1578C671.513 64.0894 673.153 62.3211 675.194 61.02C677.183 59.7356 679.556 59.0683 681.982 59.085C684.442 59.0516 686.867 59.7022 688.926 60.9533C690.968 62.2044 692.643 63.9225 693.777 65.941C694.981 68.0929 695.591 70.495 695.539 72.9138V105.275H711.295V72.9138C711.242 70.495 711.836 68.0929 713.022 65.941C714.139 63.9225 715.796 62.2044 717.838 60.9533C719.932 59.6855 722.357 59.0349 724.835 59.085C727.295 59.0349 729.72 59.6855 731.779 60.9533C733.786 62.2044 735.391 63.9225 736.455 65.941C737.607 68.1095 738.183 70.495 738.13 72.9138V105.242H753.886V72.8804C753.938 67.876 752.63 62.9384 750.082 58.5345C747.64 54.2975 744.063 50.7443 739.718 48.1754C735.269 45.5731 730.087 44.2386 724.835 44.3054C720.665 44.272 716.564 45.1394 712.83 46.8743C709.149 48.6091 705.921 51.0946 703.408 54.1473C700.896 51.0946 697.685 48.6091 694.021 46.8743C690.287 45.1394 686.152 44.2553 681.964 44.3054C679.399 44.272 676.887 44.9059 674.706 46.1403C672.455 47.4581 670.413 49.0762 668.669 50.9445V44.8392H652.913L652.878 44.8892Z" fill="white"/>
<path fill-rule="evenodd" clip-rule="evenodd" d="M108.162 0H25.8584C11.5772 0 0 11.0683 0 24.7217V103.407C0 117.061 11.5772 128.129 25.8584 128.129H108.162C122.443 128.129 134.02 117.061 134.02 103.407V24.7217C134.02 11.0683 122.443 0 108.162 0ZM96.9057 29.0763C88.6003 20.5355 72.2338 20.1351 62.5326 28.1922C56.2163 33.4468 54.5238 40.0192 54.0876 43.8559H36.1508C36.7266 39.5021 38.9949 35.4819 42.5369 32.5794C45.7473 29.9771 49.7953 28.4758 54.0353 28.2923C55.4486 26.0903 58.2403 23.8217 59.3221 22.9876L59.5838 22.7874C59.2349 22.6707 58.8685 22.5873 58.4846 22.5372C51.0865 21.6865 43.5489 23.805 38.3144 28.1922C28.5608 36.366 29.7298 46.7084 29.7822 47.1421L30.1137 49.7444H60.1073V46.5916C60.1073 44.0394 60.6482 41.5038 61.7125 39.1685C62.7769 36.8331 64.3472 34.6979 66.3189 32.9297C76.8751 37.8006 76.7704 47.9095 76.753 48.3432V55.3326H80.6963C82.127 55.3326 83.0692 55.2826 83.0692 55.2826V48.4933C83.2088 43.9059 80.9929 35.0315 72.4258 29.4933C79.3004 27.1413 87.6581 28.3757 92.2645 33.1132L92.3343 33.1799C98.6331 39.2519 97.9526 45.0903 97.9177 45.3072L97.8828 45.4907V45.7242C97.6385 49.294 96.1729 52.697 93.7127 55.416C92.09 57.1842 90.0834 58.6022 87.8152 59.5863C85.5643 60.5705 83.1041 61.1043 80.609 61.1377H63.2131V67.0429H80.609C84.0114 67.0095 87.3615 66.2922 90.4324 64.9577C93.5208 63.6232 96.2601 61.6882 98.4935 59.2861C101.896 55.5328 103.902 50.8454 104.199 45.9411C104.356 44.4731 104.757 36.7163 96.9057 29.1263V29.0763ZM98.509 68.893C98.2124 68.576 97.8111 68.159 97.5145 67.8754V67.8921C97.5145 67.8921 96.2756 68.6594 94.8798 69.3767C93.5014 70.0773 91.6344 70.8113 91.6344 70.8113C92.3847 71.4118 93.0826 72.0457 93.7282 72.7464C96.1884 75.4654 97.654 78.8684 97.8983 82.4382V82.6717L97.9332 82.8552C97.9681 83.0721 98.6486 88.9105 92.3498 94.9825L92.28 95.0492C87.6736 99.7867 79.3159 101.021 72.4413 98.6691C81.0084 93.0975 83.2243 84.2231 83.0847 79.6357V72.8631C83.0847 72.8631 82.1425 72.8131 80.7118 72.8131H76.7684V79.8025C76.7859 80.2362 76.8906 90.3451 66.3344 95.216C64.3627 93.4478 62.7924 91.3293 61.728 88.9772C60.6637 86.6419 60.1228 84.1063 60.1228 81.5541V78.4013H30.1292L29.7977 81.0036C29.7453 81.4373 28.5763 91.7797 38.3299 99.9535C43.5644 104.341 51.102 106.443 58.5001 105.592C58.8839 105.542 59.2504 105.458 59.5993 105.342L59.3376 105.141C58.2558 104.307 55.4641 102.055 54.0508 99.8367C49.8108 99.6533 45.7628 98.1519 42.5524 95.5497C39.0103 92.6471 36.7421 88.6269 36.1663 84.2731H54.1031C54.5393 88.1098 56.2318 94.6822 62.5481 99.9368C72.2319 107.994 88.6158 107.594 96.9212 99.0527C104.773 91.4627 104.372 83.6893 104.215 82.238C103.918 77.3337 101.911 72.6463 98.509 68.893Z" fill="white"/>
</svg>
