<svg width="135" height="129" viewBox="0 0 135 129" fill="none" xmlns="http://www.w3.org/2000/svg">
<path fill-rule="evenodd" clip-rule="evenodd" d="M108.162 0H25.8584C11.5772 0 0 11.0683 0 24.7217V103.407C0 117.061 11.5772 128.129 25.8584 128.129H108.162C122.443 128.129 134.02 117.061 134.02 103.407V24.7217C134.02 11.0683 122.443 0 108.162 0ZM96.9057 29.0763C88.6003 20.5355 72.2338 20.1351 62.5326 28.1922C56.2163 33.4468 54.5238 40.0192 54.0876 43.8559H36.1508C36.7266 39.5021 38.9949 35.4819 42.5369 32.5794C45.7473 29.9771 49.7953 28.4758 54.0353 28.2923C55.4486 26.0903 58.2403 23.8217 59.3221 22.9876L59.5838 22.7874C59.2349 22.6707 58.8685 22.5873 58.4846 22.5372C51.0865 21.6865 43.5489 23.805 38.3144 28.1922C28.5608 36.366 29.7298 46.7084 29.7822 47.1421L30.1137 49.7444H60.1073V46.5916C60.1073 44.0394 60.6482 41.5038 61.7125 39.1685C62.7769 36.8331 64.3472 34.6979 66.3189 32.9297C76.8751 37.8006 76.7704 47.9095 76.753 48.3432V55.3326H80.6963C82.127 55.3326 83.0692 55.2826 83.0692 55.2826V48.4933C83.2088 43.9059 80.9929 35.0315 72.4258 29.4933C79.3004 27.1413 87.6581 28.3757 92.2645 33.1132L92.3343 33.1799C98.6331 39.2519 97.9526 45.0903 97.9177 45.3072L97.8828 45.4907V45.7242C97.6385 49.294 96.1729 52.697 93.7127 55.416C92.09 57.1842 90.0834 58.6022 87.8152 59.5863C85.5643 60.5705 83.1041 61.1043 80.609 61.1377H63.2131V67.0429H80.609C84.0114 67.0095 87.3615 66.2922 90.4324 64.9577C93.5208 63.6232 96.2601 61.6882 98.4935 59.2861C101.896 55.5328 103.902 50.8454 104.199 45.9411C104.356 44.4731 104.757 36.7163 96.9057 29.1263V29.0763ZM98.509 68.893C98.2124 68.576 97.8111 68.159 97.5145 67.8754V67.8921C97.5145 67.8921 96.2756 68.6594 94.8798 69.3767C93.5014 70.0773 91.6344 70.8113 91.6344 70.8113C92.3847 71.4118 93.0826 72.0457 93.7282 72.7464C96.1884 75.4654 97.654 78.8684 97.8983 82.4382V82.6717L97.9332 82.8552C97.9681 83.0721 98.6486 88.9105 92.3498 94.9825L92.28 95.0492C87.6736 99.7867 79.3159 101.021 72.4413 98.6691C81.0084 93.0975 83.2243 84.2231 83.0847 79.6357V72.8631C83.0847 72.8631 82.1425 72.8131 80.7118 72.8131H76.7684V79.8025C76.7859 80.2362 76.8906 90.3451 66.3344 95.216C64.3627 93.4478 62.7924 91.3293 61.728 88.9772C60.6637 86.6419 60.1228 84.1063 60.1228 81.5541V78.4013H30.1292L29.7977 81.0036C29.7453 81.4373 28.5763 91.7797 38.3299 99.9535C43.5644 104.341 51.102 106.443 58.5001 105.592C58.8839 105.542 59.2504 105.458 59.5993 105.342L59.3376 105.141C58.2558 104.307 55.4641 102.055 54.0508 99.8367C49.8108 99.6533 45.7628 98.1519 42.5524 95.5497C39.0103 92.6471 36.7421 88.6269 36.1663 84.2731H54.1031C54.5393 88.1098 56.2318 94.6822 62.5481 99.9368C72.2319 107.994 88.6158 107.594 96.9212 99.0527C104.773 91.4627 104.372 83.6893 104.215 82.238C103.918 77.3337 101.911 72.6463 98.509 68.893Z" fill="#0A0A0A"/>
</svg>
