<svg viewBox="0 0 569 130" xmlns="http://www.w3.org/2000/svg"><g fill="none" fill-rule="evenodd"><path d="M128.992 24.215c0-7.837-5.278-17.837-17.043-22.475C96.71-4.267 90.775 13.892 64.496 13.892c-26.28 0-32.214-18.159-47.453-12.152C5.28 6.378 0 16.378 0 24.215c0 10.251 12.847 17.446 12.847 40.803C12.847 88.375 0 95.569 0 105.82c0 7.838 5.279 17.838 17.043 22.476 15.239 6.006 21.174-12.153 47.453-12.153 26.28 0 32.215 18.16 47.453 12.153 11.765-4.638 17.043-14.638 17.043-22.476 0-10.25-12.846-17.445-12.846-40.802s12.846-30.552 12.846-40.803" fill="#FE0100"/><path d="M218.375 48l-2.275 5.95h-19.95a4.2 4.2 0 0 0-4.2 4.2v5.25h17.5l-2.275 5.95H191.95V83H186V57.1a9.1 9.1 0 0 1 9.1-9.1h23.275zm23.1 35l13.3-35h5.95l13.3 35h-5.95L257.75 53.95 247.425 83h-5.95zm177.1 0L433.1 48h3.5l14.525 35h-3.5L434.85 51.5 422.075 83h-3.5zM305.35 83V48H312l18.025 29.575V48h4.375v35h-6.65l-18.025-29.575V83h-4.375zm58.275-35h32.55l-1.488 3.85H381.65V83h-3.85V51.85h-12.688L363.625 48zm146.3 0l-.945 2.45h-20.843a7.262 7.262 0 0 0-7.262 7.262c0 4.011 3.252 6.563 7.262 6.563h13.476c4.977 0 9.012 4.735 9.012 9.712A9.013 9.013 0 0 1 501.613 83H479.16l.892-2.45h21.56a6.562 6.562 0 0 0 6.563-6.563c0-3.624-2.938-7.262-6.563-7.262h-13.475c-5.364 0-9.712-3.648-9.712-9.012 0-5.365 4.348-9.713 9.712-9.713h21.788zm28.35 0l14.175 18.025L566.625 48h2.275l-15.575 19.6V83h-1.75V67.6L536 48h2.275z" fill="#000" fill-rule="nonzero"/></g></svg>
