<svg width="256" height="58" viewBox="0 0 256 58" fill="none" xmlns="http://www.w3.org/2000/svg">
<path fill-rule="evenodd" clip-rule="evenodd" d="M71.9527 6.13919L69.643 6.02026L68.6909 5.83051L68.5005 5.47439C68.5005 5.14232 68.7385 5 69.2152 5H93.0996C104.292 5 112.149 8.39352 116.722 15.2039C119.341 19.1433 120.651 23.8184 120.651 29.229C120.651 32.0533 120.222 34.782 119.341 37.4158C118.341 40.1926 116.96 42.6374 115.174 44.8208C113.221 47.122 110.84 48.9026 108.101 50.2074C105.172 51.5364 101.886 52.2246 98.1951 52.2246H67.7382C67.238 52.2246 67 52.0582 67 51.7742C67 51.4656 67.3574 51.2998 68.0238 51.2998L73.8581 50.9444C74.7632 50.8248 75.4062 50.5636 75.7159 50.2081L76.3113 49.3769C76.5259 48.8083 76.6452 47.9544 76.6687 46.7912V9.15319C76.6687 7.68193 75.8353 6.77994 74.2161 6.42382L71.9527 6.13919ZM84.8121 6.77994L84.6451 7.72937V49.5193C84.6451 49.9937 84.7403 50.3251 84.9308 50.4446L85.8835 50.587H89.0266L96.3131 50.3257C98.2655 50.1126 99.9323 49.8039 101.242 49.3763C102.545 48.9028 103.766 48.2306 104.861 47.3839C105.814 46.6008 106.79 45.485 107.862 44.0612C109.648 41.736 110.934 38.7694 111.72 35.1387C112.196 32.7668 112.434 30.4644 112.434 28.2575C112.434 26.3118 112.149 24.2232 111.553 21.9689C110.72 18.7177 109.457 15.87 107.671 13.4493C104.219 8.75093 98.5511 6.42512 90.7168 6.42512H85.8828C85.3357 6.37638 84.9784 6.49531 84.8121 6.77994ZM125.341 51.8685C125.294 51.5832 125.532 51.4649 126.056 51.4649L127.723 51.4168C128.628 51.2986 129.176 50.9905 129.39 50.5155L129.699 48.807V35.0192C129.699 34.4973 129.508 34.0938 129.151 33.8566L127.913 33.737L126.246 34.1887L125.341 34.1406C125.222 33.8559 125.579 33.5947 126.413 33.3575C128.389 32.8357 130.128 32.1709 131.604 31.3404C132.509 30.8185 133.151 30.5333 133.437 30.415L134.152 30.3441C134.39 30.3909 134.51 30.866 134.51 31.7199V49.0904C134.51 49.9202 134.7 50.5142 135.058 50.8697C135.485 51.2973 136.486 51.5104 138.034 51.5104C138.581 51.5104 138.866 51.63 138.915 51.8899C138.915 52.1044 138.748 52.1752 138.462 52.1752H125.77C125.484 52.1771 125.341 52.0576 125.341 51.8685ZM181.539 34.782C180.373 35.9926 179.587 37.4158 179.158 39.1243V49.2106C179.158 50.1119 179.467 50.7527 180.11 51.1562L181.564 51.4162L183.087 51.5825C183.445 51.6306 183.588 51.7021 183.588 51.8912L183.517 52.0576L183.112 52.1771H170.372C169.991 52.1771 169.777 52.0576 169.777 51.8685L170.134 51.5832L172.277 51.4168C173.11 51.2745 173.635 50.9905 173.921 50.5629L174.279 49.4952V35.257L174.039 34.2127L173.636 33.9755C173.516 33.8572 173.326 33.7864 173.04 33.7383C172.683 33.7156 172.254 33.7864 171.802 33.9755L170.588 34.3082L169.897 34.1419C169.778 33.9755 169.825 33.8572 169.992 33.7864L171.016 33.3588C173.349 32.6706 175.23 31.959 176.541 31.224L178.159 30.3454L178.874 30.3922L179.16 30.9862V36.2064C180.946 33.3114 182.374 31.5321 183.351 30.9381C183.946 30.5826 184.518 30.2974 184.947 30.1791L185.78 30.1082C186.303 30.0602 186.899 30.2265 187.565 30.6541C188.471 31.1759 188.947 31.959 188.994 32.9552C189.042 33.7864 188.803 34.4278 188.279 34.9249C187.803 35.3285 187.327 35.4481 186.899 35.3285C186.494 35.2577 186.184 35.0913 185.97 34.8541L185.303 34.0242C184.779 33.2639 184.279 33.0267 183.685 33.2412C182.991 33.429 182.278 33.9521 181.539 34.782ZM131.771 15.2754C130.889 15.2754 130.175 15.5841 129.581 16.1774C128.938 16.7707 128.628 17.5298 128.675 18.4084C128.628 19.2389 128.937 19.9511 129.581 20.5444C130.175 21.1377 130.89 21.4457 131.771 21.4457C132.604 21.4457 133.343 21.1371 133.937 20.5444C134.532 19.9511 134.866 19.2395 134.866 18.4084C134.866 17.5298 134.532 16.7707 133.937 16.1774C133.343 15.5841 132.604 15.2754 131.771 15.2754ZM144.392 34.2121C145.249 33.0735 146.321 32.1241 147.607 31.3651C148.75 30.7003 149.893 30.2733 151.084 30.0589L155.489 29.7989C157.083 29.8698 158.561 30.1784 159.895 30.7711C163.11 32.1949 165.133 34.806 165.895 38.6024C166.68 42.4469 166.015 45.6988 163.918 48.3326C162.133 50.5629 159.775 51.9867 156.799 52.6035C153.68 53.2916 150.774 53.0778 148.154 52.0108C144.748 50.6338 142.678 47.905 142.01 43.9182C141.415 40.1458 142.201 36.9414 144.392 34.2121ZM158.345 33.145C156.893 31.5321 155.059 30.8198 152.844 31.0089C150.702 31.2234 149.059 32.4087 147.987 34.663C147.011 36.7042 146.653 39.197 147.011 42.1389C147.272 45.058 148.202 47.3832 149.701 49.1631C151.297 51.038 153.107 51.821 155.13 51.4656C157.25 51.062 158.798 49.9222 159.822 48.0246C160.822 46.079 161.179 43.5634 160.941 40.3596C160.656 37.1559 159.823 34.782 158.345 33.145ZM125.174 34.1893V34.4265L124.65 34.0938V34.2121L124.698 34.4265H124.626V33.9749H124.65L125.126 34.3316V33.9749H125.221L125.174 34.1893Z" fill="black"/>
</svg>
