<svg width="256" height="58" viewBox="0 0 256 58" fill="none" xmlns="http://www.w3.org/2000/svg">
<g clip-path="url(#clip0_1047_496)">
<path d="M24.7765 30.3855C24.7765 32.2626 24.8659 33.6034 25.4022 34.2291C25.8492 34.7654 26.4749 35.0335 29.4246 35.0335C33.5363 35.0335 34.162 34.8547 35.8603 31.0112C36.2179 30.8324 36.8436 30.9218 37.0223 31.2793C36.7542 32.8883 35.8603 35.6592 35.4134 36.7318C33.8045 36.6425 30.5866 36.6425 26.4749 36.6425H22.6313C20.7542 36.6425 18.8771 36.6425 17.2682 36.7318C17 36.5531 16.8212 35.838 17.1788 35.6592L18.3408 35.3911C20.1285 35.1229 20.3966 35.0335 20.3966 31.1899V17.3352C20.3966 13.4916 20.0391 13.3128 18.3408 13.0447L17.2682 12.8659C17 12.6872 17 11.9721 17.3575 11.7933C19.2346 11.8827 20.933 11.8827 22.6313 11.8827C24.2402 11.8827 25.9385 11.8827 27.6369 11.7933C27.9944 11.9721 27.9944 12.6872 27.7263 12.8659L26.8324 13.0447C25.0447 13.3128 24.7765 13.4022 24.7765 17.3352V30.3855ZM39.4358 14.2961C39.4358 17.1564 36.933 19.2123 34.3408 19.838C34.0726 19.5698 33.9832 19.1229 34.0726 18.8547C35.6816 18.1397 37.1117 17.067 37.1117 15.4581C37.1117 14.2067 35.9497 13.6704 35.0559 13.4916C34.5196 13.4022 33.8939 12.9553 33.8939 12.1508C33.8939 11.5251 34.3408 10.3631 36.0391 10.3631C37.8268 10.4525 39.4358 12.2402 39.4358 14.2961ZM43.4581 21.4469C43.4581 12.1508 50.4302 5 60.0838 5C70.8994 5 76.2626 12.7765 76.2626 21C76.2626 30.4749 69.1117 37.2682 60.0838 37.2682C49.7151 37.3575 43.4581 29.9385 43.4581 21.4469ZM71.6145 22.4302C71.6145 14.743 68.2179 6.43017 59.2793 6.43017C54.4525 6.43017 48.1061 9.73743 48.1061 20.0168C48.1061 26.8994 51.5028 35.9274 60.7095 35.9274C66.2514 35.838 71.6145 31.6369 71.6145 22.4302ZM103.078 18.2291C102.81 18.4972 102.184 18.5866 101.916 18.3184C101.291 15.9944 99.5922 12.8659 94.676 12.8659C89.9385 12.8659 85.1117 16.2626 85.1117 23.8603C85.1117 31.8156 90.1173 35.7486 94.9441 35.7486C99.6816 35.7486 101.737 32.6201 102.721 30.2067C103.078 29.8492 103.615 30.0279 103.883 30.3855C103.615 32.8883 102.631 35.3911 102.095 36.1061C101.648 36.1955 101.201 36.3743 100.754 36.4637C99.9497 36.7318 97.3575 37.3575 94.9441 37.3575C91.2793 37.3575 88.0615 36.6425 85.3799 34.8547C82.3408 32.8883 80.1061 29.4916 80.1061 24.5754C80.1061 20.1955 82.0726 16.7989 84.8436 14.6536C87.6145 12.5978 91.3687 11.4358 95.1229 11.4358C97.2682 11.4358 99.8603 11.7933 101.559 12.2402C102.006 12.3296 102.274 12.419 102.631 12.5084C102.631 13.2235 102.721 15.4581 103.078 18.2291ZM129 18.2291C128.732 18.4972 128.106 18.5866 127.838 18.3184C127.212 15.9944 125.514 12.8659 120.598 12.8659C115.86 12.8659 111.034 16.2626 111.034 23.8603C111.034 31.8156 116.039 35.7486 120.866 35.7486C125.603 35.7486 127.659 32.6201 128.642 30.2067C129 29.8492 129.536 30.0279 129.804 30.3855C129.536 32.8883 128.553 35.3911 128.017 36.1061C127.57 36.1955 127.123 36.3743 126.676 36.4637C125.872 36.7318 123.279 37.3575 120.866 37.3575C117.201 37.3575 113.983 36.6425 111.302 34.8547C108.263 32.8883 106.028 29.4916 106.028 24.5754C106.028 20.1955 107.994 16.7989 110.765 14.6536C113.536 12.5978 117.291 11.4358 121.045 11.4358C123.19 11.4358 125.782 11.7933 127.48 12.2402C127.927 12.3296 128.196 12.419 128.553 12.5084C128.553 13.2235 128.642 15.4581 129 18.2291ZM139.101 31.1899C139.101 35.1229 139.458 35.3017 141.156 35.4804L141.961 35.5698C142.229 35.838 142.229 36.4637 141.872 36.6425C140.263 36.5531 138.564 36.5531 136.866 36.5531C135.168 36.5531 133.469 36.5531 131.86 36.6425C131.592 36.4637 131.503 35.838 131.771 35.5698L132.575 35.4804C134.363 35.2123 134.631 35.1229 134.631 31.1899V17.3352C134.631 13.4022 134.274 13.2235 132.575 13.0447L131.771 12.9553C131.503 12.6872 131.503 12.0615 131.86 11.8827C133.469 11.9721 135.168 11.9721 136.866 11.9721C138.475 11.9721 140.173 11.9721 141.872 11.8827C142.14 12.0615 142.229 12.6872 141.961 12.9553L141.156 13.0447C139.369 13.3128 139.101 13.4022 139.101 17.3352V31.1899ZM154.207 15.0112C154.207 13.4022 154.207 13.4022 153.223 13.4022H151.078C147.682 13.4022 146.609 13.8492 145.268 16.7989C145 17.067 144.196 16.8883 144.106 16.5307C144.732 14.4749 145.268 12.2402 145.536 10.8994C145.626 10.8101 145.804 10.7207 145.983 10.7207C146.162 10.7207 146.251 10.7207 146.341 10.8994C146.52 11.7933 147.056 11.8827 149.559 11.8827H164.844C166.631 11.8827 167.257 11.7933 167.704 10.8994C167.883 10.8101 167.972 10.7207 168.151 10.7207C168.419 10.7207 168.598 10.8101 168.598 10.8994C168.24 12.419 167.883 15.6369 168.061 16.7989C167.883 17.067 167.257 17.1564 166.899 16.8883C166.453 13.9385 165.737 13.2235 161.715 13.2235H159.57C158.587 13.2235 158.587 13.3128 158.587 14.8324V31.0112C158.587 34.9441 158.944 35.1229 160.642 35.3017L161.983 35.4804C162.251 35.7486 162.251 36.3743 161.894 36.5531C159.749 36.4637 158.05 36.4637 156.441 36.4637C154.832 36.4637 153.045 36.4637 150.631 36.5531C150.363 36.3743 150.274 35.6592 150.542 35.4804L152.151 35.3017C153.939 35.1229 154.207 35.0335 154.207 31.1006V15.0112ZM173.425 27.4358C172.441 27.4358 172.531 27.4358 172.173 28.419L170.654 32.8883C169.939 35.1229 170.028 35.2123 171.458 35.3911L172.531 35.5698C172.799 35.838 172.799 36.4637 172.441 36.6425C171.279 36.5531 170.028 36.5531 168.508 36.5531C167.257 36.5531 166.095 36.5531 164.844 36.6425C164.575 36.4637 164.575 35.9274 164.844 35.5698L166.006 35.3911C167.078 35.2123 167.525 34.9441 168.061 33.6927C168.508 32.7095 169.134 31.1899 169.849 29.1341L174.944 15.8156C175.391 14.6536 175.749 13.7598 175.659 13.0447C177 12.7765 178.162 11.257 178.251 11.257C178.52 11.257 178.698 11.3464 178.877 11.5251C179.503 13.2235 179.95 14.9218 180.575 16.6201L185.939 32.2626C186.832 34.7654 187.011 35.0335 188.888 35.3911L189.425 35.4804C189.693 35.7486 189.693 36.3743 189.425 36.5531C187.905 36.4637 186.475 36.4637 184.598 36.4637C182.989 36.4637 181.38 36.5531 180.039 36.5531C179.771 36.3743 179.682 35.6592 179.95 35.4804L180.754 35.3911C182.095 35.2123 182.184 35.0335 181.737 33.4246L179.95 28.3296C179.592 27.3464 179.503 27.3464 178.43 27.3464H173.425V27.4358ZM177.894 25.7374C178.966 25.7374 179.056 25.648 178.788 24.7542L177.179 20.2849C176.553 18.3184 176.285 17.6034 176.106 17.3352C175.927 17.6034 175.659 18.4972 174.944 20.2849L173.425 24.6648C172.978 25.7374 173.156 25.7374 174.05 25.7374H177.894ZM214.095 30.2067C214.095 31.3687 214.095 35.9274 214.184 36.8212C213.916 37.2682 213.38 37.3575 212.933 37.3575C212.307 36.5531 211.235 35.3017 208.553 32.2626L199.793 22.2514C197.38 19.4804 196.128 18.1397 195.503 17.514C195.413 17.514 195.413 17.9609 195.413 19.9274V27.257C195.413 30.0279 195.413 33.514 196.128 34.5866C196.486 35.1229 197.112 35.3911 198.006 35.4804L198.81 35.5698C199.168 35.838 199.078 36.5531 198.721 36.6425C197.38 36.5531 195.86 36.5531 194.43 36.5531C192.821 36.5531 191.838 36.5531 190.587 36.6425C190.318 36.4637 190.229 35.838 190.497 35.5698L191.302 35.3911C192.017 35.3017 192.642 35.1229 192.911 34.4972C193.358 33.3352 193.358 30.1173 193.358 27.1676V18.3184C193.358 15.3687 193.358 14.8324 192.106 13.7598C191.659 13.4022 190.676 13.1341 190.14 13.0447L189.603 12.9553C189.335 12.6872 189.335 11.9721 189.782 11.8827C191.212 12.0615 193.268 11.9721 194.162 11.9721C194.966 11.9721 195.86 11.9721 196.754 11.8827C197.38 13.4916 201.492 18.229 202.743 19.6592L206.497 23.6816C208.106 25.3799 211.503 29.4022 211.95 29.581C212.039 29.4916 212.039 29.3128 212.039 28.6872V21.3575C212.039 18.5866 212.039 15.1006 211.324 14.0279C210.966 13.4916 210.43 13.2235 209.447 13.1341L208.553 13.0447C208.196 12.7765 208.285 12.0615 208.642 11.9721C210.073 12.0615 211.503 12.0615 212.933 12.0615C214.542 12.0615 215.525 12.0615 216.866 11.9721C217.134 12.1508 217.223 12.7765 216.955 13.0447L216.061 13.2235C215.346 13.3128 214.721 13.4916 214.453 14.1173C213.916 15.2793 213.916 18.4972 213.916 21.4469V30.2067H214.095ZM222.676 17.3352C222.676 13.4022 222.318 13.2235 220.62 13.0447L219.994 12.9553C219.726 12.6872 219.726 12.0615 220.084 11.8827C221.514 11.9721 223.302 11.9721 224.911 11.9721H232.061C234.475 11.9721 236.62 11.9721 237.067 11.8827C237.246 12.5084 237.425 15.4581 237.693 17.067C237.514 17.3352 236.799 17.4246 236.531 17.2458C235.905 15.1006 235.369 14.1173 234.207 13.8492C233.313 13.581 232.24 13.4916 231.257 13.4916H228.754C227.145 13.4916 227.145 13.581 227.145 15.7263V22.0726C227.145 23.0559 227.145 23.0559 228.039 23.0559H229.827C233.045 23.0559 233.67 23.0559 233.939 21.4469L234.207 20.1955C234.475 19.9274 235.19 19.9274 235.369 20.1955C235.369 21.1788 235.279 22.5196 235.279 23.9497C235.279 25.3799 235.369 26.7207 235.369 27.8827C235.19 28.1508 234.475 28.1508 234.207 27.8827L233.939 26.3631C233.67 24.7542 233.045 24.7542 229.827 24.7542H228.039C227.145 24.7542 227.145 24.8436 227.145 25.7374V30.4749C227.145 32.352 227.235 33.6927 227.771 34.3184C228.218 34.8547 228.844 35.1229 231.972 35.1229C236.709 35.2123 237.514 34.1397 238.855 31.1006C239.212 30.8324 239.838 30.9218 240.017 31.3687C239.749 32.9777 238.944 35.7486 238.408 36.8212C236.799 36.7318 233.581 36.7318 229.201 36.7318H224.911C223.302 36.7318 220.978 36.7318 219.279 36.8212C219.011 36.6425 218.922 36.0168 219.19 35.7486L220.531 35.5698C222.318 35.3911 222.587 35.3017 222.587 31.2793V17.3352H222.676ZM59.2793 45.7598C59.2793 44.3296 59.1899 44.3296 58.5642 44.2402H58.3855C58.2961 44.1508 58.2961 43.8827 58.3855 43.8827H64.4637C64.5531 44.1508 64.5531 45.1341 64.6425 45.7598C64.5531 45.8492 64.2849 45.9385 64.1955 45.8492C64.0168 45.0447 63.7486 44.7765 63.3911 44.5978C63.1229 44.5084 62.676 44.5084 62.3184 44.5084H61.4246C60.8883 44.5084 60.8883 44.5084 60.8883 45.3128V47.5475C60.8883 47.905 60.8883 47.905 61.2458 47.905H61.8715C63.0335 47.905 63.3017 47.905 63.3911 47.2793L63.4804 46.8324C63.5698 46.743 63.838 46.743 63.9274 46.8324V49.6034C63.838 49.6927 63.5698 49.6927 63.4804 49.6034L63.3911 49.067C63.3017 48.5307 63.0335 48.4413 61.8715 48.4413H61.2458C60.9777 48.4413 60.8883 48.4413 60.8883 48.7989V50.4972C60.8883 51.2123 60.8883 51.6592 61.1564 51.9274C61.3352 52.1061 61.514 52.1955 62.676 52.1955C64.3743 52.1955 64.6425 51.838 65.1788 50.7654C65.2682 50.676 65.5363 50.676 65.6257 50.8547C65.5363 51.3911 65.2682 52.4637 65.0894 52.8212H58.2067C58.1173 52.7318 58.1173 52.5531 58.2067 52.4637L58.743 52.3743C59.3687 52.2849 59.4581 52.2849 59.4581 50.8547V45.7598H59.2793ZM79.3017 50.4078V52.7318C79.2123 52.9106 79.0335 52.9106 78.8547 52.9106C78.676 52.6425 78.2291 52.1955 77.2458 51.0335L74.1173 47.4581C73.2235 46.4749 72.7765 45.9385 72.5978 45.7598V49.2458C72.5978 50.229 72.5978 51.4804 72.8659 51.9274C72.9553 52.1061 73.2235 52.1955 73.581 52.2849H73.8492C73.9385 52.3743 73.9385 52.6425 73.8492 52.6425H70.8994C70.8101 52.5531 70.7207 52.3743 70.8994 52.2849L71.1676 52.1955C71.4357 52.1955 71.7039 52.1061 71.7933 51.9274C71.9721 51.4804 71.9721 50.3184 71.9721 49.2458V46.1173C71.9721 45.0447 71.9721 44.8659 71.5251 44.419C71.3464 44.3296 70.9888 44.1508 70.8101 44.1508H70.6313C70.5419 44.0615 70.5419 43.7933 70.7207 43.7933C71.257 43.8827 71.9721 43.7933 72.3296 43.7933H73.2235C73.4916 44.3296 74.9218 46.0279 75.3687 46.5642L76.7095 47.9944C77.2458 48.6201 78.4972 50.0503 78.676 50.1397V47.1899C78.676 46.2067 78.676 44.9553 78.4078 44.5084C78.3184 44.3296 78.0503 44.2402 77.6927 44.1508H77.4246C77.3352 44.0615 77.3352 43.7933 77.4246 43.7933H80.3743C80.4637 43.8827 80.4637 44.0615 80.3743 44.1508L80.1061 44.2402C79.838 44.2402 79.6592 44.3296 79.5698 44.5084C79.3911 44.9553 79.3911 46.1173 79.3911 47.1899V50.4078H79.3017ZM95.4804 45.8492C95.4804 44.5978 95.4804 44.419 94.9441 44.3296H94.4078C94.3184 44.2402 94.3184 43.9721 94.4078 43.9721C95.3911 43.8827 96.1955 43.8827 97.3575 43.8827C98.6089 43.8827 99.5922 44.0615 100.128 44.419C100.844 44.8659 101.291 45.581 101.291 46.4749C101.291 48.5307 99.324 49.067 98.2514 49.067H97.8939C97.8045 48.9777 97.8045 48.7989 97.8939 48.7095C99.1453 48.4413 99.5922 47.5475 99.5922 46.4749C99.5922 45.4022 98.8771 44.419 97.6257 44.419C96.9106 44.419 96.9106 44.419 96.9106 44.9553V50.8547C96.9106 52.2849 97 52.2849 97.6257 52.3743L98.162 52.4637C98.2514 52.5531 98.2514 52.8212 98.162 52.8212H94.4972C94.4078 52.7318 94.4078 52.5531 94.4972 52.4637H94.676C95.3017 52.3743 95.3911 52.2849 95.3911 50.9441V45.8492H95.4804ZM108.173 45.8492C108.173 44.5978 108.173 44.419 107.547 44.3296H107.19C107.101 44.2402 107.101 44.0615 107.19 43.9721C107.994 43.8827 109.156 43.8827 110.318 43.8827C111.391 43.8827 112.285 44.0615 112.911 44.3296C113.626 44.6872 114.073 45.3128 114.073 46.2961C114.073 47.5475 113.089 48.1732 112.464 48.4413C112.374 48.4413 112.374 48.6201 112.464 48.7095C113.536 50.4972 114.251 51.6592 114.877 52.1955C115.235 52.5531 115.682 52.6425 115.771 52.6425C115.86 52.7318 115.86 52.8212 115.771 52.9106C115.592 52.9106 115.324 53 114.877 53C113.626 53 112.911 52.4637 112.106 51.2123C111.749 50.676 111.391 49.8715 111.034 49.4246C110.765 48.9777 110.676 48.9777 110.229 48.9777C109.782 48.9777 109.782 48.9777 109.782 49.2458V50.9441C109.782 52.3743 109.872 52.3743 110.497 52.4637H110.765C110.855 52.5531 110.855 52.8212 110.765 52.8212H107.19C107.101 52.7318 107.011 52.5531 107.19 52.4637H107.458C108.084 52.3743 108.173 52.3743 108.173 50.9441V45.8492ZM109.782 47.8156C109.782 48.2626 109.782 48.2626 110.408 48.2626C111.749 48.2626 112.374 47.6369 112.374 46.2961C112.374 45.2235 111.659 44.3296 110.497 44.3296C109.782 44.3296 109.782 44.3296 109.782 44.9553V47.8156ZM129.804 48.2626C129.804 50.9441 127.749 52.9106 125.067 52.9106C122.028 52.9106 120.24 50.7654 120.24 48.352C120.24 45.581 122.207 43.6145 125.067 43.6145C128.196 43.6145 129.804 45.8492 129.804 48.2626ZM122.117 47.9944C122.117 49.8715 122.922 52.3743 125.246 52.3743C126.765 52.3743 128.017 51.2123 128.017 48.5307C128.017 46.4749 127.123 44.1508 124.978 44.1508C123.637 44.1508 122.117 45.1341 122.117 47.9944ZM140.888 49.4246C140.352 50.676 139.726 52.1955 139.458 52.9106C139.458 52.9106 139.279 53 139.19 53C139.101 53 139.011 53 138.922 52.9106C138.743 52.3743 138.564 51.7486 138.296 51.1229L135.972 45.4916C135.615 44.5978 135.436 44.419 134.899 44.3296L134.542 44.2402C134.453 44.1508 134.453 43.8827 134.542 43.8827H137.939C138.028 43.9721 138.028 44.1508 137.939 44.2402L137.581 44.3296C137.313 44.419 137.134 44.5084 137.134 44.5978C137.134 44.6871 137.223 45.0447 137.76 46.3855L138.743 48.7989C139.011 49.4246 139.369 50.2291 139.458 50.4972C140.173 48.7989 140.978 46.9218 141.693 45.1341C141.872 44.5978 141.872 44.5084 141.425 44.419L141.067 44.3296C140.978 44.2402 140.978 43.9721 141.067 43.9721H143.838C143.927 44.0615 143.927 44.2402 143.838 44.3296L143.48 44.419C143.212 44.5084 142.855 44.5978 142.676 44.9553C142.318 45.581 141.872 46.4749 141.335 47.905L140.888 49.4246ZM150.006 45.7598C150.006 44.3296 149.916 44.3296 149.291 44.2402H149.112C149.022 44.1508 149.022 43.8827 149.112 43.8827H155.19C155.279 44.1508 155.279 45.1341 155.369 45.7598C155.279 45.8492 155.011 45.9385 154.922 45.8492C154.743 45.0447 154.475 44.7765 154.117 44.5978C153.849 44.5084 153.402 44.5084 153.045 44.5084H152.151C151.615 44.5084 151.615 44.5084 151.615 45.3128V47.5475C151.615 47.905 151.615 47.905 151.972 47.905H152.598C153.76 47.905 154.028 47.905 154.117 47.2793L154.207 46.8324C154.296 46.743 154.564 46.743 154.654 46.8324V49.6034C154.564 49.6927 154.296 49.6927 154.207 49.6034L154.117 49.067C154.028 48.5307 153.76 48.4413 152.598 48.4413H151.972C151.704 48.4413 151.615 48.4413 151.615 48.7989V50.4972C151.615 51.2123 151.615 51.6592 151.883 51.9274C152.061 52.1061 152.24 52.1955 153.402 52.1955C155.101 52.1955 155.369 51.838 155.905 50.7654C155.994 50.676 156.263 50.676 156.352 50.8547C156.263 51.3911 155.994 52.4637 155.816 52.8212H148.933C148.844 52.7318 148.844 52.5531 148.933 52.4637L149.469 52.3743C150.095 52.2849 150.184 52.2849 150.184 50.8547V45.7598H150.006ZM170.028 50.4078V52.7318C169.939 52.9106 169.76 52.9106 169.581 52.9106C169.402 52.6425 168.955 52.1955 167.972 51.0335L164.844 47.4581C163.95 46.4749 163.503 45.9385 163.324 45.7598V49.2458C163.324 50.229 163.324 51.4804 163.592 51.9274C163.682 52.1061 163.95 52.1955 164.307 52.2849H164.575C164.665 52.3743 164.665 52.6425 164.575 52.6425H161.626C161.536 52.5531 161.447 52.3743 161.626 52.2849L161.894 52.1955C162.162 52.1955 162.43 52.1061 162.52 51.9274C162.698 51.4804 162.698 50.3184 162.698 49.2458V46.1173C162.698 45.0447 162.698 44.8659 162.251 44.419C162.073 44.3296 161.715 44.1508 161.536 44.1508H161.358C161.268 44.0615 161.268 43.7933 161.447 43.7933C161.983 43.8827 162.698 43.7933 163.056 43.7933H163.95C164.218 44.3296 165.648 46.0279 166.095 46.5642L167.436 47.9944C167.972 48.6201 169.223 50.0503 169.402 50.1397V47.1899C169.402 46.2067 169.402 44.9553 169.134 44.5084C169.045 44.3296 168.777 44.2402 168.419 44.1508H168.151C168.061 44.0615 168.061 43.7933 168.151 43.7933H171.101C171.19 43.8827 171.19 44.0615 171.101 44.1508L170.832 44.2402C170.564 44.2402 170.385 44.3296 170.296 44.5084C170.117 44.9553 170.117 46.1173 170.117 47.1899V50.4078H170.028ZM185.223 46.1173C185.134 46.2067 184.866 46.2067 184.777 46.1173C184.508 45.3128 183.972 44.1508 182.184 44.1508C180.486 44.1508 178.788 45.4022 178.788 48.0838C178.788 50.9441 180.575 52.3743 182.274 52.3743C183.972 52.3743 184.687 51.2123 185.045 50.4078C185.134 50.3184 185.402 50.3184 185.492 50.4972C185.402 51.3911 185.045 52.2849 184.866 52.5531C184.687 52.5531 184.508 52.6425 184.419 52.6425C184.151 52.7318 183.168 53 182.363 53C181.022 53 179.86 52.7318 178.877 52.1061C177.804 51.3911 177 50.1397 177 48.4413C177 46.8324 177.715 45.6704 178.698 44.8659C179.682 44.1508 181.022 43.7039 182.453 43.7039C183.257 43.7039 184.151 43.8827 184.777 43.9721C184.955 43.9721 185.045 44.0615 185.134 44.0615C185.045 44.3296 185.134 45.1341 185.223 46.1173ZM192.106 45.7598C192.106 44.3296 192.017 44.3296 191.391 44.2402H191.212C191.123 44.1508 191.123 43.8827 191.212 43.8827H197.29C197.38 44.1508 197.38 45.1341 197.469 45.7598C197.38 45.8492 197.112 45.9385 197.022 45.8492C196.844 45.0447 196.575 44.7765 196.218 44.5978C195.95 44.5084 195.503 44.5084 195.145 44.5084H194.251C193.715 44.5084 193.715 44.5084 193.715 45.3128V47.5475C193.715 47.905 193.715 47.905 194.073 47.905H194.698C195.86 47.905 196.128 47.905 196.218 47.2793L196.307 46.8324C196.397 46.743 196.665 46.743 196.754 46.8324V49.6034C196.665 49.6927 196.397 49.6927 196.307 49.6034L196.218 49.067C196.128 48.5307 195.86 48.4413 194.698 48.4413H193.983C193.715 48.4413 193.626 48.4413 193.626 48.7989V50.4972C193.626 51.2123 193.626 51.6592 193.894 51.9274C194.073 52.1061 194.251 52.1955 195.413 52.1955C197.112 52.1955 197.38 51.838 197.916 50.7654C198.006 50.676 198.274 50.676 198.363 50.8547C198.274 51.3911 198.006 52.4637 197.827 52.8212H190.944C190.855 52.7318 190.855 52.5531 190.944 52.4637L191.48 52.3743C192.106 52.2849 192.196 52.2849 192.196 50.8547V45.7598H192.106Z" fill="black"/>
</g>
<defs>
<clipPath id="clip0_1047_496">
<rect width="222.927" height="48" fill="white" transform="translate(17 5)"/>
</clipPath>
</defs>
</svg>
