<svg width="256" height="58" viewBox="0 0 256 58" fill="none" xmlns="http://www.w3.org/2000/svg">
<g clip-path="url(#clip0_1047_480)">
<mask id="mask0_1047_480" style="mask-type:luminance" maskUnits="userSpaceOnUse" x="44" y="7" width="168" height="44">
<path d="M211.444 7H44V51H211.444V7Z" fill="white"/>
</mask>
<g mask="url(#mask0_1047_480)">
<path d="M166.888 49.4141V46.9954H170.623V45.5399H166.888V43.2911H171.503V41.8351H165.294V50.8689H171.503V49.4134L166.888 49.4141ZM153.654 43.3197C153.868 43.3071 154.082 43.3392 154.283 43.4138C154.484 43.4885 154.668 43.6043 154.823 43.754C154.979 43.9036 155.102 44.0841 155.187 44.2844C155.272 44.4846 155.316 44.7003 155.316 44.9184C155.316 45.1366 155.272 45.3523 155.187 45.5525C155.102 45.7528 154.979 45.9333 154.823 46.0829C154.668 46.2326 154.484 46.3484 154.283 46.4231C154.082 46.4977 153.868 46.5298 153.654 46.5172H151.27V43.3197H153.654ZM149.677 50.8713H151.27V47.9859H153.642C155.631 47.9859 156.918 46.777 156.918 44.8921C156.918 43.0464 155.618 41.8375 153.642 41.8375H149.676L149.677 50.8713ZM133.268 41.8375V47.3749C133.268 49.5975 134.849 51.0016 137.093 51.0016C139.337 51.0016 140.918 49.5975 140.918 47.388V41.8375H139.337V47.388C139.337 48.61 138.496 49.4938 137.094 49.4938C135.717 49.4938 134.863 48.61 134.863 47.3749V41.8359L133.268 41.8375ZM120.392 49.4938C119.596 49.4618 118.844 49.117 118.292 48.5318C117.74 47.9466 117.432 47.1664 117.432 46.3546C117.432 45.5429 117.74 44.7627 118.292 44.1775C118.844 43.5923 119.596 43.2476 120.392 43.2156C122.062 43.2156 123.337 44.5025 123.337 46.3604C123.357 46.7661 123.295 47.1719 123.156 47.5528C123.017 47.9335 122.803 48.2812 122.527 48.5745C122.252 48.868 121.92 49.1007 121.553 49.2586C121.185 49.4165 120.79 49.4972 120.392 49.4938ZM120.392 41.7069C119.491 41.7107 118.612 41.9863 117.865 42.4989C117.118 43.0115 116.537 43.7382 116.195 44.5873C115.853 45.4364 115.765 46.3698 115.942 47.2697C116.12 48.1697 116.555 48.996 117.192 49.6442C117.83 50.2924 118.641 50.7336 119.524 50.9122C120.408 51.0906 121.323 50.9985 122.155 50.6472C122.987 50.2958 123.698 49.7012 124.199 48.9383C124.699 48.1754 124.967 47.2784 124.969 46.3604C124.982 45.7444 124.873 45.132 124.648 44.5604C124.422 43.9888 124.085 43.4697 123.657 43.0346C123.23 42.5995 122.72 42.2575 122.158 42.0293C121.597 41.8011 120.996 41.6914 120.392 41.7069ZM104.417 43.3197C105.488 43.3197 106.074 43.9695 106.074 44.7901C106.074 45.6477 105.501 46.2979 104.417 46.2979H102.288V43.3197H104.417ZM100.694 50.8713H102.288V47.778H104.111L106.367 50.8713H108.254L105.69 47.4268C106.275 47.2748 106.79 46.9239 107.152 46.4324C107.514 45.9407 107.7 45.3377 107.679 44.7234C107.679 42.9672 106.392 41.8375 104.403 41.8375H100.693L100.694 50.8713ZM92.1395 45.9704H88.3274V47.3092H90.647V49.1029C90.0448 49.3879 89.3856 49.5259 88.7221 49.506C86.899 49.506 85.5474 48.336 85.5474 46.3473C85.535 45.9348 85.6052 45.5239 85.7537 45.1399C85.9021 44.7558 86.1256 44.4066 86.4106 44.1136C86.6958 43.8205 87.0364 43.5897 87.4117 43.4351C87.7872 43.2806 88.1896 43.2056 88.5942 43.2147C89.0526 43.2006 89.5088 43.2807 89.936 43.4505C90.3632 43.6203 90.7524 43.8761 91.0804 44.2027L92.0242 42.9938C91.0868 42.129 89.8578 41.6679 88.5942 41.7069C85.9427 41.7069 83.9282 43.6696 83.9282 46.3473C83.9282 49.1678 85.9171 51.0009 88.7221 51.0009C89.934 51.0134 91.1228 50.6606 92.1387 49.9867L92.1395 45.9704Z" fill="black"/>
<path d="M135.096 35.8089H156.703V33.1194H138.798V24.5073H152.247V21.7853H138.798V13.8529H156.701V11.1704H135.096V35.8089Z" fill="black"/>
<path d="M146.324 7.18799L143.4 10.537L152.583 7.18799H146.324Z" fill="black"/>
<path d="M189.601 11.1711V35.8079H211.444V33.1185H192.977V11.1711H189.601Z" fill="black"/>
<path d="M170.704 11.1711L158.417 35.8091H162.57L165.714 29.432H180.451L183.622 35.8091H187.733L175.434 11.1711H170.704ZM167.268 26.3443L173.058 14.5761L178.917 26.3443H167.268Z" fill="black"/>
<path d="M123.37 25.5076C128.906 24.0017 129.444 19.8 129.416 18.299C129.086 13.8983 126.177 11.1716 120.951 11.1716H105.719V35.8084H109.192V25.4717H119.107L126.401 35.8047H130.779C130.779 35.8047 125.531 28.8497 123.37 25.504V25.5076ZM120.476 22.5584H109.192V14.0878H120.871C123.557 14.0878 125.071 15.3669 125.615 16.9925C125.777 17.5895 125.82 18.2138 125.74 18.828C125.659 19.4421 125.459 20.0334 125.149 20.5665C124.173 22.2132 122.319 22.5621 120.476 22.5621" fill="black"/>
<path d="M84.7357 34.8285C77.9544 34.8285 72.3681 29.274 72.3681 22.5813C72.3681 15.8966 77.6904 10.0758 84.9985 10.0758C86.6177 10.0622 88.2235 10.3756 89.7233 10.9979C91.2231 11.6203 92.5871 12.5393 93.7367 13.7019C94.8864 14.8646 95.7988 16.2478 96.4214 17.7718C97.044 19.2958 97.3643 20.9304 97.3641 22.5813C97.3641 29.2733 91.5154 34.8285 84.7357 34.8285ZM84.8531 7C75.0525 7 68.3715 14.0457 68.3715 22.5727C68.3715 31.5502 75.752 37.8885 84.8531 37.8885C93.9542 37.8885 101.326 31.6417 101.326 22.5727C101.326 14.0457 94.5639 7 84.8531 7Z" fill="black"/>
<path d="M59.6277 19.8869H62.1323L66.6802 11.1716H63.0208L59.6277 19.8869Z" fill="black"/>
<path d="M44 11.1711V35.8079H65.8416V33.1185H47.379V11.1711H44Z" fill="black"/>
</g>
</g>
<defs>
<clipPath id="clip0_1047_480">
<rect width="167.444" height="44" fill="white" transform="translate(44 7)"/>
</clipPath>
</defs>
</svg>
