<svg width="256" height="58" viewBox="0 0 256 58" fill="none" xmlns="http://www.w3.org/2000/svg">
<path d="M35.3523 12H38.9259V31.4061H35.4051V19.6217L29.2365 31.4061H26.6894L20.516 19.6217V31.4061H17V12H20.5736L27.9605 26.1325L35.3523 12ZM75.237 20.0293L69.0302 12H64.4013L73.4672 23.4738V31.4061H76.988V23.4738L86.073 12H81.593L75.237 20.0293ZM119.228 23.0906H130.865V19.6945H119.228V15.3961H131.359V12H115.707V31.4061H131.498V27.9615H119.228V23.0906ZM154.815 27.9421H143.854V12H140.338V31.4061H154.815V27.9421ZM176.568 27.9421H165.608V12H162.092V31.4061H176.568V27.9421ZM187.092 12H183.576V31.4061H187.092V12ZM209.795 25.2349L199.065 12H195.918V31.4061H199.434V18.1469L209.987 31.1829L210.145 31.3818H213.302V12H209.786L209.795 25.2349ZM237.823 27.9615H225.552V23.11H237.17V19.7139H225.552V15.3961H237.679V12H222.032V31.4061H237.823V27.9615ZM58.5637 25.9335H50.8889L48.4522 31.4061H44.5429L53.3449 12H56.127L64.929 31.4061H61.0244L58.5637 25.9335ZM54.7263 17.4385C54.0932 18.8406 52.9947 21.2712 52.4383 22.5132H57.0192C56.4723 21.2761 55.3739 18.8552 54.7359 17.4385H54.7263ZM107.821 25.5018C107.85 26.997 107.289 28.4422 106.262 29.5188C105.054 30.756 103.284 31.3818 100.986 31.3818H90.913V12H101.144C104.982 12 107.236 14.0182 107.236 17.4046C107.295 18.8087 106.749 20.1697 105.74 21.1354C107.658 22.5084 107.821 24.7789 107.821 25.5018ZM103.744 17.4725C103.744 15.7114 102.938 15.4155 100.516 15.4155H94.453V19.6751H100.689C103.38 19.6751 103.744 18.5592 103.744 17.4725ZM100.492 23.0906H94.453V27.9421H100.77C103.941 27.9421 104.305 26.4866 104.305 25.3853C104.301 23.4253 103.13 23.0906 100.492 23.0906ZM147.98 41.8611L142.732 35.2873H140.334V44.7623H142.583V38.1642L147.86 44.7623H150.258V35.2873H147.999L147.98 41.8611ZM156.182 40.6676H162.178V39.0812H156.201V36.9319H162.682V35.2873H153.851V44.7623H162.821V43.0982H156.201L156.182 40.6676ZM177.288 42.0745L175.033 35.2824H172.712L170.4 42.0745L168.323 35.2824H165.924L169.119 44.6847L169.148 44.7768H171.484L173.853 37.9362L176.16 44.7623H178.463L181.821 35.2679H179.422L177.288 42.0745ZM192.292 39.314L189.236 35.2873H186.478L191.088 41.0751V44.7817H193.434V41.0557L198.024 35.2873H195.352L192.292 39.314ZM210.721 40.0369C210.721 42.9478 208.323 45 204.888 45C201.454 45 199.084 42.9575 199.084 40.0369C199.084 37.1163 201.482 35.069 204.912 35.069C208.342 35.069 210.745 37.1114 210.745 40.0369H210.721ZM208.371 40.0369C208.371 37.5432 206.495 36.6408 204.888 36.6408C202.317 36.6408 201.406 38.465 201.406 40.0369C201.406 41.6088 202.317 43.433 204.888 43.433C206.519 43.4136 208.39 42.5306 208.39 40.0369H208.371ZM224.042 44.5343L224.325 44.772H221.662L221.624 44.7186C221.342 44.2901 221.22 43.7744 221.279 43.2632C221.279 41.701 220.943 40.9587 219.043 40.9587H216.113V44.7574H213.762V35.2873H219.576C222.2 35.2873 223.643 36.2236 223.643 37.9168C223.663 38.9663 223.001 39.905 222.012 40.2261C222.9 40.4564 223.503 41.2897 223.452 42.2152C223.466 43.3505 223.691 44.2189 224.065 44.5343H224.042ZM219.36 36.864H216.113V39.479H219.422C220.29 39.479 221.341 39.2461 221.341 38.14C221.341 37.2279 220.737 36.864 219.384 36.864H219.36ZM237.789 35.2873H234.772L229.654 39.348V35.2873H227.303V44.7623H229.654V41.5942L231.203 40.4056L235.04 44.772H238L232.853 39.1006L237.789 35.2873Z" fill="black"/>
</svg>
