<svg width="256" height="58" viewBox="0 0 256 58" fill="none" xmlns="http://www.w3.org/2000/svg">
<path d="M39.0783 13.4536L39.1457 14.1459H35.8965L42.0821 38.1151C43.684 32.355 46.7099 22.4151 48.2012 16.5599C48.4235 15.6753 48.0454 14.8869 47.4672 14.5531C47.0006 14.2907 45.9316 14.3857 45.3091 14.362L45.2196 13.4536H52.6964V14.1459C51.6948 14.1935 49.9148 14.3846 49.5588 15.4604C46.3992 24.6605 42.951 37.088 40.6813 44.9488H40.3253L31.8037 14.1459H29.0664L29 13.4536H39.0783ZM62.841 34.5077L55.6107 34.4353C54.8755 36.8018 54.2089 39.6694 53.7191 41.9873C53.5411 42.8957 53.6528 43.2067 53.9192 43.614C54.1856 44.0212 55.8329 43.7576 56.8345 43.8277L56.7681 44.4974H49.8927L49.8264 43.8277C50.472 43.7576 52.096 44.02 52.3183 43.3266C54.6764 36.2305 58.2363 21.2454 60.5956 13.0011H60.9958L69.2288 43.8277H71.8313V44.4974H62.0638V43.8277H65.3561L62.841 34.5077ZM59.2811 20.4558L55.7886 33.9093H62.7304L59.2811 20.4558ZM76.792 14.362H73.3879V13.4536H83.7113V14.362H80.2623V43.9001C81.9756 43.9001 83.756 43.8029 85.4681 43.8515C91.988 44.0416 93.2561 41.1513 93.2342 34.579L93.7237 34.5088L93.6571 44.4974H73.3437V43.9013H76.792V14.362ZM99.0193 14.457H96.0374V13.5487H114.26L114.749 21.3156L114.281 21.2443C113.993 18.7115 113.881 17.9694 112.88 16.5362C111.878 15.1018 110.054 14.6244 108.074 14.6007L102.6 14.5294L102.534 28.6763C103.49 28.6525 104.468 28.6525 105.425 28.5801C106.383 28.5327 107.829 27.984 108.341 27.1944C108.853 26.4049 108.942 24.9953 109.031 23.0123H109.543L109.609 34.5541H108.897C108.897 34.5077 108.875 34.4353 108.875 34.3402C108.853 32.9546 109.031 31.7838 108.252 30.5406C107.786 29.7521 106.272 29.1797 104.937 29.2261L102.535 29.2985L102.601 43.9466C105.871 43.9227 111.568 44.545 114.037 41.8674C115.083 40.7452 115.35 38.3301 115.35 35.7985L116.018 35.8471L115.974 44.4963H96.1049L96.0383 43.8753H99.0202L99.0193 14.457ZM138.579 14.5294C138.158 14.0995 136.421 14.2669 135.598 14.2669L135.664 13.4548L142.786 13.5022V14.1471C140.404 14.2183 139.604 13.8846 139.536 16.4412C139.313 23.6097 139.492 39.2871 139.47 44.9499L138.846 44.9985L122.449 15.4853C122.404 19.8585 122.293 35.2973 122.293 41.4386C122.293 44.5211 123.828 43.7564 125.898 43.7078V44.4963H118.354V43.8515C121.78 43.7564 121.758 43.9703 121.803 39.4307C121.868 31.3776 121.914 22.8211 121.936 14.1708C120.246 14.1945 119.377 14.2183 118.532 14.2183V13.4536L125.83 13.5011L138.891 36.8493C138.868 34.5077 138.956 20.9569 138.912 16.0339C138.892 15.1742 138.712 14.6244 138.579 14.5294ZM198.253 14.5531C197.831 14.1233 196.094 14.2907 195.272 14.2669L195.337 13.4785L202.459 13.526V14.1708C200.077 14.2183 199.299 13.8835 199.209 16.4412C198.987 23.6334 199.165 39.2871 199.143 44.9499L198.52 44.9985L182.123 15.4853C182.079 19.8823 181.967 35.2973 181.967 41.4386C181.967 44.5211 183.502 43.7564 185.572 43.7078V44.4963H178.028V43.8515C181.456 43.7564 181.456 43.9703 181.478 39.4545C181.543 31.3766 181.588 22.845 181.612 14.1935C179.943 14.2172 179.052 14.2172 178.208 14.2172V13.4762L185.506 13.5238L198.566 36.8482C198.544 34.5066 198.632 20.9558 198.588 16.0565C198.565 15.1979 198.386 14.6482 198.253 14.5531ZM152.886 14.2896C149.794 14.2183 147.014 14.4808 145.944 15.8914C144.853 17.302 144.964 19.285 144.698 22.4626L144.209 22.5338L144.252 13.4536H165.168L165.278 22.6062H164.721C164.433 19.0214 164.499 17.0147 163.366 15.8428C162.231 14.6719 158.982 14.2172 156.466 14.2172L156.401 43.7768L159.828 43.8493V44.5189H149.324V43.8493H152.819L152.886 14.2896ZM170.219 14.362H167.215V13.4536H176.783V14.362H173.712V43.778H176.649V44.5201H167.014V43.778H170.219V14.362ZM215.141 13.5487C214.852 13.5487 214.541 13.5724 214.228 13.6448C213.903 13.7178 213.584 13.8134 213.272 13.931C212.026 14.4558 210.869 15.7952 209.824 17.9694C208.777 20.1685 208.267 23.8008 208.267 28.915C208.267 33.9817 208.776 37.5891 209.801 39.787C210.846 41.9612 211.981 43.3243 213.205 43.8741C213.538 44.0393 213.872 44.1366 214.184 44.2078C214.495 44.2802 214.808 44.3028 215.141 44.3028C215.451 44.3028 215.764 44.2802 216.097 44.2078C216.43 44.1377 216.764 44.0404 217.099 43.8741C218.323 43.2995 219.456 41.9148 220.481 39.7384C221.526 37.5405 222.038 33.9319 222.038 28.915C222.038 24.2782 221.594 20.9083 220.726 18.7578C219.858 16.6075 218.902 15.1493 217.854 14.4084C217.424 14.0843 216.941 13.8495 216.43 13.7161C216.008 13.6086 215.575 13.5525 215.141 13.5487ZM204.35 28.9863C204.35 24.4467 205.329 20.7895 207.287 18.0418C209.245 15.2704 211.381 13.6448 213.738 13.1426C213.982 13.095 214.228 13.0713 214.472 13.0476C214.717 13 214.941 13 215.163 13C217.965 13 220.481 14.4818 222.704 17.4932C224.93 20.4807 226.043 24.3279 226.043 28.9874C226.043 33.3844 225.152 36.8968 223.373 39.5507C221.594 42.2044 219.635 43.8764 217.52 44.5687C217.142 44.7357 216.747 44.8487 216.341 44.9046C215.951 44.972 215.557 45.0038 215.163 44.9996C214.547 45.0011 213.933 44.9129 213.339 44.7373C212.67 44.5698 212.004 44.2848 211.313 43.9239C209.579 42.8718 207.976 41.1287 206.529 38.7147C205.062 36.2758 204.328 33.0496 204.35 28.9863Z" fill="black"/>
</svg>
