<svg width="256" height="58" viewBox="0 0 256 58" fill="none" xmlns="http://www.w3.org/2000/svg">
<g clip-path="url(#clip0_987_4387)">
<path d="M68.1061 43.7484C62.1836 43.7484 57.4803 39.2194 57.4803 32.7742C57.4803 26.6774 61.8352 21.4516 68.3674 21.5387C74.4642 21.6258 78.9061 26.5032 78.9061 32.6C78.9061 38.6968 75.0739 43.7484 68.1061 43.7484ZM60.3545 32.6871C60.3545 38 63.0545 43.3129 68.1061 43.2258C73.5932 43.1387 76.119 38.6097 76.0319 32.6871C75.9448 27.7226 74.2029 22.2355 68.3674 22.1484C62.2707 21.9742 60.3545 27.5484 60.3545 32.6871ZM130.119 43.7484C124.196 43.7484 119.493 39.2194 119.493 32.7742C119.493 26.6774 123.848 21.4516 130.38 21.5387C136.477 21.6258 140.919 26.5032 140.919 32.6C140.919 38.6968 137 43.7484 130.119 43.7484ZM122.28 32.6871C122.28 38 124.98 43.3129 130.032 43.2258C135.519 43.1387 138.045 38.6097 137.958 32.6871C137.871 27.7226 136.129 22.2355 130.293 22.1484C124.284 21.9742 122.367 27.5484 122.28 32.6871ZM184.38 12.7419L180.025 17.0968C178.458 18.6645 178.632 21.0161 178.719 21.8C178.109 22.2355 176.367 23.8903 176.367 25.9807V43.9226C176.367 43.9226 178.893 42.1807 178.893 39.5678V21.8L183.074 17.6194C184.903 15.7903 184.38 12.7419 184.38 12.7419ZM149.629 43.8355C152.503 43.8355 156.858 42.0065 156.771 37.3032C156.684 33.471 154.158 31.9903 150.935 31.0323L148.496 30.3355C146.058 29.6387 143.619 28.5936 143.619 26.1548C143.706 23.7161 145.971 22.2355 148.409 22.1484C152.067 22.1484 153.461 23.9774 154.245 25.5452C155.203 27.3742 155.116 28.5065 155.116 28.5065C155.116 28.5065 156.422 28.1581 156.422 25.8065C156.422 23.4548 152.677 21.7129 148.409 21.7129C145.1 21.7129 141.964 23.7161 142.051 27.3742C142.051 30.2484 144.229 31.9903 146.929 32.8613L149.455 33.7323C152.067 34.6032 154.68 35.3 154.855 38.4355C154.942 41.7452 152.416 43.3129 149.455 43.4C146.755 43.4 144.838 41.3968 144.055 39.9161C143.096 38.0871 142.748 35.9968 142.748 35.9968C142.748 35.9968 141.18 37.3032 141.18 39.6548C141.18 42.0065 145.448 43.8355 149.629 43.8355ZM166.003 43.8355C168.877 43.8355 173.232 42.0065 173.145 37.3032C173.058 33.471 170.532 31.9903 167.309 31.0323L164.871 30.3355C162.432 29.6387 159.993 28.5936 159.993 26.1548C160.08 23.7161 162.345 22.2355 164.784 22.1484C168.442 22.1484 169.835 23.9774 170.619 25.5452C171.577 27.3742 171.49 28.5065 171.49 28.5065C171.49 28.5065 172.796 28.1581 172.796 25.8065C172.796 23.4548 169.051 21.7129 164.784 21.7129C161.474 21.7129 158.338 23.7161 158.425 27.3742C158.425 30.2484 160.603 31.9903 163.303 32.8613L165.829 33.7323C168.442 34.6032 171.055 35.3 171.229 38.4355C171.316 41.7452 168.79 43.3129 165.829 43.4C163.129 43.4 161.213 41.3968 160.429 39.9161C159.471 38.0871 159.122 35.9968 159.122 35.9968C159.122 35.9968 157.555 37.3032 157.555 39.6548C157.555 42.0065 161.735 43.8355 166.003 43.8355ZM96.2384 35.9968V38.7839C96.2384 41.3968 93.9739 43.3129 90.49 43.3129C84.4803 43.3129 82.9126 37.6516 82.9126 32.5129C82.9997 27.3742 85.1771 22.1484 90.8384 22.1484C94.4965 22.1484 95.89 23.9774 96.6739 25.4581C97.6319 27.2871 97.5448 28.4194 97.5448 28.4194C97.5448 28.4194 98.8513 28.071 98.8513 25.7194C98.8513 23.3677 95.1061 21.6258 90.8384 21.6258C84.5674 21.6258 80.2997 26.6774 80.2126 32.6C80.1255 38.3484 83.6094 43.5742 90.0545 43.8355C92.5803 43.9226 94.8448 42.9645 96.3255 42.0936V46.1C96.3255 46.1 98.8513 44.3581 98.8513 41.7452V31.642C98.8513 31.642 96.2384 33.3839 96.2384 35.9968ZM213.122 25.1097V38.9581L199.796 22.1484C199.796 22.1484 198.403 23.1065 198.403 25.7194V43.9226C198.403 43.9226 199.796 42.9645 199.796 40.3516V26.5032L213.122 43.3129C213.122 43.3129 214.516 42.3549 214.516 39.742V21.5387C214.516 21.5387 213.122 22.4968 213.122 25.1097ZM114.877 25.8936V31.642H104.251V21.5387C104.251 21.5387 101.725 23.2807 101.725 25.8936V43.8355C101.725 43.8355 104.251 42.0936 104.251 39.4807V32.6871H114.877V43.8355C114.877 43.8355 117.403 42.0936 117.403 39.4807V21.5387C117.403 21.5387 114.877 23.3677 114.877 25.8936ZM195.616 43.7484C195.616 43.7484 197.271 41.1355 196.313 38.7839C195.703 37.3032 189.693 22.1484 189.693 22.1484C189.693 22.1484 188.038 22.5839 187.167 25.0226C186.558 26.5903 185.774 28.5936 180.025 43.8355C180.025 43.8355 181.68 43.4 182.551 40.9613C182.725 40.5258 183.422 38.6097 184.293 36.2581H192.48C194.222 40.1774 195.616 43.7484 195.616 43.7484ZM184.729 35.1258C185.948 31.9903 187.342 28.2452 188.3 25.6323C188.735 26.6774 190.477 31.0323 192.132 35.1258H184.729ZM57.0448 37.0419C56.8707 34.0807 54.0836 32.4258 51.1223 32.1645L49.99 31.9903L51.3836 31.5548C53.6481 30.8581 55.39 29.2903 55.3029 26.9387C55.2158 23.8903 52.1674 22.2355 49.119 22.2355H44.3287C42.3255 22.2355 40.3223 24.0645 40.3223 26.7645V43.0516H49.4674C53.2126 43.0516 57.219 41.2226 57.0448 37.0419ZM43.2836 23.4548C43.8061 22.9323 44.59 22.9323 45.461 22.9323H48.0739C50.5997 22.9323 52.69 23.9774 52.69 27.3742C52.7771 30.3355 50.7739 31.9032 48.4223 31.9032H42.9352V24.3258C43.0223 23.9774 43.1094 23.7161 43.2836 23.4548ZM49.5545 42.5291H46.1577C45.1126 42.5291 43.8932 42.442 43.4577 41.9194C43.0223 41.3968 43.0223 40.9613 43.0223 40.2645V32.8613H48.3352C51.2965 32.8613 54.0836 33.3839 54.0836 37.6516C54.0836 41.0484 52.1674 42.5291 49.5545 42.5291Z" fill="black"/>
</g>
<defs>
<clipPath id="clip0_987_4387">
<rect width="174.194" height="36" fill="white" transform="translate(40.9033 11)"/>
</clipPath>
</defs>
</svg>
