<svg width="256" height="58" viewBox="0 0 256 58" fill="none" xmlns="http://www.w3.org/2000/svg">
<path fill-rule="evenodd" clip-rule="evenodd" d="M130.2 21.0004C127.03 20.9794 124.464 21.795 122.394 23.384C120.302 24.974 119.268 26.9063 119.268 29.3114C119.268 31.2871 120.302 33.0916 121.984 34.5091C124.011 36.227 126.814 37 130.264 37C131.708 37 133.197 36.7636 134.318 36.4632C135.978 36.0338 138.177 35.0456 138.845 33.5853L138.803 31.4166C138.76 29.9132 138.868 29.8485 140.42 29.8274V29.3114H134.577V29.8274C135.181 29.8274 135.59 29.8059 135.956 30.0419C136.302 30.2998 136.215 31.4592 136.215 31.9105L136.194 33.2204C135.698 34.1655 134.555 34.6807 133.736 35.0029C132.981 35.3037 131.601 35.6256 130.307 35.647C128.151 35.6685 126.469 35.0671 125.068 34.1868C123.644 33.2629 122.265 31.3523 122.265 28.9683C122.265 26.6703 123.731 24.7799 125.456 23.5986C126.577 22.8259 128.474 22.1599 130.35 22.1818C131.968 22.2036 133.477 22.5895 134.577 23.2129C135.828 23.9 137.164 25.2961 137.66 26.3266L138.156 26.1334L137.358 22.7616C136.366 22.16 135.137 21.7302 133.973 21.4517C132.701 21.1504 131.407 21.0222 130.2 21.0004ZM54.3998 21.3567C52.1954 21.3647 49.9995 21.3969 46.0214 21.3806L46 21.8748C46.539 21.8748 46.7334 21.8531 47.0566 22.1107C47.3586 22.3691 47.4015 22.6475 47.4015 23.5931V33.7079C47.4015 34.5669 47.4662 35.4476 47.272 35.6837C46.9919 36.0059 46.7977 36.0704 46.1077 36.0489V36.5641H54.3015C56.5441 36.5641 60.231 36.4999 61.7401 35.3188C62.3225 34.9968 63.3786 34.0089 63.3571 32.3336C63.3571 30.2934 62.4733 29.6703 61.6755 29.2194C60.9639 28.8331 59.8428 28.5326 58.5275 28.3178C59.5839 27.9529 59.821 27.845 60.4894 27.3297C61.1794 26.8355 61.6328 25.8479 61.6328 24.86C61.6328 22.2826 58.8293 21.4671 56.6733 21.3597C55.8701 21.3543 55.1347 21.3541 54.3998 21.3567ZM209.957 21.3806L204.61 21.4019V21.8531C205.493 21.8959 205.753 21.9177 205.925 22.5402C206.011 22.7769 205.99 23.313 205.99 24.0648V33.8794C205.99 35.6618 206.141 36.0702 204.718 36.0702V36.5641H210L209.979 36.0702C208.534 36.0702 208.598 35.5114 208.598 33.8794V24.0648C208.598 22.3037 208.556 21.8531 209.957 21.8531V21.3806ZM69.9767 21.4023V21.9604C70.4944 21.9604 70.7103 21.9821 71.0119 22.1541C71.3571 22.3689 71.7884 23.3564 72.3057 24.3658L78.7744 36.5641H80.9522C82.289 33.9227 84.4449 29.6276 86.1053 26.3845C87.2264 24.2373 88.0462 22.5193 88.3694 22.1115C88.5635 21.8749 89.1026 21.9604 89.4474 21.9604V21.4023L84.9196 21.4236V21.9604C84.9627 21.9604 86.2348 21.789 86.1053 22.6045C85.9975 23.2489 80.9521 32.6557 80.3269 34.1591L75.3024 24.7315C74.936 24.0434 74.6342 23.5282 74.4835 23.1205C74.0736 22.154 74.6993 21.9604 75.5619 21.9604V21.4023H69.9767ZM185.064 21.4168C184.742 21.4142 184.399 21.4154 184.035 21.4172C183.549 21.4196 183.026 21.4236 182.465 21.4236H175.566V21.8961C176.515 21.8961 176.903 22.1755 176.903 23.2704V24.4088V32.6125V35.2324C176.903 36.0482 176.299 36.0266 175.566 36.0051V36.5641H180.957V36.0051C180.072 36.0051 179.555 35.92 179.533 34.8676V30.4004C180.115 30.4431 180.633 30.4004 181.538 30.4004C181.862 30.4004 183.586 30.422 184.104 30.4004C186.066 30.4004 186.972 32.7197 188.029 34.352C188.912 35.7264 188.524 36.5641 194.174 36.5641C194.174 36.4352 194.131 36.1557 194.131 36.0268C191.716 36.0483 191.263 34.6091 190.228 32.7623C189.258 31.0875 188.998 29.9923 186.497 29.7129C190.292 29.0045 191.285 27.2864 191.285 25.3317C191.263 23.3568 189.797 22.1317 187.403 21.5947C186.809 21.4621 186.031 21.4244 185.064 21.4168ZM98.2661 21.4231V21.8957C99.0207 21.8957 99.2365 21.9602 99.4522 22.2614C99.6676 22.5399 99.6676 23.0124 99.6676 23.8506V31.1301V34.8888C99.6676 35.8769 99.2797 36.0483 98.3524 36.0698V36.5641H111.915L113.489 33.4286L112.993 33.2349C112.475 34.0725 111.29 34.8888 109.413 34.8888H105.489H102.277V23.1844C102.277 22.4754 102.406 22.2614 102.578 22.0894C102.837 21.8746 102.967 21.9175 103.635 21.8957V21.4231H98.2661ZM155.729 21.4236L149.454 33.3213C148.894 34.3953 148.678 34.7603 148.42 35.2541C148.117 35.7694 147.945 36.1135 146.909 36.1349V36.5641H151.589L151.611 36.0707C150.769 36.0921 150.404 36.0271 150.382 35.2754C150.382 35.0391 150.597 34.6533 150.921 34.0736L151.804 32.5269H160.86L161.939 34.352C162.651 35.5334 162.456 35.9631 161.184 36.0277V36.5641H166.79V35.9842C165.453 35.9842 165.518 35.6199 164.332 33.4507L157.713 21.4236H155.729ZM182.355 22.516C184.012 22.5061 185.692 22.5887 186.756 23.0984C187.662 23.5279 188.417 24.022 188.417 25.5254C188.417 27.6515 187.101 28.21 186.109 28.5749C184.363 29.0258 181.495 28.8753 179.533 28.8968V22.5611C180.374 22.5611 181.36 22.5219 182.355 22.516ZM54.5977 22.6403C55.9188 22.6386 57.2124 22.6909 57.924 23.1414C58.8509 23.743 59.0665 24.1727 59.0665 25.0746C59.0665 25.6325 58.6141 26.5999 58.1399 26.9648C57.0184 27.8669 55.0132 27.9095 53.5253 27.9095H49.9674V22.6475H53.2877C53.7136 22.6475 54.1574 22.6409 54.5977 22.6403ZM156.246 23.7004L160.063 30.83H152.624L156.246 23.7004ZM54.4823 29.2565C56.6744 29.2506 58.2306 29.3347 59.3251 30.1428C59.9073 30.5722 60.4681 31.3239 60.4681 32.2263C60.4681 34.7174 57.3419 34.8893 54.2584 34.8893H49.9674V29.2624C51.1316 29.2624 52.3394 29.2839 53.504 29.2624C53.8435 29.2597 54.1692 29.2573 54.4823 29.2565Z" fill="black"/>
</svg>
