<svg width="256" height="58" viewBox="0 0 256 58" fill="none" xmlns="http://www.w3.org/2000/svg">
<g clip-path="url(#clip0_987_4395)">
<path d="M232.139 41.17C232.021 41.1943 231.903 41.2429 231.785 41.2429C230.646 41.2499 229.506 41.2394 228.37 41.2533C228.12 41.2533 228.002 41.1665 227.902 40.9511C224.741 34.3859 221.576 27.8207 218.411 21.2554C217.852 20.0952 217.293 18.9385 216.73 17.7817C216.678 17.6775 216.616 17.5768 216.491 17.49V41.2082H216.015V16.7709C216.171 16.764 216.306 16.7501 216.442 16.7501C217.512 16.7501 218.582 16.764 219.648 16.7396C219.964 16.7327 220.107 16.8508 220.239 17.1218C221.513 19.793 222.806 22.4573 224.091 25.1216C225.654 28.3591 227.221 31.5965 228.78 34.834C229.614 36.5639 230.448 38.2972 231.281 40.0271C231.361 40.1939 231.448 40.3571 231.622 40.4995V16.7153C231.834 16.7605 231.99 16.7918 232.143 16.823V41.1665L232.139 41.17Z" fill="black"/>
<path d="M71.1517 41.5C70.787 41.4305 70.4188 41.3715 70.0541 41.2881C67.0736 40.6003 64.9443 38.7836 63.4055 36.2235C60.564 31.5028 60.8766 25.0139 64.1627 20.6337C65.6946 18.5946 67.6642 17.1635 70.2104 16.6737C73.1908 16.1005 75.803 16.9411 78.0817 18.8968C78.4569 19.2199 78.8112 19.5638 79.2245 19.9459C78.7625 20.1057 78.5055 19.998 78.2415 19.734C76.5255 18.018 74.4795 17.0106 72.0167 16.9932C69.3176 16.9724 67.5426 18.1569 66.4831 20.6475C65.8197 22.2072 65.5418 23.8537 65.4132 25.5281C65.2187 28.0986 65.2152 30.6726 65.4897 33.2396C65.646 34.7159 65.9482 36.161 66.563 37.5226C67.7927 40.2495 69.9533 41.2395 72.7566 40.9581C74.7921 40.7566 76.5151 39.8604 78.0018 38.4883C78.3804 38.1409 78.377 38.1375 78.9501 38.2104C78.172 39.0997 77.2689 39.7909 76.2615 40.3502C75.2333 40.9199 74.1321 41.2811 72.9615 41.4166C72.8816 41.427 72.8087 41.4687 72.7323 41.493H71.1483L71.1517 41.5Z" fill="black"/>
<path d="M150.435 17.9416C148.031 25.7122 145.631 33.4828 143.227 41.2499H139.17C136.988 33.4341 134.817 25.6427 132.646 17.8513C132.618 17.8547 132.594 17.8617 132.566 17.8652V41.2152C132.41 41.2256 132.278 41.236 132.111 41.2464V16.771H136.134C138.357 24.7257 140.577 32.6804 142.8 40.6351C142.828 40.6351 142.855 40.6385 142.887 40.642C143.078 40.048 143.272 39.454 143.456 38.86C145.607 31.8884 147.757 24.9167 149.907 17.9451C149.914 17.9173 149.928 17.893 149.935 17.8686C150.06 17.5074 150.081 17.0037 150.334 16.8196C150.591 16.632 151.081 16.7536 151.467 16.7536C152.394 16.7501 153.325 16.7536 154.284 16.7536V41.2291H150.56V17.9659C150.518 17.959 150.473 17.952 150.431 17.9451L150.435 17.9416Z" fill="black"/>
<path d="M106.878 41.236H103.085V16.7814C103.165 16.7675 103.255 16.7431 103.345 16.7431C106.496 16.7431 109.65 16.7188 112.801 16.7501C115.583 16.7779 117.344 18.1569 118.102 20.8351C119.119 24.4338 118.355 27.5845 115.694 30.2488C115.08 30.8636 114.36 31.3256 113.443 31.5896C115.416 34.8027 117.369 37.9881 119.37 41.2499C118.487 41.2499 117.681 41.1839 116.896 41.2672C116.063 41.3576 115.628 41.0449 115.208 40.3363C113.489 37.4323 111.696 34.57 109.932 31.6903C109.869 31.5861 109.82 31.4784 109.751 31.343C110.164 31.3048 110.553 31.3117 110.925 31.2283C112.196 30.947 113.124 30.148 113.885 29.1441C115.396 27.1503 115.861 24.8924 115.528 22.44C115.34 21.0644 114.961 19.7618 114.083 18.6537C113.193 17.5351 112.023 16.9446 110.595 16.9099C109.376 16.8821 108.157 16.9029 106.885 16.9029V41.2325L106.878 41.236Z" fill="black"/>
<path d="M44.2973 28.6753C44.2348 32.2358 43.3768 35.1745 41.303 37.679C39.6495 39.6764 37.5688 40.986 34.9392 41.2326C32.1499 41.4966 29.7496 40.5691 27.7418 38.6412C25.5117 36.5014 24.3411 33.8337 23.9798 30.8012C23.5734 27.4282 24.2091 24.2707 26.0779 21.4083C27.5299 19.1852 29.4995 17.5873 32.1395 17.0003C35.0712 16.3472 37.6973 17.0871 39.9622 19.0254C42.2965 21.0193 43.5643 23.6107 44.0646 26.598C44.2 27.4004 44.2452 28.2167 44.2938 28.6787L44.2973 28.6753ZM40.7368 29.0574C40.5978 27.4595 40.504 25.8581 40.306 24.2707C40.108 22.6867 39.6738 21.1582 38.8645 19.7549C37.2805 17.0142 34.3765 16.5452 32.0179 17.3685C30.413 17.9277 29.4613 19.1748 28.8117 20.6685C27.8286 22.9298 27.575 25.3405 27.5229 27.7652C27.4882 29.3248 27.5577 30.8915 27.6619 32.4477C27.773 34.122 28.0857 35.7685 28.7457 37.3247C29.6731 39.5062 31.1946 40.9165 33.6922 41.0207C35.1511 41.0832 36.5093 40.8123 37.6522 39.8292C38.8818 38.7698 39.4932 37.356 39.9031 35.8414C40.504 33.6218 40.643 31.3465 40.7368 29.0504V29.0574Z" fill="black"/>
<path d="M100.243 41.2429C98.913 41.2429 97.6625 41.2499 96.4154 41.229C96.3043 41.229 96.141 41.0658 96.0959 40.9442C95.3317 38.8391 94.5779 36.7306 93.8241 34.6256C93.508 33.7398 93.1849 32.8575 92.8827 31.9717C92.8063 31.7494 92.6917 31.6834 92.4624 31.6834C89.812 31.6903 87.1581 31.6938 84.5077 31.6834C84.2506 31.6834 84.1499 31.7772 84.0665 32.003C82.9584 34.966 81.833 37.9256 80.7318 40.8921C80.6137 41.2047 80.4643 41.3124 80.0996 41.2116C80.2594 40.7635 80.4157 40.3154 80.5824 39.8743C83.3232 32.5935 86.0674 25.3161 88.8116 18.0353C88.8637 17.8929 88.9262 17.754 88.9783 17.6115C89.1983 17.0395 89.6198 16.7535 90.2427 16.7535C90.6457 16.7535 91.0451 16.7535 91.4759 16.7535C94.3938 24.9062 97.3047 33.045 100.24 41.2499L100.243 41.2429ZM92.6222 31.2631C91.2814 27.5219 89.9579 23.8225 88.6344 20.123C88.6032 20.1265 88.5719 20.1334 88.5406 20.1369C87.1477 23.8364 85.7547 27.5358 84.3514 31.2631H92.6222Z" fill="black"/>
<path d="M156.278 41.1978C156.865 39.6346 157.445 38.0993 158.022 36.5604C160.46 30.082 162.899 23.6037 165.33 17.1218C165.431 16.8508 165.546 16.7188 165.858 16.7397C166.327 16.7709 166.803 16.7675 167.272 16.7397C167.574 16.7223 167.706 16.83 167.807 17.1114C168.672 19.5742 169.554 22.0336 170.433 24.4929C172.371 29.9188 174.313 35.3412 176.255 40.7671C176.304 40.906 176.349 41.0484 176.411 41.2429C175.442 41.2429 174.518 41.2464 173.594 41.2429C173.195 41.2429 172.705 41.3506 172.423 41.1631C172.16 40.9894 172.107 40.4892 171.979 40.1279C171.034 37.4879 170.082 34.8479 169.158 32.201C169.016 31.7911 168.825 31.673 168.398 31.6765C165.886 31.7008 163.371 31.6973 160.86 31.6765C160.498 31.6765 160.335 31.7703 160.203 32.1211C159.116 35.0494 158.001 37.9673 156.91 40.8921C156.795 41.2013 156.646 41.3194 156.274 41.1943L156.278 41.1978ZM164.778 19.998C163.343 23.8086 161.943 27.5254 160.54 31.2527H168.804C167.463 27.5046 166.136 23.8017 164.778 19.998Z" fill="black"/>
<path d="M46.9925 38.214C47.3017 38.1132 47.4719 38.2001 47.6317 38.4849C48.6529 40.2877 50.3064 40.9234 52.2795 40.9026C52.8422 40.8956 53.4223 40.8331 53.9677 40.6942C55.7045 40.253 56.6493 38.9469 56.8369 37.1059C57.0384 35.0946 56.1908 33.6391 54.6207 32.5449C53.6446 31.8676 52.599 31.2875 51.5604 30.7074C49.9104 29.7868 48.3855 28.7274 47.2947 27.1434C46.1137 25.4309 45.5892 23.5481 45.9157 21.4848C46.2561 19.3346 47.5553 17.9555 49.5908 17.2816C51.5257 16.6425 53.5126 16.5417 55.4995 17.0072C56.9376 17.3442 58.0319 18.1639 58.6397 19.5499C58.6849 19.6507 58.7196 19.7549 58.7544 19.8626C58.7683 19.8973 58.7648 19.939 58.7891 20.1161C58.5599 20.005 58.3063 19.9668 58.2542 19.8487C57.6428 18.3897 56.4722 17.6776 54.9959 17.3685C53.3285 17.0211 51.7271 17.2017 50.296 18.1709C48.9239 19.0984 48.4133 20.46 48.5835 22.0614C48.6877 23.0479 49.3338 23.7566 50.0945 24.3123C51.213 25.1287 52.3732 25.8824 53.5404 26.6258C54.9924 27.5498 56.4235 28.4877 57.6567 29.707C60.4982 32.5102 60.0744 36.63 58.5216 38.8635C57.4622 40.385 55.906 41.0763 54.1205 41.3264C52.8735 41.5035 51.6229 41.448 50.4037 41.1527C48.8718 40.7845 47.7533 39.8709 47.0724 38.4432C47.0377 38.3703 47.0203 38.2904 46.9925 38.214Z" fill="black"/>
<path d="M205.023 20.0813C204.863 19.9945 204.613 19.9424 204.558 19.8104C203.926 18.3619 202.748 17.6532 201.272 17.351C199.816 17.0523 198.399 17.1773 197.068 17.886C195.495 18.7231 194.804 20.0744 194.863 21.8112C194.901 22.9124 195.578 23.6974 196.405 24.3088C197.53 25.1355 198.712 25.8893 199.889 26.6431C201.303 27.5462 202.724 28.439 203.908 29.6478C205.312 31.079 206.104 32.7637 206.038 34.7888C205.975 36.7306 205.492 38.523 203.936 39.843C202.446 41.1074 200.66 41.4618 198.764 41.3958C197.579 41.3576 196.412 41.2325 195.359 40.6107C194.404 40.048 193.734 39.256 193.303 38.2521C193.324 38.2104 193.341 38.1722 193.362 38.1305C193.532 38.2035 193.786 38.2312 193.855 38.3563C194.818 40.1036 196.356 40.8504 198.281 40.8886C198.941 40.9025 199.618 40.84 200.261 40.6906C201.886 40.312 202.748 39.2143 203.068 37.6095C203.526 35.3134 202.609 33.6286 200.751 32.399C199.573 31.6209 198.322 30.9574 197.1 30.2453C195.262 29.1719 193.765 27.772 192.855 25.8164C192.195 24.3956 191.969 22.9019 192.251 21.3631C192.629 19.2963 193.89 17.952 195.86 17.2885C197.808 16.632 199.809 16.5312 201.807 16.9967C203.342 17.3545 204.471 18.2542 205.044 19.7687C205.068 19.8312 205.086 19.8937 205.103 19.9563C205.075 19.9945 205.051 20.0327 205.023 20.0709V20.0813Z" fill="black"/>
<path d="M178.012 38.2105C178.325 38.1063 178.492 38.2174 178.658 38.5127C179.673 40.3016 181.326 40.9165 183.278 40.9026C183.831 40.8991 184.393 40.8366 184.925 40.7081C186.665 40.2808 187.593 39.0372 187.825 37.1927C188.086 35.1259 187.207 33.6391 185.595 32.5276C184.525 31.7911 183.376 31.1694 182.243 30.5267C180.44 29.5055 178.867 28.248 177.839 26.4104C176.987 24.8855 176.647 23.2563 176.915 21.5299C177.251 19.3415 178.568 17.9451 180.635 17.2677C182.542 16.6459 184.505 16.5417 186.464 17.0003C188.048 17.3685 189.208 18.282 189.764 19.8626C189.778 19.9008 189.778 19.939 189.788 19.9911C189.486 20.0953 189.322 20.0224 189.184 19.7097C188.593 18.3654 187.478 17.6915 186.088 17.3893C184.359 17.0107 182.716 17.1878 181.239 18.2126C179.117 19.6854 178.957 22.6068 180.972 24.1942C182.205 25.1669 183.57 25.9832 184.897 26.8377C186.495 27.8694 188.068 28.9184 189.288 30.419C191.671 33.3508 190.813 37.8492 188.892 39.6208C187.839 40.5899 186.599 41.1041 185.213 41.3125C183.952 41.5001 182.691 41.441 181.451 41.1631C179.825 40.8018 178.453 39.6 178.012 38.207V38.2105Z" fill="black"/>
<path d="M212.023 41.2291H208.845V16.7814H212.023V41.2291Z" fill="black"/>
</g>
<defs>
<clipPath id="clip0_987_4395">
<rect width="208.278" height="25" fill="white" transform="translate(23.8613 16.5)"/>
</clipPath>
</defs>
</svg>
