<svg width="256" height="58" viewBox="0 0 256 58" fill="none" xmlns="http://www.w3.org/2000/svg">
<g clip-path="url(#clip0_987_4410)">
<path d="M75.7869 41.119H73.5054C72.1101 36.948 70.7184 32.7875 69.3267 28.6269L69.2126 28.6164C67.8159 32.7681 66.419 36.9198 65.0113 41.1036H62.7073C62.4446 40.3493 62.1729 39.5825 61.9105 38.8127C61.0873 36.3978 60.266 33.9819 59.4467 31.5657C58.3995 28.4783 57.3592 25.3885 56.3066 22.3029C55.9865 21.3644 55.6429 20.4337 55.2942 19.5053C55.1953 19.2419 55.0577 18.9891 54.9092 18.7491C54.4579 18.0205 53.7862 17.6381 52.9426 17.5432C52.7503 17.5216 52.5576 17.5036 52.3251 17.4799C52.3144 17.3185 52.3044 17.1703 52.292 16.983H60.7409V17.4747C60.4929 17.4958 60.2667 17.5188 60.0401 17.534C58.6527 17.627 58.4265 18.6282 58.6009 19.4762C58.7575 20.2378 58.9691 20.9926 59.2169 21.7301C60.12 24.4174 61.0505 27.0957 61.9671 29.7784C62.8204 32.2762 63.669 34.7757 64.5212 37.2739C64.5889 37.4723 64.6695 37.6662 64.7886 37.9791C64.954 37.5163 65.0862 37.1632 65.2068 36.8062C66.2893 33.5994 67.3696 30.3919 68.4513 27.1849C68.5592 26.8651 68.654 26.5642 68.5303 26.207C67.8005 24.0982 67.1012 21.9788 66.3694 19.8706C66.2257 19.4566 66.0084 19.0626 65.784 18.6836C65.3982 18.0316 64.8029 17.6794 64.0546 17.5804C63.8099 17.548 63.5658 17.511 63.2815 17.4703C63.2704 17.3219 63.2591 17.1727 63.2449 16.9838H71.6335V17.4729C71.3145 17.5042 71.0173 17.528 70.7215 17.563C69.7018 17.6835 69.3309 18.498 69.4717 19.3196C69.5997 20.0673 69.79 20.8115 70.0295 21.5317C71.5557 26.1208 73.1026 30.703 74.6439 35.2868C74.9315 36.1424 75.2241 36.9963 75.5396 37.9253C75.6232 37.7704 75.6892 37.6797 75.724 37.5785C76.8351 34.3441 77.942 31.1083 79.0523 27.8737C79.8577 25.5273 80.6702 23.1834 81.4714 20.8357C81.6199 20.4004 81.7386 19.9542 81.8507 19.508C81.8975 19.3215 81.9114 19.1207 81.9043 18.9277C81.877 18.1815 81.4447 17.7 80.7042 17.6039C80.1977 17.538 79.687 17.504 79.1488 17.4527V16.9784H86.4083V17.4294C86.3721 17.4481 86.3286 17.487 86.2811 17.4929C85.9824 17.5295 85.6819 17.5515 85.3837 17.5921C84.6526 17.6914 84.0778 18.0614 83.7066 18.6884C83.4468 19.1274 83.2236 19.5982 83.0556 20.0797C81.8198 23.6268 80.6008 27.1795 79.3793 30.7316C78.2208 34.1002 77.066 37.47 75.9084 40.8391C75.8797 40.9224 75.8388 41.0013 75.7878 41.119H75.7869Z" fill="black"/>
<path d="M116.484 30.8185C117.074 31.4903 117.595 32.0905 118.123 32.6841C119.797 34.5649 121.474 36.4424 123.147 38.3234C123.85 39.114 124.639 39.7988 125.626 40.2018C126.113 40.4008 126.636 40.5122 127.204 40.6817C127.212 40.7672 127.226 40.9173 127.241 41.0805C127.147 41.1036 127.081 41.1342 127.014 41.1344C125.453 41.1379 123.892 41.1327 122.33 41.1444C122.088 41.1462 121.937 41.0491 121.788 40.8801C120.427 39.3389 119.06 37.8023 117.696 36.2637C116.026 34.3808 114.357 32.4976 112.688 30.6136C112.564 30.4737 112.448 30.3264 112.242 30.0782C112.595 30.0782 112.817 30.0768 113.039 30.0784C114.122 30.0868 115.203 30.0668 116.27 29.8536C117.215 29.665 118.12 29.3678 118.941 28.8477C120.225 28.0337 121.003 26.8648 121.285 25.3824C121.522 24.1327 121.539 22.8759 121.148 21.6467C120.712 20.2767 119.791 19.3462 118.481 18.7845C117.338 18.2943 116.128 18.1327 114.901 18.089C113.944 18.055 112.985 18.0724 112.027 18.07C111.942 18.0698 111.857 18.0935 111.734 18.1116C111.724 18.2998 111.706 18.471 111.706 18.6424C111.704 25.3857 111.703 32.1291 111.706 38.8723C111.706 39.0652 111.734 39.2593 111.764 39.4505C111.86 40.0558 112.25 40.3837 112.822 40.4916C113.22 40.5664 113.628 40.5849 114.076 40.6334C114.085 40.7737 114.094 40.9217 114.105 41.1055H106.433C106.423 40.9628 106.412 40.8162 106.401 40.6721C106.481 40.6369 106.527 40.6025 106.575 40.5979C106.874 40.5692 107.178 40.5694 107.473 40.5192C108.409 40.3597 108.742 39.9599 108.745 38.9971C108.752 37.2047 108.752 35.4125 108.752 33.6202C108.753 28.8644 108.732 24.1084 108.765 19.3528C108.775 17.8792 108.134 17.5818 106.997 17.5124C106.822 17.5016 106.647 17.5109 106.432 17.5109C106.421 17.3219 106.412 17.1739 106.4 16.9853C106.589 16.9707 106.743 16.9485 106.897 16.9483C109.824 16.9462 112.752 16.9401 115.679 16.9496C117.231 16.9546 118.756 17.1526 120.208 17.7326C122.238 18.5432 123.727 19.8971 124.183 22.1016C124.739 24.7893 123.879 27.5571 121.285 29.2099C120.007 30.0237 118.604 30.4817 117.117 30.7113C116.943 30.7382 116.771 30.7696 116.484 30.8181L116.484 30.8185Z" fill="black"/>
<path d="M126.589 29.4493C126.565 26.2173 127.36 23.5269 129.136 21.1569C130.923 18.7722 133.282 17.2395 136.214 16.7126C139.184 16.1789 142.014 16.618 144.533 18.3884C146.407 19.7053 147.627 21.5293 148.421 23.6571C149.132 25.5639 149.42 27.5415 149.277 29.5611C149.004 33.4371 147.495 36.7284 144.431 39.1957C142.281 40.9261 139.78 41.6278 137.034 41.4768C134.646 41.3452 132.494 40.5955 130.655 39.0258C129.088 37.688 128.039 36.0028 127.376 34.0742C126.832 32.4881 126.549 30.85 126.589 29.4493ZM146.598 30.2762C146.536 29.5353 146.507 28.7901 146.407 28.0543C146.133 26.0256 145.49 24.12 144.348 22.4104C142.417 19.5208 139.773 17.9583 136.226 18.2479C133.823 18.4442 131.919 19.5809 130.581 21.5987C129.584 23.1014 129.175 24.8069 129.064 26.5775C128.901 29.1828 129.436 31.6521 130.659 33.9656C131.706 35.9469 133.077 37.6406 135.047 38.7691C137.243 40.027 139.547 40.1982 141.896 39.261C143.575 38.5913 144.708 37.3221 145.462 35.7061C146.263 33.988 146.57 32.1655 146.598 30.276V30.2762Z" fill="black"/>
<path d="M96.7325 41.1001V40.6676C96.7935 40.6401 96.8388 40.6051 96.8873 40.5999C97.1861 40.5681 97.4889 40.5618 97.7844 40.5116C98.4279 40.4026 98.8316 39.9651 98.8349 39.3041C98.837 38.8845 98.8035 38.4408 98.6676 38.0488C98.0872 36.3754 97.4632 34.7173 96.853 33.0541C96.8419 33.0237 96.8066 33.0023 96.7632 32.9558H87.4185C87.3459 33.144 87.2608 33.3522 87.1848 33.5634C86.6991 34.9142 86.1961 36.2592 85.7409 37.6202C85.5691 38.1343 85.4461 38.6821 85.4143 39.2214C85.3723 39.9342 85.803 40.3784 86.5095 40.4896C86.7716 40.5309 87.0357 40.566 87.3002 40.5829C87.5462 40.5986 87.794 40.5862 88.0851 40.5862C88.099 40.7702 88.1101 40.9182 88.1241 41.1038H80.8428V40.6312C81.2049 40.5877 81.5539 40.5547 81.8999 40.502C82.5456 40.4035 83.0803 40.0917 83.4357 39.5485C83.7052 39.1366 83.9539 38.6958 84.1213 38.2348C85.4217 34.6527 86.6984 31.0619 87.9856 27.4749C88.9377 24.822 89.8955 22.1712 90.8476 19.5183C90.9251 19.3025 91 19.0817 91.0376 18.8567C91.1497 18.1854 90.86 17.7492 90.2038 17.6012C89.9113 17.5353 89.6098 17.5081 89.2641 17.4561C89.2514 17.3291 89.2366 17.1798 89.2155 16.9692C90.7875 16.9216 92.3237 16.9581 93.9115 16.9453C94.0929 17.4085 94.2767 17.8632 94.45 18.3222C95.7961 21.8871 97.1414 25.4524 98.4845 29.0184C99.5213 31.7712 100.549 34.5274 101.594 37.2771C101.814 37.8559 102.074 38.4217 102.346 38.9784C102.841 39.9907 103.67 40.5177 104.793 40.5853C104.846 40.5884 104.9 40.5862 104.953 40.591C105.005 40.5958 105.057 40.6066 105.14 40.6193C105.159 40.6908 105.189 40.7696 105.198 40.8508C105.206 40.9197 105.19 40.9913 105.182 41.0998H96.7325V41.1001ZM92.0374 20.2154C91.9995 20.2124 91.9614 20.2095 91.9235 20.2065C90.57 24.0216 89.2166 27.8366 87.8676 31.6389C87.9342 31.6868 87.9604 31.7214 87.9893 31.7238C88.13 31.7355 88.2715 31.744 88.4126 31.7436C91.0169 31.7353 93.6209 31.7255 96.2251 31.7148C96.2396 31.7148 96.2564 31.6998 96.2675 31.6877C96.2792 31.675 96.2851 31.6572 96.3182 31.5956C94.8993 27.8236 93.4683 24.0196 92.0374 20.2156V20.2154Z" fill="black"/>
<path d="M171.726 33.5203H172.299C172.506 34.1704 172.671 34.8046 172.907 35.4109C173.808 37.7242 175.421 39.2993 177.848 39.9214C179.756 40.4106 181.649 40.3136 183.445 39.4257C184.927 38.6934 185.809 37.4895 186.121 35.8676C186.249 35.2006 186.29 34.5313 186.146 33.8613C185.835 32.4123 184.869 31.5473 183.53 31.1068C182.39 30.7317 181.212 30.4693 180.049 30.1658C178.781 29.8351 177.502 29.5432 176.243 29.1809C175.198 28.8799 174.236 28.3954 173.402 27.6726C172.358 26.7674 171.787 25.6208 171.641 24.2626C171.291 21.0045 173.114 18.6562 175.726 17.4872C177.67 16.617 179.714 16.4018 181.811 16.5717C183.157 16.6807 184.471 16.9657 185.753 17.3985C186.688 17.7143 186.689 17.7048 186.769 18.6944C186.865 19.8773 186.967 21.0597 187.061 22.243C187.077 22.4515 187.063 22.6625 187.063 22.9014H186.613C186.397 22.3046 186.237 21.7002 185.968 21.1492C185.167 19.5107 183.856 18.4697 182.092 18.0056C180.024 17.4613 178.046 17.6589 176.207 18.7895C175.325 19.3315 174.636 20.0788 174.298 21.0734C173.584 23.174 174.222 24.9877 176.17 25.9C177.076 26.3248 178.06 26.6051 179.033 26.8624C180.401 27.2245 181.794 27.4953 183.172 27.8227C184.123 28.0486 185.04 28.3701 185.89 28.8664C187.294 29.6853 188.166 30.8921 188.424 32.4881C188.81 34.8736 188.295 37.0439 186.653 38.867C185.576 40.0623 184.19 40.7559 182.641 41.139C179.951 41.8047 177.326 41.5045 174.758 40.5623C174.012 40.2886 173.303 39.9148 172.575 39.5935C172.323 39.4825 172.208 39.3218 172.188 39.0289C172.09 37.6154 171.964 36.2039 171.846 34.7916C171.812 34.3876 171.77 33.9844 171.726 33.5203H171.726Z" fill="black"/>
<path d="M50.8926 22.9302C50.683 22.921 50.5439 22.9147 50.4169 22.9091C50.2402 22.386 50.1082 21.8683 49.8953 21.3864C49.115 19.6194 47.7694 18.4979 45.9058 18.0042C43.8971 17.4721 41.9593 17.6418 40.1564 18.7104C38.7395 19.55 37.8842 20.797 37.8294 22.475C37.7867 23.7832 38.3103 24.8514 39.4285 25.5931C40.2391 26.1309 41.1459 26.4355 42.0758 26.6648C43.7089 27.0674 45.3516 27.4308 46.9874 27.8219C47.9554 28.0532 48.892 28.3726 49.7509 28.8919C51.0636 29.6856 51.9105 30.806 52.202 32.33C52.5926 34.3735 52.2715 36.2887 51.1256 38.0306C50.027 39.7004 48.4104 40.6442 46.5106 41.1258C44.3134 41.6826 42.1196 41.5982 39.9406 40.9999C38.7068 40.6611 37.5196 40.2055 36.3879 39.6029C36.1198 39.4602 36.0121 39.2729 35.9892 38.9785C35.8632 37.354 35.7216 35.7308 35.5899 34.1067C35.5745 33.9177 35.5879 33.7263 35.5879 33.5202H36.0959C36.3508 34.2732 36.5516 35.0085 36.8449 35.7049C37.5912 37.477 38.8281 38.7947 40.609 39.5653C41.9598 40.1499 43.3737 40.2921 44.8267 40.1318C45.6795 40.0378 46.4986 39.8261 47.2635 39.4297C49.0488 38.5045 49.9279 37.004 50.0424 35.0259C50.0721 34.5108 50.0305 34.0026 49.8702 33.5039C49.4718 32.2647 48.5724 31.5326 47.4009 31.1212C46.5509 30.8227 45.6728 30.5999 44.7991 30.3746C43.2557 29.9769 41.699 29.6288 40.1614 29.2108C39.0943 28.9208 38.1083 28.435 37.2579 27.7075C36.1181 26.7331 35.5142 25.4915 35.4558 23.9968C35.426 23.2356 35.4284 22.4755 35.6496 21.7281C36.1791 19.9392 37.3349 18.6843 38.9337 17.7949C40.3075 17.0307 41.7984 16.6643 43.3508 16.5562C45.6845 16.3938 47.9404 16.7757 50.1267 17.6019C50.4313 17.717 50.5585 17.8959 50.5804 18.2213C50.6723 19.5993 50.7879 20.9756 50.8907 22.3528C50.9036 22.5261 50.8926 22.7011 50.8926 22.9302Z" fill="black"/>
<path d="M160.838 41.1207H158.597C158.357 40.4759 158.108 39.8185 157.868 39.1579C156.384 35.0768 154.902 30.995 153.42 26.9132C152.646 24.7811 151.88 22.6462 151.096 20.518C150.906 20.004 150.682 19.4992 150.432 19.0117C149.967 18.104 149.207 17.6147 148.187 17.5347C148.032 17.5225 147.877 17.5027 147.699 17.484C147.69 17.3682 147.678 17.2834 147.679 17.1987C147.68 17.1322 147.698 17.066 147.712 16.9751H156.12C156.134 17.1252 156.148 17.2731 156.161 17.4176C156.081 17.4561 156.036 17.4922 155.988 17.4977C155.689 17.5314 155.385 17.5377 155.09 17.5917C154.389 17.7198 153.988 18.1643 153.977 18.8703C153.972 19.2192 154.015 19.5849 154.119 19.9163C154.492 21.0985 154.88 22.2772 155.301 23.4431C156.956 28.0268 158.625 32.6051 160.29 37.1851C160.374 37.4158 160.467 37.6435 160.592 37.9694C160.684 37.7486 160.746 37.6189 160.793 37.4838C162.364 32.9079 163.935 28.3321 165.502 23.7548C165.944 22.4639 166.382 21.1713 166.8 19.8727C166.896 19.5743 166.942 19.2482 166.946 18.934C166.956 18.1921 166.561 17.7398 165.829 17.6112C165.568 17.5653 165.302 17.5399 165.038 17.5168C164.792 17.4953 164.545 17.4892 164.255 17.4742C164.246 17.3165 164.238 17.1696 164.228 16.9836H171.498C171.512 17.0667 171.531 17.1326 171.531 17.1987C171.532 17.283 171.519 17.3674 171.51 17.465C171.152 17.509 170.822 17.5516 170.491 17.5903C169.772 17.6739 169.22 18.0426 168.845 18.6399C168.593 19.0417 168.376 19.4775 168.22 19.925C166.647 24.4252 165.09 28.931 163.529 33.4355C162.688 35.8635 161.847 38.2919 161.005 40.7196C160.959 40.8519 160.897 40.9789 160.838 41.1207H160.838Z" fill="black"/>
<path d="M212.886 17.4797C212.896 17.2802 212.903 17.1449 212.912 16.9791H220.558V17.4486C220.498 17.4686 220.45 17.4945 220.401 17.4997C220.049 17.536 219.691 17.5406 219.345 17.6072C218.639 17.7431 218.31 18.1315 218.252 18.8461C218.239 19.0048 218.243 19.1651 218.243 19.3246C218.24 25.7999 218.238 32.2753 218.237 38.7505C218.237 38.7683 218.237 38.786 218.237 38.8038C218.178 39.9799 218.585 40.479 219.947 40.5843C220.138 40.5991 220.331 40.5863 220.557 40.5863V41.1093H212.923V40.6309C213.281 40.5941 213.631 40.5736 213.976 40.5197C214.847 40.3833 215.213 39.9843 215.281 39.1138C215.292 38.9728 215.285 38.8301 215.285 38.6881C215.285 32.2482 215.286 25.8086 215.286 19.3687C215.286 18.0532 214.883 17.6182 213.575 17.5203C213.366 17.5047 213.157 17.4956 212.886 17.4799L212.886 17.4797Z" fill="black"/>
<path d="M189.542 41.1038V40.6326C189.923 40.5923 190.291 40.5756 190.651 40.5109C191.517 40.3547 191.86 39.9325 191.866 39.0481C191.87 38.4983 191.866 37.9485 191.867 37.3986C191.876 31.4394 191.885 25.4799 191.893 19.5207C191.893 19.2551 191.895 18.9862 191.858 18.7245C191.775 18.1399 191.447 17.7452 190.859 17.6267C190.446 17.5432 190.021 17.5146 189.557 17.4557C189.545 17.3265 189.532 17.1777 189.515 16.9866H197.168C197.178 17.1372 197.187 17.2856 197.197 17.4342C197.119 17.4639 197.073 17.4929 197.024 17.4985C196.637 17.5421 196.242 17.546 195.865 17.6295C195.221 17.772 194.878 18.223 194.854 18.8874C194.843 19.1885 194.85 19.4903 194.85 19.792C194.85 26.1419 194.85 32.4918 194.85 38.8418C194.85 39.0013 194.843 39.1617 194.855 39.3205C194.899 39.8718 195.216 40.2953 195.761 40.4309C196.203 40.541 196.663 40.5777 197.165 40.6545C197.176 40.7666 197.19 40.9163 197.208 41.1042H189.542L189.542 41.1038Z" fill="black"/>
<path d="M202.106 17.4843V16.9867H210.043V17.4756C209.728 17.5095 209.432 17.5423 209.136 17.5732C207.995 17.692 207.028 18.1846 206.236 18.9948C205.406 19.8439 204.608 20.7246 203.805 21.5991C202.149 23.4003 200.5 25.2065 198.848 27.0113C198.61 27.2718 198.376 27.5361 198.121 27.82C198.19 27.927 198.244 28.0369 198.322 28.1255C201.059 31.2411 203.798 34.3548 206.538 37.468C206.972 37.9601 207.389 38.4686 207.85 38.9331C208.717 39.8061 209.723 40.4438 210.969 40.6141C210.99 40.6509 211.021 40.6803 211.023 40.7112C211.029 40.833 211.025 40.9553 211.025 41.0904C210.94 41.1084 210.873 41.135 210.806 41.1352C209.262 41.1382 207.719 41.1328 206.176 41.1445C205.93 41.1463 205.797 41.0392 205.648 40.8671C203.187 38.028 200.719 35.1948 198.252 32.3607C197.298 31.2652 196.344 30.1703 195.361 29.042C195.628 28.7438 195.881 28.4548 196.141 28.1718C198.204 25.9264 200.268 23.6827 202.33 21.4371C202.87 20.8495 203.415 20.2668 203.937 19.6635C204.143 19.4253 204.325 19.1529 204.458 18.8681C204.75 18.2414 204.481 17.7194 203.802 17.607C203.367 17.535 202.921 17.5373 202.479 17.5067C202.375 17.4995 202.27 17.4941 202.106 17.4845L202.106 17.4843Z" fill="black"/>
</g>
<defs>
<clipPath id="clip0_987_4410">
<rect width="185.116" height="25" fill="white" transform="translate(35.4424 16.5)"/>
</clipPath>
</defs>
</svg>
