<svg width="256" height="58" viewBox="0 0 256 58" fill="none" xmlns="http://www.w3.org/2000/svg">
<g clip-path="url(#clip0_987_4383)">
<path fill-rule="evenodd" clip-rule="evenodd" d="M90.3691 22.8469V31.0626C90.3691 32.8729 90.3314 34.4974 90.293 35.8903C90.255 37.2822 90.1797 38.6752 90.1036 40.0212C90.4828 39.9749 90.8996 39.9749 91.3544 39.9749H94.4624C94.9172 39.9749 95.3347 39.9749 95.7135 40.0212C95.6374 38.6752 95.5617 37.283 95.5237 35.8903C95.4477 34.4977 95.4477 32.8733 95.4477 31.0623V20.4337C95.4477 20.2479 95.4857 20.062 95.5237 19.9694C95.8648 19.9694 96.282 19.9694 96.7745 20.0157C97.2673 20.0157 97.7981 20.062 98.3663 20.109C98.9348 20.109 99.5037 20.1553 100.072 20.2479C100.641 20.2479 101.172 20.3412 101.627 20.3875C101.589 20.1553 101.513 19.9228 101.475 19.691C101.475 19.4129 101.437 19.18 101.437 18.9482C101.437 18.7164 101.475 18.4842 101.475 18.2058C101.513 17.9736 101.589 17.7414 101.627 17.5093C100.907 17.5093 100.262 17.5556 99.6174 17.5556C99.0489 17.6019 98.4043 17.6019 97.7601 17.6489H87.9806C87.3744 17.6022 86.7299 17.6022 86.0857 17.5556C85.4411 17.5556 84.7589 17.5093 84.001 17.5093C84.039 17.7414 84.077 17.9736 84.077 18.2058C84.115 18.4842 84.1527 18.716 84.1527 18.9482C84.1527 19.1804 84.1154 19.4129 84.077 19.6906C84.077 19.9228 84.0393 20.1553 84.001 20.3875C84.4938 20.3412 85.025 20.2479 85.6305 20.2479C86.2078 20.1571 86.7908 20.1108 87.3744 20.109C87.9429 20.0624 88.4731 20.0157 89.0039 20.0157C89.4968 19.9694 89.9139 19.9694 90.2547 19.9694C90.2927 20.2016 90.331 20.573 90.331 21.1299C90.3687 21.6401 90.3687 22.1974 90.3687 22.8476H90.3691V22.8469ZM123.165 28.5555C123.165 30.3727 122.973 31.9114 122.514 33.2161C122.094 34.5679 121.52 35.6394 120.831 36.4783C120.142 37.364 119.301 37.9704 118.344 38.3892C117.426 38.809 116.431 39.0419 115.398 39.0419C114.365 39.0419 113.485 38.8557 112.605 38.5291C111.725 38.2033 110.96 37.6902 110.309 36.9452C109.62 36.1988 109.084 35.2199 108.702 34.0081C108.319 32.8429 108.128 31.3516 108.128 29.58C108.128 28.1819 108.281 26.8768 108.587 25.6184C108.932 24.3599 109.429 23.2881 110.078 22.3554C110.729 21.4235 111.533 20.7241 112.451 20.2113C113.37 19.6523 114.441 19.3724 115.627 19.3724C116.736 19.3724 117.731 19.6056 118.688 20.0251C119.606 20.4442 120.41 21.0503 121.06 21.8426C121.749 22.6346 122.246 23.6139 122.629 24.7328C122.973 25.8509 123.165 27.1564 123.165 28.5548L123.165 28.5555ZM102.428 29.3004C102.428 31.3516 102.772 33.1225 103.461 34.6142C104.15 36.1059 105.106 37.3173 106.291 38.2966C107.478 39.2285 108.856 39.9279 110.463 40.347C112.069 40.7669 113.791 40.9998 115.628 40.9998C117.579 40.9998 119.339 40.6732 120.946 40.0675C122.591 39.5084 123.969 38.6691 125.117 37.5972C126.302 36.5254 127.221 35.3139 127.871 33.8692C128.522 32.4242 128.866 30.8851 128.866 29.2545C128.866 27.2974 128.522 25.5721 127.833 24.0807C127.144 22.5887 126.226 21.3776 125.04 20.3983C123.854 19.4197 122.476 18.7204 120.908 18.2079C119.301 17.7418 117.579 17.5093 115.742 17.5093C113.714 17.5093 111.878 17.7888 110.271 18.3942C108.626 19.0469 107.21 19.8862 106.062 20.9581C104.915 22.03 103.997 23.2884 103.346 24.6868C102.734 26.1319 102.428 27.6695 102.428 29.3008L102.428 29.3004ZM143.249 40.0208C146.546 40.0208 149.018 39.2021 150.704 37.6106C152.428 35.9735 153.252 33.2906 153.252 29.5612C153.252 28.1512 153.289 26.8323 153.289 25.6043C153.327 24.331 153.402 23.194 153.439 22.1479C153.477 21.102 153.514 20.1918 153.552 19.419C153.627 18.6003 153.664 17.9635 153.702 17.5089C153.402 17.5545 153.14 17.6 152.84 17.6456H151.192L150.293 17.5089C150.367 18.9645 150.443 20.4648 150.48 21.9204C150.517 23.3752 150.555 24.8763 150.555 26.3319C150.555 27.7874 150.517 29.2878 150.405 30.697C150.33 32.0615 150.068 33.2899 149.655 34.3357C149.281 35.4275 148.719 36.2918 147.932 36.9286C147.183 37.5647 146.097 37.8833 144.748 37.8833C143.624 37.8833 142.649 37.7921 141.825 37.5643C141.001 37.3372 140.289 36.9282 139.69 36.291C139.128 35.6086 138.715 34.6539 138.416 33.4711C138.116 32.2889 137.967 30.697 137.967 28.7417C137.967 26.9217 138.004 25.1031 138.041 23.3296C138.079 21.5096 138.229 19.5995 138.453 17.5082C138.003 17.5538 137.517 17.5993 137.03 17.6449H134.257C133.808 17.5993 133.321 17.5538 132.871 17.5082C132.908 18.0539 132.945 18.827 132.983 19.9184C132.983 20.9639 133.021 22.3746 133.021 24.1024C133.021 24.6941 132.983 25.2394 132.983 25.7851V27.4674C132.983 28.059 132.983 28.6954 132.946 29.3775V31.6517C132.946 33.1521 133.208 34.4717 133.733 35.5179C134.257 36.5633 135.007 37.4269 135.943 38.1556C136.842 38.7924 137.928 39.2925 139.165 39.5655C140.438 39.8382 141.825 40.0201 143.248 40.0201L143.249 40.0208ZM169.243 21.7504H169.779C170.009 21.0648 170.2 20.4717 170.315 20.0143C170.506 19.5575 170.699 19.0552 170.89 18.5529C170.2 18.0506 169.396 17.685 168.476 17.4106C167.519 17.1364 166.447 16.9994 165.182 16.9994C164.148 16.9994 163.151 17.1364 162.233 17.4565C161.275 17.7306 160.471 18.187 159.743 18.7808C159.053 19.3286 158.478 20.0595 158.019 20.9277C157.597 21.7956 157.406 22.7547 157.406 23.8967C157.406 25.1298 157.636 26.1351 158.172 26.9115C158.67 27.6876 159.321 28.3736 160.05 28.8752C160.816 29.4241 161.658 29.8805 162.577 30.292C163.458 30.6569 164.301 31.0225 165.067 31.4333C165.761 31.8018 166.406 32.2625 166.983 32.8039C167.481 33.3062 167.749 33.9918 167.749 34.8138C167.749 35.7269 167.404 36.5037 166.714 37.143C166.063 37.7831 165.067 38.1028 163.688 38.1028C162.999 38.1028 162.348 38.0109 161.811 37.8283C161.295 37.6659 160.813 37.4027 160.394 37.0522C159.973 36.7322 159.667 36.3666 159.399 35.9558C159.169 35.5443 158.978 35.0879 158.901 34.6312H158.249C158.096 35.362 157.981 36.001 157.827 36.6407C157.636 37.2808 157.445 37.965 157.215 38.6966C157.751 39.0614 158.478 39.3811 159.437 39.6093C160.432 39.8834 161.543 40.0208 162.807 40.0208C164.187 40.0208 165.45 39.8375 166.561 39.5185C167.673 39.1529 168.668 38.6966 169.473 38.0565C170.277 37.4168 170.89 36.6404 171.349 35.7725C171.783 34.8467 172.006 33.8312 172 32.8035C172 31.5704 171.732 30.5658 171.196 29.7886C170.684 28.9898 170.019 28.3063 169.243 27.7794C168.456 27.22 167.607 26.76 166.714 26.4089C165.834 26.0433 164.99 25.6325 164.187 25.2209C163.42 24.8105 162.73 24.353 162.233 23.8511C161.697 23.3488 161.467 22.7091 161.467 21.8871C161.467 21.1103 161.773 20.4254 162.463 19.8776C163.114 19.2834 163.994 19.0097 165.067 19.0097C167.136 19.0097 168.516 19.9231 169.243 21.7501V21.7504Z" fill="black"/>
</g>
<defs>
<clipPath id="clip0_987_4383">
<rect width="88" height="24" fill="white" transform="translate(84 17)"/>
</clipPath>
</defs>
</svg>
