<svg width="256" height="58" viewBox="0 0 256 58" fill="none" xmlns="http://www.w3.org/2000/svg">
<path fill-rule="evenodd" clip-rule="evenodd" d="M131.219 17.0006C126.58 16.9699 122.825 18.1623 119.796 20.4854C116.735 22.8099 115.221 25.635 115.221 29.1512C115.221 32.0397 116.735 34.6778 119.196 36.7502C122.163 39.2618 126.264 40.3919 131.313 40.3919C133.427 40.3919 135.605 40.0463 137.246 39.607C139.676 38.9793 142.894 37.5346 143.871 35.3996L143.809 32.229C143.746 30.0311 143.904 29.9365 146.176 29.9056V29.1512H137.624V29.9056C138.508 29.9056 139.107 29.8742 139.643 30.2193C140.149 30.5962 140.022 32.2913 140.022 32.951L139.991 34.8662C139.265 36.2478 137.592 37.001 136.394 37.4722C135.289 37.9119 133.269 38.3825 131.377 38.4139C128.221 38.4453 125.76 37.566 123.709 36.279C121.626 34.9283 119.607 32.135 119.607 28.6496C119.607 25.2899 121.753 22.5262 124.277 20.7991C125.918 19.6694 128.694 18.6958 131.439 18.7278C133.806 18.7597 136.016 19.3238 137.624 20.2352C139.455 21.2398 141.411 23.2809 142.136 24.7875L142.862 24.5049L141.695 19.5755C140.244 18.696 138.444 18.0675 136.741 17.6603C134.879 17.2199 132.986 17.0325 131.219 17.0006ZM20.2925 17.5215C17.0664 17.5331 13.8529 17.5803 8.03128 17.5564L8 18.279C8.78875 18.279 9.07321 18.2473 9.54625 18.6238C9.98823 19.0016 10.051 19.4086 10.051 20.791V35.5788C10.051 36.8347 10.1456 38.1223 9.86151 38.4674C9.45161 38.9386 9.16736 39.0328 8.15763 39.0014V39.7546H20.1486C23.4303 39.7546 28.8259 39.6607 31.0343 37.934C31.8866 37.4632 33.4321 36.019 33.4006 33.5697C33.4006 30.587 32.1073 29.6759 30.9398 29.0168C29.8984 28.4519 28.2577 28.0127 26.333 27.6985C27.8789 27.1651 28.2259 27.0073 29.204 26.2539C30.2138 25.5314 30.8773 24.0877 30.8773 22.6433C30.8773 18.8752 26.7745 17.6829 23.6195 17.5259C22.4441 17.5179 21.3678 17.5177 20.2925 17.5215ZM247.937 17.5564L240.112 17.5875V18.2473C241.405 18.3098 241.785 18.3417 242.036 19.2518C242.162 19.5978 242.131 20.3816 242.131 21.4807V35.8297C242.131 38.4354 242.353 39.0326 240.27 39.0326V39.7546H248L247.969 39.0326C245.855 39.0326 245.949 38.2156 245.949 35.8297V21.4807C245.949 18.906 245.886 18.2473 247.937 18.2473V17.5564ZM43.0878 17.5881V18.4041C43.8454 18.4041 44.1613 18.4358 44.6028 18.6873C45.1079 19.0013 45.739 20.4451 46.4962 21.9207L55.9626 39.7546H59.1496C61.1059 35.8928 64.2609 29.6135 66.6907 24.8722C68.3313 21.7329 69.531 19.2212 70.004 18.6251C70.2881 18.2791 71.077 18.4041 71.5815 18.4041V17.5881L64.9555 17.6193V18.4041C65.0186 18.4041 66.8801 18.1536 66.6907 19.3458C66.5329 20.2878 59.1495 34.0406 58.2344 36.2386L50.8816 22.4554C50.3454 21.4495 49.9036 20.6963 49.6831 20.1002C49.0833 18.6871 49.999 18.4041 51.2613 18.4041V17.5881H43.0878ZM211.509 17.6093C211.037 17.6056 210.535 17.6073 210.002 17.6099C209.292 17.6134 208.526 17.6193 207.705 17.6193H197.609V18.3101C198.997 18.3101 199.566 18.7186 199.566 20.3193V21.9836V33.9774V37.8077C199.566 39.0004 198.682 38.9688 197.609 38.9374V39.7546H205.497V38.9374C204.203 38.9374 203.446 38.8129 203.414 37.2743V30.7434C204.266 30.8058 205.024 30.7434 206.349 30.7434C206.822 30.7434 209.346 30.7749 210.104 30.7434C212.975 30.7434 214.3 34.1342 215.847 36.5205C217.14 38.53 216.572 39.7546 224.84 39.7546C224.84 39.5662 224.777 39.1575 224.777 38.9691C221.243 39.0005 220.58 36.8965 219.065 34.1965C217.646 31.7478 217.266 30.1466 213.606 29.7382C219.159 28.7026 220.612 26.1907 220.612 23.333C220.579 20.4456 218.435 18.6545 214.931 17.8695C214.062 17.6756 212.923 17.6204 211.509 17.6093ZM84.4869 17.6186V18.3095C85.5913 18.3095 85.907 18.4038 86.2227 18.8441C86.5379 19.2513 86.538 19.9422 86.538 21.1676V31.8101V37.3054C86.538 38.75 85.9703 39.0005 84.6133 39.0319V39.7546H104.461L106.764 35.1705L106.039 34.8873C105.281 36.112 103.546 37.3054 100.8 37.3054H95.0574H90.3561V20.1935C90.3561 19.157 90.5456 18.8442 90.7977 18.5927C91.1765 18.2787 91.3658 18.3414 92.3439 18.3095V17.6186H84.4869ZM168.579 17.6193L159.396 35.0137C158.577 36.5839 158.261 37.1175 157.883 37.8394C157.44 38.5928 157.187 39.0958 155.672 39.1272V39.7546H162.52L162.552 39.0332C161.321 39.0646 160.786 38.9696 160.754 37.8705C160.754 37.525 161.069 36.9611 161.542 36.1135L162.835 33.8523H176.088L177.667 36.5205C178.708 38.2477 178.423 38.876 176.562 38.9703V39.7546H184.766V38.9069C182.809 38.9069 182.904 38.3742 181.168 35.2029L171.482 17.6193H168.579ZM207.543 19.2164C209.969 19.2019 212.427 19.3227 213.985 20.0678C215.31 20.6958 216.414 21.4181 216.414 23.6162C216.414 26.7245 214.489 27.541 213.037 28.0745C210.482 28.7336 206.285 28.5136 203.414 28.545V19.2823C204.644 19.2823 206.088 19.2251 207.543 19.2164ZM20.5821 19.3981C22.5154 19.3956 24.4084 19.472 25.4498 20.1307C26.8062 21.0102 27.1217 21.6384 27.1217 22.957C27.1217 23.7727 26.4596 25.1871 25.7656 25.7205C24.1245 27.0394 21.19 27.1017 19.0127 27.1017H13.806V19.4087H18.6649C19.2882 19.4087 19.9376 19.399 20.5821 19.3981ZM169.336 20.9479L174.921 31.3714H164.035L169.336 20.9479ZM20.4132 29.0709C23.621 29.0623 25.8985 29.1853 27.5002 30.3668C28.3521 30.9945 29.1728 32.0935 29.1728 33.4128C29.1728 37.0547 24.5979 37.306 20.0854 37.306H13.806V29.0796C15.5097 29.0796 17.2772 29.111 18.9814 29.0796C19.4784 29.0757 19.9549 29.0721 20.4132 29.0709Z" fill="black"/>
</svg>
