<svg width="256" height="58" viewBox="0 0 256 58" fill="none" xmlns="http://www.w3.org/2000/svg">
<g clip-path="url(#clip0_988_2004)">
<path d="M150.768 25.1269C151.55 25.1269 152.184 24.4928 152.184 23.7105C152.184 22.9282 151.55 22.294 150.768 22.294C149.986 22.294 149.352 22.9282 149.352 23.7105C149.352 24.4928 149.986 25.1269 150.768 25.1269Z" fill="black"/>
<path d="M182.925 28.4295C180.739 28.3817 176.465 31.8145 175.961 32.3425L178.194 28.5256H174.832C170.51 35.8473 161.48 42.9773 157.47 43.1212C153.844 43.3848 153.58 40.7928 154.781 37.7205V37.744C159.92 38.2719 168.949 32.9909 166.115 29.0778C163.69 26.6532 157.158 29.1982 153.004 34.7429L152.716 35.1754L152.092 36.0874C150.627 38.056 147.601 40.8882 147.601 40.8882C143.711 44.7051 141.958 42.4728 143.591 39.7126L150.002 28.5976H147.121C146.328 29.6778 142.438 36.8077 136.123 41.273C132.544 44.009 129.759 42.8334 132.257 39.2801L138.524 28.5976L142.006 28.5741L142.462 28.0939H138.884L142.678 21.4676H139.508C137.827 24.3247 133.89 30.9745 129.951 32.6546C130.648 31.7184 130.407 30.4701 130.407 30.4701C130.119 29.0301 128.51 28.8862 128.51 28.8862C128.51 28.8862 126.229 28.5499 123.635 30.8541L125.028 28.5499H121.835C119.049 33.4946 111.653 44.009 107.618 43.0008C106.538 42.5206 106.466 41.1526 107.595 39.3043L113.982 28.5021H110.812C110.38 29.1505 109.083 31.6229 109.107 31.5744C109.227 30.9261 109.395 28.4295 106.946 27.9257C106.393 27.8053 106.009 27.7818 105.481 27.7818C102.768 27.7576 100.031 29.174 97.3405 31.5509C95.4438 33.231 93.6426 35.4633 92.1299 38.2484C85.622 44.2256 78.9466 44.5612 76.7613 42.3289C74.4557 39.952 73.5437 35.0792 77.818 26.8691C79.3306 24.733 84.9501 15.4669 93.0427 13.3302C99.0939 11.722 101.543 15.1306 101.759 19.0914C101.759 19.0914 103.584 15.6593 105.65 13.5225C104.376 14.0505 101.591 14.6982 100.294 13.9066C96.38 11.41 88.8396 11.794 79.1867 20.7722C70.9017 29.174 65.0186 45.4974 81.4439 44.2256C87.255 43.5052 92.1299 38.8719 92.1299 38.8719C91.3612 41.6805 92.6102 43.7931 95.0113 44.2256C95.8998 44.393 97.1488 44.1529 98.2054 43.7454C99.0939 43.3848 100.967 42.6168 103.416 40.6959C102.648 43.7689 107.402 48.3538 116.168 37.5281L112.109 44.0332L115.807 44.009C115.807 44.009 121.979 33.1106 123.107 32.0062C125.508 28.8142 129.927 28.2136 129.855 30.4458C129.374 30.2064 128.943 30.1345 128.582 30.2064C127.526 30.3739 127.045 31.6948 127.262 32.6068C127.382 32.9189 127.55 33.231 128.054 33.4711C128.054 33.4711 130.119 34.9111 135.09 28.6938L134.37 29.9663C134.37 29.9663 129.351 38.6082 128.703 39.8323C126.157 44.7058 132.185 45.1618 135.786 42.0646C135.786 42.0646 138.716 39.9043 142.054 36.2556C142.009 36.333 141.969 36.4132 141.934 36.4957C140.204 39.5922 138.307 42.7607 140.757 44.1294C141.453 44.4415 143.351 44.6574 145.704 43.0008C145.704 43.0008 149.473 39.9043 151.467 37.3834C150.626 39.3286 149.858 42.5206 153.268 43.9612C155.189 44.5612 156.75 44.1771 158.671 43.5288C164.699 41.5608 172.407 32.7273 172.407 32.7273C172.407 32.7273 165.875 43.5772 165.659 43.9848L168.972 43.9612C168.972 43.9612 173.68 35.9912 174.64 34.6474C177.21 30.6147 182.781 27.8538 183.357 29.246C181.292 28.8377 180.788 31.8865 182.421 32.5107C184.966 33.4946 186.431 28.6218 182.925 28.4295ZM162.918 28.6575C163.807 28.7536 164.239 29.2096 164.143 30.4579C163.854 33.1476 159.916 37.5416 154.873 37.3977C156.627 33.2673 160.805 28.4651 162.918 28.6575ZM102.336 40.9032C101.375 41.7197 100.198 42.3681 100.198 42.3681C95.3725 44.7934 94.2917 42.1522 94.8196 39.7033C95.2756 37.5901 97.1495 34.4921 98.6857 32.5954C100.079 31.0351 101.543 29.8338 103.417 28.9218C107.427 26.9524 109.875 29.4255 108.219 32.9317C107.115 35.2367 105.338 38.3339 102.336 40.9032Z" fill="black"/>
</g>
<defs>
<clipPath id="clip0_988_2004">
<rect width="114" height="32.0625" fill="white" transform="translate(71 12.5813)"/>
</clipPath>
</defs>
</svg>
