<svg width="256" height="58" viewBox="0 0 256 58" fill="none" xmlns="http://www.w3.org/2000/svg">
<path d="M114.664 13.3187H108.735V13.85C109.055 13.9031 109.536 14.0094 109.803 14.1687V27.45C109.536 27.6094 109.055 27.7156 108.735 27.7687V28.3H113.329V27.7687C113.008 27.7156 112.528 27.6094 112.26 27.45V24.4219C112.26 24.4219 114.451 23.8375 116.588 23.1469C118.885 22.4031 121.235 21.1281 121.182 18.0469C121.182 14.7531 118.885 13.3187 114.664 13.3187ZM114.077 22.0844L112.207 22.5625V15.0187H113.436C114.932 15.0187 118.511 15.0187 118.511 18.2594C118.564 19.6406 117.656 21.0219 114.077 22.0844Z" fill="black"/>
<path d="M133.308 25.4312H132.774C132.721 25.8031 132.56 26.2281 132.347 26.6H125.349V20.8094H130.477C130.637 21.075 130.744 21.3406 130.851 21.6594H131.172V18.3125H130.851C130.744 18.6844 130.637 18.8437 130.477 19.1625H125.349V15.0719H131.866C132.026 15.3906 132.187 15.7094 132.24 16.0812H132.774V13.3719H121.823V13.9031C122.143 13.9562 122.624 14.0625 122.891 14.2219V27.5031C122.624 27.6625 122.143 27.7687 121.823 27.8219V28.3531H133.308V25.4312Z" fill="black"/>
<path d="M41.1036 13.85C41.4241 13.9031 41.9049 14.0094 42.172 14.1687V27.45C41.9049 27.6094 41.4241 27.7156 41.1036 27.7687V28.3H45.6978V27.7687C45.3773 27.7156 44.8965 27.6094 44.6294 27.45V14.1687C44.8965 14.0094 45.3773 13.9031 45.6978 13.85V13.3187H41.1036V13.85Z" fill="black"/>
<path d="M35.6547 20.5438C35.9752 20.5969 36.456 20.7031 36.7231 20.8625V26.4938C32.9302 26.4938 29.8318 23.8375 29.8318 20.1188C29.8318 17.3031 31.5412 14.7531 34.3191 14.7C35.9218 14.7 36.6162 15.4969 36.9902 16.2406C37.4176 16.0813 39.4476 15.4969 39.4476 15.4969C38.5928 13.9031 36.8834 13 34.2123 13C31.5947 13 26.947 14.5937 27.0005 20.0656C27.1073 25.325 31.1673 28.2469 36.9902 28.2469H39.2339V20.8625C39.501 20.7031 39.9818 20.5969 40.3023 20.5438V20.0125H35.7081V20.5438H35.6547Z" fill="black"/>
<path d="M77.7505 23.3062C77.7505 23.3062 78.7655 23.0406 80.2613 22.5625L83.4131 28.2469H86.8855V27.7156C86.5649 27.6625 86.0841 27.5562 85.817 27.3969L82.6118 21.7656C84.2144 21.0219 85.5499 19.8531 85.4965 17.6219C85.4965 14.6469 83.4131 13.3187 79.5134 13.3187H74.1713V13.85C74.4918 13.9031 74.9726 14.0094 75.2397 14.1687V27.45C74.9726 27.5562 74.5452 27.7156 74.2247 27.7687C73.9041 27.7156 73.4768 27.6094 73.2097 27.45L68.0278 13.3187H65.1965L60.1749 27.45C59.9078 27.5562 59.4805 27.7156 59.1599 27.7687C58.8394 27.7156 58.412 27.6094 58.1449 27.45L54.9931 21.8187C56.5957 21.075 57.9313 19.9062 57.8778 17.675C57.8778 14.7 55.7944 13.3719 51.8947 13.3719H46.5526V13.9031C46.8731 13.9562 47.3539 14.0625 47.621 14.2219V27.5031C47.3539 27.6625 46.8731 27.7687 46.5526 27.8219V28.3531H51.1468V27.8219C50.8263 27.7687 50.3455 27.6625 50.0784 27.5031V23.3594C50.0784 23.3594 51.0934 23.0937 52.5891 22.6156L55.6876 28.3H63.3268V27.7687C63.0063 27.7156 62.5255 27.6094 62.2584 27.45L63.861 22.5094H68.562L70.3249 27.5031C70.0578 27.6625 69.577 27.7687 69.2565 27.8219V28.3531H78.6586V27.8219C78.3381 27.7687 77.8573 27.6625 77.5902 27.5031V23.3062H77.7505ZM77.7505 15.0187H78.7655C79.9941 15.0187 82.9857 15.0187 82.9857 17.7812C82.9857 18.8437 82.2913 20.225 79.4065 21.1281L77.7505 21.6062V15.0187ZM51.7344 21.1281L50.0784 21.6062V15.0187H51.0934C52.322 15.0187 55.3136 15.0187 55.3136 17.7812C55.3136 18.7906 54.6191 20.225 51.7344 21.1281ZM64.4486 20.8094L66.1581 15.55L68.0278 20.8094H64.4486Z" fill="black"/>
<path d="M100.775 20.3312C100.775 14.5406 95.8602 13.3719 92.3878 13.3719H87.5799V13.9031C87.9005 13.9562 88.3812 14.0625 88.6484 14.2219V27.5031C88.3812 27.6625 87.9005 27.7687 87.5799 27.8219V28.3531L90.892 28.3C96.7149 28.2469 100.775 25.4844 100.775 20.3312ZM91.266 26.4937V15.0187H92.4947C95.8068 15.0187 98.0505 17.0906 98.0505 20.225C98.0505 25.1656 94.7384 26.3344 91.266 26.4937Z" fill="black"/>
<path d="M102.752 22.4562H106.918L107.346 20.8094H103.179L102.752 22.4562Z" fill="black"/>
<path d="M209.968 13.85C210.288 13.9031 210.769 14.0094 211.036 14.1688V26.4938C206.388 26.4938 204.999 24.5281 204.999 20.1188V14.1688C205.267 14.0094 205.747 13.9031 206.068 13.85V13.3188H201.474V13.85C201.794 13.9031 202.275 14.0094 202.542 14.1688V20.1188C202.542 25.75 204.038 28.3 211.357 28.2469H213.6V14.1156C213.867 13.9563 214.348 13.85 214.669 13.7969V13.2656H210.074V13.85H209.968Z" fill="black"/>
<path d="M156.44 21.7656C158.042 21.0219 159.378 19.8531 159.324 17.6219C159.324 14.6469 157.241 13.3187 153.341 13.3187H147.946V13.85C148.266 13.9031 148.747 14.0094 149.014 14.1687V27.45C148.747 27.6094 148.266 27.7156 147.946 27.7687V28.3H152.54V27.7687C152.219 27.7156 151.739 27.6094 151.472 27.45V23.3062C151.472 23.3062 152.487 23.0406 153.982 22.5625L157.081 28.2469H160.607V27.7156C160.286 27.6625 159.805 27.5562 159.538 27.3969L156.44 21.7656ZM153.181 21.1281L151.525 21.6062V15.0187H152.54C153.769 15.0187 156.76 15.0187 156.76 17.7812C156.76 18.7906 156.066 20.225 153.181 21.1281Z" fill="black"/>
<path d="M146.984 27.7687C146.664 27.7156 146.183 27.6094 145.916 27.45L142.764 21.8187C144.367 21.075 145.702 19.9062 145.649 17.675C145.649 14.7 143.565 13.3719 139.665 13.3719H134.27V13.9031C134.59 13.9562 135.071 14.0625 135.338 14.2219V27.5031C135.071 27.6625 134.59 27.7687 134.27 27.8219V28.3531H138.864V27.8219C138.544 27.7687 138.063 27.6625 137.796 27.5031V23.3594C137.796 23.3594 138.811 23.0937 140.307 22.6156L143.405 28.3H146.931V27.7687H146.984ZM139.452 21.1281L137.796 21.6062V15.0187H138.811C140.039 15.0187 143.031 15.0187 143.031 17.7812C143.031 18.7906 142.39 20.225 139.452 21.1281Z" fill="black"/>
<path d="M173.267 25.4312H172.733C172.68 25.8031 172.519 26.2281 172.306 26.6H165.308V20.8094H170.436C170.596 21.075 170.703 21.3406 170.81 21.6594H171.13V18.3125H170.81C170.703 18.6844 170.596 18.8437 170.436 19.1625H165.308V15.0719H171.825C171.985 15.3906 172.145 15.7094 172.199 16.0812H172.733V13.3719H161.782V13.9031C162.102 13.9562 162.583 14.0625 162.85 14.2219V27.5031C162.583 27.6625 162.102 27.7687 161.782 27.8219V28.3531H173.267V25.4312Z" fill="black"/>
<path d="M196.345 13.3187H193.514L188.492 27.45C188.225 27.6094 187.744 27.7156 187.424 27.7687V28.3H191.644V27.7687C191.324 27.7156 190.843 27.6094 190.576 27.45L192.178 22.5094H196.879L198.642 27.5031C198.375 27.6625 197.894 27.7687 197.574 27.8219V28.3531H202.435V27.8219C202.115 27.7687 201.634 27.6625 201.367 27.5031L196.345 13.3187ZM192.766 20.8094L194.475 15.55L196.345 20.8094H192.766Z" fill="black"/>
<path d="M228.398 27.45L223.697 20.225L227.65 14.1687C227.917 14.0094 228.398 13.9031 228.718 13.85V13.3187H224.284V13.85C224.605 13.9031 225.086 14.0094 225.353 14.1687L222.575 18.4187L219.797 14.1687C220.064 14.0094 220.545 13.9031 220.865 13.85V13.3187H215.79V13.85C216.111 13.9031 216.592 14.0094 216.859 14.1687L220.759 20.1187L216.004 27.45C215.737 27.6094 215.256 27.7156 214.936 27.7687V28.3H219.37V27.7687C219.049 27.7156 218.568 27.6094 218.301 27.45L221.88 21.925L225.46 27.45C225.193 27.6094 224.712 27.7156 224.391 27.7687V28.3H229.466V27.7687C229.146 27.7156 228.665 27.5562 228.398 27.45Z" fill="black"/>
<path d="M187.264 20.0656H182.669V20.5969C182.99 20.65 183.471 20.7562 183.738 20.9156V26.5469C179.945 26.5469 176.847 23.8906 176.847 20.1719C176.847 17.3562 178.556 14.8062 181.334 14.7531C182.937 14.7531 183.631 15.55 184.005 16.2937C184.432 16.1344 186.462 15.55 186.462 15.55C185.608 13.9562 183.898 13.0531 181.227 13.0531C178.609 13.0531 173.962 14.6469 174.015 20.1187C174.069 25.325 178.129 28.2469 183.952 28.2469H186.195V20.8625C186.462 20.7031 186.943 20.5969 187.264 20.5437V20.0656Z" fill="black"/>
<path d="M154.73 37.0125H144.153L144.527 37.8625C144.74 38.3406 145.275 39.775 144.794 40.4125C144.634 40.6781 144.26 40.8374 143.672 40.8374C140.52 40.8374 133.522 40.8906 133.469 40.8906C133.041 40.8906 132.08 40.7312 131.866 40.2531C131.759 39.9343 130.904 37.9687 128.233 37.9156C125.562 37.9687 124.708 39.9343 124.601 40.2531C124.387 40.7312 123.425 40.8906 122.998 40.8906C122.998 40.8906 115.947 40.8374 112.795 40.8374C112.207 40.8374 111.833 40.6781 111.673 40.4125C111.245 39.7218 111.78 38.2875 111.94 37.8625L112.314 37.0125H101.843L97.9971 41.7937L101.843 46.575H112.421L112.047 45.725C111.833 45.2468 111.299 43.8125 111.78 43.175C111.94 42.9093 112.314 42.75 112.902 42.75C116.053 42.75 123.052 42.6968 123.105 42.6968C123.532 42.6968 124.494 42.8562 124.708 43.3343C124.814 43.6531 125.669 45.6187 128.34 45.6718C131.011 45.6187 131.866 43.6531 131.973 43.3343C132.187 42.8562 133.148 42.6968 133.575 42.6968C133.575 42.6968 140.627 42.75 143.779 42.75C144.367 42.75 144.74 42.9093 144.901 43.175C145.328 43.8656 144.847 45.3 144.634 45.725L144.26 46.575H154.784L158.63 41.7937L154.73 37.0125Z" fill="black"/>
</svg>
