<svg width="256" height="58" viewBox="0 0 256 58" fill="none" xmlns="http://www.w3.org/2000/svg">
<g clip-path="url(#clip0_988_1912)">
<path d="M38 21.1542C38.0803 21.1526 38.1607 21.148 38.241 21.148C41.3042 21.148 44.3675 21.1511 47.4308 21.1464C48.4179 21.1464 49.2814 21.5002 50.0599 22.0609C51.7005 23.2427 52.374 24.8616 52.133 26.8574C51.9399 28.4624 51.115 29.6565 49.7139 30.4567C49.6768 30.4783 49.6429 30.5031 49.5981 30.5339C49.9364 31.0854 50.2716 31.6292 50.6068 32.1745C50.9652 32.7569 51.3266 33.3377 51.6804 33.9247C51.7484 34.0375 51.8194 34.0854 51.9554 34.0838C52.4929 34.0745 53.0305 34.0807 53.5665 34.0807C53.633 34.0807 53.7009 34.0807 53.7782 34.0807V36.8427C53.7226 36.8458 53.6623 36.8505 53.6036 36.8505C52.4481 36.8505 51.2942 36.8489 50.1387 36.8536C50.0028 36.8536 49.9317 36.8119 49.8653 36.6945C48.8427 34.9149 47.8154 33.1384 46.7912 31.3604C46.7433 31.2785 46.7063 31.2121 46.5858 31.2121C45.3314 31.2183 44.0786 31.2167 42.8243 31.2167C42.8057 31.2167 42.7888 31.2214 42.7579 31.226V34.0699H44.4741V36.8474H38V34.0714H39.7842V23.9224C39.7116 23.9193 39.6513 23.9131 39.5911 23.9131C39.0612 23.9177 38.5299 23.9255 38 23.9301V21.1542ZM42.7918 28.4779C42.8382 28.4841 42.8614 28.4902 42.8861 28.4902C44.2501 28.4902 45.6157 28.5149 46.9797 28.4841C48.6944 28.4454 49.7417 26.7817 49.0528 25.2076C48.665 24.3209 47.9019 23.9548 46.9874 23.9332C45.6419 23.9008 44.2949 23.9255 42.9494 23.9255C42.8969 23.9255 42.8444 23.9332 42.7918 23.9378V28.4779Z" fill="black"/>
<path d="M176.537 28.7729C177.024 29.2147 177.43 29.7183 177.694 30.3192C178.416 31.9675 178.399 33.5725 177.299 35.0601C176.599 36.0055 175.601 36.5091 174.464 36.7331C174.079 36.8088 173.681 36.8443 173.288 36.8458C170.225 36.8551 167.16 36.8505 164.097 36.8505H163.862V34.0792H165.725V23.9116H163.848V21.148C163.932 21.148 164.011 21.148 164.088 21.148C167.176 21.148 170.265 21.148 173.353 21.148C175.385 21.148 177.039 22.4734 177.481 24.4584C177.765 25.7344 177.506 26.93 176.929 28.0747C176.814 28.3049 176.678 28.5258 176.537 28.7745V28.7729ZM168.707 34.0745H168.923C170.343 34.0745 171.762 34.0745 173.182 34.073C173.353 34.073 173.528 34.0637 173.698 34.0359C174.262 33.9417 174.736 33.693 174.994 33.16C175.599 31.9072 174.893 30.1833 173.157 30.1601C171.744 30.1416 170.33 30.157 168.917 30.157H168.708V34.0745H168.707ZM168.697 27.5587H168.921C169.694 27.5587 170.465 27.5587 171.237 27.5587C171.904 27.5587 172.57 27.5634 173.238 27.5587C173.965 27.551 174.47 27.205 174.651 26.5392C174.739 26.2117 174.782 25.8564 174.762 25.5181C174.708 24.5974 173.933 23.9007 173.015 23.9007C171.651 23.9007 170.285 23.9007 168.921 23.9007C168.85 23.9007 168.779 23.9007 168.697 23.9007V27.5587Z" fill="black"/>
<path d="M107.74 23.9162H105.952V21.148C106.04 21.148 106.119 21.148 106.198 21.148C109.175 21.148 112.153 21.1634 115.13 21.1403C116.128 21.1325 117.018 21.4044 117.835 21.942C119.066 22.7515 119.861 23.8637 120.072 25.3389C120.357 27.3471 119.658 29.3491 117.64 30.4737C117.614 30.4892 117.588 30.5046 117.549 30.5278C117.577 30.5772 117.601 30.6251 117.628 30.6699C118.293 31.7512 118.961 32.831 119.62 33.917C119.699 34.0467 119.786 34.0854 119.931 34.0838C120.523 34.0761 121.114 34.0807 121.72 34.0807V36.8505H121.548C120.393 36.8505 119.239 36.8474 118.083 36.8536C117.946 36.8536 117.878 36.8057 117.812 36.6914C116.795 34.9226 115.774 33.157 114.759 31.3867C114.685 31.2569 114.603 31.2121 114.455 31.2136C113.275 31.2198 112.096 31.2167 110.916 31.2167C110.849 31.2167 110.783 31.2167 110.706 31.2167V34.0761H112.419V36.8366H105.954V34.0838H107.741V23.9162H107.74ZM110.741 28.4732C110.771 28.4794 110.794 28.4887 110.817 28.4887C112.22 28.4887 113.622 28.5258 115.022 28.4732C116.707 28.4099 117.716 26.6535 116.973 25.1381C116.554 24.2839 115.799 23.9471 114.897 23.9301C113.576 23.9054 112.253 23.9239 110.931 23.9239C110.871 23.9239 110.811 23.9239 110.74 23.9239V28.4732H110.741Z" fill="black"/>
<path d="M84.4015 31.0607H80.2136V28.3806H87.1789V36.8397H84.576V35.1358C84.3752 35.3103 84.2192 35.4571 84.0539 35.5915C82.4952 36.8613 80.7064 37.3572 78.7152 37.161C75.2812 36.8227 72.6366 34.3078 71.8488 30.9912C71.2787 28.5922 71.563 26.2998 72.9285 24.2143C74.186 22.2927 75.9841 21.165 78.2672 20.856C79.8321 20.6444 81.3444 20.8499 82.7702 21.5589C83.2367 21.7922 83.6631 22.0841 84.0307 22.4579C84.0647 22.4919 84.1018 22.5244 84.1713 22.5877V21.1588H86.7835V26.0665C86.7387 26.0711 86.6924 26.0773 86.646 26.0773C85.8736 26.0773 85.1013 26.0789 84.3289 26.0742C84.2686 26.0742 84.1728 26.0402 84.1528 25.9954C83.7156 25.0423 82.9818 24.3688 82.0581 23.9332C80.1256 23.0218 78.241 23.1515 76.4954 24.4059C75.5423 25.0902 75.0371 26.0959 74.7946 27.2266C74.4192 28.9691 74.6077 30.6436 75.5268 32.1899C76.5263 33.8706 78.051 34.5611 79.9773 34.4298C81.0045 34.3603 81.9499 34.0622 82.7687 33.4165C83.5086 32.831 84.0076 32.0694 84.3644 31.2059C84.3799 31.1673 84.3876 31.124 84.4061 31.0623L84.4015 31.0607Z" fill="black"/>
<path d="M129.77 36.8505V34.09H131.801V23.9147H129.754V21.1573C129.827 21.1542 129.893 21.148 129.958 21.148C132.714 21.148 135.468 21.1434 138.222 21.1495C139.089 21.1511 139.886 21.44 140.634 21.8493C142.902 23.0898 144.354 24.9651 144.795 27.517C145.253 30.1586 144.706 32.5777 142.83 34.5859C141.755 35.7382 140.438 36.4967 138.873 36.7902C138.686 36.8258 138.493 36.8458 138.303 36.8458C135.518 36.8489 132.731 36.8489 129.946 36.8489H129.77V36.8505ZM134.751 23.9023V34.0745C135.531 34.0745 136.298 34.0977 137.061 34.0668C137.588 34.0452 138.124 33.9988 138.636 33.8768C140.263 33.4906 141.329 32.4896 141.771 30.8645C142.009 29.9917 142.04 29.102 141.941 28.2045C141.698 26.0248 140.184 24.3935 138.023 24.0027C136.945 23.8081 135.854 23.961 134.753 23.9023H134.751Z" fill="black"/>
<path d="M103.181 26.068H100.28V23.9255H94.7854V27.446H98.9701V30.2497H94.7823V34.0606H100.272V32.0509H103.18V36.8397H89.9503V34.0853H91.8519V23.9116H89.9472V21.165H103.18V26.068H103.181Z" fill="black"/>
<path d="M181.003 23.9162H179.46V21.1464H185.957V23.91H184.037V24.1201C184.037 26.3538 184.037 28.5876 184.037 30.8197C184.037 31.3388 184.077 31.8532 184.225 32.3552C184.517 33.3392 185.166 33.9602 186.155 34.2089C187.108 34.4484 188.066 34.4283 189.006 34.1379C190.148 33.7857 190.755 32.97 190.933 31.8176C190.979 31.5149 191.001 31.2044 191.001 30.897C191.007 28.6509 191.004 26.4064 191.004 24.1603V23.9193H189.057V21.1511H195.558V23.9116H193.982V24.1572C193.982 26.4836 193.994 28.8085 193.977 31.1349C193.965 32.7661 193.454 34.2136 192.255 35.3675C191.259 36.3268 190.041 36.8597 188.694 37.0915C186.876 37.405 185.162 37.0884 183.598 36.1059C182.121 35.1775 181.324 33.7965 181.083 32.088C181.025 31.674 181.008 31.2523 181.006 30.8352C180.998 28.6076 181.003 26.3801 181.003 24.1541V23.9177V23.9162Z" fill="black"/>
<path d="M157.385 23.91H155.436V21.1464H161.933V23.91H160.363V24.1695C160.363 26.482 160.373 28.7961 160.36 31.1086C160.353 32.5653 159.945 33.8953 158.973 35.0138C158.111 36.0055 157.007 36.6079 155.749 36.9401C153.727 37.4746 151.802 37.2212 150.017 36.1291C148.597 35.2609 147.786 33.9587 147.503 32.3336C147.42 31.8501 147.386 31.3527 147.383 30.863C147.371 28.6293 147.377 26.3971 147.377 24.1634V23.9224H145.84V21.1464H152.332V23.9054H150.426C150.423 23.9888 150.417 24.0537 150.417 24.1186C150.417 26.4141 150.417 28.708 150.417 31.0036C150.417 31.4932 150.475 31.9752 150.627 32.4433C150.956 33.452 151.668 34.0344 152.689 34.2506C153.542 34.4314 154.395 34.4128 155.238 34.1827C156.457 33.8521 157.127 33.0334 157.313 31.8037C157.36 31.4886 157.381 31.1658 157.382 30.846C157.388 28.6184 157.385 26.3924 157.385 24.1649V23.9116V23.91Z" fill="black"/>
<path d="M62.2388 37.2336C59.0659 37.0868 56.7287 35.6317 55.2812 32.8712C53.9265 30.2868 53.9357 27.6066 55.1824 24.9852C56.2436 22.753 58.0741 21.4214 60.4963 20.9394C62.2048 20.5996 63.884 20.7525 65.4766 21.4755C67.922 22.5846 69.3771 24.5109 69.941 27.1046C70.3658 29.0602 70.1881 30.9757 69.2829 32.7785C68.1043 35.125 66.2135 36.574 63.6229 37.0729C63.1595 37.1625 62.6822 37.1841 62.2388 37.2336ZM57.1674 28.9089C57.1797 29.1359 57.1766 29.3661 57.2091 29.5901C57.2554 29.913 57.3064 30.2374 57.3929 30.5509C57.9815 32.6843 59.6699 34.3232 61.9453 34.4159C63.9164 34.4963 65.4674 33.7192 66.4977 32.0231C67.2716 30.7471 67.4338 29.3429 67.2114 27.8847C66.8113 25.2617 64.7521 23.4698 62.0982 23.5022C60.0622 23.5285 58.5932 24.5001 57.7204 26.343C57.3373 27.1525 57.189 28.0191 57.1674 28.9104V28.9089Z" fill="black"/>
<path d="M215.178 22.5429V21.1588H217.705V26.0665H215.189C215.131 25.8394 215.084 25.6108 215.014 25.3884C214.62 24.1186 213.716 23.4698 212.43 23.3045C211.66 23.2056 210.9 23.2303 210.17 23.5254C209.839 23.6582 209.542 23.8436 209.318 24.1278C208.86 24.7102 208.926 25.4764 209.478 25.9707C209.989 26.4295 210.605 26.7014 211.24 26.9254C212.13 27.239 213.034 27.5093 213.922 27.826C214.932 28.1859 215.891 28.6493 216.689 29.3924C217.537 30.1817 217.949 31.1658 217.997 32.3166C218.085 34.4916 216.661 36.2681 214.524 36.9107C213.156 37.3216 211.775 37.351 210.414 36.8505C209.674 36.5786 209.081 36.1105 208.673 35.4247C208.66 35.4046 208.645 35.386 208.629 35.3675C208.626 35.3644 208.619 35.3644 208.592 35.3598V36.8397H206.045V31.898H208.596C208.662 32.0957 208.719 32.3012 208.801 32.4989C209.385 33.9154 210.749 34.8145 212.428 34.7295C212.955 34.7033 213.471 34.6183 213.947 34.3711C214.827 33.9139 215.223 32.8974 214.87 31.9752C214.75 31.6585 214.52 31.4253 214.254 31.2275C213.599 30.7394 212.845 30.466 212.067 30.2636C211.052 29.9979 210.037 29.7399 209.079 29.2997C208.39 28.983 207.747 28.5984 207.216 28.0484C206.441 27.2467 206.121 26.2658 206.098 25.1736C206.059 23.3956 206.906 22.1614 208.48 21.4199C209.892 20.7556 211.385 20.6151 212.908 20.9302C213.883 21.1325 214.663 21.6377 215.176 22.5414L215.178 22.5429Z" fill="black"/>
<path d="M197.166 36.8397V34.0776H198.938V23.9131H197.169V21.1634H203.671V23.9054H201.893V34.0653H203.669V36.8412H197.167L197.166 36.8397Z" fill="black"/>
</g>
<defs>
<clipPath id="clip0_988_1912">
<rect width="180" height="16.4671" fill="white" transform="translate(38 20.7664)"/>
</clipPath>
</defs>
</svg>
