<svg width="256" height="58" viewBox="0 0 256 58" fill="none" xmlns="http://www.w3.org/2000/svg">
<g clip-path="url(#clip0_988_1964)">
<path d="M242.292 24.7949C242.253 24.0823 242.471 23.3793 242.906 22.8135H237.597C238.459 23.675 238.211 24.418 238.211 25.5379V32.2144L230.178 22.8135H225.353C226.215 23.675 225.978 24.418 225.978 25.5379V36.188C226.042 36.9416 225.818 37.6914 225.353 38.2878H230.673C229.812 37.4264 230.059 36.6833 230.059 35.5742V28.65L238.459 38.3417H242.906C242.673 38.0583 242.499 37.7315 242.394 37.3803C242.288 37.029 242.254 36.6604 242.292 36.2957V24.7949Z" fill="black"/>
<path d="M222.069 36.2957V25.161C222.016 24.769 222.043 24.3703 222.149 23.9891C222.254 23.6078 222.436 23.2519 222.683 22.9427H217.363C217.628 23.2411 217.822 23.5958 217.93 23.9801C218.039 24.3643 218.058 24.7681 217.988 25.161V36.2957C218.038 36.6884 218.008 37.0872 217.901 37.4683C217.794 37.8494 217.611 38.205 217.363 38.514H222.683C222.213 37.875 221.994 37.0854 222.069 36.2957Z" fill="black"/>
<path d="M207.478 22.8135H198.701C199.563 23.675 199.315 24.418 199.315 25.5379V35.6711C199.45 36.6237 199.232 37.5927 198.701 38.3955H207.478C209.494 38.3205 211.402 37.4669 212.802 36.014C214.202 34.5611 214.984 32.6221 214.984 30.6045C214.984 28.5869 214.202 26.6479 212.802 25.195C211.402 23.7421 209.494 22.8885 207.478 22.8135ZM207.478 34.4327H203.396V26.8948H207.478C208.477 26.8948 209.436 27.2918 210.143 27.9987C210.85 28.7055 211.247 29.6641 211.247 30.6637C211.247 31.6633 210.85 32.622 210.143 33.3288C209.436 34.0356 208.477 34.4327 207.478 34.4327Z" fill="black"/>
<path d="M192.886 33.9374C193.798 33.4032 194.561 32.6474 195.103 31.7401C195.645 30.8328 195.95 29.8032 195.988 28.7469C196 27.2121 195.412 25.7331 194.35 24.6249C193.289 23.5167 191.836 22.8668 190.302 22.8135H179.921C180.182 23.1165 180.372 23.4736 180.478 23.8591C180.585 24.2445 180.604 24.6488 180.535 25.0426V36.2849C180.607 37.0543 180.388 37.8227 179.921 38.4386H185.219C184.806 37.9571 184.587 37.339 184.605 36.7049V34.6804H188.191L191.53 38.3955H196.849L192.886 33.9374ZM190.291 30.7068H184.605V26.6471H190.291C190.76 26.7212 191.184 26.9676 191.481 27.338C191.778 27.7085 191.926 28.1763 191.896 28.65C191.981 29.1155 191.878 29.5956 191.609 29.9851C191.341 30.3747 190.929 30.642 190.463 30.7283H190.291V30.7068Z" fill="black"/>
<path d="M170.886 22.8135H165.437C165.658 23.1432 165.776 23.5312 165.776 23.928C165.776 24.3249 165.658 24.7128 165.437 25.0426L158.976 38.3955H164.178C164.024 38.2655 163.925 38.0822 163.901 37.8825C163.878 37.6827 163.93 37.4813 164.048 37.3187L164.544 36.2418H172.954L173.449 37.3187C173.568 37.814 173.568 38.1801 173.32 38.3955H178.51L170.886 22.8135ZM166.428 32.2144L168.657 27.5086L170.876 32.2144H166.428Z" fill="black"/>
<path d="M156.661 36.5326V24.9134C156.621 24.2021 156.843 23.5009 157.286 22.9427H151.966C152.828 23.8042 152.58 24.5472 152.58 25.6564V32.3329L144.547 22.9427H139.733C140.595 23.8042 140.347 24.5472 140.347 25.6564V36.2957C140.406 37.0471 140.188 37.7943 139.733 38.3955H145.042C144.18 37.534 144.428 36.791 144.428 35.6711V28.8762L152.838 38.5678H157.404C157.054 37.9504 156.803 37.2817 156.661 36.5864" fill="black"/>
<path d="M139.991 42.7137L140.605 44.1997C137.421 45.3691 134.098 46.1185 130.72 46.4288L129.718 21.209L138.129 20.1321L129.6 18.8938L129.481 16.2985C130.532 16.08 131.475 15.5049 132.15 14.6709C132.825 13.8368 133.191 12.795 133.186 11.7219C133.193 11.1192 133.08 10.5211 132.855 9.96224C132.629 9.40336 132.295 8.89484 131.871 8.46615C131.447 8.03745 130.943 7.6971 130.386 7.46483C129.83 7.23255 129.233 7.11297 128.631 7.11301C127.423 7.12979 126.27 7.61768 125.417 8.47266C124.564 9.32763 124.079 10.482 124.065 11.6896C124.077 12.758 124.45 13.7908 125.122 14.6213C125.794 15.4518 126.727 16.0313 127.769 16.2662L127.651 18.8615L119.111 20.0998L127.522 21.1767L126.531 46.3965C123.171 45.9814 119.86 45.2384 116.645 44.1782L117.259 42.6922L108.86 41.8307L115.321 47.0211L115.935 45.535L128.674 50.8547L141.402 45.5243L142.016 47.0103L148.477 41.8199L139.991 42.7137ZM125.992 11.6896C125.992 11.1763 126.145 10.6746 126.43 10.2478C126.715 9.82103 127.12 9.48839 127.594 9.29197C128.069 9.09554 128.591 9.04415 129.094 9.14429C129.597 9.24442 130.06 9.49159 130.423 9.85454C130.786 10.2175 131.033 10.6799 131.133 11.1833C131.233 11.6867 131.182 12.2086 130.985 12.6828C130.789 13.157 130.456 13.5623 130.029 13.8475C129.603 14.1326 129.101 14.2848 128.588 14.2848C127.915 14.2993 127.265 14.0468 126.778 13.5825C126.292 13.1183 126.009 12.4803 125.992 11.8081V11.6896Z" fill="black"/>
<path d="M114.761 26.4963C115.467 26.4951 116.155 26.7134 116.732 27.1209V22.8135H101.774C102.636 23.675 102.388 24.418 102.388 25.5379V35.6711C102.528 36.6239 102.309 37.5948 101.774 38.3955H116.732V34.0343C116.181 34.4894 115.473 34.7098 114.761 34.6481H106.351V32.4944H114.266V28.9946H106.351V26.7655H114.761V26.4963Z" fill="black"/>
<path d="M86.9351 27.5086C86.9351 26.8948 87.4304 26.4317 90.2733 26.4317C91.8609 26.4468 93.4408 26.6529 94.9791 27.0455C95.2505 27.0977 95.5051 27.2151 95.7208 27.3878C95.9366 27.5604 96.1071 27.7829 96.2175 28.0362L97.9943 23.9226C97.4575 24.0075 96.9083 23.967 96.3898 23.8042C94.1594 23.0557 91.818 22.6916 89.4657 22.7273C83.2845 22.7273 82.66 26.5502 82.66 27.5409C82.66 30.8791 85.8905 31.8483 89.4657 32.2467C93.0408 32.6451 94.6561 32.3652 94.4084 33.722C94.2792 34.3466 92.9224 34.9604 90.2087 34.9604C88.549 34.8941 86.9148 34.5293 85.3844 33.8835C84.8891 33.5066 84.3937 33.3882 84.146 32.8067L81.8416 36.7802C82.3369 36.7586 82.8329 36.802 83.3169 36.9095C85.6129 37.9449 88.0993 38.4914 90.6179 38.514C95.9268 38.514 98.1559 35.9188 98.1559 33.3236C98.1559 29.7376 94.9253 29.1238 91.4794 28.7469C89.9933 28.6285 86.9028 28.8762 86.9028 27.5086" fill="black"/>
<path d="M68.2733 27.5086C68.2733 26.8948 68.7686 26.4317 71.6115 26.4317C73.1955 26.4469 74.7719 26.653 76.3066 27.0455C76.5718 27.0985 76.8209 27.2127 77.034 27.3791C77.2472 27.5455 77.4185 27.7595 77.5342 28.0039L79.2571 23.9227C78.7203 24.0075 78.1712 23.967 77.6526 23.8042C75.4655 23.061 73.1675 22.6968 70.8577 22.7273C64.6766 22.7273 64.052 26.5502 64.052 27.5409C64.052 30.8791 67.2826 31.8483 70.8577 32.2467C74.4328 32.6451 76.0481 32.3652 75.8004 33.722C75.6712 34.3466 74.3144 34.9604 71.6007 34.9604C69.941 34.8941 68.3068 34.5293 66.7764 33.8835C66.2811 33.5066 65.7857 33.3882 65.5381 32.8067L63.3197 36.8772C63.815 36.8555 64.311 36.8989 64.795 37.0064C67.1148 38.0159 69.62 38.5294 72.1499 38.514C77.4588 38.514 79.6879 35.9188 79.6879 33.3236C79.6879 29.7376 76.4573 29.1238 73.0114 28.7469C71.2777 28.6285 68.3056 28.8762 68.3056 27.5086" fill="black"/>
<path d="M56.4064 32.3328L63.3198 22.8135H57.5048C57.5862 22.8565 57.6583 22.9152 57.717 22.9862C57.7757 23.0571 57.8198 23.1389 57.8468 23.227C57.8738 23.315 57.8832 23.4075 57.8744 23.4992C57.8656 23.5908 57.8388 23.6798 57.7955 23.7611C57.7304 23.8854 57.629 23.9868 57.5048 24.0519L54.4142 28.1331L51.1836 23.8257C51.0524 23.6714 50.9878 23.4714 51.004 23.2695C51.0201 23.0676 51.1157 22.8804 51.2698 22.7489H45.4548L52.379 32.2682V36.468C52.4182 37.1373 52.2241 37.7995 51.8298 38.3417H57.1494C56.9201 38.0709 56.7468 37.7572 56.6396 37.419C56.5324 37.0807 56.4934 36.7245 56.5248 36.371V32.3328H56.4064Z" fill="black"/>
<path d="M39.3383 24.7949C39.2954 24.08 39.5178 23.3745 39.9629 22.8135H34.6432C35.1029 23.3667 35.3271 24.0781 35.2678 24.7949V36.4141C35.3067 37.1285 35.0847 37.8326 34.6432 38.3955H48.3731V33.6897C47.8199 34.1486 47.1073 34.3693 46.3917 34.3035H39.3383V24.7949Z" fill="black"/>
<path d="M31.2296 24.7949C31.2194 24.0861 31.4343 23.3924 31.8434 22.8135H26.4915C26.7543 23.1 26.9466 23.4438 27.0532 23.8177C27.1598 24.1916 27.1776 24.5852 27.1053 24.9672V31.7729C27.1142 32.0676 27.0645 32.3612 26.9591 32.6366C26.8538 32.9121 26.6948 33.1638 26.4915 33.3774C25.8777 34.2389 24.5101 34.4542 22.9056 34.4542C21.6199 34.5358 20.3476 34.1538 19.3196 33.3774C19.0957 33.1516 18.9245 32.8791 18.8184 32.5793C18.7122 32.2796 18.6738 31.96 18.7058 31.6437V24.6657C18.6941 23.96 18.9093 23.2692 19.3196 22.695H14C14.4396 23.2543 14.6581 23.9557 14.6138 24.6657V31.5898C14.6009 33.2846 15.2189 34.9236 16.3475 36.188C17.3382 37.2648 19.4381 38.4171 22.8086 38.4171C25.1675 38.5228 27.4779 37.7257 29.2697 36.188C30.377 34.9192 30.9922 33.2953 31.0035 31.6114V24.7949H31.2296Z" fill="black"/>
</g>
<defs>
<clipPath id="clip0_988_1964">
<rect width="228.949" height="44" fill="white" transform="translate(14 7)"/>
</clipPath>
</defs>
</svg>
