<svg width="256" height="58" viewBox="0 0 256 58" fill="none" xmlns="http://www.w3.org/2000/svg">
<g clip-path="url(#clip0_1046_39)">
<path d="M165.452 38.4961L160.521 29.9061C162.705 28.8693 164.094 26.6774 164.098 24.2727C164.098 20.8194 161.267 18.0086 157.785 18.0086H147.24V38.4961H151.929V30.5447H155.661L160.227 38.5001H165.452V38.4961ZM151.854 26.5868V21.9705H156.908L156.888 21.9784C158.429 22.0611 159.405 22.9442 159.405 24.2845C159.405 25.6249 158.357 26.5355 156.789 26.5907H151.85L151.854 26.5868ZM128.088 38.4961V18.0086H143.504V21.9192H132.904V26.0191H142.198V30.0165H132.904V34.3884H144.029V38.5001H128.088V38.4961ZM106.101 38.4961L101.17 29.9061C103.354 28.8693 104.743 26.6774 104.747 24.2727C104.743 20.8194 101.912 18.0086 98.4304 18.0086H87.8855V38.4961H92.5743V30.5447H96.3063L100.872 38.5001H106.097L106.101 38.4961ZM92.4989 26.5868V21.9705H97.553L97.5331 21.9784C99.0736 22.0611 100.054 22.9442 100.054 24.2845C100.054 25.6249 99.0021 26.5355 97.4379 26.5907H92.4989V26.5868ZM75.3872 39.0007C81.0289 39.0007 84.3996 35.78 84.3996 30.387V18.0204H79.5837V30.0638C79.5837 32.981 78.0552 34.6525 75.3872 34.6525C72.7231 34.6525 71.1946 32.981 71.1946 30.0638V18.0204H66.3747V30.387C66.3747 35.78 69.7455 39.0007 75.3872 39.0007ZM60.074 27.1466C62.8531 28.0887 64.207 30.4343 64.207 32.6972C64.207 35.8864 61.5986 38.4843 58.3906 38.4922H47V18.0046H57.4933C60.2249 18.0283 62.4244 20.232 62.4283 22.9481C62.4283 24.659 61.539 26.2477 60.074 27.1505V27.1466ZM51.7285 34.6722H56.9931C58.6487 34.6722 59.5142 33.4462 59.5142 32.2359C59.5142 31.2583 58.732 29.8864 56.9931 29.8864H51.7285V34.6761V34.6722ZM55.5836 26.0625C56.7946 26.0625 57.7474 25.1321 57.7474 23.9455C57.7474 22.7589 56.7549 21.8286 55.5836 21.8286H51.7285V26.0625H55.5836Z" fill="black"/>
<path d="M121.37 27.1419C124.15 28.0802 125.503 30.4297 125.503 32.6925C125.503 35.8817 122.895 38.4757 119.687 38.4875H108.296V18H118.786C121.517 18.0237 123.721 20.2313 123.721 22.9435C123.721 24.6544 122.831 26.2431 121.366 27.1419H121.37ZM113.021 34.6676H118.286C119.941 34.6676 120.807 33.4415 120.807 32.2313C120.807 31.2536 120.025 29.8817 118.286 29.8817H113.021V34.6715V34.6676ZM116.876 26.0578C118.091 26.0578 119.04 25.1275 119.04 23.9409C119.04 22.7543 118.047 21.8239 116.876 21.8239H113.021V26.0578H116.876Z" fill="black"/>
<path d="M185.863 38.4954L180.932 29.9054C183.116 28.8686 184.505 26.6767 184.509 24.272C184.505 20.8186 181.674 18.0079 178.192 18.0079H167.648V38.4954H172.336V30.544H176.068L180.634 38.4993H185.859L185.863 38.4954ZM172.261 26.5861V21.9698H177.315L177.295 21.9776C178.836 22.0604 179.816 22.9435 179.816 24.2838C179.816 25.6242 178.764 26.5348 177.2 26.59H172.261V26.5861ZM192.716 38.4954V30.1458L184.529 18.0079H190.544L195.257 25.0525L199.985 18.0079H206L197.793 30.1498V38.4993H192.712L192.716 38.4954Z" fill="black"/>
</g>
<defs>
<clipPath id="clip0_1046_39">
<rect width="159" height="21" fill="white" transform="translate(47 18)"/>
</clipPath>
</defs>
</svg>
