<svg width="256" height="58" viewBox="0 0 256 58" fill="none" xmlns="http://www.w3.org/2000/svg">
<path d="M154.476 29.2374C154.476 43.7264 142.727 55.4748 128.238 55.4748C113.748 55.4748 102 43.7281 102 29.2374C102 14.7488 113.747 3.0014 128.237 3C142.726 2.99965 154.476 14.7471 154.476 29.2374Z" fill="#231F20"/>
<path d="M141.454 28.025C139.962 35.738 132.024 34.5402 132.024 34.5402L134.192 21.4485C134.192 21.4485 143.001 20.0202 141.454 28.025ZM146.7 22.4394C145.937 19.9236 142.623 16.1548 137.68 16.1548H129.609L125.688 39.8984H133.762C141.381 39.8984 146.145 33.9992 147.127 28.0642C147.444 26.1137 147.318 24.1425 146.7 22.4394ZM122.621 16.1215C122.587 16.4796 120.467 33.3958 112.449 34.507C112.302 34.5291 112.166 34.5291 111.197 34.5844L110.446 40.0839C110.446 40.0839 111.336 40.1007 111.711 40.1206C113.445 40.2155 118.795 39.9838 123.076 32.875C125.242 29.2731 127.076 23.9374 128.237 16.1198L122.621 16.1215Z" fill="white"/>
</svg>
