<svg width="256" height="58" viewBox="0 0 256 58" fill="none" xmlns="http://www.w3.org/2000/svg">
<path d="M57.1455 40.3285C57.4775 39.6201 57.3276 38.6938 57.9362 38.1367C57.9753 38.5242 58.086 38.891 58.3995 39.1524C58.7429 39.2051 58.9296 38.9002 59.0956 38.6755C59.2708 38.3889 59.2431 37.9831 59.0679 37.7057L58.8098 37.4282C59.0126 37.348 59.2823 37.4626 59.5128 37.4924C59.9231 37.5543 60.3564 37.9143 60.7644 37.5979C60.9788 37.4007 61.1655 37.1669 61.0526 36.8619C60.988 36.6923 60.8313 36.5753 60.6722 36.4768C60.4579 36.3873 60.2089 36.4584 60.0038 36.5226C60.225 36.1558 60.663 36.0205 61.0987 36.0297C61.6288 36.048 62.1382 36.5043 62.295 36.972C62.9358 36.1993 62.9081 34.8902 62.4056 34.0465L62.2581 33.8768C62.6084 33.9043 62.9335 34.129 63.2608 34.3078C63.4821 33.8401 63.9016 33.3197 64.4363 33.1592C64.3649 33.455 64.2612 33.8401 64.5009 34.0923C64.759 34.4339 65.2708 34.3973 65.6349 34.3078C65.847 34.2184 66.0222 34.0029 66.0429 33.7851C66.0706 33.5788 65.9392 33.4183 65.7732 33.3105C65.5865 33.283 65.3468 33.2578 65.2177 33.4183C65.1071 33.5077 65.0794 33.6773 64.948 33.7232C64.7429 33.2647 64.978 32.7717 65.2177 32.3865C65.2915 32.3063 65.4321 32.2169 65.3745 32.1091C64.9849 31.6506 64.6622 31.176 64.411 30.6647C64.8374 30.855 65.2638 31.1049 65.7456 31.0957C65.8378 30.6555 66.0314 30.1259 66.5247 29.9746L66.8197 29.9998C66.7298 30.252 66.5155 30.5019 66.663 30.7885C66.7275 30.9421 66.8497 31.1118 67.0433 31.1118C67.2946 31.121 67.4974 30.9765 67.638 30.7702C68.1198 29.7843 67.3407 28.8695 66.6814 28.1244C66.0614 27.5512 65.3076 27.2806 64.4548 27.2348C64.6484 26.939 64.9918 26.6249 65.3468 26.5263C65.5589 26.4461 65.8009 26.7143 65.9046 26.4644C66.0245 25.9807 66.0429 25.3158 66.6814 25.1897H66.746C66.6722 25.5863 66.6722 26.0586 66.9327 26.375C67.3222 26.3383 67.8224 26.242 68.1751 26.4851C68.4632 26.6639 68.6753 26.9505 68.7145 27.2646C68.4909 27.2302 68.341 26.9688 68.0829 27.0949C67.8962 27.1752 67.9169 27.3999 67.9538 27.5626C68.0644 27.769 68.2788 28.0006 68.5301 27.9937C68.8067 28.0395 69.021 27.8424 69.1616 27.6337C69.5788 26.6112 68.9865 25.678 68.1774 24.9787C67.6311 24.3139 66.0268 23.5343 65.9991 23.4701C66.4625 23.2111 67.0387 23.0758 67.6034 23.1744C67.6979 23.1285 67.7786 23.0139 67.7141 22.9153C67.5389 22.5209 67.011 22.3329 66.8912 21.9294C66.4555 21.0398 66.2596 20.054 66.1951 19.0222C66.2688 19.0314 66.2988 19.13 66.3795 19.13C66.4648 19.0498 66.3887 18.8961 66.4463 18.8067C66.5477 18.5752 66.6492 18.2496 66.9557 18.1969C66.8797 18.4491 66.7321 18.7884 66.8243 19.13C66.9096 19.4716 67.0756 19.866 67.4467 20.0265C67.7994 19.7674 67.9653 19.3822 67.91 18.9328C68.2903 19.318 68.5047 19.8018 68.5116 20.3497C68.7352 20.3314 68.938 20.1526 69.1616 20.0723C69.4313 19.9646 69.784 19.9027 70.0883 19.9921C69.5397 20.4323 69.3184 21.0972 69.4936 21.7964C69.5673 21.9936 69.6042 22.2091 69.7978 22.3627C69.92 22.1839 69.8555 21.9317 69.89 21.7185C69.8531 21.4663 70.1044 21.3494 70.2704 21.2164C70.3533 21.3425 70.2819 21.5305 70.3372 21.6749C70.6807 22.1977 70.7636 22.8236 70.7152 23.5068C70.7268 23.5412 70.7729 23.5779 70.8005 23.6146C71.0794 23.4908 71.1347 23.156 71.2269 22.9061L71.3376 22.4292C72.255 23.4976 71.6073 25.1026 71.2915 26.2604C71.2454 26.4667 71.273 26.7006 71.3583 26.8886C71.5151 27.0766 71.7479 27.1408 71.9784 27.0766C72.5247 26.806 72.2757 26.0884 72.7206 25.7216C73.0364 26.2879 72.9811 27.1408 72.7575 27.7506C73.2577 27.6956 73.6841 28.0372 73.8962 28.4339L74.0944 28.9543C73.9446 29.0094 73.8155 28.8649 73.6749 28.8305C72.7206 28.4522 71.5888 28.7044 70.8466 29.3395C70.4755 29.6559 70.3833 30.1305 70.4663 30.5707C70.5124 30.7679 70.623 30.965 70.8282 31.0911C71.0333 31.2012 71.3583 31.1714 71.5335 31.0201C71.7732 30.8046 71.7848 30.4996 72.006 30.2658C72.1466 30.5157 72.0176 30.8137 72.0245 31.0911C71.8954 31.8982 71.2661 32.7603 70.4202 33.0491C70.0375 33.3266 69.6595 33.714 69.7517 34.1909C69.8255 34.3262 69.9845 34.4133 70.1344 34.3422C70.4501 34.2345 70.5239 33.902 70.6253 33.6773C70.8651 34.0992 71.061 34.7343 70.7544 35.202C70.895 35.5436 71.0333 35.8738 71.0702 36.2612C71.0794 36.6304 71.0886 37.0614 70.895 37.3732H70.8489C70.6645 36.6304 69.9961 35.8852 69.1801 35.7408C68.4932 35.5597 67.8063 35.7591 67.2392 36.0641C67.0641 36.2429 66.9258 36.4676 67.018 36.729C67.1931 37.2219 67.8063 37.1325 68.2419 37.1417C68.3157 37.1073 68.4079 37.1233 68.4932 37.0981C68.4471 37.3755 68.2696 37.6552 68.0207 37.8776C67.993 38.0014 68.1428 38.1206 68.1958 38.2376C68.3434 38.5792 68.3918 38.9735 68.3364 39.3587C67.6219 38.6686 66.7598 38.1825 65.711 38.3086C65.4966 38.382 65.2638 38.5952 65.2638 38.8199C65.1901 39.4756 66.1651 39.4206 66.0429 40.0924C65.3007 39.8241 64.5308 39.6614 63.7056 39.6178C63.0187 39.5811 62.0068 39.5719 61.6565 40.2827C61.6565 40.6151 61.887 40.8742 62.1659 41.0806C62.295 41.1791 62.5923 41.1883 62.5623 41.3603C62.2028 41.7913 61.4882 41.7363 61.0041 41.5758C60.9488 41.5941 60.8566 41.5414 60.829 41.6216C60.7921 41.9082 60.958 42.1169 61.0318 42.3576C60.5408 42.4745 60.096 42.204 59.7802 41.8349C59.2431 42.3576 58.6115 42.6602 57.8693 42.6969C57.8232 42.5158 58.0099 42.3186 57.9154 42.1398C57.4613 42.2819 57.1179 42.6786 56.7283 42.9743C56.0806 43.559 55.5597 44.2308 55.2185 44.9576C55.5044 44.9828 55.7925 45.047 55.9515 45.3244C56.0045 45.4413 56.0691 45.5491 56.0437 45.6912C55.8501 45.6843 55.6173 45.4413 55.4214 45.5582C55.0503 45.7829 54.7621 46.1521 54.6146 46.5097C54.7921 46.5991 55.0134 46.5808 55.154 46.7436C55.0042 46.9499 54.7529 47.0944 54.6423 47.3282C54.5132 47.5346 54.4487 47.7776 54.3541 48H51.9707C51.9062 47.9014 51.9062 47.7845 51.8762 47.6767C51.7656 47.3374 51.4982 47.0141 51.1916 46.817C51.2101 46.4937 51.9062 46.7184 51.6365 46.3148C51.3853 46.0191 51.0994 45.517 50.6523 45.5605C50.5324 45.6133 50.4379 45.7302 50.2996 45.7394C50.2166 45.5697 50.3365 45.4161 50.4102 45.2808C50.5877 45.0561 50.8482 45.0126 51.0971 44.9415C50.6062 43.8639 49.5758 42.8689 48.5363 42.204C48.4809 42.204 48.4464 42.1673 48.3795 42.1856C48.3242 42.3737 48.5017 42.58 48.4095 42.7588C47.6673 42.7244 47.0541 42.408 46.5171 41.8968C46.2197 42.2911 45.7933 42.4883 45.2931 42.4608C45.2931 42.1834 45.5605 41.8876 45.4037 41.5987C44.9404 41.8051 44.2259 41.8761 43.7994 41.5368C43.7349 41.4818 43.698 41.4268 43.6888 41.3557C43.8824 41.2296 44.1152 41.1952 44.2904 41.0141C44.484 40.8077 44.6523 40.5647 44.5785 40.2781C44.0322 39.4779 42.8451 39.6843 41.9531 39.7393C41.34 39.8196 40.7845 40.0007 40.2174 40.1703C40.1805 40.019 40.2451 39.8035 40.3672 39.6591C40.5609 39.416 40.9873 39.3725 40.9689 39.0148C41.015 38.7466 40.8398 38.531 40.6162 38.4141C39.8463 38.2605 39.0949 38.531 38.4748 38.9254L37.8986 39.4183C37.7695 38.9093 37.9078 38.3958 38.2144 38.0014C37.9908 37.7515 37.751 37.4993 37.6957 37.1852C38.1775 37.2379 38.892 37.3205 39.1709 36.8619C39.2631 36.6464 39.2078 36.3782 39.0326 36.2154C38.3941 35.7133 37.3085 35.6055 36.5663 35.9747C35.9047 36.2062 35.5106 36.8803 35.3607 37.481C35.2593 37.4901 35.2386 37.3457 35.1855 37.2678C34.962 36.6395 35.1003 35.8852 35.4068 35.3281C35.1487 34.8696 35.2109 34.1611 35.5175 33.7392C35.5175 33.7392 35.7503 34.3147 36.0568 34.4041C36.1951 34.4752 36.3242 34.3858 36.4072 34.278C36.5109 33.7943 36.1283 33.416 35.7411 33.1363C34.8398 32.8497 34.2197 31.9257 34.0976 31.0636C34.0791 30.839 34.033 30.6143 34.0515 30.3735C34.0515 30.3735 34.4595 31.2516 35.0058 31.2356C35.2201 31.2173 35.423 31.1278 35.5428 30.9398C35.7572 30.5913 35.7457 30.0503 35.5152 29.7109C34.8559 28.8328 33.6343 28.615 32.5763 28.8947C32.3619 28.9039 32.2213 29.1194 32 29.1286C32.1199 28.6173 32.3895 27.9799 33.0027 27.863C33.1133 27.8447 33.2516 27.8997 33.3346 27.8194C33.1133 27.1729 33.0649 26.3819 33.3807 25.7743C33.8924 26.1595 33.5836 27.6406 34.6508 27.0399C34.985 26.6089 34.6877 26.054 34.5586 25.6207C34.2151 24.6692 34.0307 23.3142 34.7176 22.4522C34.8467 22.8649 34.8744 23.3417 35.2086 23.665C35.2754 23.6902 35.3192 23.6192 35.34 23.5756C35.2754 22.858 35.4045 22.2206 35.7388 21.6543C35.7572 21.5282 35.8494 21.2691 35.8494 21.2691C36.3219 21.5007 36.1352 22.0303 36.2758 22.4086C36.6193 21.9959 36.7391 21.3494 36.5155 20.8381C36.4233 20.5332 36.1652 20.2718 35.9393 20.0379C36.534 19.8866 37.025 20.2007 37.5182 20.4071C37.6381 20.2099 37.5551 19.9393 37.675 19.7422C37.7695 19.4647 37.9539 19.2217 38.1683 18.9879C38.0922 19.4097 38.3158 19.8843 38.6938 20.109C39.2424 19.678 39.3991 18.9603 39.1871 18.3138C39.5582 18.4307 39.6596 18.809 39.6803 19.1392L39.8855 19.0681C39.8855 20.1984 39.6158 21.3012 39.0787 22.2642C38.8644 22.5783 38.3849 22.7663 38.4103 23.1606C38.4103 23.1606 39.6619 23.2317 40.1252 23.5275C40.1344 23.6719 38.2789 24.5982 37.6104 25.4029C37.0549 25.9325 36.7391 26.5882 36.8498 27.3586C36.942 27.636 37.0826 28.0143 37.4353 28.0762C37.7395 28.129 37.9377 28.0051 38.1037 27.7713C38.1775 27.6016 38.2535 27.4297 38.1222 27.2485C38.0115 27.1064 37.8432 27.1591 37.6957 27.2119C37.6035 27.2852 37.509 27.3563 37.3892 27.3563C37.3892 27.0147 37.6865 26.7373 37.9654 26.5401C38.3342 26.3337 38.8367 26.3865 39.2355 26.4965C39.4568 26.2352 39.4752 25.8408 39.3922 25.5084L39.2816 25.2928C39.4107 25.2585 39.5789 25.2309 39.6988 25.3387C40.1437 25.662 40.1805 26.1824 40.3004 26.6478C40.6554 26.4965 41.0426 26.6295 41.3008 26.8634C41.4598 27.0353 41.6166 27.205 41.7457 27.3838C40.8467 27.2875 39.9477 27.7163 39.2793 28.4178C38.8067 28.9108 38.5463 29.4931 38.3619 30.0938C38.3434 30.5248 38.4633 30.9582 38.8828 31.1531C38.9935 31.2058 39.1686 31.2241 39.2793 31.1531C39.5213 30.9926 39.5582 30.6853 39.5029 30.4171C39.4936 30.2841 39.2332 30.158 39.3922 30.0503C39.7633 29.9792 40.0215 30.2497 40.2174 30.5088C40.4687 30.6876 40.2105 31.3686 40.7453 31.1531C41.1072 31.0545 41.4506 30.9284 41.7756 30.7404C41.7756 30.7404 41.1533 31.7904 40.8098 32.249C41.1994 32.6617 41.4299 33.1821 41.3284 33.737C41.2893 33.7622 41.2893 33.7989 41.2524 33.8172C41.1671 33.808 41.1487 33.6911 41.1026 33.6292C40.9735 33.4939 40.8444 33.3587 40.6577 33.3678C40.5378 33.393 40.418 33.4045 40.3258 33.4756C40.1759 33.6109 40.1298 33.808 40.1875 33.996C40.2704 34.2207 40.5217 34.4179 40.7706 34.4271C41.0288 34.4523 41.3469 34.4821 41.5497 34.3193C41.8286 34.113 41.9116 33.8172 41.8379 33.4939C41.8286 33.4045 41.7433 33.3426 41.7433 33.2417C42.3012 33.3403 42.7184 33.8974 42.9512 34.356C43.1909 34.3193 43.8409 33.8883 43.9723 33.925C43.9354 34.0235 43.8524 34.1038 43.7948 34.1863C43.3776 35.0369 43.2946 36.2842 43.9539 37.0477C44.1198 36.5731 44.6016 36.1581 45.1317 36.1076C45.5766 36.0801 45.9754 36.1879 46.2451 36.5112V36.6006C45.9938 36.5112 45.6711 36.4768 45.4475 36.6464C45.2608 36.8253 45.1317 37.0499 45.2262 37.3113C45.3461 37.5543 45.5697 37.7515 45.8463 37.7882C46.4226 37.7515 46.9043 37.4282 47.4875 37.4833C47.1555 37.7538 46.9781 38.1023 47.0887 38.5242C47.2016 38.7924 47.4252 39.1799 47.7871 39.2074C48.1951 39.063 48.2804 38.5952 48.315 38.2009C48.3611 38.1298 48.3795 38.2261 48.4256 38.2192C48.9074 38.8566 48.8544 39.7072 49.1586 40.418C50.1037 41.4955 51.1893 42.6442 52.3672 43.4329C52.5055 43.2632 52.3949 43.0385 52.3211 42.8689C52.1275 42.5915 51.8394 42.4287 51.4959 42.4378C51.5512 42.2751 51.7541 42.2132 51.9223 42.1856H52.3211C52.3672 42.0137 52.1644 41.8807 52.0353 41.773C51.867 41.6744 51.6457 41.6927 51.4798 41.601C51.7011 41.3488 52.0906 41.2525 52.4341 41.3603C52.5078 41.4038 52.6023 41.4589 52.6853 41.4313C52.5931 41.1883 52.4341 40.9728 52.2773 40.7596C52.0376 40.4271 51.7587 40.0878 51.4152 39.8173C51.2862 39.8356 51.2032 39.9434 51.1479 40.0511C51.0833 40.1956 51.2677 40.2941 51.1663 40.3927C51.0441 40.4111 50.9335 40.301 50.9058 40.2047L50.8136 39.8815C49.8294 39.792 49.2646 38.8383 48.6792 38.1573C48.4394 37.7905 48.1974 37.3778 48.3634 36.9101C48.4648 36.6143 48.7921 36.3896 49.0779 36.3002C50.0783 36.1397 50.7283 37.2402 51.2746 37.8799C51.5074 38.2467 51.7863 38.6067 51.7011 39.0996C51.8947 39.1249 52.0814 39.1982 52.1943 39.3862C52.1759 39.439 52.2404 39.4573 52.2128 39.5123C52.0745 39.5032 51.8785 39.4229 51.7495 39.5765C52.056 39.964 52.4525 40.3675 52.8144 40.6793C52.842 40.0603 52.9458 39.4665 52.9089 38.8222C52.7706 38.758 52.6507 38.9208 52.5747 39.0194C52.5286 39.0446 52.5839 39.1272 52.5009 39.1272C52.3511 39.1363 52.3603 38.9758 52.3073 38.8841C52.2773 38.6869 52.3903 38.5448 52.4364 38.3728C51.8255 37.6461 51.7126 36.5318 52.1021 35.6812C52.3303 35.3144 52.713 35.0713 53.1417 35.0621C53.5704 35.0713 53.9508 35.3144 54.179 35.6812C54.5685 36.5318 54.4579 37.6461 53.847 38.3728C53.8931 38.5448 54.0038 38.6869 53.9761 38.8841C53.9208 38.9735 53.93 39.1363 53.7802 39.1272C53.6972 39.1272 53.7525 39.0469 53.7064 39.0194C53.6304 38.9208 53.5105 38.758 53.3722 38.8222C53.333 39.4688 53.4367 40.0603 53.4644 40.6793C53.8263 40.3652 54.2251 39.9617 54.5316 39.5765C54.4026 39.4229 54.2066 39.5055 54.0683 39.5123C54.0407 39.4573 54.1052 39.4413 54.0868 39.3862C54.1974 39.1982 54.3841 39.1249 54.58 39.0996C54.4971 38.6067 54.7737 38.2467 55.0065 37.8799C55.5528 37.2425 56.2028 36.1397 57.2055 36.3002C57.4913 36.3896 57.8186 36.6143 57.9177 36.9101C58.086 37.3755 57.844 37.7905 57.6042 38.1573C57.0188 38.8406 56.454 39.792 55.4698 39.8815L55.3776 40.2047C55.3499 40.301 55.2393 40.4111 55.1171 40.3927C55.0157 40.2941 55.2001 40.1956 55.1355 40.0511C55.0779 39.9434 54.9949 39.8356 54.8659 39.8173C54.5224 40.0878 54.2435 40.4271 54.0038 40.7596C53.847 40.9751 53.688 41.1906 53.5958 41.4313C53.6788 41.4589 53.771 41.4038 53.847 41.3603C54.1905 41.2525 54.58 41.3511 54.8013 41.601C54.6354 41.6904 54.4118 41.6721 54.2435 41.773C54.1144 41.8807 53.9116 42.0137 53.9577 42.1856H54.3565C54.5247 42.2132 54.7276 42.2751 54.7829 42.4378C54.4394 42.4264 54.1536 42.5892 53.9577 42.8689C53.8839 43.0385 53.771 43.2632 53.9116 43.4329C55.0894 42.6442 56.1959 41.4245 57.1432 40.3469M168.086 41.6423C168.086 41.523 168.093 41.4405 168.1 41.3373C168.056 41.2686 167.971 41.3236 167.93 41.3373C166.143 42.5525 164.318 43.7562 161.99 43.6324C161.646 43.52 161.289 43.3412 161.105 42.995C160.667 42.1627 161.19 40.7986 161.176 40.771C159.406 41.8349 157.649 42.9262 155.722 43.5888C155.522 43.5475 155.008 43.8502 155.107 43.465C159.021 41.5322 162.902 38.7168 166.217 35.4427C167.072 35.4427 168.99 35.4565 168.946 35.4427C167.204 37.1141 164.401 39.8448 162.716 41.5712C162.467 41.8303 162.075 42.1513 162.232 42.5662C162.831 43.1601 163.859 42.7978 164.461 42.5387C166.475 41.4749 168.589 39.9846 170.053 38.2215C171.738 36.5753 173.971 35.468 176.26 35.1332C177.018 35.0782 177.733 35.2845 178.146 35.9059C178.173 35.9609 178.173 36.0297 178.245 36.0732C178.528 36.0457 178.922 35.6491 179.13 35.4359C179.994 35.4405 180.831 35.4404 181.64 35.4404C181.14 36.1306 177.129 40.4936 175.672 42.0962C175.529 42.2292 175.557 42.3989 175.642 42.5387C175.942 42.7061 176.166 42.7336 176.493 42.6786C178.1 42.5043 179.24 41.264 180.462 40.2185C182.246 38.382 184.159 36.2796 186.388 35.2043C187.101 34.9429 188.145 34.8306 188.786 35.3006C189.33 35.7431 189.3 36.4217 189.473 36.9995C190.072 36.8757 190.551 36.2796 191.015 35.9632C191.397 35.7018 191.773 35.5299 192.086 35.4106C192.859 35.1218 193.942 34.9269 194.684 35.4382C195.286 36.0595 195.313 36.9857 195.028 37.7584C194.915 37.9945 194.806 38.2399 194.613 38.421C193.384 39.6774 192.142 40.9361 190.915 42.2063C190.754 42.3668 190.586 42.5387 190.643 42.8001C191.058 43.1601 191.6 42.8276 192.015 42.7038C193.373 42.165 194.585 41.1975 195.715 40.1749C197.386 37.4099 200.384 35.5872 203.499 35.1309C204.255 35.0759 204.967 35.2823 205.384 35.9036C205.409 35.9586 205.409 36.0274 205.481 36.0709C205.767 36.0434 206.161 35.6468 206.368 35.4336C207.233 35.4382 208.072 35.4382 208.879 35.4382C208.378 36.1283 204.368 40.4913 202.911 42.0939C202.768 42.2269 202.796 42.3966 202.883 42.5364C203.18 42.7038 203.639 42.6213 203.969 42.5639C207.668 41.3603 210.623 38.0863 213.436 35.1722C213.578 35.0209 213.793 34.9223 213.98 34.9659C214.065 35.1997 213.864 35.4084 213.735 35.6032C210.995 38.9185 207.597 42.3003 203.625 43.6553C202.839 43.8364 201.855 43.8227 201.341 43.1578C201.092 42.9514 201.214 42.5639 200.926 42.5364C199.785 43.3366 198.425 43.7378 196.913 43.5865C196.242 43.4489 195.514 42.8551 195.399 42.1627C195.415 41.9564 195.385 41.7615 195.3 41.5964C193.615 42.729 191.916 43.9167 189.689 43.653C189.401 43.6415 189.025 43.1234 188.963 42.7565C188.804 41.8165 189.648 41.1952 190.206 40.5051C191.476 39.2601 192.704 38.0037 193.903 36.7335C194.062 36.5433 193.977 36.3048 193.933 36.126C193.804 35.8508 193.504 35.821 193.246 35.766C192.259 35.7523 191.547 36.4011 190.819 36.9949C188.633 39.2189 186.448 41.2502 184.307 43.4879C183.438 43.4879 181.451 43.5131 181.421 43.4879C183.249 41.6216 185.476 39.6659 187.218 37.7263C187.617 37.2861 188.202 36.7679 188.103 35.9311C187.875 35.5574 187.405 35.6835 187.048 35.6949C184.92 36.4561 183.15 38.5012 181.564 40.0763C180.497 41.2365 179.305 42.3393 177.98 42.9927C177.459 43.2976 176.929 43.4696 176.385 43.6553C175.601 43.8364 174.614 43.8227 174.1 43.1578C173.851 42.9514 173.971 42.5639 173.685 42.5364C172.542 43.3366 171.187 43.7378 169.675 43.5865C169.004 43.4489 168.275 42.8551 168.163 42.1627C168.163 42.1627 168.082 41.8463 168.082 41.64M171.634 39.0561C170.733 40.0534 169.269 41.468 169.435 42.5387C169.52 42.7061 169.649 42.8574 169.848 42.8987C172.505 43.2311 174.047 40.6197 175.774 39.0171C176.389 38.3797 177.074 37.7859 177.39 37.027C177.502 36.7221 177.334 36.4607 177.189 36.2406C176.832 35.8394 176.161 35.8944 175.705 36.0343C174.192 36.6556 172.837 37.7332 171.636 39.0584M198.872 39.0561C197.969 40.0534 196.505 41.468 196.671 42.5387C196.759 42.7061 196.885 42.8574 197.086 42.8987C199.744 43.2311 201.286 40.6197 203.012 39.0171C203.625 38.3797 204.312 37.7859 204.626 37.027C204.741 36.7221 204.568 36.4607 204.428 36.2406C204.07 35.8394 203.399 35.8944 202.943 36.0343C201.429 36.6556 200.076 37.7332 198.875 39.0584M169.601 31.4855C170.027 31.2929 170.518 31.0384 171.044 31.2241C171.355 31.3342 171.572 31.5726 171.657 31.7904C171.802 32.5493 171.514 33.2692 170.843 33.7117C170.385 34.0854 169.587 34.1107 169.087 33.8493C168.886 33.6682 168.769 33.6475 168.672 33.2142C168.63 32.4943 169.029 31.873 169.601 31.4855ZM144.282 36.9995C144.568 36.917 144.884 36.9857 145.096 37.1646C145.61 37.7744 145.453 38.7282 145.096 39.3495C144.868 39.8058 144.425 40.1497 143.969 40.3859C144.511 41.7661 146.039 42.3737 147.496 42.3737C155.877 42.2636 160.547 33.4343 165.217 27.9088C167.688 24.4537 170.371 21.0834 173.443 17.8644C169.315 15.4181 163.46 16.5094 159.535 18.5981C155.75 20.4483 152.096 23.3784 149.381 26.8863C148.595 28.0189 147.911 29.5252 148.595 30.9352C149.466 32.398 151.223 32.6342 152.88 32.5241C159.235 31.5428 165.101 26.0586 167.688 20.3795C167.987 19.5794 168.246 18.7632 168.474 17.9332C168.501 20.6684 167.088 22.9359 165.662 25.1599C162.792 29.2501 158.578 32.9368 153.567 33.4756C151.368 33.6842 149.298 33.1019 148.012 31.3617C147.155 29.5527 147.754 27.3403 148.697 25.7537C152.581 20.0746 158.751 16.9382 165.219 15.9018C168.333 15.4594 171.475 15.817 174.029 17.2683C174.056 17.2683 179.48 12.0226 183.353 11.3279C183.41 11.3416 183.509 11.3003 183.553 11.3691C180.527 12.6393 177.715 14.5331 175.299 17.0345C175.128 17.2981 174.686 17.4907 174.815 17.8346C176.94 19.6734 178.199 22.3398 177.212 25.0613C176.541 27.0078 174.642 28.8993 172.487 29.2065C171.484 29.3028 170.458 29.0415 169.986 28.1152C169.345 26.6226 170.258 25.1713 171.314 24.0685C172.328 23.156 173.485 22.5485 174.884 22.5347C175.027 22.5783 175.227 22.592 175.255 22.7433C174.819 22.7342 174.199 22.9084 173.757 23.1996C172.157 24.0708 170.516 25.7147 170.601 27.5787C170.687 27.9937 171.145 28.3651 171.56 28.4499C172.401 28.5348 172.985 28.0693 173.589 27.5512C175.857 25.5955 176.915 23.0208 175.815 20.3245C175.474 19.5931 174.902 18.8205 174.158 18.3917C171.45 21.2324 168.119 27.5237 168.059 27.5099C166.66 29.8324 165.247 32.1527 163.304 34.2528C159.95 38.2605 155.679 40.9407 151.138 42.5708C148.982 43.1922 146.025 43.4948 144.169 42.0045C143.084 41.0232 142.512 39.5857 143.084 38.1917C143.271 37.6529 143.741 37.2242 144.282 37.0018M124.715 39.9548C124.245 40.4936 123.731 41.0324 123.473 41.6698C123.374 42.016 123.489 42.3759 123.786 42.596C124.429 43.0225 125.43 42.9422 126.114 42.6648C127.631 41.9885 129.099 41.0622 130.298 39.8196C130.298 39.3335 130.399 38.9071 130.614 38.5196C130.971 37.9647 131.543 37.5108 132.183 37.4282C132.356 37.2907 132.312 37.027 132.326 36.7932C132.285 36.4745 132.17 36.142 131.84 35.9632C131.455 35.8394 130.969 35.7706 130.57 35.8944C128.327 36.5157 126.312 38.1321 124.713 39.9548M102.953 41.3649C102.755 41.6537 102.61 41.9862 102.681 42.3324C103.052 42.8849 103.811 42.9262 104.452 42.8574C106.395 42.4149 107.951 41.1012 109.493 39.7485C109.507 39.5696 109.463 39.2785 109.534 39.0859C109.721 38.2857 110.548 37.5245 111.348 37.2907C111.477 37.0706 111.42 36.7794 111.477 36.5295C111.45 36.2406 111.334 35.9632 111.032 35.7958C109.633 35.3671 108.234 36.1008 107.165 37.027C105.639 38.3407 104.21 39.8585 102.953 41.3649ZM108.979 19.1896C106.25 22.2848 103.822 25.49 101.782 28.8764C102.167 28.8351 102.596 28.6838 102.981 28.5714C108.135 26.4713 113.176 23.9424 117.274 19.5221C118.102 18.4445 119.201 17.3807 118.844 15.9018C118.657 15.253 117.929 14.9893 117.344 14.838C113.875 14.6179 111.332 16.8006 108.976 19.1896M75.6065 42.0022C75.4498 42.0848 75.1501 42.2223 75.263 42.4722C75.3921 42.7359 75.6779 42.7909 75.9061 42.901C77.3353 43.2174 79.0041 43.1348 80.4332 42.9698C81.3483 42.9445 82.2611 42.8024 83.0033 42.431C80.7767 41.6446 77.9622 41.1035 75.6065 42.0022ZM74.5784 41.7363C76.9918 40.285 80.3917 40.8398 83.1739 41.1425C83.8746 41.2525 84.5892 41.3075 85.2599 41.4726C86.0874 41.2502 86.802 40.7412 87.5581 40.3675C88.8719 39.5674 90.1305 38.6136 91.3706 37.6185C91.4282 37.6461 93.2146 35.7821 93.2561 35.7247C94.4685 34.2735 95.6256 32.7832 96.739 31.2883V31.192C95.326 31.2471 93.9752 31.3342 92.3686 31.1255C90.384 30.871 88.729 30.0548 87.0878 28.5393C84.9349 26.5538 85.2876 23.234 86.3594 21.6039C88.3856 18.5775 90.9603 16.8442 94.8166 15.3585C96.4278 14.7371 98.2695 14.4047 99.1108 14.2396C101.612 13.9095 104.495 13.577 106.994 14.1433C107.052 14.1708 107.022 14.2259 107.022 14.2809C106.994 14.3497 106.906 14.3222 106.851 14.3772C99.6525 13.8934 92.9126 15.6772 88.487 21.3402C87.3022 22.9841 86.3871 25.4029 87.5581 27.3357C89.8147 30.4308 94.1274 30.8321 97.7117 29.9608C98.3986 29.2707 98.9103 28.4568 99.5257 27.7094C103.122 23.2615 107.308 18.3551 112.277 15.3287C114.119 14.3611 116.604 13.3959 118.717 14.501C119.63 15.1223 119.946 16.1311 119.704 17.1537C118.36 20.9688 114.163 23.6329 110.864 25.7468C107.651 27.6544 104.223 29.1057 100.681 30.252C97.2253 35.1011 92.0713 38.7489 87.1155 41.5964C87.1155 41.6927 87.2307 41.6927 87.2861 41.734C89.8262 41.9403 92.583 42.0389 95.0978 41.9013C97.8246 41.5551 100.381 40.81 102.508 39.0813C104.323 36.6762 106.895 34.7572 110.007 34.771C110.878 34.8398 111.865 35.1172 112.164 36.0274C112.392 36.745 112.049 37.4924 112.065 38.2513C112.049 38.3476 111.966 38.4325 111.994 38.5425C112.109 38.6938 112.279 38.5563 112.409 38.5425C113.824 37.685 115.135 36.5799 116.422 35.4336C116.465 34.5211 116.608 33.5535 117.521 33.0698C117.708 33.0423 117.892 32.9047 118.107 33.0147C118.312 33.0423 118.464 33.2348 118.508 33.4435C118.549 34.2712 117.867 34.81 117.38 35.4336C118.222 35.8761 119.695 35.3785 119.951 36.6212C120.107 38.1413 118.766 39.0951 117.793 40.1726C116.979 40.959 116.023 41.7477 115.294 42.5892C115.179 42.7818 115.313 43.0408 115.495 43.0592C116.936 43.3687 118.669 42.5043 120.022 41.7592C121.564 40.7091 122.834 39.228 124.162 37.8753C126.183 35.8187 128.818 34.5165 131.815 35.1263C132.342 35.3075 132.903 35.8027 133.043 36.3552C133.345 37.2265 132.771 37.9441 132.87 38.7718C133.057 38.9254 133.244 38.813 133.414 38.7466C135.669 36.8115 137.672 34.5188 139.555 32.3499C139.725 32.2925 139.783 32.4347 139.825 32.5424C139.44 33.3862 138.783 34.1175 138.211 34.8925C136.399 36.839 134.657 39.4092 132.114 40.3056C131.66 40.5165 131.372 40.3194 131.015 40.4019C129.173 42.0481 127.23 43.4696 124.789 43.747C123.816 43.8433 123.007 43.481 122.488 42.6557C122.154 42.126 122.216 41.0943 122.173 41.0943C120.501 42.4768 118.646 43.4168 116.518 43.7493C115.619 43.8731 114.633 43.7218 114.163 42.9606C113.577 40.5028 116.405 39.0652 117.961 37.5177C118.203 37.1439 118.876 36.9789 118.72 36.4951C118.12 36.2727 117.45 36.2314 116.793 36.1627C115.993 36.5753 115.364 37.4191 114.608 37.9441C113.464 38.8429 112.296 39.6293 110.966 40.1016C110.023 39.9067 109.652 41.0393 108.953 41.3992C107.04 42.7795 104.742 44.4807 102.271 43.3458C101.358 42.8345 101.386 41.7432 101.515 40.8329L101.444 40.7619C100.044 41.3855 98.7029 42.1444 97.2023 42.5158C93.3483 43.5659 88.6483 43.8158 84.6952 42.8184C82.1113 43.786 79.0248 44.0749 76.0836 43.6759C75.399 43.4971 74.4425 43.4008 74.2419 42.5846C74.2281 42.2521 74.341 41.9633 74.5854 41.7271M56.3503 19.1506C56.567 18.3642 56.8436 17.6604 56.9911 16.8717C56.3987 16.404 55.1724 15.4892 55.1724 15.4892L57.4821 15.4937C57.7956 14.7945 58.0191 13.9897 58.3534 13.2996C58.6876 13.9897 58.9227 14.7945 59.2362 15.4937L61.5458 15.4892C61.5458 15.4892 60.3219 16.404 59.7295 16.8717C59.877 17.6604 60.1605 18.3872 60.3703 19.1506L58.3649 17.7956L56.3503 19.1506ZM45.9639 30.142C46.1828 29.3556 46.4548 28.6517 46.6046 27.863C46.01 27.3976 44.786 26.4828 44.786 26.4828L47.0933 26.4874C47.4114 25.7858 47.6327 24.9856 47.9669 24.2932C48.3011 24.9856 48.5363 25.7881 48.852 26.4874L51.1617 26.4828C51.1617 26.4828 49.9377 27.3976 49.343 27.863C49.4928 28.6517 49.7764 29.3785 49.9815 30.142L47.9784 28.787L45.9615 30.142H45.9639ZM49.9884 15.5235C50.053 15.4892 50.0991 15.3447 50.1936 15.4158C50.2581 15.4777 50.2858 15.5855 50.3872 15.6038C50.6177 15.6405 50.7744 15.3355 50.9681 15.5579C51.0441 15.5763 51.1386 15.5488 51.1663 15.629C50.7952 15.4571 50.4886 15.9706 50.1636 15.6015C49.9976 15.6634 49.8202 15.8262 49.6335 15.7115C49.6796 15.5855 49.8847 15.6221 49.9861 15.5213M49.479 13.6664C49.5182 13.522 49.3592 13.4051 49.4606 13.279C49.5735 13.2606 49.5989 13.3867 49.6358 13.4486C49.6473 13.5839 49.6288 13.7008 49.5459 13.7971C49.4168 13.8155 49.2877 14.031 49.1655 13.9072C49.2693 13.8086 49.4168 13.8178 49.4813 13.6641M48.9419 13.882C49.0111 13.8636 49.0595 13.9186 49.1102 13.9278C48.9765 14.0081 49.0618 14.1984 48.9189 14.2327C48.8336 14.1433 48.8221 13.9622 48.9442 13.882M48.3011 15.9729C48.338 15.6313 48.7829 15.7735 48.988 15.5855C49.2209 15.3241 48.9051 14.9297 49.1632 14.6798C49.1817 14.5446 49.1356 14.4368 49.1263 14.313C49.2278 14.2671 49.3592 14.2946 49.3661 14.4207C49.3568 14.6821 49.1794 14.8976 49.2554 15.1567C49.2462 15.2668 49.2923 15.4525 49.1632 15.5442C48.9765 15.9294 48.3749 15.6519 48.3657 16.1449C48.3011 16.2618 48.1444 16.2068 48.0522 16.1884C48.1997 16.2159 48.2458 16.0555 48.3011 15.9752M45.2677 14.3382C45.4637 14.313 45.3599 14.5537 45.4544 14.634C45.5098 14.7326 45.6296 14.7968 45.7403 14.8334C46.0653 14.9939 46.2405 14.4207 46.4917 14.7876C46.66 14.8403 46.7983 14.7257 46.8536 14.5996C46.8905 14.2396 47.4298 14.6454 47.522 14.2052C47.6419 14.0516 47.4368 13.7283 47.6972 13.6664C47.7802 13.5862 47.8263 13.4234 47.7433 13.3248C47.718 13.3157 47.718 13.279 47.718 13.2606C47.8471 13.1964 47.9393 13.35 47.9669 13.4486C47.9946 13.765 47.6327 13.8797 47.7641 14.2029C47.6903 14.3818 47.4944 14.5537 47.2985 14.5721C46.9089 14.446 47.0749 14.9756 46.7153 14.9389C46.5009 15.0031 46.3788 14.634 46.1851 14.8311C46.0468 15.0375 45.7679 14.9848 45.5628 14.9572C45.3876 14.9022 45.2309 14.7234 45.2009 14.5537C45.1917 14.4643 45.2101 14.3932 45.2654 14.3382M57.8901 24.0043C57.9753 23.9929 58.0399 24.0296 58.0952 24.1029C58.0952 24.1511 58.0307 24.2244 57.9823 24.2474C57.9085 24.2221 57.7886 24.2955 57.761 24.1855C57.761 24.1006 57.8255 24.0158 57.8901 24.0043ZM63.3875 13.0245C63.3875 12.4146 63.4452 11.8391 63.8716 11.3875H53.1624V22.067H63.3875V13.0245ZM44.975 32.9689H51.0833C51.8855 32.8795 52.7429 33.2165 53.1624 33.8012V22.2252H42.8659V30.5271L42.9304 31.1416C43.1333 32.0037 44.0023 32.8153 44.975 32.9712M46.6784 17.2202C47.4206 17.7773 46.9919 18.7999 47.2063 19.5725C47.1486 20.3176 47.3999 21.2783 46.7429 21.8354C46.7983 21.9248 46.9297 21.8446 47.0126 21.8973C47.28 21.9248 47.4575 21.6818 47.6995 21.7093C47.9393 21.8698 48.3011 21.9799 48.5893 21.8354C48.126 21.2164 48.1997 20.3818 48.096 19.6184C48.1421 18.9007 47.8563 17.9951 48.4302 17.4655C48.4671 17.2591 48.4763 17.0069 48.3449 16.8373C48.0015 16.9084 47.8378 17.1972 47.605 17.438C47.5013 17.5182 47.4368 17.3944 47.363 17.3302C47.0311 16.8671 46.66 16.3971 46.5862 15.817C46.5977 15.7597 46.6623 15.7528 46.7153 15.7597C46.9642 16.2182 47.1048 16.7203 47.4552 17.1422L47.5681 17.1606C47.7917 16.89 48.1052 16.4773 48.5224 16.5759C48.9857 16.7823 48.5132 17.438 49.0134 17.6191C49.2831 17.681 49.5528 17.6191 49.7464 17.4196L50.0345 17.7429C50.2189 17.8323 50.461 17.7612 50.6546 17.7429C50.915 17.6443 51.0626 17.3829 51.0557 17.1147C51.1294 17.0253 51.2124 17.1674 51.3253 17.1147C51.4729 17.0597 51.5927 16.9152 51.5743 16.7547C51.1755 16.404 51.9177 16.4773 51.8601 16.1265C51.9062 15.9752 51.8785 15.7941 51.7956 15.6795C51.6849 15.6336 51.6019 15.5258 51.4636 15.5694C51.353 15.4892 51.4821 15.3906 51.436 15.2828C51.2055 15.0581 51.5558 14.8426 51.436 14.556C51.436 14.3955 51.2424 14.3841 51.1502 14.2969C51.1963 14.2236 51.1686 14.1089 51.0856 14.0791C50.7883 14.0424 51.0948 13.8201 50.9934 13.694C50.8736 13.5335 50.6984 13.632 50.5485 13.6045C50.5485 13.334 50.5024 13.0566 50.2166 12.9396C50.0207 12.8502 49.8824 13.0038 49.7233 13.0657C49.6496 13.0291 49.668 12.9488 49.6381 12.8961C49.585 12.6806 49.343 12.6187 49.1655 12.5545C48.8313 12.4467 48.5524 12.6095 48.3219 12.8319C48.1536 12.6599 48.1536 12.3298 47.8586 12.2472C47.4045 12.3733 46.819 11.979 46.494 12.4169C46.4756 12.8388 46.1598 12.4971 45.9201 12.5705C45.7979 12.5797 45.6872 12.6347 45.6319 12.7402C45.6504 13.0818 45.2793 13.0818 45.0764 13.2171C44.9727 13.35 44.9012 13.5312 44.9658 13.71C44.9081 13.7902 44.7975 13.7352 44.7145 13.7559C44.4356 13.9255 44.5094 14.2855 44.5647 14.5262C44.4541 14.634 44.295 14.5996 44.1567 14.634C44 14.744 43.8501 14.8953 43.9147 15.1109C43.6358 15.2713 43.5182 15.6588 43.675 15.9546C43.9331 16.0073 43.8686 16.2847 43.8501 16.4659C43.8409 16.7066 44 16.9405 44.2328 17.0322C44.6408 16.9519 44.3711 17.4173 44.6039 17.5434C44.7514 17.6604 44.9473 17.6053 45.0949 17.6168C45.1202 17.6879 45.1041 17.7773 45.141 17.8484C45.2147 17.9905 45.4383 17.9561 45.5858 17.9378L45.791 18.19C45.8924 18.2725 46.0123 18.3253 46.1621 18.2977C46.3834 18.3069 46.3949 17.8782 46.6346 18.1281C46.766 18.1189 46.7844 17.9859 46.766 17.869C46.4502 17.4563 46.2266 17.0001 46.033 16.5415L45.4775 16.5599C45.3484 16.569 45.1709 16.3443 45.0787 16.5782C44.9496 16.6493 44.839 16.6332 44.6984 16.6034C44.5416 16.514 44.4379 16.3535 44.4564 16.1724C44.4932 16.1472 44.5025 16.083 44.567 16.1105C44.6131 16.1357 44.6062 16.1816 44.6315 16.2182C44.6869 16.326 44.8067 16.3971 44.9358 16.3879C45.1963 16.0738 45.3922 16.6126 45.6988 16.4315C45.9016 16.342 45.8486 16.1082 45.9869 15.9752C46.0561 15.9752 46.116 15.9752 46.1552 16.0257C46.2681 16.4475 46.4802 16.8442 46.683 17.2225M53.9946 26.5882C53.8931 27.1912 53.6603 27.7461 53.5958 28.3559C53.6511 28.3743 53.5774 28.482 53.6603 28.4453C53.93 28.0327 53.9554 27.5305 54.1536 27.0903C54.1075 26.8657 54.3864 26.5516 54.0591 26.4438C54.0407 26.336 54.013 26.1847 54.0868 26.0953C54.3565 25.529 54.3565 24.5798 55.2462 24.5431C55.4237 24.7036 55.721 24.5982 55.9146 24.7243C56.0161 24.9489 56.3134 24.9123 56.4702 24.9558C56.2835 24.4354 56.703 24.0502 56.62 23.5114C56.5923 23.1996 56.4632 22.9015 56.1382 22.7869C55.7948 22.6768 55.3407 22.6768 55.0895 22.9566C54.7737 23.7109 54.3933 24.4445 54.0407 25.192C53.8563 25.5955 53.6142 26.2054 53.9946 26.5905M54.3565 30.573C54.2366 30.6257 54.0591 30.5547 53.9485 30.6441C54.1352 30.6441 54.2066 30.8596 54.2643 30.9857C54.421 30.7518 54.7276 30.7151 54.9972 30.7702C54.905 30.6188 54.5985 30.706 54.6653 30.4469L55.917 28.6792C56.2512 28.3032 56.6407 27.9066 57.1571 27.9891C57.2331 28.0602 57.3069 28.1312 57.3161 28.2298C57.2884 28.239 57.2792 28.2849 57.2516 28.2757C57.1133 28.0946 56.8897 28.2298 56.7306 28.2757C56.4909 28.4201 56.2489 28.599 56.2489 28.8764C56.3226 28.9222 56.4241 28.8764 56.4886 28.8328C56.6292 28.7594 56.7767 28.8695 56.8874 28.8512C57.0257 28.7961 57.1847 28.8397 57.2493 28.9864C57.24 29.1125 57.2677 29.257 57.2216 29.3716C57.4244 28.9131 57.7679 28.4385 57.5374 27.8836C57.4705 27.7392 57.3046 27.6314 57.1548 27.5879C56.8228 27.4893 56.5462 27.6406 56.3134 27.8469C55.6519 28.7549 55.0433 29.6788 54.3565 30.5753M54.58 26.5516C54.4394 27.0468 54.2089 27.5122 54.1997 28.0602C54.2274 28.0946 54.2642 28.106 54.3103 28.0946C54.58 27.7461 54.6077 27.2967 54.7114 26.8748C54.7299 26.7487 54.8405 26.6135 54.7299 26.5057C54.6838 26.5172 54.6077 26.4805 54.58 26.5516ZM54.8382 24.9558L54.5985 25.6207C54.5985 25.7927 54.4971 25.9692 54.5985 26.1228C54.6722 26.2031 54.7921 26.1412 54.8682 26.0976L55.1563 25.1736C55.184 25.075 55.2116 24.9306 55.1379 24.8504C55.0088 24.816 54.9327 24.8962 54.8405 24.9581M55.0895 26.5722L54.8382 27.4962C54.8198 27.5947 54.7921 27.7392 54.8659 27.8194C54.9304 27.8378 54.9696 27.8011 55.0226 27.7736C55.1332 27.3517 55.3384 26.939 55.3568 26.508C55.2646 26.4644 55.1425 26.4828 55.0871 26.5722M55.5343 24.9375C55.4122 25.3135 55.3015 25.701 55.2831 26.1228C55.2923 26.2214 55.4513 26.2214 55.5343 26.187C55.7095 25.8454 55.7279 25.4327 55.774 25.0475C55.7464 24.9398 55.6357 24.9214 55.5343 24.9398M55.9792 29.0942C55.6726 29.2822 55.4859 29.6421 55.3568 29.9563H55.4398C55.7279 29.7316 55.9608 29.4175 55.9792 29.0942ZM55.804 26.4461L55.7095 26.5263C55.6841 26.8863 55.396 27.2279 55.5528 27.5856C55.5989 27.5925 55.6265 27.5764 55.6634 27.5581C55.8662 27.2531 55.9031 26.884 55.9792 26.5263C55.9608 26.4553 55.8755 26.4277 55.804 26.4461ZM56.046 25.2172L55.9538 25.5129C55.9538 25.7285 55.8778 25.944 55.9354 26.1595C56.0276 26.2237 56.1682 26.2122 56.2512 26.1412C56.2973 25.8546 56.4194 25.5932 56.401 25.2791C56.318 25.1897 56.1682 25.1713 56.0483 25.2172M56.4425 29.0667C56.2489 29.2386 56.0991 29.4633 56.0898 29.7132H56.1751C56.2604 29.6788 56.3226 29.5963 56.3618 29.5252C56.3987 29.3808 56.5762 29.1836 56.4448 29.0667M56.4425 26.4461C56.1936 26.5882 56.2765 26.9482 56.2489 27.2187L56.3595 27.2371C56.4978 27.1316 56.4609 26.9344 56.5347 26.7877C56.5093 26.6708 56.6546 26.4392 56.4425 26.4461ZM57.028 25.3433C56.7422 25.1805 56.7422 25.513 56.6937 25.6666C56.5462 25.756 56.7099 25.999 56.62 26.1595C56.6661 26.2489 56.7883 26.2581 56.8897 26.2489C57.0188 26.1412 57.0095 25.9807 57.0649 25.8362C57.0833 25.6826 57.1386 25.4694 57.028 25.3433ZM56.9819 29.046C56.779 29.0827 56.7975 29.3235 56.7306 29.4771C56.7883 29.5298 56.8436 29.4771 56.8897 29.4587C56.9542 29.3326 57.0464 29.1974 56.9819 29.0437M57.1755 29.9723C57.0649 30.2337 56.8251 30.4469 56.7606 30.7266C56.9266 30.7449 57.028 30.6188 57.1571 30.5569C57.3899 30.4217 57.4198 30.1443 57.6503 30.064C57.7425 30.0824 57.7425 30.1809 57.7333 30.252C57.5581 30.7014 57.2331 31.0866 56.9819 31.5084C57.6135 31.3823 57.8071 30.6555 58.0491 30.1718C58.1044 30.1809 58.1782 30.1443 58.2058 30.2176C58.1966 30.5845 58.2151 30.9903 58.2704 31.3571C58.298 31.4557 58.381 31.607 58.5124 31.5268C58.6599 31.1691 58.6138 30.6647 58.5585 30.2795L58.6231 30.2176C58.9388 30.2795 58.9112 30.6395 59.0956 30.8367C59.2892 31.0613 59.5405 31.3388 59.8101 31.3296C59.5312 30.9261 59.1048 30.5753 58.9388 30.1282C58.9665 30.064 59.0495 29.9838 59.114 30.0388C59.3929 30.2543 59.5405 30.6945 59.9392 30.667V30.5776L59.0956 29.2501C58.8904 28.8626 58.5839 28.4958 58.7337 27.9937C58.9365 27.6337 59.0771 27.2485 59.1417 26.8359C59.1693 26.2076 59.2339 25.4992 58.8282 25.0498C58.7798 25.0498 58.7245 25.0315 58.6968 25.0865C58.577 25.1117 58.5585 24.9787 58.494 24.9168C58.3902 24.8985 58.3096 24.9421 58.2704 25.0246C58.169 25.1415 58.0837 24.9787 58.0007 24.9168C57.6688 24.8526 57.6019 25.2309 57.4705 25.4098C57.2124 26.1549 57.2308 27.1591 57.7771 27.7621C58.2496 28.5783 57.4982 29.2891 57.1732 29.9792M56.9634 26.4828C56.726 26.5997 56.8136 26.8955 56.7606 27.111L56.8897 27.1293C56.9542 26.9321 57.0948 26.696 56.9657 26.4828M57.7149 23.7888C57.6019 23.986 57.3991 24.1373 57.1755 24.1832C57.3899 24.174 57.6019 24.1648 57.7333 24.3528C57.8071 24.4698 57.7057 24.5959 57.7333 24.6944C57.7886 24.7128 57.8071 24.6669 57.8463 24.6486C57.9753 24.5661 58.0583 24.7197 58.1597 24.7564C58.2243 24.7288 58.2058 24.6669 58.2704 24.6303C58.3349 24.5775 58.3995 24.6486 58.4755 24.6486V24.135C58.5216 23.9287 58.8005 24.0112 58.8443 23.8117C58.6576 23.8393 58.464 23.7751 58.2888 23.704C58.139 23.8301 57.8878 23.7292 57.7126 23.7842M57.6019 22.819C57.4636 22.9268 57.5835 23.1148 57.6503 23.234C57.9546 23.2065 58.3557 23.1973 58.6968 23.234C58.8005 23.1239 58.8651 23.0093 58.872 22.8649C58.8005 22.6677 58.6323 22.9199 58.494 22.9107C58.2796 22.874 58.3649 22.6402 58.2519 22.5255C57.9362 22.4613 58.1229 22.8213 57.9177 22.9107C57.8071 22.9634 57.7149 22.8465 57.6019 22.8213M59.1163 27.7736C58.9411 28.0258 59.0702 28.3674 59.0979 28.6356C59.1809 28.8603 59.4137 28.6632 59.5889 28.7251C59.7179 28.6173 59.8862 28.6448 60.0337 28.7067C59.9945 28.4912 59.8747 28.2573 59.6534 28.184C59.5312 28.106 59.4022 28.2573 59.2915 28.1404C59.2823 28.0762 59.31 28.0327 59.3653 27.9868C59.6695 27.7988 59.9231 28.1221 60.1628 28.2917L61.3683 30.0319C61.4052 30.1672 61.396 30.3552 61.2577 30.4263C61.4905 30.4194 61.6934 30.5707 61.8155 30.7495C61.8616 30.5776 62.0299 30.3987 62.1474 30.3552C61.9907 30.2383 61.7856 30.2474 61.6565 30.103L60.4048 28.0304C60.2827 27.879 60.1628 27.6727 59.96 27.5993C59.6626 27.5466 59.3468 27.5902 59.1163 27.7713M59.4436 28.9406C59.3722 29.0116 59.386 29.1125 59.386 29.2019C59.4436 29.2661 59.4667 29.4175 59.6419 29.3716V29.2019C59.6073 29.1034 59.5958 28.9406 59.446 28.9406M59.4782 25.3869C59.4137 25.4052 59.3676 25.4671 59.386 25.5382C59.5059 25.7904 59.3192 26.3016 59.7663 26.2925C60.1098 26.1389 59.7756 25.7972 59.7848 25.5565C59.7387 25.4396 59.628 25.2951 59.4805 25.3869M59.4782 26.4461C59.386 26.6272 59.5312 26.7785 59.5128 26.9574C59.5889 27.0284 59.552 27.2623 59.7179 27.1729C59.8032 27.056 59.7295 26.8863 59.7179 26.7419C59.6534 26.6341 59.6626 26.4002 59.4782 26.4461ZM60.0061 22.6952L59.764 22.8649C59.4667 23.4312 59.7456 24.0846 59.7825 24.6784C59.7364 24.8137 59.6903 24.9742 59.7364 25.1278C59.9876 24.8481 60.4509 25.0819 60.6722 24.7609C61.0433 24.8595 61.2001 24.4124 61.5643 24.5706C61.9815 24.8779 62.0898 25.3708 62.2604 25.8179C62.3987 26.0976 61.9907 26.1962 62.1036 26.4828C62.3042 27.0835 62.5762 27.6475 62.8827 28.2046C62.8343 27.7575 62.6776 27.354 62.5485 26.939C62.4632 26.696 62.2235 26.4644 62.371 26.1847C62.5093 25.717 62.3157 25.2241 62.1474 24.8022C61.8155 24.1557 61.555 23.4816 61.1655 22.8626C60.8774 22.576 60.368 22.5393 60.0061 22.6929M59.8493 28.9222C59.8009 29.1653 59.8493 29.406 60.0337 29.5871C60.2089 29.4266 59.9784 29.2203 59.9876 29.03C59.9692 28.9864 59.9139 28.9131 59.8493 28.9222ZM59.8747 26.508C59.8931 26.7419 59.9945 26.939 60.0706 27.1545H60.1167C60.2089 27.0101 60.1352 26.8404 60.0983 26.696C60.0522 26.6066 60.013 26.4461 59.8747 26.508ZM60.1628 25.2172C60.0637 25.2447 59.9484 25.3525 59.9876 25.4763C60.1743 25.6918 60.0061 26.2581 60.497 26.1412C60.6353 26.132 60.6538 25.9715 60.6261 25.8821C60.4786 25.6574 60.5524 25.2103 60.1628 25.2172ZM60.338 28.9589C60.1075 29.0942 60.3749 29.3624 60.4325 29.5436C60.5155 29.6697 60.6192 29.9563 60.8313 29.8485L60.8497 29.6788C60.6561 29.445 60.5892 29.1492 60.338 28.9612M60.2942 26.4644L60.2573 26.508C60.2758 26.7258 60.368 26.9207 60.4325 27.1293C60.4694 27.1637 60.5155 27.2348 60.5616 27.1729C60.5431 26.9138 60.4509 26.6524 60.2942 26.4644ZM60.6538 26.4002C60.5501 26.6891 60.8197 26.9299 60.8474 27.2164C60.9327 27.3059 60.9511 27.5122 61.0987 27.4939C61.071 27.2508 60.9788 27.0353 60.9235 26.8038C60.8589 26.6616 60.7736 26.4805 60.6538 26.4002ZM60.7852 25.0177C60.7022 25.0636 60.6653 25.1071 60.6561 25.1874C60.7852 25.4648 60.8313 25.772 60.9903 26.0311C61.0479 26.0196 61.1194 26.0494 61.1678 26.0128C61.3061 25.9486 61.2508 25.7422 61.2323 25.6184C61.0756 25.4189 61.1125 25.0338 60.7875 25.0177M61.1171 26.265C61.0249 26.2925 61.0249 26.4002 61.0341 26.4828C61.2577 26.9207 61.3591 27.4044 61.6288 27.8194C61.6657 27.8538 61.7395 27.8538 61.7671 27.8011C61.7671 27.4411 61.6196 27.1454 61.4974 26.8313C61.4052 26.6341 61.3499 26.3567 61.1171 26.265ZM61.3683 24.8045L61.2577 24.8939C61.2485 25.2447 61.5182 25.5382 61.5919 25.8798C61.638 25.9256 61.6841 25.9967 61.7671 25.9692C61.8593 25.9165 61.9607 25.8156 61.9262 25.6918C61.7602 25.3869 61.7671 24.9191 61.3683 24.8022M61.5919 26.2948C61.4974 26.32 61.5735 26.4025 61.5182 26.4461C61.8155 26.9138 61.8247 27.487 62.1866 27.9272C62.2235 27.9203 62.2604 27.9455 62.2788 27.9088C62.2235 27.3884 61.963 26.9482 61.8155 26.4644C61.7879 26.3842 61.7026 26.2581 61.5919 26.2948ZM53.1601 34.4958C52.872 33.9227 52.2243 33.4458 51.5835 33.3747H45.5513C44.8551 33.3747 44.2927 33.3013 43.6634 32.8818C42.6907 32.2352 42.3657 31.2654 42.4118 30.2153V12.3963C42.3403 11.9263 41.9923 11.3003 41.363 11.0825C41.2362 11.039 41.0288 11 41.0288 11H65.2615C65.2615 11 65.0541 11.0367 64.9273 11.0825C64.2957 11.3049 63.9408 11.9263 63.8716 12.3963L63.8808 30.2153C63.9269 31.2654 63.6019 32.2375 62.6292 32.8818C61.9999 33.2968 61.4375 33.3747 60.7414 33.3747H54.7091C54.0683 33.4481 53.446 33.9227 53.1601 34.4958Z" fill="black"/>
</svg>
