<svg width="256" height="58" viewBox="0 0 256 58" fill="none" xmlns="http://www.w3.org/2000/svg">
<g clip-path="url(#clip0_1046_24)">
<path fill-rule="evenodd" clip-rule="evenodd" d="M112.897 35.0609H102.5V22.3054H112.897V35.0599V35.0609Z" fill="white"/>
<path fill-rule="evenodd" clip-rule="evenodd" d="M102.5 22.3054H112.897V25.1709H102.5V22.3054ZM102.5 32.1923H112.897V35.0599H102.5V32.1923Z" fill="black"/>
<path fill-rule="evenodd" clip-rule="evenodd" d="M112.897 35.0609H123.293V22.3054H112.897V35.0599V35.0609Z" fill="#CA3432"/>
<path fill-rule="evenodd" clip-rule="evenodd" d="M123.294 22.3054H112.898V25.1709H123.294V22.3054ZM123.294 32.1923H112.898V35.0599H123.294V32.1923Z" fill="black"/>
<path fill-rule="evenodd" clip-rule="evenodd" d="M5.28381 35.1378V23.7503H1V22.2245H11.2927V23.7513H7.00894V35.1388H5.28279L5.28381 35.1378ZM22.58 24.7261C23.4166 23.9111 24.5467 23.4631 25.7185 23.4803C26.5744 23.4803 27.3458 23.6967 28.0336 24.1285C28.7225 24.5602 29.2442 25.1669 29.6008 25.9516C29.9585 26.7362 30.1358 27.6523 30.1358 28.7039C30.1358 30.3642 29.718 31.6483 28.8824 32.5513C28.0469 33.4552 26.982 33.9072 25.69 33.9072C24.3979 33.9072 23.3657 33.4583 22.525 32.5644C21.6833 31.6686 21.2625 30.4451 21.2625 28.8889C21.2625 26.9445 21.7017 25.5562 22.579 24.7261H22.58ZM20.2343 32.0771C20.7122 33.073 21.4724 33.9082 22.4231 34.4805C23.385 35.067 24.4784 35.3602 25.7012 35.3602C26.8037 35.3673 27.8899 35.0933 28.8559 34.5645C29.8301 34.0346 30.5841 33.252 31.116 32.2186C31.648 31.1852 31.9129 30.0123 31.9129 28.7039C31.9129 27.3955 31.6602 26.2569 31.1558 25.2377C30.6758 24.2448 29.9096 23.4156 28.9538 22.8544C27.9908 22.2862 26.9097 22.001 25.7103 22.001C23.8782 22.001 22.3844 22.6067 21.2258 23.8211C20.0682 25.0324 19.4905 26.7099 19.4905 28.8525C19.4905 29.987 19.7381 31.0598 20.2343 32.076V32.0771ZM41.367 35.1378V22.2225H43.944L47.0275 31.3632C47.3118 32.2146 47.5176 32.8516 47.649 33.2742C47.7999 32.8051 48.0312 32.1145 48.3471 31.2044L51.4886 22.2225H53.7864V35.1378H52.1305V24.3368L48.3287 35.1378H46.7768L43.0208 24.1497V35.1378H41.366H41.367ZM63.7714 35.1378V22.2225H66.3494L69.4319 31.3632C69.7161 32.2146 69.923 32.8516 70.0544 33.2742C70.2042 32.8051 70.4366 32.1145 70.7535 31.2044L73.896 22.2225H76.1938V35.1378H74.538V24.3368L70.7361 35.1378H69.1832L65.4272 24.1497V35.1378H63.7714ZM89.893 35.1378V29.6665L84.8776 22.2225H86.9502L89.515 26.1346C89.9868 26.8424 90.4321 27.5674 90.8509 28.3075C91.2513 27.6321 91.7272 26.8707 92.2785 26.0213L94.7984 22.2225H96.8038L91.6222 29.6665V35.1378H89.8941H89.893ZM131.745 35.1378V22.2245H133.471V27.532H140.213V22.2245H141.944V35.1378H140.213V29.0578H133.471V35.1378H131.745ZM150.553 35.1378V22.2245H152.28V35.1378H150.553ZM160.677 35.1378V22.2245H162.404V33.613H168.816V35.1378H160.677ZM176.376 35.1378V22.2245H185.178V23.7513H178.103V27.7433H184.232V29.2681H178.103V35.1378H176.376ZM193.164 35.1378V22.2245H194.891V35.1378H193.164ZM209.437 30.078V28.5532H214.951V33.345C214.164 33.982 213.282 34.4917 212.335 34.8547C211.452 35.1904 210.513 35.3612 209.567 35.3612C208.292 35.3612 207.133 35.0903 206.091 34.5483C205.072 34.0296 204.244 33.2035 203.727 32.1893C203.198 31.162 202.929 30.0123 202.929 28.7433C202.929 27.4743 203.195 26.3136 203.725 25.2225C204.255 24.1315 205.016 23.3236 206.007 22.7938C206.999 22.2649 208.144 22.002 209.438 22.002C210.378 22.002 211.227 22.1527 211.987 22.4561C212.748 22.7574 213.341 23.18 213.776 23.72C214.207 24.2599 214.534 24.9657 214.759 25.8343L213.21 26.2569C213.015 25.5987 212.774 25.081 212.482 24.7028C212.192 24.3267 211.78 24.0243 211.242 23.7988C210.674 23.5673 210.065 23.451 209.451 23.4591C208.664 23.4591 207.983 23.5784 207.412 23.816C206.837 24.0547 206.375 24.3681 206.026 24.7574C205.679 25.1346 205.4 25.5673 205.202 26.0385C204.867 26.8666 204.698 27.7514 204.707 28.6442C204.707 29.7979 204.906 30.7636 205.306 31.5411C205.707 32.3187 206.284 32.8941 207.048 33.2722C207.802 33.6474 208.633 33.8405 209.477 33.8374C210.22 33.8374 210.948 33.6949 211.657 33.4087C212.367 33.1226 212.904 32.8202 213.271 32.4936V30.0811H209.439L209.437 30.078ZM223.014 35.1378V22.2245H232.382V23.7513H224.741V27.6958H231.885V29.2226H224.741V33.613H232.692V35.1378H223.014ZM242.266 23.6573H246.385C247.35 23.6573 248.059 23.8524 248.505 24.2478C248.951 24.6411 249.176 25.1447 249.176 25.7544C249.176 26.171 249.06 26.5572 248.83 26.9121C248.589 27.2751 248.233 27.5492 247.818 27.6887C247.372 27.8505 246.757 27.9314 245.971 27.9314H242.267V23.6573H242.266ZM242.266 35.1378V29.4097H244.264C244.708 29.4097 245.028 29.4289 245.222 29.4713C245.49 29.5361 245.753 29.6493 246.009 29.8151C246.267 29.9789 246.56 30.2671 246.885 30.6776C247.21 31.0882 247.623 31.6797 248.128 32.4532L249.847 35.1378H252L249.747 31.6261C249.348 30.9972 248.869 30.4208 248.322 29.9112C248.085 29.6989 247.74 29.4845 247.285 29.2671C248.534 29.0982 249.457 28.6978 250.055 28.0689C250.653 27.44 250.95 26.6675 250.95 25.7503C250.95 25.0385 250.769 24.3894 250.411 23.8019C250.081 23.2427 249.571 22.8089 248.963 22.5713C248.359 22.3408 247.477 22.2235 246.317 22.2235H240.541V35.1388H242.266V35.1378Z" fill="black"/>
</g>
<defs>
<clipPath id="clip0_1046_24">
<rect width="251" height="13.3612" fill="white" transform="translate(1 22)"/>
</clipPath>
</defs>
</svg>
