<svg width="256" height="58" viewBox="0 0 256 58" fill="none" xmlns="http://www.w3.org/2000/svg">
<path d="M85.5884 8C74.0011 8 72.5996 18.0269 78.1188 19.6451C75.3448 17.1889 76.9918 11.7276 84.3314 11.7276C84.8227 11.7276 85.3283 11.7709 85.8196 11.8576C85.415 12.1321 83.6668 13.3891 83.2767 13.6492C82.8722 13.9959 82.5399 14.4149 82.3087 14.9062C82.0775 15.3974 81.9764 15.9175 81.9764 16.4521V24.1818C82.0197 24.7452 81.9042 25.3087 81.6297 25.8C78.0754 25.2365 76.0672 27.1003 75.7204 30.0477C77.3097 27.866 78.3933 27.5626 82.3665 29.6865C88.9403 33.1973 97.7825 31.3769 97.7825 19.6162C97.7681 13.6347 92.5524 8 85.5884 8ZM86.0796 27.5048C85.0538 26.9269 83.9847 26.4646 82.8577 26.1323C83.7391 25.6266 84.4904 24.9186 85.0105 24.0373C85.5451 23.1704 85.834 22.1735 85.8774 21.1477V11.8865C89.7205 12.5367 94.4017 15.5997 94.4017 23.0693C94.4017 25.6266 93.7082 31.6803 86.0796 27.5048ZM112.707 23.0259C112.693 23.8928 112.52 24.7452 112.187 25.5543C111.84 26.349 111.349 27.0714 110.728 27.6782C110.107 28.285 109.384 28.7474 108.575 29.0652C107.781 29.3831 106.914 29.5275 106.061 29.5131C101.929 29.5131 99.3718 26.7102 99.3718 22.997C99.2996 22.0724 99.4296 21.1477 99.733 20.2664C100.036 19.3995 100.513 18.5904 101.134 17.9113C101.756 17.2323 102.521 16.6977 103.359 16.3221C104.197 15.9464 105.108 15.7586 106.032 15.7586C106.957 15.7586 107.853 15.9464 108.705 16.3221C109.543 16.6977 110.309 17.2323 110.93 17.9113C111.551 18.5904 112.028 19.385 112.332 20.2664C112.635 21.1332 112.765 22.0724 112.693 22.997L112.707 23.0259ZM105.353 17.3045C103.504 17.5501 102.738 20.1219 103.099 23.2138C103.461 26.3056 104.746 28.5884 106.654 28.4006C108.676 28.155 109.24 25.6121 108.879 22.5203C108.517 19.4284 107.26 17.0445 105.353 17.3045ZM182 22.9826C182 23.8639 181.827 24.7164 181.48 25.5254C181.133 26.3345 180.642 27.0569 180.021 27.6637C179.399 28.2706 178.663 28.7474 177.853 29.0652C177.044 29.3831 176.177 29.5275 175.311 29.4986C171.178 29.4986 168.621 26.6957 168.621 22.9826C168.549 22.0579 168.679 21.1332 168.982 20.2519C169.286 19.385 169.763 18.5759 170.384 17.8969C171.005 17.2178 171.771 16.6833 172.609 16.3076C173.447 15.932 174.357 15.7441 175.282 15.7441C176.192 15.7441 177.102 15.932 177.955 16.3076C178.793 16.6833 179.558 17.2178 180.18 17.8969C180.801 18.5759 181.278 19.3706 181.595 20.2519C181.899 21.1188 182.029 22.0579 181.957 22.9826H182ZM174.632 17.3045C172.797 17.5501 172.016 20.1219 172.378 23.2138C172.739 26.3056 174.025 28.5884 175.932 28.4006C177.955 28.155 178.518 25.6121 178.157 22.5203C177.81 19.4284 176.539 17.0445 174.632 17.3045ZM154.115 29.2097V28.5884C155.676 28.3717 155.705 26.9558 155.705 25.9878V13.2013C155.705 11.5109 153.928 11.7565 153.928 11.7565V11.1063C155.676 10.9329 157.409 10.5862 159.085 10.0516L159.403 10.5862C159.403 10.5862 159.317 12.0888 159.317 12.6667V25.9878C159.317 27.3748 159.317 28.2128 160.689 28.5884V29.2097H154.115ZM128.427 28.574V29.1952H121.766V28.574C123.283 28.1839 123.139 27.3603 123.139 25.9733V19.7173C123.139 17.3045 120.206 17.6946 118.617 18.966V25.9878C118.617 27.3748 118.617 28.2128 119.989 28.5884V29.2097H113.43V28.5884C114.99 28.3717 115.019 26.9558 115.019 25.9878V19.7751C115.019 19.544 114.976 19.3128 114.889 19.1105C114.802 18.8938 114.672 18.706 114.499 18.5471C114.326 18.3881 114.138 18.2725 113.921 18.1859C113.704 18.1136 113.473 18.0703 113.256 18.0847V17.4346C114.99 17.2034 116.709 16.8277 118.385 16.2932L118.703 16.8277C118.645 17.1023 118.602 17.3912 118.588 17.6657C122.445 15.2385 126.78 15.6719 126.78 18.9949V25.9733C126.837 26.9558 126.866 28.3717 128.427 28.574ZM153.436 29.2097C151.703 29.2097 149.969 29.4264 148.278 29.8598V28.3862C144.652 30.7701 140.072 30.5534 140.072 26.3634V19.6162C140.072 17.9258 138.295 18.1714 138.295 18.1714V17.5646C140.043 17.5068 141.777 17.2034 143.453 16.6688L143.771 17.2034C143.771 17.2034 143.626 18.706 143.626 19.2695V26.3779C143.626 28.0827 145.692 28.7474 148.018 27.4759V19.5151C148.047 19.3128 148.033 19.1105 147.96 18.9083C147.903 18.7204 147.787 18.5471 147.643 18.4026C147.498 18.2581 147.325 18.157 147.123 18.0992C146.935 18.0414 146.718 18.0269 146.53 18.0703V17.4057C148.206 17.3912 149.868 17.0878 151.442 16.5099L151.76 17.0445C151.76 17.0445 151.616 18.5471 151.616 19.1105V26.4068C151.616 27.8371 152.15 28.6318 153.393 28.6318L153.436 29.2097ZM161.542 29.2097V28.5595C163.102 28.3428 163.131 26.9125 163.131 25.9444V19.4717C163.131 17.7813 161.354 18.0269 161.354 18.0269V17.3768C163.116 17.2323 164.836 16.8711 166.512 16.3076L166.83 16.8422C166.83 16.8422 166.685 18.3303 166.685 18.9083V25.9878C166.685 27.3748 166.685 28.2128 168.058 28.5884V29.2241H161.542V29.2097ZM164.648 11.5976C164.272 11.5976 163.911 11.7131 163.608 11.9154C163.304 12.1177 163.059 12.4211 162.929 12.7678C162.799 13.1146 162.755 13.4902 162.827 13.8659C162.9 14.2271 163.073 14.5738 163.348 14.8339C163.608 15.094 163.94 15.2818 164.301 15.354C164.662 15.4263 165.038 15.3829 165.385 15.2385C165.732 15.094 166.021 14.8484 166.223 14.545C166.425 14.2415 166.541 13.8659 166.541 13.4902C166.541 12.9846 166.338 12.5078 165.992 12.1466C165.616 11.7998 165.139 11.5976 164.648 11.5976ZM139.913 10.0805C137.818 10.7018 135.362 11.8721 130.782 10.0805C123.168 7.03198 118.544 9.77711 118.689 12.6956C120.076 11.4531 121.405 10.2394 125.682 12.4211C130.319 14.7906 133.339 13.8226 135.752 12.4933C135.752 12.4933 135.81 12.6523 135.203 13.0424C134.307 13.5625 133.57 14.3138 133.065 15.2096C132.559 16.1053 132.284 17.1311 132.284 18.1714V35.2779C132.284 37.6907 131.663 38.6442 130.507 38.6442C127.184 38.6442 126.115 31.4058 120.148 31.4058C116.059 31.4058 111.436 33.284 108.691 34.3821C106.841 33.573 104.862 33.1684 102.854 33.1829C101.12 33.1395 99.4007 33.4719 97.797 34.1654C96.2944 33.7753 89.9951 31.897 87.5678 36.6793C83.8691 37.3873 82.9733 39.7134 82.9733 41.0426C82.9733 45.666 88.2324 46.4173 93.1303 45.117C94.0549 46.0272 95.2252 46.6484 96.4967 46.9085C95.9765 48.989 97.2913 53.0923 103.836 53.0923C112.621 53.0923 114.224 46.4895 114.253 46.4173C120.293 47.5876 123.341 44.7702 123.341 42.473C123.341 40.1757 121.651 39.41 120.336 39.0632C120.379 38.7165 120.35 38.3553 120.264 38.0085C120.163 37.6618 120.004 37.3439 119.772 37.0694C119.353 36.6071 118.833 36.2459 118.241 36.0147C117.663 35.7835 117.027 35.6968 116.406 35.7691C114.889 35.8124 113.386 36.1158 111.97 36.6649C111.118 35.8124 110.136 35.1045 109.052 34.5843C111.71 33.5152 114.21 32.4605 116.984 32.4605C122.835 32.4605 122.561 40.6092 128.947 40.6092C133.657 40.6092 136.445 36.2603 136.445 32.3449V17.9113C136.445 14.1549 137.124 12.8834 138.324 11.7709C138.887 11.2364 139.523 10.774 140.216 10.3984C140.419 10.3117 140.592 10.225 140.578 10.1094C140.534 9.84935 139.913 10.0805 139.913 10.0805ZM107.52 34.96L104.039 36.636C103.273 36.2892 100.484 35.0033 98.8228 34.4543C101.683 33.5296 104.79 33.7175 107.52 34.96ZM102.969 40.9126C102.276 40.5803 100.788 39.9301 99.1118 39.2655L102.912 37.474L106.639 39.1788L102.969 40.9126ZM106.986 39.3522C106.986 39.3522 110.497 40.8548 111.378 41.1726C110.208 41.7217 108.951 42.3574 107.694 42.9642C105.657 42.1696 104.14 41.4183 103.359 41.0426L106.986 39.3522ZM102.55 37.3295C101.149 37.9941 99.733 38.6587 98.7217 39.121C97.1035 38.4709 95.3408 37.8207 93.9683 37.3873C94.864 36.3759 95.991 35.5813 97.2335 35.0611C100.008 36.058 102.016 37.0839 102.55 37.3295ZM97.0023 39.8579C95.4564 40.508 93.8238 40.9415 92.1478 41.1437C92.2778 40.1902 92.6101 39.2655 93.1303 38.4564C94.3295 38.8321 95.572 39.2944 97.0023 39.8579ZM96.5111 34.8155C95.3986 35.4657 94.3872 36.2892 93.5348 37.2717C91.6999 36.766 89.8072 36.5637 87.9001 36.6649C90.0817 32.9228 95.3553 34.3965 96.5111 34.8155ZM87.64 37.5028C89.4027 37.5751 91.1509 37.8785 92.8413 38.3986C92.3212 39.2366 91.9744 40.1757 91.8588 41.1726C90.0817 41.4472 87.2788 40.4936 87.64 37.5317V37.5028ZM83.2045 41.086C83.2045 38.3408 86.3686 37.6329 87.3077 37.5606C87.0043 40.6092 89.605 41.7072 91.7866 41.4905C91.6999 42.7186 92.0756 43.9322 92.8558 44.9002C86.7442 46.3595 83.2334 44.6113 83.2334 41.0571L83.2045 41.086ZM92.0756 41.4616C93.896 41.2449 95.6731 40.7681 97.3635 40.0313C97.8114 40.2191 100.412 41.3171 101.293 41.6928C98.6783 42.9498 95.9765 43.99 93.1881 44.7846C92.798 44.3223 92.4946 43.7877 92.3067 43.2098C92.1189 42.6319 92.0611 42.0251 92.1334 41.4183L92.0756 41.4616ZM93.3903 45.0447C96.2221 44.2356 98.9962 43.1665 101.64 41.8517L106.119 43.7877C106.119 43.7877 103.966 44.8858 103.143 45.2759C102.695 44.7413 102.102 44.3368 101.452 44.1056C100.788 43.8744 100.08 43.8311 99.4007 43.9756C98.7217 44.12 98.0859 44.4523 97.5803 44.9147C97.0746 45.3915 96.6845 45.9983 96.4967 46.6629C95.3408 46.4173 94.2861 45.8393 93.4481 45.0158L93.3903 45.0447ZM102.55 45.5504C101.987 45.8105 99.473 47.2553 96.8001 46.7351C97.2769 44.8858 100.499 43.4988 102.594 45.5359L102.55 45.5504ZM103.952 52.8466C97.6814 52.8466 96.2221 49.2635 96.7134 47.0096C99.3718 47.5442 102.045 46.1139 102.738 45.7671C103.489 46.7207 103.229 47.9632 102.464 48.021C102.131 48.021 102.074 47.8765 102.045 47.732C102.045 47.732 101.958 47.2842 101.582 47.5153C101.207 47.732 101.582 48.2811 102.276 48.2811C103.605 48.2811 103.966 46.4895 103.316 45.507L106.495 43.9178C108.72 44.9002 111.017 45.6949 113.372 46.2872C112.722 48.2522 111.465 49.957 109.774 51.1273C108.084 52.3121 106.061 52.9044 104.01 52.8177L103.952 52.8466ZM113.618 44.9147C111.71 44.4523 109.818 43.8744 107.983 43.1665C109.254 42.5163 110.526 41.8806 111.696 41.3749C112.259 41.5772 112.837 41.765 113.401 41.9095C113.661 42.8775 113.748 43.8889 113.661 44.8858L113.618 44.9147ZM114.181 40.2624C116.001 39.5111 117.966 39.1933 119.931 39.3089C119.744 39.8868 119.137 41.8228 114.369 40.8692C114.354 40.6525 114.297 40.4358 114.224 40.248L114.181 40.2624ZM122.951 42.054C122.951 44.0622 121.102 46.2583 114.528 45.1314C114.716 44.1489 114.744 43.1376 114.614 42.1551C118.906 42.8342 120.191 40.1757 120.278 39.3811C121.405 39.5256 122.994 40.5369 122.994 42.0251L122.951 42.054ZM119.975 39.0199C117.981 38.8465 115.973 39.1788 114.123 39.9446C113.69 38.8032 113.04 37.7774 112.216 36.896C118.819 34.5699 120.35 37.5462 120.032 39.0054L119.975 39.0199ZM112.881 40.4791C111.364 39.959 109.89 39.3666 108.445 38.6876L110.844 37.5462C111.682 38.4131 112.389 39.3811 112.939 40.4502L112.881 40.4791ZM110.699 37.2717L108.806 38.1675L108.156 38.4709L104.385 36.7804L107.838 35.1334C108.893 35.6824 109.861 36.4048 110.699 37.2717Z" fill="black"/>
</svg>
