<svg width="256" height="58" viewBox="0 0 256 58" fill="none" xmlns="http://www.w3.org/2000/svg">
<path d="M89.8395 24.2716H94.0494V24.4074L92.6914 25.6296C92.6914 27.6667 92.5556 29.7037 92.6914 31.4691C92.6914 33.2346 92.6914 35 92.8272 36.4938H91.1975C91.1975 36.358 91.1975 36.2222 91.0617 36.0864C90.9259 35.9506 90.7901 35.8148 90.7901 35.679L83.5926 26.716C83.5926 29.4321 83.5926 32.284 83.7284 35.1358L85.2222 36.358V36.4938H81.1481V36.358L82.5062 35.1358C82.642 32.6914 82.642 29.5679 82.5062 25.6296L80.8765 24.4074V24.2716H84.4074C84.679 24.679 84.9506 25.0864 85.358 25.4938C85.7654 26.037 86.3086 26.716 86.9877 27.5309C87.6667 28.3457 88.3457 29.1605 89.1605 30.2469C89.9753 31.3333 90.9259 32.4197 91.8765 33.642C91.8765 32.1481 91.8765 30.7901 91.8765 29.4321C91.8765 28.0741 91.8765 26.8519 91.8765 25.7654L89.8395 24.2716ZM101.247 25.358L102.605 24.4074V24.2716H97.716V24.4074L99.0741 25.358C99.0741 28.6173 99.0741 31.8765 99.0741 35.2716L97.5802 36.2222V36.358H102.605V36.2222L101.111 35.2716C101.111 32.1482 101.111 28.8889 101.247 25.358ZM114.827 35.4074C113.062 35.5432 111.432 35.5432 109.938 35.4074C109.938 33.7778 109.938 32.284 109.938 30.6543C110.889 30.6543 112.111 30.6543 113.741 30.6543L114.691 32.0123H114.827V28.2099H114.691L113.741 29.5679C111.568 29.5679 110.346 29.5679 109.938 29.5679C109.938 28.8889 109.938 28.2099 109.938 27.5309C109.938 26.8518 109.938 26.1728 109.938 25.358C110.753 25.358 111.568 25.2222 112.247 25.2222C113.062 25.2222 113.877 25.2222 114.827 25.2222L115.778 26.5802H115.914V24.1358H106.407V24.2716L107.765 25.2222C107.765 28.0741 107.765 31.3333 107.765 35.1358L106.407 36.0864V36.2222H116.049V33.5062H115.914L114.827 35.4074ZM73.1358 24.4074L74.7654 25.6296C74.7654 26.7161 74.7654 27.9383 74.7654 29.2963C74.7654 30.6543 74.7654 32.0123 74.7654 33.5062C73.8148 32.1481 72.8642 31.0617 72.0494 30.1111C71.2346 29.1605 70.5556 28.2099 69.8765 27.3951C69.1975 26.5802 68.7901 26.037 68.3827 25.358C68.1111 24.9506 67.7037 24.5432 67.4321 24.1358H63.9012V24.2716L65.5309 25.4938C65.6667 29.4321 65.6667 32.5556 65.5309 35L64.1728 36.2222V36.358H68.2469V36.2222L66.8889 35.1358C66.7531 32.284 66.7531 29.5679 66.7531 26.716L73.9506 35.8148C74.0864 35.9506 74.2222 36.0864 74.2222 36.2222C74.358 36.358 74.358 36.4938 74.358 36.6296H75.9877C75.8519 35.1358 75.8519 33.3704 75.8519 31.6049C75.8519 29.8395 75.8519 27.9383 75.9877 25.7654L77.3457 24.5432V24.4074H73.1358ZM21.3951 21.2839L23.2963 22.5062L23.4321 35.5432C23.4321 36.0864 23.4321 36.4938 23.4321 36.9012C23.4321 37.3086 23.4321 37.5802 23.2963 37.9877C23.2963 38.2593 23.1605 38.6667 23.0247 38.9383C22.8889 39.2099 22.7531 39.4815 22.4815 39.7531C22.2099 40.1605 21.8025 40.4321 21.3951 40.5679C20.9877 40.8395 20.5802 40.8395 20.037 40.8395C20.037 40.8395 20.1728 40.7037 20.1728 40.5679C20.1728 40.4321 20.3086 40.4321 20.3086 40.2963C20.3086 40.1605 20.3086 40.0247 20.3086 40.0247C20.3086 39.8889 20.3086 39.7531 20.1728 39.6173C20.1728 39.4815 20.037 39.3457 19.9012 39.2099C19.7654 39.0741 19.6296 39.0741 19.4938 38.9383C19.358 38.8025 19.2222 38.8025 19.0864 38.8025C18.9506 38.8025 18.8148 38.8025 18.679 38.9383C18.5432 38.9383 18.4074 39.0741 18.2716 39.2099C18.1358 39.3457 18 39.4815 18 39.6173C18 39.7531 18 40.0247 18 40.1605C18 40.4321 18 40.7037 18.1358 40.8395C18.2716 40.9753 18.4074 41.2469 18.679 41.3827C18.8148 41.5185 19.0864 41.6543 19.358 41.6543C19.6296 41.6543 19.7654 41.7901 20.037 41.7901C20.4444 41.7901 20.9877 41.6543 21.3951 41.5185C21.8025 41.3827 22.2099 41.1111 22.6173 40.8395C23.0247 40.5679 23.2963 40.2963 23.7037 39.8889C23.9753 39.4815 24.2469 39.0741 24.5185 38.6667C24.7901 38.2593 24.9259 37.8519 25.0617 37.5802C25.1975 37.1728 25.4691 36.7654 25.4691 36.358C25.6049 35.9506 25.7407 35.4074 25.7407 35C25.7407 34.4568 25.8765 33.9136 25.8765 33.3704C25.8765 32.6914 25.8765 32.0123 25.8765 31.3333C25.8765 30.6543 25.8765 29.8395 25.8765 29.0247C25.8765 28.2099 25.8765 27.2593 25.8765 26.1728C25.8765 25.0864 25.8765 23.8642 25.8765 22.5062L27.3704 21.5556V21.1481L21.3951 21.2839ZM41.2222 32.8272C41.4938 32.0123 41.6296 31.1975 41.6296 30.3827C41.6296 29.5679 41.4938 28.8889 41.358 28.0741C41.2222 27.3951 40.9506 26.8519 40.5432 26.3086C40.1358 25.7654 39.7284 25.358 39.1852 25.0864C38.642 24.8148 37.963 24.679 37.4198 24.679C36.7407 24.679 36.1975 24.8148 35.6543 25.0864C35.1111 25.358 34.7037 25.7654 34.2963 26.3086C33.8889 26.8519 33.6173 27.3951 33.4815 28.0741C33.3457 28.7531 33.2099 29.5679 33.2099 30.3827C33.2099 31.1975 33.3457 32.0123 33.6173 32.6914C33.8889 33.3704 34.1605 33.9136 34.5679 34.4568C34.9753 34.8642 35.3827 35.2716 35.9259 35.5432C36.4691 35.8148 37.0123 35.9506 37.5556 35.9506C38.0988 35.9506 38.642 35.8148 39.1852 35.5432C39.7284 35.2716 40.1358 34.8642 40.5432 34.4568C40.679 34.0494 41.0864 33.5062 41.2222 32.8272ZM42.9877 26.9877C43.2593 27.5309 43.5309 28.0741 43.6667 28.6173C44.0741 29.9753 43.9383 31.6049 43.3951 32.963C43.1235 33.7778 42.5802 34.4568 42.037 35C41.4938 35.679 40.8148 36.0864 40 36.4938C39.1852 36.9012 38.3704 37.037 37.4198 37.037C36.4691 37.037 35.6543 36.9012 34.8395 36.4938C34.0247 36.0864 33.3457 35.679 32.6667 35C31.9877 34.4568 31.5802 33.642 31.1728 32.963C30.7654 32.1481 30.6296 31.3333 30.6296 30.3827C30.6296 29.0247 31.037 27.8025 31.7161 26.716C32.3951 25.6296 33.4815 24.8148 34.7037 24.2716C35.5185 23.8642 36.4691 23.7284 37.4198 23.7284C37.963 23.7284 38.5062 23.7284 39.0494 24C39.5926 24.1358 40.1358 24.4074 40.5432 24.679C41.0864 24.9506 41.4938 25.358 41.9012 25.7654C42.4444 26.037 42.716 26.4444 42.9877 26.9877ZM55.6173 24.4074L56.9753 25.358V29.5679C54.8025 29.5679 52.6296 29.5679 50.5926 29.5679V25.358L51.9506 24.4074V24.2716H47.0617V24.4074L48.4198 25.358V35.2716L47.0617 36.2222V36.358H51.9506V36.2222L50.5926 35.2716V30.5185C52.7654 30.5185 54.8025 30.5185 56.9753 30.5185V35.2716L55.6173 36.2222V36.358H60.3704V36.2222L59.0123 35.2716C59.0123 32.1482 59.0123 28.8889 59.0123 25.358L60.3704 24.4074V24.2716L55.6173 24.4074ZM165.074 21.2839C165.346 21.4198 165.481 21.5556 165.753 21.6914C166.025 21.8272 166.161 21.963 166.432 22.2346C166.025 23.8642 165.617 25.2222 165.21 26.5802C164.802 27.9383 164.531 29.0247 164.259 29.9753C163.988 30.9259 163.716 31.7407 163.58 32.2839C163.444 32.963 163.309 33.2346 163.309 33.5062L159.914 22.3704C160.185 22.0988 160.321 21.963 160.593 21.6914C160.728 21.5556 161 21.4198 161.272 21.2839V21.1481H155.975V21.2839L157.333 22.3704C156.926 23.5926 156.654 24.679 156.383 25.7654C156.111 26.8519 155.84 27.8025 155.568 28.7531C155.296 29.7037 155.025 30.5185 154.889 31.3333C154.617 32.1481 154.481 32.8272 154.21 33.642L151.086 22.642L152.444 21.5556V21.1481H147.012V21.2839C147.284 21.4198 147.42 21.5556 147.556 21.6914C147.691 21.8272 147.827 21.8272 147.963 21.963C148.099 22.0988 148.099 22.0988 148.235 22.2346C148.235 22.3704 148.37 22.3704 148.37 22.5062C148.506 23.0494 148.778 23.7284 149.049 24.679C149.321 25.6296 149.728 26.8519 150.136 28.0741C150.543 29.2963 150.951 30.6543 151.494 32.1481C151.901 33.642 152.444 35.1358 152.852 36.7654H154.481V36.6296C154.481 36.4938 154.481 36.358 154.481 36.358C154.481 36.2222 154.481 36.0864 154.617 36.0864C154.617 35.9506 154.753 35.9506 154.753 35.8148C154.889 35.2716 155.025 34.7284 155.16 34.0494C155.296 33.3704 155.568 32.6914 155.704 32.0123C155.84 31.3333 156.111 30.6543 156.247 29.8395C156.383 29.1605 156.654 28.4815 156.926 27.6667C157.198 26.9877 157.333 26.3086 157.469 25.6296C157.605 24.9506 157.877 24.4074 158.012 23.7284L161.951 36.6296H163.58C163.58 36.358 163.716 35.8148 163.988 35.1358C164.259 34.321 164.531 33.3704 164.802 32.1481C165.21 30.9259 165.617 29.5679 166.025 27.9383C166.568 26.3086 167.111 24.4074 167.654 22.3704C168.062 22.0988 168.333 21.8272 168.469 21.5556C168.741 21.284 168.877 21.284 168.877 21.1481L165.074 21.2839ZM176.889 31.0617L174.852 25.9012L172.951 31.0617H176.889ZM180.827 35.1358L182.185 36.358V36.4938H176.889V36.358L178.383 35.1358L177.16 31.8765C175.802 31.8765 174.173 31.8765 172.679 31.8765L171.593 35.1358L173.086 36.358V36.4938H169.012V36.358L170.37 35.1358L174.58 24.1358H176.346L180.827 35.1358ZM221.296 35.4074C219.531 35.5432 217.901 35.5432 216.407 35.4074C216.407 33.7778 216.407 32.284 216.407 30.6543C217.358 30.6543 218.58 30.6543 220.21 30.6543L221.161 32.0123H221.296V28.2099H221.161L220.21 29.5679C218.037 29.5679 216.815 29.5679 216.407 29.5679C216.407 28.8889 216.407 28.2099 216.407 27.5309C216.407 26.8518 216.407 26.1728 216.407 25.358C217.086 25.358 217.901 25.2222 218.716 25.2222C219.531 25.2222 220.346 25.2222 221.296 25.2222L222.247 26.5802H222.383V24.1358H212.877V24.2716L214.235 25.2222C214.235 28.0741 214.235 31.3333 214.235 35.1358L212.877 36.0864V36.2222H222.519V33.5062H222.383L221.296 35.4074ZM231.481 30.2469C232.568 30.2469 233.247 29.9753 233.79 29.5679C234.333 29.1605 234.605 28.4815 234.605 27.6667C234.605 27.3951 234.605 26.9877 234.469 26.716C234.333 26.4444 234.198 26.1728 233.926 25.9012C233.654 25.6296 233.383 25.4938 233.111 25.358C232.704 25.2222 232.432 25.2222 232.025 25.2222H231.753C231.617 25.2222 231.481 25.2222 231.346 25.2222C231.21 25.2222 230.938 25.2222 230.802 25.2222C230.667 25.2222 230.395 25.2222 230.259 25.2222V30.2469C230.395 30.2469 230.531 30.2469 230.531 30.2469C230.667 30.2469 230.802 30.2469 230.938 30.2469H231.481ZM237.728 36.0864C237.864 36.2222 237.864 36.2222 238 36.358V36.4938H235.284L232.432 31.7407C232.296 31.6049 232.161 31.4691 232.025 31.3333C231.889 31.1975 231.617 31.1975 231.481 31.1975H230.938C230.667 31.1975 230.395 31.1975 230.123 31.1975V35.4074L231.481 36.358V36.4938H226.593V36.358L228.086 35.4074V25.6296L226.728 24.5432V24.4074H232.296C232.975 24.4074 233.654 24.4074 234.198 24.679C234.741 24.8148 235.284 25.0864 235.691 25.358C236.099 25.6296 236.37 26.037 236.642 26.4444C236.914 26.8519 237.049 27.2593 237.049 27.8025C237.049 28.2099 236.914 28.6173 236.778 29.0247C236.642 29.4321 236.235 29.7037 235.963 29.9753C235.556 30.2469 235.148 30.5185 234.741 30.6543C234.198 30.7901 233.654 30.9259 233.111 30.9259C233.519 30.9259 233.79 31.0617 234.198 31.3333C234.469 31.6049 234.741 31.8765 234.877 32.1481L236.778 35.1358C236.914 35.2716 236.914 35.4074 237.049 35.5432C237.185 35.679 237.321 35.8148 237.457 36.0864C237.457 35.8148 237.593 35.9506 237.728 36.0864ZM203.235 29.4321C204.321 28.4815 205.136 27.5309 205.951 26.8518C206.63 26.1728 207.173 25.6296 207.58 25.358L209.346 24.4074V24.2716H205.272V24.4074L205.951 25.358C205.543 25.7654 205.136 26.1728 204.728 26.716C204.321 27.1235 203.914 27.5309 203.37 27.9383C202.963 28.3457 202.556 28.7531 202.148 29.0247C201.741 29.4321 201.333 29.7037 201.062 29.9753C202.42 31.3333 204.049 33.0988 205.951 35.2716L205.407 36.2222V36.358H209.753V36.2222L208.802 35.2716C206.086 32.6914 204.321 30.6543 203.235 29.4321ZM200.926 25.4938L202.284 24.5432V24.4074H197.395V24.5432L198.753 25.4938C198.753 28.7531 198.753 32.0123 198.753 35.4074L197.259 36.358V36.4938H202.284V36.358L200.79 35.4074C200.926 31.8765 200.926 28.6173 200.926 25.4938ZM193.049 35.4074H190.605C189.79 35.4074 189.111 35.4074 188.568 35.4074C188.568 32.0123 188.568 28.7531 188.568 25.4938L190.062 24.5432V24.4074H185.037V24.5432L186.395 25.4938C186.395 28.7531 186.395 32.0123 186.395 35.4074L185.037 36.358V36.4938H194.272V33.7778H194.136L193.049 35.4074ZM125.42 32.2839C125.148 32.1481 125.012 31.7407 125.012 31.0617C125.012 30.5185 125.148 29.9753 125.42 29.4321C125.691 28.8889 126.099 28.4815 126.506 28.0741C127.728 27.2593 128.679 27.1235 129.086 26.9877C128.407 26.9877 128 26.5803 128 26.3086C128 26.1728 128.272 26.4444 128.679 26.4444C129.222 26.4444 129.63 26.3086 130.173 25.9012C130.309 25.7654 130.444 25.9012 130.444 26.037C130.852 25.6296 131.123 25.0864 131.123 24.4074C131.259 24.679 131.802 24.8148 132.21 24.9506C132.481 24.9506 133.432 25.2222 133.568 25.2222C133.432 25.2222 132.753 24.8148 132.346 24.679C132.074 24.5432 131.938 24.5432 131.802 24.4074C131.667 24.4074 131.531 24.2716 131.395 24.2716C131.395 24.2716 131.395 24.2716 131.259 24.2716C131.259 24.2716 131.259 24.2716 131.123 24.1358C130.58 23.5926 130.173 22.9136 129.901 22.2346C129.63 21.6914 129.358 21.1481 129.358 20.4691C129.358 20.3333 129.358 20.1975 129.358 20.0617C129.358 19.9259 129.358 19.7901 129.358 19.6543C129.358 19.5185 129.358 19.5185 129.494 19.3827C129.494 19.3827 129.494 19.2469 129.63 19.2469C129.765 19.1111 129.765 19.1111 129.901 18.9753C129.901 18.9753 129.901 18.9753 130.037 18.9753C130.173 18.9753 129.901 19.2469 129.765 19.6543C129.63 20.3333 130.173 20.8765 130.444 21.1481C131.259 21.963 131.667 22.2346 132.074 22.7778C132.074 22.9136 132.074 22.9136 131.938 22.9136C131.802 22.9136 131.531 22.7778 131.531 22.9136C131.667 23.0494 131.667 23.0494 131.802 23.1852C131.938 23.1852 132.074 23.321 132.21 23.321H132.346C132.481 23.321 132.481 23.321 132.617 23.4568H132.753H132.889C132.889 23.4568 133.025 23.4568 133.025 23.5926C133.025 23.5926 133.025 23.5926 132.889 23.5926H132.753H132.617C132.481 23.5926 132.346 23.5926 132.346 23.5926C132.21 23.5926 132.21 23.5926 132.074 23.5926C131.938 23.5926 131.938 23.5926 131.802 23.5926C131.531 23.4568 131.123 23.321 131.395 23.5926C131.395 23.5926 131.395 23.5926 131.531 23.7284C131.667 23.8642 131.938 24 132.074 24C132.21 24 132.21 24 132.346 24C132.481 24 132.481 24 132.617 24C132.753 24 132.889 24 133.025 24C133.296 24 133.568 24 133.704 24C133.704 24 133.704 24 133.84 24C133.84 24 133.84 23.8642 133.704 23.7284C133.568 23.7284 133.568 23.7284 133.432 23.5926C133.296 23.5926 133.16 23.4568 133.025 23.321C133.025 23.321 133.025 23.321 132.889 23.1852C132.889 23.1852 132.753 23.1852 132.753 23.0494C132.753 23.0494 132.617 23.0494 132.617 22.9136V22.7778C132.617 22.642 132.617 22.642 132.481 22.5062C132.21 21.963 131.938 21.4198 131.531 20.8765C131.259 20.6049 131.123 20.4691 130.852 20.1975C130.716 20.0617 130.716 19.6543 130.852 19.6543C130.988 19.6543 131.531 20.6049 131.667 20.7407C131.667 20.7407 131.667 20.4691 131.531 20.1975C131.531 20.0617 131.395 19.9259 131.395 19.7901C131.259 19.6543 131.123 19.3827 130.988 19.2469C130.852 19.1111 130.716 19.1111 130.58 18.9753C130.58 18.9753 130.58 18.8395 130.988 18.9753C131.259 19.1111 131.259 19.1111 131.395 19.1111C131.259 18.9753 130.988 18.8395 130.716 18.7037C130.58 18.7037 130.988 18.4321 131.531 18.5679C131.938 18.5679 132.346 18.7037 132.617 18.8395C132.753 18.8395 132.617 18.7037 132.481 18.5679C132.346 18.4321 132.074 18.2963 131.938 18.2963C131.938 18.2963 132.346 18.2963 132.617 18.2963C132.753 18.2963 132.617 18.1605 132.481 18.1605C132.346 18.0247 132.074 18.1605 132.21 18.0247C132.346 18.0247 132.346 17.8889 132.346 17.8889C132.346 17.8889 132.481 17.7531 132.481 17.6173C132.481 17.3457 132.481 17.3457 132.481 17.2099C132.481 17.2099 132.753 17.4815 133.296 18.1605C133.84 18.8395 134.247 19.5185 134.654 20.3333C135.062 21.1482 135.333 22.0988 135.333 23.0494C135.333 23.0494 135.333 23.0494 135.469 23.0494C135.741 22.642 135.877 21.5556 136.012 21.0123C136.012 20.7407 136.012 20.6049 135.877 20.4691C135.741 20.1975 135.877 20.0617 135.877 19.7901C135.877 19.5185 135.741 19.5185 135.605 19.3827C135.469 19.1111 135.469 19.1111 135.469 19.1111C135.469 19.1111 135.605 19.1111 135.877 19.1111C136.148 19.1111 136.284 19.1111 136.556 19.2469C136.691 19.3827 136.827 19.6543 137.235 19.6543C137.37 19.6543 137.506 19.6543 137.506 19.7901C137.642 19.7901 137.642 19.9259 137.778 20.0617C137.778 20.1975 137.914 20.1975 138.049 20.3333C138.049 20.3333 138.049 20.4691 137.914 20.4691V20.6049C137.914 20.7407 137.914 20.7407 138.049 20.8765C138.049 20.8765 138.049 20.8765 138.185 20.8765V20.7407C138.185 20.6049 138.321 20.4691 138.321 20.6049C138.321 20.6049 138.321 20.6049 138.321 20.7407C138.321 20.7407 138.321 20.7407 138.321 20.8765L138.457 21.0123C138.593 21.1482 138.864 21.2839 139.136 21.4197C138.728 21.1481 138.728 21.1482 138.593 21.0123L138.457 20.8765C138.457 20.8765 138.457 20.7407 138.321 20.6049H138.457C138.457 20.6049 138.457 20.6049 138.457 20.4691H138.321C138.321 20.4691 138.321 20.4691 138.185 20.4691C138.185 20.4691 138.185 20.4691 138.049 20.4691C137.914 20.3333 137.778 20.3333 137.642 20.1975C137.506 20.0617 137.778 20.1975 137.778 20.0617C137.914 19.9259 137.642 19.6543 137.506 19.7901C137.37 19.9259 137.37 19.7901 137.37 19.6543C137.37 19.5185 137.37 19.3827 137.37 19.3827C137.37 19.3827 137.37 19.2469 137.506 19.2469L137.642 19.3827C137.642 19.3827 137.642 19.3827 137.778 19.3827H137.914C137.914 19.3827 137.914 19.3827 138.049 19.3827C138.049 19.3827 138.049 19.3827 138.185 19.3827V19.2469C138.185 19.2469 138.185 19.2469 138.049 19.2469H137.914V19.1111C137.778 18.9753 137.642 18.9753 137.506 18.8395C137.37 18.7037 137.235 18.7037 137.099 18.5679C137.099 18.5679 136.963 18.4321 136.963 18.2963C136.963 18.1605 136.827 18.0247 136.827 18.0247C136.827 17.8889 136.691 17.8889 136.691 17.8889C136.691 17.8889 136.963 17.8889 136.963 18.0247C136.963 18.0247 136.963 18.1605 137.099 18.1605C137.099 18.0247 137.099 18.0247 137.099 17.8889C137.099 17.7531 137.099 17.7531 137.235 17.6173V17.7531C137.235 17.7531 137.235 17.7531 137.235 17.8889C137.235 17.8889 137.235 17.8889 137.235 18.0247C137.235 18.1605 137.235 18.4321 137.235 18.4321C137.235 18.4321 137.235 18.5679 137.37 18.5679L137.506 18.4321V18.2963V18.1605H137.37V18.0247C137.37 17.8889 137.235 18.0247 137.235 18.0247V17.8889C137.235 17.7531 137.235 17.7531 137.099 17.7531C137.099 17.6173 137.506 17.7531 137.506 17.7531H137.642C137.642 17.7531 137.642 17.7531 137.642 17.8889V18.0247H137.778C137.778 18.0247 137.778 18.0247 137.914 18.0247C137.914 18.0247 137.914 18.0247 137.914 18.1605C137.914 18.2963 138.049 18.4321 138.049 18.7037C138.049 18.8395 138.185 18.8395 138.185 18.9753L138.321 19.1111V19.2469C138.321 19.2469 138.321 19.3827 138.457 19.3827C138.457 19.3827 138.457 19.3827 138.593 19.3827C138.593 19.3827 138.593 19.3827 138.728 19.3827C138.864 19.3827 138.864 19.5185 139 19.6543C139 19.6543 139 19.6543 139 19.7901C139.136 20.0617 139.272 20.3333 139.407 20.4691C139.815 21.0123 140.222 21.6914 140.222 21.963C140.222 22.0988 139.815 22.3704 139.679 22.3704C139.543 22.3704 138.593 22.5062 137.506 22.3704C136.963 22.3704 136.42 22.2346 135.877 21.963C135.877 22.5062 135.741 23.0494 135.605 23.5926C135.469 24 135.333 24.679 135.198 24.9506C135.198 24.9506 135.198 24.9506 135.062 24.9506H134.926L134.654 24.8148C134.519 24.8148 134.383 24.679 134.247 24.679C133.975 24.679 133.704 24.679 133.432 24.679C133.296 24.679 133.16 24.679 133.025 24.679C132.753 24.679 132.889 24.8148 133.296 24.9506C133.568 24.9506 133.84 24.9506 134.111 24.9506C134.247 24.9506 134.383 24.9506 134.383 24.9506C134.519 24.9506 134.654 24.9506 134.79 24.9506L135.062 25.0864H135.198C135.469 25.2222 135.605 25.2222 135.877 25.2222C136.012 25.2222 136.012 25.2222 136.148 25.2222H136.284C136.42 25.2222 136.556 25.2222 136.556 25.2222C136.691 25.2222 136.691 25.2222 136.827 25.2222C136.827 25.2222 136.827 25.2222 136.827 25.358C136.827 25.358 136.827 25.358 136.691 25.358H136.556L136.42 25.4938C136.284 25.4938 136.284 25.6296 136.148 25.6296C136.148 25.2222 136.148 25.358 136.012 25.4938C136.012 25.6296 136.012 25.7654 136.012 25.9012C136.012 26.1728 136.284 26.1728 136.284 26.3086C136.284 26.3086 136.284 26.4444 136.148 26.4444H136.012C135.877 26.4444 135.741 26.4444 135.605 26.3086C135.605 26.1728 135.741 26.1728 135.605 26.037C135.469 25.9012 135.198 25.9012 135.333 26.1728C135.333 26.1728 135.333 26.3086 135.469 26.3086C135.198 26.1728 135.198 26.1728 135.062 26.037V25.9012C135.062 25.9012 135.062 25.9012 135.062 25.7654C135.062 25.7654 135.062 25.7654 134.926 25.7654H134.79H134.654C134.654 25.7654 134.926 25.9012 135.198 26.037C135.198 26.3086 135.062 26.8519 134.926 26.9877C134.79 27.1235 134.519 26.4444 134.383 26.3086C134.383 26.3086 134.383 26.3086 134.383 26.4444C134.247 26.5802 134.111 26.716 133.975 26.8518C133.704 26.8518 133.568 26.8518 133.296 26.8518C132.074 26.8518 130.58 27.6667 130.037 27.8025C129.901 27.8025 129.901 27.8025 129.765 27.9383C130.173 27.9383 130.444 27.8025 130.716 27.6667C130.988 27.5309 131.123 27.5309 131.531 27.3951H131.667L131.531 27.5309C131.259 27.8025 131.123 28.0741 130.444 28.6173C130.037 28.8889 129.63 29.0247 129.222 29.1605H129.086C127.593 29.5679 126.778 29.5679 125.963 29.9753C125.42 30.2469 125.284 30.6543 125.284 31.0617C125.284 30.9259 125.42 30.7901 125.42 30.6543C125.556 30.5185 125.556 30.3827 125.827 30.2469C126.235 29.9753 126.778 29.8395 127.321 29.7037C126.642 30.1111 125.284 31.0617 125.42 32.2839ZM134.247 22.9136C134.111 23.0494 134.111 23.0494 134.247 22.9136C134.111 23.0494 134.111 23.0494 134.111 23.1852C134.111 23.1852 134.111 23.321 134.247 23.321H134.383C134.383 23.321 134.519 23.321 134.519 23.1852V23.0494C134.383 23.0494 134.383 23.0494 134.247 22.9136ZM133.975 22.2346C134.111 22.0988 134.111 22.0988 134.111 21.963C134.111 21.963 134.111 21.963 133.975 21.963C133.975 21.963 133.975 21.963 133.84 21.963C133.84 21.963 133.84 21.963 133.84 22.0988C133.84 22.0988 133.84 22.0988 133.84 22.2346C133.84 22.2346 133.84 22.2346 133.975 22.2346ZM132.346 19.9259C132.346 19.9259 133.025 20.4691 133.704 21.0123C133.975 21.284 134.111 21.4198 134.111 21.5556C134.111 21.5556 134.247 21.6914 134.111 21.4197C133.975 21.1481 133.704 20.8765 133.568 20.7407C133.16 20.3333 132.889 20.0617 132.889 20.0617C132.889 19.9259 133.16 19.7901 133.025 19.6543C132.617 19.6543 132.481 19.7901 132.346 19.9259ZM133.704 17.8889C133.568 17.8889 133.568 17.8889 133.704 17.8889C133.568 17.7531 133.16 18.0247 133.432 18.0247C133.432 18.0247 133.568 18.0247 133.704 17.8889C133.704 18.0247 133.568 18.0247 133.704 17.8889ZM135.198 20.6049C135.198 20.4691 134.926 20.4691 134.926 20.6049C134.926 20.7407 134.926 20.7407 134.926 20.7407C135.198 20.7407 135.198 20.7407 135.198 20.6049C135.198 20.7407 135.198 20.7407 135.198 20.6049ZM132.21 14.9012C132.21 15.1728 132.617 15.3086 132.889 15.3086C132.889 15.3086 133.025 15.3086 133.161 15.3086C133.161 15.4444 133.16 15.4444 132.889 15.4444H132.753H132.617C132.617 15.4444 132.617 15.4444 132.481 15.5802V15.716C132.481 15.9877 132.617 16.2593 132.617 16.3951C132.617 16.5309 132.481 16.5309 132.481 16.5309C132.481 16.5309 132.481 16.5309 132.346 16.5309C132.346 16.5309 132.346 16.6667 132.481 16.6667H132.617C132.753 16.6667 132.753 16.6667 132.889 16.6667H133.025C133.16 16.6667 133.16 16.8025 133.296 16.8025L133.432 16.9383L133.568 16.8025C133.568 16.8025 133.568 16.8025 133.432 16.8025C133.432 16.8025 133.432 16.8025 133.296 16.8025C133.296 16.8025 133.296 16.6667 133.161 16.5309C133.161 16.3951 133.025 16.3951 133.025 16.2593V16.1235C133.025 16.1235 133.025 15.9877 133.161 15.9877C133.161 15.9877 133.16 15.9877 133.296 15.9877H133.432C133.568 15.9877 133.568 16.1235 133.568 16.2593C133.568 16.2593 133.568 16.2593 133.568 16.3951L133.704 16.5309V16.6667C133.704 16.6667 133.704 16.6667 133.704 16.8025C133.704 16.9383 133.704 16.9383 133.704 16.9383L133.975 17.0741C134.111 17.0741 134.111 17.0741 134.111 17.0741C133.975 16.9383 133.975 16.8025 133.975 16.6667C133.975 16.5309 133.975 16.5309 133.975 16.3951H134.111H134.247H134.383C134.383 16.3951 134.383 16.3951 134.383 16.5309C134.383 16.5309 134.383 16.5309 134.519 16.5309C134.519 16.5309 134.519 16.5309 134.519 16.6667C134.654 16.6667 134.79 16.6667 134.926 16.6667C134.926 16.6667 135.062 16.6667 135.198 16.6667C135.198 16.8025 135.198 16.9383 135.198 17.0741C135.198 17.2099 135.198 17.2099 135.198 17.3457H135.062C135.062 17.3457 135.062 17.4815 134.926 17.4815C134.926 17.4815 134.926 17.4815 134.926 17.6173V17.7531C134.926 17.7531 134.926 17.7531 134.926 17.8889C134.926 17.8889 134.926 18.0247 134.926 18.1605V18.2963C134.926 18.2963 134.926 18.2963 134.926 18.4321H134.79H134.654L134.519 18.2963C134.519 18.2963 134.519 18.2963 134.654 18.4321C134.654 18.4321 134.654 18.5679 134.79 18.5679C135.062 18.8395 135.333 18.7037 135.469 18.5679C135.469 18.4321 135.605 18.2963 135.877 18.0247C136.012 17.7531 136.148 17.7531 136.284 17.4815C136.284 17.3457 136.42 17.2099 136.42 16.9383C136.284 16.9383 136.148 16.8025 136.012 16.6667C135.877 16.5309 135.877 16.5309 135.741 16.3951C135.605 16.2593 135.469 15.9877 135.333 15.8518C135.198 15.716 135.198 15.7161 135.062 15.5802C135.062 15.5802 135.062 15.5802 135.062 15.4444C135.062 15.4444 135.062 15.4444 135.198 15.4444C135.469 15.5802 135.741 15.7161 136.012 15.9877C136.148 16.1235 136.148 16.2593 136.284 16.3951C136.42 16.5309 136.42 16.6667 136.556 16.6667C136.827 16.8025 137.099 16.8025 137.37 16.8025C137.506 16.8025 137.642 16.6667 137.642 16.6667C137.642 16.6667 137.642 16.6667 137.778 16.8025H137.914H138.049H138.185C138.185 16.8025 138.185 16.8025 138.049 16.5309C137.914 16.3951 137.778 16.2593 137.642 16.2593C137.642 16.2593 137.506 16.2593 137.506 16.3951V16.5309C137.37 16.5309 137.37 16.3951 137.235 16.3951C137.099 16.3951 136.963 16.2593 136.827 16.1235C136.963 15.8519 137.099 15.5802 137.37 15.3086C137.642 15.037 137.778 14.9012 137.914 14.7654C137.914 14.6296 137.642 13.8148 136.827 13.2716C134.926 13 134.247 13 134.111 13C133.84 13 133.84 13.1358 133.84 13.2716C133.84 13.5432 133.84 13.679 133.704 13.9506C133.704 14.0864 133.704 14.2222 133.568 14.358C133.568 14.358 133.568 14.4938 133.704 14.4938C133.704 14.4938 134.247 14.9012 134.247 15.037C134.383 15.1728 134.247 15.1728 134.111 15.037C133.975 14.9012 133.704 14.7654 133.432 14.7654C133.16 14.6296 132.889 14.6296 132.617 14.6296C132.481 14.6296 132.21 14.7654 132.21 14.9012ZM134.654 18.8395C134.519 18.8395 134.519 18.8395 134.519 18.8395C134.383 18.8395 134.383 18.9753 134.247 18.8395C133.975 18.5679 133.84 18.4321 133.704 18.5679C133.704 18.7037 133.704 18.7037 133.704 18.8395C133.704 19.1111 133.84 19.3827 133.84 19.3827C133.84 19.3827 133.84 19.5185 133.975 19.3827C134.111 19.3827 134.111 19.3827 134.247 19.2469C134.247 19.2469 134.247 19.2469 134.383 19.3827C134.383 19.3827 134.383 19.3827 134.519 19.3827H134.654L134.79 19.2469C134.926 19.2469 135.198 19.5185 135.062 19.2469C135.062 19.1111 135.062 19.1111 135.062 18.9753C135.062 18.8395 135.062 18.8395 135.198 18.7037C135.198 18.7037 135.333 18.5679 135.198 18.5679C135.062 18.5679 135.062 18.5679 134.926 18.5679C134.79 18.7037 134.654 18.8395 134.654 18.8395ZM135.198 21.4197C135.333 21.2839 135.333 21.284 135.333 21.1481C135.333 21.0123 135.062 21.0123 135.062 21.1481C135.198 21.284 135.198 21.2839 135.198 21.4197ZM137.099 17.6173C137.235 17.4815 137.235 17.3457 137.235 17.3457C137.099 17.4815 137.099 17.6173 137.099 17.6173ZM134.111 17.4815C134.247 17.3457 134.383 17.3457 134.247 17.3457H134.111C133.975 17.3457 133.975 17.4815 134.111 17.4815ZM127.728 37.5802C127.864 37.5802 127.864 37.5802 127.728 37.5802C127.728 37.716 127.593 37.9877 127.321 38.2593C127.049 38.5309 126.235 39.7531 125.963 40.2963C125.827 40.5679 125.827 40.7037 125.691 40.9753C125.691 40.9753 125.691 40.9753 125.556 40.9753C125.556 40.9753 125.556 40.9753 125.42 40.9753C125.42 40.9753 125.42 40.9753 125.284 40.9753C125.148 40.9753 125.284 41.1111 125.42 41.1111C125.556 41.1111 125.556 41.2469 125.556 41.2469C125.556 41.2469 125.556 41.2469 125.556 41.3827V41.5185C125.556 41.5185 125.556 41.5185 125.42 41.6543C125.42 41.9259 125.42 42.3333 125.556 42.6049C125.691 42.8765 125.827 43.1482 125.963 43.284C126.099 43.4198 126.37 43.5556 126.506 43.6914L126.642 43.8272C126.642 43.963 126.642 43.963 126.642 44.0988C126.642 44.0988 126.778 44.0988 126.642 44.2346C126.642 44.2346 126.506 44.3704 126.235 44.3704C125.827 44.3704 125.42 44.3704 125.148 44.0988C124.741 43.963 124.605 43.8272 124.333 43.4198C124.198 43.0123 123.926 42.6049 123.926 42.6049H123.654C123.519 42.4691 123.519 42.3333 123.383 42.1975C123.247 41.9259 123.247 41.7901 123.383 41.5185C123.383 41.3827 123.383 41.2469 123.519 41.1111C123.519 41.2469 123.654 41.2469 123.79 41.2469C123.79 41.1111 123.926 41.1111 124.062 40.9753C124.198 40.8395 124.198 40.8395 124.062 40.8395H123.926H123.79L123.926 40.7037C123.926 40.5679 124.062 40.5679 124.062 40.4321C124.198 40.2963 124.198 40.0247 124.198 39.8889C124.333 39.4815 124.469 38.6667 124.605 38.3951C124.741 37.9877 125.012 37.5802 125.284 37.3086C125.284 37.3086 125.284 37.3086 125.284 37.4444C125.284 37.4444 125.284 37.5802 125.42 37.5802L125.556 37.716C125.42 37.9877 125.284 38.2593 125.148 38.5309C125.012 38.8025 124.605 39.7531 124.469 40.4321C124.333 41.1111 124.469 40.7037 124.605 40.4321C124.605 40.1605 124.877 39.4815 125.012 39.2099C125.148 38.8025 125.556 38.1235 125.691 37.9877C125.827 37.8519 125.827 37.8519 125.827 37.9877C126.235 37.4444 126.506 37.4444 126.642 37.4444C127.049 37.5802 127.321 37.5802 127.728 37.5802ZM124.605 42.8765C124.741 42.7407 124.605 42.6049 124.469 42.3333C124.333 42.1975 124.198 42.0617 124.198 41.9259C124.198 41.7901 124.198 41.6543 124.062 41.6543C124.062 41.6543 124.062 41.6543 124.062 41.9259C124.062 42.1975 124.333 42.3333 124.333 42.4691C124.469 42.6049 124.605 42.8765 124.605 42.8765ZM125.556 43.4198C125.42 43.284 125.42 43.284 125.42 43.284C125.284 43.284 125.148 43.4198 125.284 43.4198C125.42 43.5556 125.556 43.5556 125.691 43.5556C125.691 43.5556 125.827 43.5556 125.963 43.5556H125.827C125.691 43.5556 125.556 43.4198 125.556 43.4198ZM125.148 43.1481C125.284 43.1481 125.42 43.0123 125.284 43.0123C125.284 43.0123 125.148 43.0123 125.148 43.1481C125.012 43.0123 125.012 43.0123 125.012 43.1481C124.877 43.2839 124.877 43.284 125.012 43.284C125.012 43.284 125.012 43.1481 125.148 43.1481ZM137.235 26.1728C137.37 26.1728 137.506 26.1728 137.642 26.037C137.778 25.9012 137.778 25.9012 137.914 25.9012C137.914 25.9012 137.914 25.9012 138.049 25.7654C138.049 25.7654 138.049 25.7654 138.049 25.6296C138.049 25.6296 138.049 25.4938 138.185 25.4938C138.185 25.4938 138.185 25.4938 138.321 25.4938C138.321 25.4938 138.321 25.4938 138.321 25.358V25.2222C138.321 25.2222 138.321 25.2222 138.457 25.2222C138.593 25.2222 138.728 25.2222 138.728 25.0864C138.728 24.9506 138.728 24.9506 138.728 24.8148C138.728 24.8148 138.728 24.8148 138.593 24.8148H138.457C138.321 24.8148 138.185 24.679 138.185 24.679H138.049C138.049 24.8148 138.049 24.8148 138.049 24.8148C138.049 24.8148 138.049 24.8148 137.914 24.8148C137.778 24.8148 137.778 24.9506 137.778 24.9506C137.778 24.9506 137.778 24.9506 137.778 25.0864C137.778 25.0864 137.778 25.0864 137.778 25.2222L137.642 25.358C137.642 25.358 137.642 25.4938 137.506 25.4938C137.37 25.4938 137.37 25.4938 137.099 25.6296C136.963 25.6296 136.827 25.6296 136.691 25.6296C136.691 25.7654 136.691 25.7654 136.827 25.7654C136.963 25.7654 136.963 25.7654 136.827 25.9012C136.691 25.9012 136.963 26.037 136.963 26.037C136.556 26.8519 131.531 36.7654 131.531 36.9012C131.395 37.1728 137.235 26.1728 137.235 26.1728ZM137.642 24.679C137.642 24.8148 137.778 24.5432 137.914 24.5432H138.049L138.185 24.4074C138.321 24.4074 138.457 24.4074 138.457 24.2716C138.593 24.1358 138.593 24 138.593 24C138.593 23.8642 138.593 23.7284 138.457 23.7284C138.321 23.5926 138.185 23.5926 138.185 23.5926C138.049 23.5926 138.049 23.5926 137.914 23.7284H138.049C138.049 23.7284 138.049 23.7284 138.049 23.8642C138.049 24 137.914 24 137.914 24.1358C137.914 24.2716 137.914 24.2716 138.049 24.4074C137.642 24.4074 137.642 24.5432 137.642 24.679ZM142.123 41.2469C142.123 41.2469 142.259 41.2469 142.259 41.3827C142.123 41.9259 141.716 42.3333 141.309 42.6049C140.901 42.8765 140.222 42.8765 139.951 43.0123L139.815 43.1481V43.4198C139.679 43.5556 139.543 43.5556 139.407 43.6914C139.272 43.8272 139.136 43.8272 139 43.8272L138.728 43.5556C138.593 43.4198 138.457 43.1481 138.321 43.0123C138.321 43.0123 138.321 42.8765 138.185 42.8765V42.7407C138.185 42.6049 138.049 42.4691 138.049 42.4691C138.049 42.4691 137.914 42.3333 137.914 42.1975V42.0617C137.914 42.0617 137.914 42.0617 137.914 41.9259C138.049 41.7901 137.914 41.7901 137.778 41.7901C137.778 41.7901 137.778 41.7901 137.642 41.7901V41.6543V41.5185C137.642 41.5185 137.506 41.3827 137.506 41.2469L137.37 41.1111C136.963 40.7037 136.691 40.1605 136.284 39.7531C136.012 39.3457 135.741 38.9383 135.605 38.3951C135.605 38.3951 135.741 38.2593 135.877 38.2593C135.877 38.2593 136.012 38.2593 136.012 38.3951C136.012 38.3951 136.012 38.3951 136.012 38.5309C136.012 38.8025 136.148 38.9383 136.284 39.0741C136.42 39.3457 136.556 39.6173 136.691 39.8889C136.963 40.2963 137.37 40.7037 137.778 41.1111C137.914 41.2469 137.642 40.7037 137.235 40.2963C136.827 39.7531 136.556 39.0741 136.42 38.5309C136.42 38.5309 136.42 38.3951 136.284 38.3951C136.284 38.3951 136.284 38.3951 136.148 38.3951C136.148 38.3951 136.284 38.2593 136.556 38.1235C136.827 37.8519 136.827 37.5802 136.963 37.3086C136.963 37.1728 137.099 37.037 137.099 36.9012C137.099 36.6296 137.099 36.358 137.099 36.4938C137.099 36.4938 137.099 36.6296 137.099 36.7654V36.9012C137.235 37.716 137.506 38.3951 137.778 39.2099C138.049 39.8889 138.321 40.5679 138.593 41.2469L138.728 41.3827C138.864 41.3827 138.864 41.3827 138.864 41.3827C138.864 41.3827 138.864 41.3827 138.864 41.5185C139 41.5185 139 41.6543 139.136 41.6543C139.679 41.7901 140.086 41.9259 140.494 41.7901H140.63C140.63 41.7901 140.63 41.7901 140.494 41.9259C140.358 42.0617 140.358 42.0617 140.222 42.0617C140.086 42.0617 139.951 42.0617 139.815 42.0617C139.951 42.1975 140.358 42.0617 140.494 42.0617C140.63 41.9259 140.63 41.9259 140.765 42.0617C140.765 42.0617 140.765 42.0617 140.901 42.0617C140.901 42.0617 140.901 41.9259 141.037 41.7901C141.037 41.6543 141.037 41.6543 141.173 41.5185C141.173 41.5185 141.309 41.5185 141.444 41.5185C141.852 41.2469 141.852 41.2469 142.123 41.2469C141.988 41.3827 141.988 41.2469 142.123 41.2469C141.988 41.2469 141.988 41.2469 142.123 41.2469ZM138.457 42.8765C138.457 42.8765 138.457 42.8765 138.457 42.6049C138.457 42.6049 138.457 42.4691 138.457 42.3333C138.321 42.3333 138.185 42.3333 138.185 42.4691C138.185 42.6049 138.185 42.6049 138.321 42.7407C138.185 42.8765 138.321 43.0123 138.457 42.8765ZM139.815 42.8765C139.951 42.8765 139.951 42.7407 139.815 42.8765C139.815 42.8765 139.679 42.8765 139.543 42.8765C139.407 42.8765 139 42.8765 139 43.0123C138.864 43.1481 138.864 43.4198 139 43.284C139.136 43.1482 139.272 43.1481 139.407 43.0123C139.543 43.0123 139.679 42.8765 139.815 42.8765ZM136.148 37.716C136.42 37.4444 136.556 37.037 136.691 36.7654C136.827 36.4938 136.963 36.2222 137.099 36.0864C137.099 36.0864 137.099 35.8148 136.963 35.679C136.963 35.679 136.963 35.679 136.827 35.679C136.827 35.5432 136.827 35.4074 136.963 35.2716C136.963 35.1358 136.963 34.8642 136.963 34.7284C136.963 34.5926 136.963 34.5926 136.827 34.4568C136.827 34.4568 136.827 34.5926 136.827 34.7284C136.827 34.8642 136.827 35.1358 136.691 35.2716C136.556 35.4074 136.42 35.679 136.42 35.8148C136.42 35.9506 136.42 36.0864 136.556 36.0864C136.556 36.0864 136.556 36.0864 136.691 36.2222C136.691 36.358 136.691 36.4938 136.284 36.9012C136.148 37.037 136.012 37.1728 135.741 37.3086V37.4444C135.741 37.5802 135.741 37.5802 135.605 37.716C135.469 37.8518 135.605 38.1235 135.605 38.1235C135.605 38.1235 135.605 37.9877 136.148 37.716ZM131.667 32.4198C131.938 31.8765 132.346 31.3333 132.753 30.7901C132.889 30.6543 133.025 30.5185 133.296 30.2469C133.432 30.1111 133.296 30.1111 132.753 30.5185C132.481 30.6543 132.346 30.9259 132.074 31.1975C131.667 31.8765 131.259 32.4198 130.988 33.0988C130.852 33.5062 130.58 33.7778 130.309 34.0494C130.037 34.321 129.63 34.4568 129.494 34.5926C129.494 34.5926 129.494 34.5926 129.494 34.7284V34.8642V35V35.1358C129.358 35.2716 129.222 35.2716 129.086 35.2716H128.951C128.815 35.2716 128.679 35.4074 128.815 35.4074H128.951C129.086 35.4074 129.086 35.4074 129.086 35.5432C129.086 35.5432 128.951 35.679 128.679 35.8148C128.272 35.9506 128 35.9506 127.593 35.9506C127.457 35.9506 127.185 35.9506 127.049 35.9506C127.049 35.9506 127.049 36.0864 127.185 36.0864C127.321 36.0864 127.593 36.2222 127.728 36.2222C127.864 36.2222 127.728 36.358 127.728 36.358C127.457 36.358 127.185 36.358 126.914 36.358H126.778C126.642 36.358 126.506 36.2222 126.506 36.0864C126.506 36.0864 126.506 35.9506 126.37 35.9506L126.099 36.2222C126.099 36.2222 126.099 36.358 126.235 36.4938V36.358C126.235 36.358 126.37 36.2222 126.37 36.358C126.37 36.358 126.37 36.358 126.37 36.4938C126.37 36.4938 126.37 36.4938 126.37 36.6296C126.37 36.6296 126.37 36.6296 126.37 36.7654C126.506 36.9012 126.642 36.9012 126.914 37.037C127.321 37.1728 127.728 37.1728 128 37.037H128.136V37.1728C128.136 37.3086 128.136 37.3086 128.136 37.3086L128.272 37.1728L128.543 36.9012C128.679 36.7654 128.815 36.6296 128.815 36.6296V36.4938C128.815 36.358 128.815 36.358 129.086 36.2222C129.222 36.0864 129.358 36.0864 129.494 35.9506C129.63 35.8148 129.494 35.679 129.63 35.5432C129.765 35.4074 130.037 35.2716 130.037 35.2716C130.173 35.1358 130.173 35 130.309 34.8642C130.58 34.5926 130.716 34.321 130.988 34.0494C131.259 33.5062 131.395 33.0988 131.667 32.4198ZM136.556 25.2222C136.42 25.2222 136.284 25.2222 136.556 25.2222C136.42 25.358 136.556 25.358 136.691 25.358C136.827 25.2222 136.963 25.2222 136.827 25.2222C136.691 25.0864 136.556 25.0864 136.556 25.2222ZM128.407 29.4321C128 29.5679 127.864 29.5679 127.728 29.5679C126.914 30.2469 127.321 30.9259 127.593 31.0617C127.728 31.1975 127.593 31.0617 128.272 30.1111C128.543 29.8395 128.815 29.5679 129.222 29.2963C129.086 29.2963 128.815 29.4321 128.407 29.4321ZM138.185 24.5432C138.321 24.5432 138.457 24.679 138.593 24.8148C138.593 24.8148 138.593 24.8148 138.728 24.9506C138.728 24.9506 138.728 24.9506 138.864 24.9506C138.864 24.9506 138.864 24.9506 138.864 24.8148C138.864 24.679 138.864 24.679 138.728 24.679C138.321 24.5432 138.321 24.5432 138.185 24.5432Z" fill="#1D1D1B"/>
</svg>
