<svg width="256" height="58" viewBox="0 0 256 58" fill="none" xmlns="http://www.w3.org/2000/svg">
<g clip-path="url(#clip0_1046_188)">
<path d="M41 13.8937V53.997C98.246 40.8032 157.754 40.8032 215 53.997V13.8937C157.754 0.699973 98.246 0.699973 41 13.8937ZM68.492 23.2628C67.013 23.4947 65.534 23.7267 64.026 23.9877V21.8999C64.026 21.6969 63.852 21.5229 63.649 21.5229H63.533C62.692 21.6679 61.126 21.9289 60.314 22.1029C60.053 22.1609 59.85 22.3928 59.821 22.6538V27.0614C59.821 27.5833 59.966 27.6703 60.227 27.6703C60.285 27.6703 60.343 27.6703 60.401 27.6413C60.401 27.6413 63.968 27.0324 65.534 26.7714C65.65 26.7424 65.766 26.7424 65.911 26.7424C66.491 26.7424 67.071 26.9164 67.535 27.2934C68.173 27.8733 68.521 28.6852 68.463 29.5552V37.3264C68.463 38.2253 68.173 39.0953 67.622 39.8202C67.158 40.4581 66.462 40.8931 65.679 41.0381C62.808 41.502 61.3 41.763 58.371 42.314C58.226 42.343 58.081 42.343 57.936 42.343C57.356 42.343 56.776 42.111 56.341 41.705C55.732 41.0961 55.413 40.2842 55.471 39.4432V36.1955C55.5145 36.181 56.5962 35.9781 57.6721 35.778C58.748 35.5808 59.821 35.3836 59.85 35.3836V37.1814C59.85 37.7614 59.937 37.8774 60.198 37.8774C60.285 37.8774 63.417 37.3264 63.446 37.3264C63.823 37.2394 63.997 37.1235 63.997 36.4275V31.9909C63.997 31.411 63.62 31.411 63.504 31.411H63.33C63.243 31.44 58.4 32.2809 58.4 32.2809C58.226 32.3099 58.052 32.3389 57.878 32.3389C57.269 32.3389 56.689 32.1359 56.254 31.701C55.732 31.179 55.471 30.4831 55.471 29.7581V22.1029C55.442 20.276 56.747 18.6812 58.574 18.3622C60.778 17.9563 63.04 17.5503 65.302 17.1733C65.476 17.1443 65.621 17.1443 65.795 17.1443C66.462 17.1153 67.1 17.3473 67.593 17.7823C68.202 18.3622 68.521 19.1741 68.492 19.9861V23.2628ZM96.216 37.2365C94.824 37.3525 93.461 37.4685 92.069 37.6135L91.837 37.6425L89.372 23.3178L86.907 38.1355L86.704 38.1645C85.312 38.3094 83.949 38.4834 82.586 38.6284L82.354 38.6574L79.889 24.4197L77.453 39.2953L77.25 39.3243C75.887 39.4983 74.495 39.7013 73.132 39.9043L72.784 39.9623L72.842 39.6143C74.408 31.5821 76.003 23.5498 77.569 15.5176L77.598 15.3436L77.772 15.3146C79.164 15.1406 80.527 14.9666 81.89 14.7926L82.122 14.7637L84.587 28.8853L87.052 14.2127L87.255 14.1837C88.647 14.0387 90.01 13.8937 91.402 13.7777L91.634 13.7487L96.477 37.2655L96.216 37.2365ZM105.786 36.5725H105.554C104.191 36.6595 102.828 36.7465 101.465 36.8335L101.204 36.8625V12.9107L101.436 12.8817C102.799 12.7947 104.162 12.7077 105.525 12.6208L105.786 12.5918V36.5725ZM127.043 35.9056C125.506 35.9056 123.998 35.9346 122.49 35.9636H122.316L122.258 35.7896C121.243 33.2668 120.257 30.773 119.242 28.2503C118.372 29.0622 117.502 29.8451 116.603 30.6571V36.0795H116.371C115.008 36.1085 113.645 36.1665 112.282 36.2245H112.021V12.3308H112.253C115.82 12.1858 118.662 12.0988 122.113 12.0408C123.882 11.8958 125.419 13.2297 125.564 14.9985V20.363C125.68 21.4359 125.274 22.5088 124.462 23.2338L122.606 25.0316C124.172 28.5113 125.709 32.0199 127.275 35.5576L127.42 35.9056H127.043ZM147.198 36.3405H146.937C145.371 36.2535 143.805 36.1955 142.239 36.1375H142.065L142.007 35.9636C140.296 31.237 138.585 26.5104 136.874 21.8129V35.9636H136.613C135.337 35.9346 134.032 35.9056 132.756 35.9056H132.495L132.524 11.9828H132.785C134.322 12.0118 135.859 12.0118 137.396 12.0698H137.57L137.628 12.2438C139.368 16.9703 141.108 21.6969 142.848 26.4525V12.2438H143.109C144.385 12.3018 145.69 12.3308 146.966 12.4178H147.198V36.3405ZM166.773 34.4267C166.802 35.2386 166.512 36.0216 165.961 36.6305C165.381 37.1814 164.598 37.5004 163.815 37.4714C163.699 37.4714 163.554 37.4714 163.438 37.4424C160.538 37.1814 159.088 37.0655 156.246 36.8625C154.448 36.8045 152.998 35.3256 153.056 33.4988V33.4408L153.027 16.0714C152.911 14.4766 154.129 13.0847 155.724 12.9687H156.159C158.682 13.1427 161.205 13.3457 163.67 13.5777C165.468 13.6937 166.831 15.2305 166.773 17.0283V34.4267ZM184.202 20.0731L183.912 20.0441C181.766 19.7251 179.591 19.4351 177.445 19.1741V24.7996C179.098 25.0026 180.751 25.2346 182.404 25.4665L182.636 25.4955V29.6132L182.346 29.5842C180.722 29.3522 179.098 29.1492 177.474 28.9172V39.0083L177.184 38.9793C175.821 38.8053 174.487 38.6313 173.124 38.4863L172.892 38.4573L172.834 14.4766L173.124 14.5056C176.72 14.9115 180.374 15.4045 183.97 15.9264L184.202 15.9554V20.0731ZM193.801 41.415L193.511 41.3571C192.177 41.1251 190.814 40.8931 189.48 40.6901L189.277 40.6611V16.7442L189.248 16.7384H189.277V16.7442L189.538 16.7964C193.105 17.3763 196.73 17.9852 200.326 18.6812L200.529 18.7102V22.8278L200.239 22.7698C198.18 22.3928 196.005 21.9869 193.801 21.6099V27.2354C195.454 27.5254 197.078 27.8153 198.731 28.1053L198.934 28.1343V32.2519L198.644 32.1939C197.02 31.9039 195.425 31.614 193.801 31.324V41.415ZM200.471 44.1698C199.369 44.1698 198.47 43.2709 198.47 42.169C198.47 41.0671 199.369 40.1972 200.471 40.1682C201.573 40.1682 202.472 41.0671 202.472 42.169C202.472 43.2709 201.573 44.1698 200.471 44.1698Z" fill="black"/>
<path d="M162.336 17.9535V32.8001C162.336 32.9161 162.307 33.032 162.22 33.09C162.133 33.148 162.046 33.206 161.93 33.206H161.872C160.915 33.119 159.204 33.003 158.218 32.9161C157.957 32.8871 157.754 32.6841 157.725 32.4231V17.5765C157.725 17.3445 157.928 17.1705 158.16 17.1705H158.189C159.175 17.2285 160.886 17.3735 161.843 17.4605C162.104 17.4605 162.307 17.6925 162.336 17.9535Z" fill="black"/>
<path d="M121.098 16.7675V19.8992C121.127 20.6241 120.837 21.349 120.286 21.842C119.213 22.9149 116.661 25.5246 116.661 25.5246V16.2165C117.618 16.1875 119.329 16.1585 120.286 16.1295H120.344C120.982 16.1295 121.069 16.3325 121.098 16.7675Z" fill="black"/>
<path d="M200.471 40.5714C200.036 40.5714 199.636 40.7512 199.346 41.0412C199.056 41.3311 198.876 41.7313 198.876 42.1663C198.876 43.0362 199.601 43.7611 200.471 43.7611C201.341 43.7611 202.066 43.0362 202.066 42.1663C202.066 41.2963 201.341 40.5714 200.471 40.5714ZM200.819 43.1261L200.355 42.3721H200.181V43.1261H199.659V41.0383H200.558C201.138 41.0673 201.283 41.3862 201.283 41.6472C201.312 41.9372 201.138 42.1982 200.877 42.2851L201.399 43.1261H200.819Z" fill="black"/>
<path d="M200.761 41.7052C200.761 41.7632 200.761 41.7922 200.732 41.8502L200.645 41.9372C200.587 41.9662 200.558 41.9952 200.5 41.9952H200.21V41.4442H200.529C200.558 41.4442 200.616 41.4732 200.645 41.4732L200.732 41.5602C200.761 41.6182 200.761 41.6472 200.761 41.7052Z" fill="black"/>
</g>
<defs>
<clipPath id="clip0_1046_188">
<rect width="174" height="50" fill="white" transform="translate(41 4)"/>
</clipPath>
</defs>
</svg>
