<svg width="256" height="58" viewBox="0 0 256 58" fill="none" xmlns="http://www.w3.org/2000/svg">
<path d="M71.0696 40.2848L63.9396 20.5897H54.8947V21.3102C54.8947 21.3102 54.9918 21.2803 55.1523 21.2803C55.38 21.2803 55.7346 21.34 56.1378 21.6237C56.9628 22.2061 57.2651 23.2961 56.9516 24.2592L52.4459 38.0301C51.0759 42.1102 49.9485 43.7639 47.9775 43.9281V44.4956H56.9777V43.9356C55.8205 43.9356 52.92 41.8937 54.0063 38.1869C54.1033 37.8584 54.2825 37.276 54.5065 36.5444H62.2225L63.8687 41.0202C64.0516 41.5055 64.1935 41.9572 64.1935 42.2857C64.1935 43.2749 63.417 43.9393 62.2598 43.9393V44.4993H74.8996V43.9244C73.1638 43.8087 72.3463 42.9875 71.0696 40.2848ZM52.2294 41.4159C52.2928 41.289 52.3526 41.1583 52.4123 41.0239C52.4944 41.3748 52.6101 41.7182 52.7595 42.0467C52.7632 42.0579 52.7707 42.0691 52.7781 42.0803H51.8822C52.0017 41.8676 52.1174 41.6473 52.2294 41.4159ZM53.8607 43.5959H50.7922C50.8706 43.5175 50.9452 43.4354 51.0199 43.3495C51.1692 43.1741 51.3148 42.9837 51.4529 42.7821H53.185C53.2298 42.8493 53.2709 42.9165 53.3194 42.9837C53.4836 43.2002 53.6666 43.4055 53.8607 43.5959ZM69.0239 42.0803H65.2387C65.2313 41.9908 65.2201 41.8974 65.2014 41.7966C65.1902 41.7369 65.1753 41.6772 65.1603 41.6137C65.1305 41.4868 65.0894 41.3487 65.0409 41.1994C65.0185 41.1322 64.9961 41.065 64.9699 40.9903H68.4565C68.6282 41.3449 68.7962 41.6735 68.9642 41.9758C69.0015 42.0467 69.0426 42.1139 69.0239 42.0803ZM64.9289 31.3556H61.4274L61.0279 30.2693H64.5332L64.9289 31.3556ZM64.2793 29.5675H60.7704L60.3709 28.4812H63.8874L64.2793 29.5675ZM63.6336 27.7794H60.1134L59.7139 26.6931H63.2416L63.6336 27.7794ZM62.9877 25.9913H59.4564L59.2212 25.3492L59.0569 24.905H62.5958L62.9877 25.9913ZM62.3419 24.207H58.7994L58.5829 23.6209C58.5194 23.4529 58.4559 23.2849 58.385 23.1207H61.95L62.3419 24.207ZM61.3602 21.4931L61.6961 22.4189H58.0416C57.9744 22.2957 57.9072 22.1762 57.8363 22.0605C57.7653 21.9411 57.6907 21.8253 57.6086 21.7133C57.5563 21.6387 57.5003 21.564 57.448 21.4968H61.3602V21.4931ZM55.0851 34.6928C56.1004 31.4414 58.0602 25.2186 58.0602 25.2186L61.5431 34.6928H55.0851ZM62.0844 33.1436L61.6849 32.0574H65.179L65.571 33.1436H62.0844ZM62.3419 33.8417H65.8285L66.2205 34.928H62.7414L62.3419 33.8417ZM62.9989 35.6298H66.4743L66.8663 36.7161H63.3984L62.9989 35.6298ZM64.0591 38.5042L63.6597 37.4179H67.1239L67.5158 38.5042H64.0591ZM64.3167 39.206H67.7697L68.1616 40.2923H64.7161L64.3167 39.206ZM70.1028 43.5959H64.8841C64.9998 43.4093 65.0931 43.204 65.1529 42.9837C65.1715 42.9203 65.1827 42.8493 65.1939 42.7821H69.4532C69.4308 42.7448 69.8489 43.3309 70.1028 43.5959Z" fill="black"/>
<path d="M48.2684 17H23V26.4966H23.6645C24.2319 22.9055 27.487 17.9892 31.9554 17.9295V39.2185C31.9554 41.574 31.765 42.4475 31.1005 43.1232C30.604 43.5935 30.0441 43.7914 28.8943 43.8474V44.4969H42.1911V43.8474C41.0414 43.7877 40.4777 43.5898 39.9812 43.1195C39.3242 42.4475 39.1301 41.574 39.1301 39.2185V17.9258H39.2346C43.7441 17.9258 47.0328 22.8831 47.6039 26.4966H48.2609V17H48.2684ZM24.3625 20.6322H24.0788V19.5459H25.2435C24.9337 19.8669 24.635 20.2253 24.3625 20.6322ZM25.9602 18.8441H24.0788V17.9258H26.9793C26.6508 18.2319 26.3037 18.5305 25.9602 18.8441ZM33.1574 18.0042H36.2632V18.8441H33.1574V18.0042ZM33.1574 19.5459H36.2632V20.6322H33.1574V19.5459ZM33.1574 21.334H36.2632V22.4202H33.1574V21.334ZM33.1574 23.1183H36.2632V24.2046H33.1574V23.1183ZM33.1574 24.9064H36.2632V25.9927H33.1574V24.9064ZM33.1574 26.6945H36.2632V27.7808H33.1574V26.6945ZM33.1574 28.4826H36.2632V29.5688H33.1574V28.4826ZM33.1574 30.2706H36.2632V31.3569H33.1574V30.2706ZM33.1574 32.0587H36.2632V33.145H33.1574V32.0587ZM33.1574 33.8431H36.2632V34.9294H33.1574V33.8431ZM33.1574 35.6312H36.2632V36.7174H33.1574V35.6312ZM33.1574 37.4192H36.2632V38.5055H33.1574V37.4192ZM33.1574 39.7747V39.2036H36.2632V40.2899H33.1499C33.1536 40.1294 33.1574 39.9577 33.1574 39.7747ZM33.1126 40.9954H36.2669C36.2707 41.4434 36.2819 41.7943 36.3117 42.0817H32.9409C33.023 41.7644 33.079 41.4098 33.1126 40.9954ZM32.0375 43.6607C32.3063 43.3845 32.5153 43.1045 32.6758 42.7835H36.4461C36.5432 43.0747 36.685 43.3322 36.9015 43.6607H32.0375ZM42.6951 17.9258H46.0324V18.8441H44.1099C43.6246 18.4671 43.1356 18.1609 42.6951 17.9258ZM44.9125 19.5459H46.0324V20.6322H45.8233C45.5471 20.2327 45.241 19.8669 44.9125 19.5459Z" fill="black"/>
<path d="M101.832 21.1459C104.419 21.187 104.889 21.8365 104.889 25.0133V40.0683C104.889 43.245 104.419 43.8946 101.832 43.9356V44.4918H114.494V43.9356C111.907 43.8946 111.437 43.245 111.437 40.0683V25.0133C111.437 21.8365 111.907 21.187 114.494 21.1459V20.5897H101.832V21.1459ZM105.998 37.4179H108.787V38.5042H105.998V37.4179ZM105.998 36.7161V35.6298H108.787V36.7161H105.998ZM105.998 34.9317V33.8454H108.787V34.9317H105.998ZM105.998 33.1436V32.0574H108.787V33.1436H105.998ZM105.998 31.3556V30.2693H108.787V31.3556H105.998ZM105.998 29.5675V28.4812H108.787V29.5675H105.998ZM105.998 27.7794V26.6931H108.787V27.7794H105.998ZM105.998 25.9913V24.905H108.787V25.9913H105.998ZM105.998 39.206H108.787V40.2922H105.998V39.206ZM108.787 24.207H105.994C105.983 23.7963 105.961 23.4342 105.916 23.1207H108.802C108.798 23.2364 108.794 23.3596 108.794 23.494C108.794 23.6395 108.79 23.8001 108.79 23.9755V24.207H108.787ZM105.987 40.994H108.787C108.787 41.4495 108.79 41.7966 108.809 42.0803H105.879C105.935 41.7668 105.972 41.4121 105.987 40.994ZM105.759 22.4189C105.658 22.0978 105.524 21.8328 105.352 21.5976H109.134C109.078 21.7021 109.029 21.8029 108.988 21.9037C108.962 21.9709 108.94 22.0418 108.917 22.1128C108.876 22.2583 108.846 22.4151 108.828 22.6055C108.835 22.5383 108.843 22.4786 108.854 22.4189H105.759ZM105.334 43.3869C105.476 43.204 105.588 43.0024 105.681 42.7821H108.906C108.906 42.7859 108.906 42.7896 108.91 42.7896C108.932 42.8755 108.958 42.9576 108.988 43.0397C109.052 43.2002 109.13 43.3533 109.235 43.525C109.261 43.5698 109.287 43.6146 109.317 43.6594H105.102C105.184 43.5698 105.263 43.4802 105.334 43.3869Z" fill="black"/>
<path d="M216.046 43.9431H216.013C213.168 43.9431 212.668 43.3645 212.668 40.072V39.3964C212.668 37.5784 213.538 35.8687 215.008 34.7974L215.023 34.7862L220.018 42.8008C220.675 43.8572 221.829 44.4956 223.072 44.4956H230V43.9394C228.197 43.8983 227.506 43.0696 226.398 41.2479L221.306 33.278C224.15 32.0536 226.573 29.407 226.573 26.3534C226.573 24.0539 225.435 22.2434 223.717 21.4856C222.277 20.8249 220.474 20.5897 218.137 20.5897H203.063V21.1459C205.65 21.187 206.12 21.8365 206.12 25.0133V40.0683C206.12 43.245 205.65 43.8946 203.063 43.9356V44.4918H216.046V43.9431ZM215.874 34.1889C215.874 34.1889 216.02 34.0657 216.259 33.8455H218.693L219.398 34.9317H216.337L215.874 34.1889ZM216.957 33.1437C217.245 32.8376 217.566 32.4717 217.894 32.0574H221.235C220.294 32.6248 219.271 32.957 218.379 33.1437H216.957ZM216.778 35.6298H219.854L220.559 36.7161H217.461L216.778 35.6298ZM225.065 43.6594H223.337C222.564 43.6594 221.84 43.3346 221.325 42.7821H224.494L225.065 43.6594ZM224.042 42.0804H220.821L220.138 40.9941H223.333L224.042 42.0804ZM222.881 40.2923H219.701L219.018 39.206H222.176L222.881 40.2923ZM221.72 38.5042H218.581L217.898 37.4179H221.015L221.72 38.5042ZM222.198 31.3556H218.413C218.648 31.0159 218.88 30.65 219.089 30.2693H223.158C222.878 30.6799 222.553 31.042 222.198 31.3556ZM223.572 29.5675H219.443C219.604 29.2166 219.746 28.8545 219.861 28.4812H223.968C223.867 28.8731 223.732 29.2352 223.572 29.5675ZM224.117 27.7794H220.044C220.119 27.4248 220.164 27.0589 220.179 26.6931H224.21C224.203 27.0776 224.169 27.436 224.117 27.7794ZM224.18 25.9913H220.164C220.141 25.6143 220.1 25.2485 220.033 24.905H223.953C224.061 25.2485 224.139 25.6143 224.18 25.9913ZM223.676 24.207H219.85C219.731 23.8225 219.578 23.4604 219.391 23.1207H222.956C223.24 23.4417 223.482 23.8038 223.676 24.207ZM219.734 21.5939C220.634 21.5939 221.485 21.8925 222.202 22.4151H218.924C218.704 22.124 218.458 21.8477 218.181 21.5902L219.734 21.5939ZM212.664 21.7432H214.452C217.207 21.7432 218.865 23.2737 218.865 26.5027C218.865 30.7322 214.06 34.2673 212.664 35.2042V21.7432ZM207.225 39.206H210.014V40.2923H207.225V39.206ZM207.225 38.5042V37.4179H210.014V38.5042H207.225ZM207.225 36.7161V35.6298H210.014V36.7161H207.225ZM207.225 34.9317V33.8455H210.014V34.9317H207.225ZM207.225 33.1437V32.0574H210.014V33.1437H207.225ZM207.225 31.3556V30.2693H210.014V31.3556H207.225ZM207.225 29.5675V28.4812H210.014V29.5675H207.225ZM207.225 27.7794V26.6931H210.014V27.7794H207.225ZM207.225 25.9913V24.905H210.014V25.9913H207.225ZM207.222 24.207C207.218 24.0054 207.21 23.815 207.195 23.6358C207.184 23.4566 207.166 23.2924 207.143 23.1356C207.143 23.1281 207.139 23.1244 207.139 23.1169H210.014V24.2032H207.222V24.207ZM207.136 42.0542C207.158 41.9012 207.177 41.7369 207.192 41.5615C207.207 41.386 207.214 41.1956 207.222 40.9941H210.017V41.1172C210.017 41.5092 210.021 41.8228 210.032 42.0841H207.132C207.132 42.0691 207.132 42.0617 207.136 42.0542ZM210.014 21.5939V22.4151H206.99C206.956 22.3069 206.919 22.2098 206.878 22.1128C206.837 22.0157 206.792 21.9261 206.744 21.8403C206.695 21.7544 206.643 21.6723 206.583 21.5939H210.014ZM206.449 43.6594C206.669 43.4055 206.833 43.1293 206.953 42.8008C206.956 42.7933 206.956 42.7859 206.96 42.7821H210.103C210.167 43.1106 210.275 43.3533 210.458 43.6594H206.449Z" fill="black"/>
<path d="M88.9541 43.1926H86.6023V25.0168C86.6023 21.8401 87.0727 21.1905 89.6596 21.1495V20.5933H76.9974V21.1495C79.5844 21.1905 80.0547 21.8401 80.0547 25.0168V40.0718C80.0547 43.2486 79.5844 43.8981 76.9974 43.9391V44.4954H99.5631V37.2161H98.9659C97.1629 39.915 94.4527 43.1926 88.9541 43.1926ZM83.9482 43.6592H80.443C80.5736 43.5136 80.6856 43.3419 80.7789 43.144C80.8312 43.032 80.876 42.9089 80.917 42.7782H83.9519V43.6592H83.9482ZM83.9482 42.0801H81.0626C81.1074 41.7628 81.1373 41.4082 81.1485 40.9938H83.9445V42.0801H83.9482ZM83.9482 40.2921H81.1597V39.2058H83.9482V40.2921ZM83.9482 38.504H81.1597V37.4177H83.9482V38.504ZM83.9482 36.7159H81.1597V35.6296H83.9482V36.7159ZM83.9482 34.9315H81.1597V33.8452H83.9482V34.9315ZM83.9482 33.1434H81.1597V32.0572H83.9482V33.1434ZM83.9482 31.3554H81.1597V30.2691H83.9482V31.3554ZM83.9482 29.5673H81.1597V28.481H83.9482V29.5673ZM83.9482 27.7792H81.1597V26.6929H83.9482V27.7792ZM83.9482 25.9911H81.1597V24.9048H83.9482V25.9911ZM83.9482 24.2068H81.1485C81.1335 23.7887 81.1 23.434 81.0589 23.1205H83.9743C83.9557 23.4004 83.9519 23.7513 83.9482 24.2068ZM84.2543 21.9782C84.1946 22.0976 84.1423 22.2134 84.105 22.3365C84.0975 22.3627 84.0901 22.3888 84.0826 22.4149H80.9282C80.9021 22.3141 80.8797 22.2171 80.8498 22.1275C80.7901 21.9259 80.7229 21.7505 80.652 21.5937H84.4745C84.3887 21.7355 84.3178 21.8587 84.2543 21.9782ZM97.0658 42.0801V43.6592H92.6758C93.1014 43.536 93.512 43.3941 93.9115 43.2299C94.072 43.1627 94.2325 43.0918 94.3893 43.0171C94.5461 42.9424 94.6991 42.864 94.8522 42.7819H97.0695L97.0658 42.0801H95.9347C96.3341 41.774 96.7149 41.4343 97.0658 41.0349V42.0801Z" fill="black"/>
<path d="M126.59 43.8937C128.505 44.4985 130.498 44.9875 133.653 44.9875C138.901 44.9875 142.033 42.1318 142.033 37.1782C142.033 34.6472 141.205 32.8666 139.637 31.6049C138.476 30.6753 136.176 29.7533 133.78 29.2568L129.024 28.3236C126.68 27.8532 125.821 27.4911 124.892 26.9424C124.044 26.4459 123.495 25.4865 123.495 24.5048C123.495 22.265 125.672 21.1675 128.434 21.1675C132.257 21.1675 136.904 22.4591 139.331 27.2261H140.006V20.5329H139.752C137.016 22.2314 132.693 20.182 128.344 20.182C123.365 20.182 119.751 23.6238 119.751 28.3647C119.751 32.6016 122.301 35.125 127.546 36.0807L132.884 37.0923C133.981 37.2939 135.807 37.809 136.501 38.1151C138.073 38.7535 138.774 39.4254 138.774 40.829C138.774 42.9456 136.4 43.9124 133.627 43.9124C127.456 43.9124 123.589 41.3964 120.983 37.3947H120.337V44.4947H120.688C121.939 43.2778 124.175 43.1322 126.59 43.8937ZM136.684 22.0261C136.889 22.0261 137.076 22.0224 137.236 22.0149C137.397 22.0074 137.535 22 137.651 21.9888C137.875 21.9701 137.998 21.9514 137.998 21.9514V23.7246C137.83 23.5491 137.606 23.3401 137.345 23.1236C137.322 23.1049 137.304 23.09 137.281 23.0713C137.083 22.9145 136.867 22.754 136.628 22.5972C136.538 22.5375 136.445 22.4815 136.352 22.4255C136.064 22.2501 135.754 22.0821 135.418 21.9365C135.415 21.9328 135.848 22.0261 136.684 22.0261ZM138.494 33.8446C138.446 33.7924 138.39 33.7438 138.338 33.6953C138.39 33.7438 138.442 33.7961 138.494 33.8446ZM121.435 24.9079H121.629C121.562 25.1431 121.509 25.4007 121.509 25.7105C121.509 25.8113 121.521 25.9009 121.528 25.998H121.009C121.14 25.55 121.293 25.1879 121.435 24.9079ZM120.845 26.696H121.629C121.726 27.0917 121.872 27.4351 122.062 27.73C122.073 27.7487 122.088 27.7636 122.103 27.7823H120.714C120.737 27.3866 120.782 27.0245 120.845 26.696ZM120.703 28.4841H122.708C122.894 28.6521 123.085 28.8089 123.283 28.9433C123.604 29.1747 123.969 29.38 124.402 29.5704H120.796C120.744 29.227 120.711 28.8649 120.703 28.4841ZM121.129 30.8321C121.058 30.6492 120.998 30.4626 120.942 30.2684H126.631C126.971 30.3468 127.333 30.4252 127.729 30.4999L132.447 31.3547H121.364C121.278 31.1905 121.2 31.015 121.129 30.8321ZM122.693 33.0084C122.364 32.7359 122.073 32.4373 121.823 32.1051C121.812 32.0901 121.804 32.0752 121.793 32.0603H135.403C135.403 32.0603 135.344 32.0267 135.747 32.176C136.214 32.3514 136.635 32.5418 137.012 32.7509C137.244 32.8778 137.453 33.0122 137.651 33.1503H122.868C122.812 33.1018 122.753 33.0532 122.693 33.0084ZM123.887 33.8446H138.494C138.595 33.9454 138.692 34.0462 138.778 34.1545C138.987 34.4046 139.159 34.6659 139.301 34.9346H126.777C125.526 34.636 124.653 34.2963 123.887 33.8446ZM132.395 36.0097L130.386 35.6364H139.592C139.708 35.9911 139.782 36.3532 139.812 36.7227H135.542C134.635 36.4577 133.582 36.2262 132.395 36.0097ZM137.464 37.4208H139.827C139.82 37.8575 139.797 38.2234 139.764 38.5071H139.039C138.655 38.089 138.125 37.7344 137.464 37.4208ZM123.066 41.7996C122.794 41.8705 122.521 41.975 122.271 42.0833C121.629 42.367 121.129 42.6992 121.129 42.6992V42.0833V40.997V40.2952V39.6606C121.293 39.8845 121.45 40.0936 121.606 40.2952C121.797 40.5378 121.995 40.7655 122.219 40.997C122.473 41.2583 122.753 41.5159 123.096 41.7921L123.066 41.7996Z" fill="black"/>
<path d="M172.845 43.1032C171.8 42.1998 170.93 40.6543 169.448 38.5228L165.435 32.7815C164.67 31.6841 163.415 31.0308 162.075 31.0308H161.347L162.997 29.2912L165.842 26.1668C168.448 23.3969 170.829 21.1422 173.715 21.1422H173.816V20.5897H162.512V21.1422C164.211 21.1422 164.692 22.0568 164.692 23.7105C164.692 24.9535 164.237 25.9502 162.934 27.3464L156.394 34.3531V25.0133C156.394 21.8365 156.864 21.187 159.451 21.1459V20.5897H146.789V21.1459C149.376 21.187 149.846 21.8365 149.846 25.0133V40.0683C149.846 43.245 149.376 43.8946 146.789 43.9356V44.4918H159.451V43.9356C156.86 43.8946 156.394 43.245 156.394 40.0645V38.6124C156.394 37.1454 156.943 35.7268 157.932 34.6443L158.342 34.1926L164.517 42.965C165.189 43.9207 166.286 44.4918 167.455 44.4918H174.988V43.9393C173.987 43.9431 173.491 43.6594 172.845 43.1032ZM166.163 24.207H165.898C165.913 24.0651 165.92 23.9494 165.92 23.8262C165.92 23.5761 165.913 23.3446 165.887 23.1207H166.977L166.163 24.207ZM168.126 21.5939L167.507 22.4151H165.749C165.719 22.3181 165.681 22.2248 165.637 22.1277C165.554 21.9522 165.454 21.7731 165.323 21.5939H168.126ZM154.098 21.5939C154.061 21.6648 154.027 21.732 153.997 21.7992C153.938 21.9336 153.889 22.0717 153.855 22.221C153.837 22.2957 153.822 22.3778 153.811 22.4674C153.814 22.4487 153.814 22.4338 153.818 22.4151H150.828C150.779 22.2024 150.712 22.012 150.623 21.8403C150.578 21.7544 150.526 21.6723 150.47 21.5939H154.098ZM150.962 38.5042V37.4179H153.751V38.5042H150.962ZM153.751 39.206V40.2922H150.962V39.206H153.751ZM150.962 36.7161V35.6298H153.751V36.7161H150.962ZM150.962 34.9317V33.8454H153.751V34.9317H150.962ZM150.962 33.1436V32.0574H153.751V33.1436H150.962ZM150.962 31.3556V30.2693H153.751V31.3556H150.962ZM150.962 29.5675V28.4812H153.751V29.5675H150.962ZM150.962 27.7794V26.6931H153.751V27.7794H150.962ZM150.962 25.9913V24.905H153.751V25.9913H150.962ZM150.959 24.207C150.959 23.9792 150.955 23.759 150.947 23.5611C150.944 23.4044 150.932 23.2588 150.925 23.1169H153.762C153.755 23.3558 153.751 23.6358 153.751 23.9718V24.2032H150.959V24.207ZM150.955 40.994H153.751V41.1172C153.751 41.5092 153.755 41.8228 153.766 42.0841H150.865C150.914 41.7668 150.944 41.4084 150.955 40.994ZM150.186 43.6594C150.41 43.4018 150.574 43.1181 150.694 42.7821H153.837C153.9 43.1106 154.008 43.3533 154.191 43.6594H150.186ZM160.392 32.2477H160.709C160.944 32.2477 161.176 32.2776 161.4 32.3299C161.93 32.4605 162.411 32.7442 162.792 33.1399H159.541L160.392 32.2477ZM159.515 33.8417H163.326L164.087 34.928H160.269L159.515 33.8417ZM160.754 35.6298H164.576L165.338 36.7161H161.508L160.754 35.6298ZM161.993 37.4179H165.827L166.589 38.5042H162.747L161.993 37.4179ZM163.233 39.206H167.078L167.839 40.2922H163.987L163.233 39.206ZM164.472 40.994H168.328L169.09 42.0803H165.226L164.472 40.994ZM167.757 43.6594C166.988 43.6594 166.264 43.3346 165.749 42.7821H169.579L170.195 43.6594H167.757Z" fill="black"/>
<path d="M198.321 37.2163C196.522 39.9152 193.812 43.1927 188.313 43.1927H185.991V30.3775H186.824C188.903 30.3775 191.61 31.1129 192.819 33.6065H193.316V26.1817H192.815C191.442 28.8731 189.026 29.224 186.824 29.224H185.991V21.7432H189.026C192.715 21.7432 195.947 23.0983 198.228 27.3426H198.642V20.5897H176.357V21.1459C178.944 21.187 179.414 21.8365 179.414 25.0133V40.0683C179.414 43.245 178.944 43.8946 176.357 43.9356V44.4918H198.922V37.2126H198.321V37.2163ZM190.206 29.5675C190.688 29.392 191.206 29.183 191.625 28.8172V29.5675V30.2693V30.8777C191.318 30.6127 190.956 30.4261 190.594 30.2693C190.221 30.1087 189.848 29.9744 189.53 29.8213C189.732 29.7355 189.963 29.6571 190.206 29.5675ZM196.209 23.1169H196.75V23.7217C196.571 23.4902 196.391 23.2961 196.209 23.1169ZM196.746 21.5939V22.4151H195.305C194.779 22.0941 194.219 21.8627 193.618 21.5902L196.746 21.5939ZM183.311 43.6594H179.746C179.963 43.4093 180.127 43.1256 180.246 42.7821H183.307V43.6594H183.311ZM183.311 42.0803H180.422C180.474 41.7668 180.5 41.4047 180.515 40.994H183.311V42.0803ZM183.311 40.2922H180.523V39.206H183.311V40.2922ZM183.311 38.5042H180.523V37.4179H183.311V38.5042ZM183.311 36.7161H180.523V35.6298H183.311V36.7161ZM183.311 34.9317H180.523V33.8454H183.311V34.9317ZM183.311 33.1436H180.523V32.0574H183.311V33.1436ZM183.311 31.3556H180.523V30.2693H183.311V31.3556ZM183.311 29.5675H180.523V28.4812H183.311V29.5675ZM183.311 27.7794H180.523V26.6931H183.311V27.7794ZM183.311 25.9913H180.523V24.905H183.311V25.9913ZM183.311 24.207H180.519C180.508 23.7963 180.485 23.4342 180.441 23.1207H183.315V24.207H183.311ZM183.311 22.4189H180.288C180.254 22.3106 180.217 22.2098 180.176 22.1165C180.093 21.9261 179.996 21.7544 179.881 21.5976H183.315V22.4189H183.311ZM196.657 43.6594H192.267C193.036 43.4317 193.764 43.148 194.439 42.7821H196.657V43.6594ZM196.657 42.0803H195.525C195.925 41.7742 196.306 41.4345 196.657 41.0351V42.0803Z" fill="black"/>
</svg>
