<svg width="256" height="58" viewBox="0 0 256 58" fill="none" xmlns="http://www.w3.org/2000/svg">
<g clip-path="url(#clip0_1046_213)">
<path d="M50.2668 6.09744C45.9101 6.60287 41.4921 8.42066 38.3013 11.0365C35.391 13.4129 33.6641 16.7115 33.6641 19.8771C33.6641 21.0919 34.041 21.4023 35.4261 21.3314C36.3202 21.287 36.4254 21.1718 35.9871 20.6752C35.5926 20.223 35.3735 19.416 35.3647 18.3874C35.3647 16.4898 36.3114 14.4326 38.0383 12.6326C39.6513 10.9478 41.4658 10.0434 43.7362 9.77734C45.5069 9.5734 49.4253 9.92809 53.4927 10.6641C57.4637 11.3823 58.4718 11.5508 59.8305 11.7193L61.1892 11.8877L59.9094 12.3134C57.5075 13.1114 54.606 14.7607 52.1866 16.7115C50.9418 17.7135 48.689 19.9835 47.8299 21.1097C46.6815 22.6082 38.5993 33.8253 35.7592 37.851C33.033 41.7172 32.9891 41.7792 31.9372 42.7901C31.2272 43.4817 30.9467 43.801 30.9905 43.9162C31.0606 44.0936 31.0256 44.1024 32.4456 43.7211C34.4004 43.198 36.3991 43.2157 39.1516 43.7832C41.0626 44.1734 42.4564 44.2177 43.0612 43.8896C43.8589 43.4551 44.2884 42.6925 43.6924 42.7635C42.6141 42.8965 41.8515 42.8699 40.0983 42.6393C39.0464 42.4975 37.8542 42.3822 37.4422 42.3822H36.6971L37.039 42.2137C37.2231 42.125 37.6964 41.9034 38.0821 41.726C39.6074 41.0166 41.3869 39.5801 42.5615 38.1171C42.8596 37.7535 46.1468 33.2135 49.8811 28.0261C53.6154 22.8388 57.0341 18.1392 57.49 17.5805C59.1993 15.4612 61.347 13.5282 62.9073 12.7035C63.9943 12.136 64.5027 12.0119 65.8439 12.0119C70.7441 12.0119 76.8364 10.9656 79.9659 9.59113C81.386 8.97043 82.508 8.09257 82.657 7.48073C82.7447 7.13491 82.6395 7.0285 82.2187 7.0285C81.9295 7.0285 81.8155 7.0817 81.6928 7.28565C81.4561 7.65807 80.4743 8.07483 79.4224 8.26105C78.6685 8.39405 78.0724 8.41179 76.0475 8.36745C72.9005 8.30538 71.3402 8.12804 64.4151 7.03737C59.0766 6.23045 56.4731 5.98217 53.2648 5.9999C52.02 5.9999 50.6701 6.0531 50.2756 6.09744H50.2668Z" fill="black"/>
<path d="M112.918 21.1808C110.437 21.6241 106.983 23.2823 104.371 25.2952C102.977 26.3681 101.32 28.1948 100.304 29.7465C100.058 30.1278 99.9179 30.2697 99.9004 30.1544C99.839 29.8175 99.5322 30.0125 99.1202 30.6421C96.8761 34.0915 93.5977 37.4965 91.4851 38.5872C90.0387 39.332 88.6887 39.3764 88.6887 38.6847C88.6887 38.1349 89.2497 37.4078 91.8269 34.6324C94.7811 31.449 96.0872 29.7731 97.0251 27.9553C97.7878 26.4745 98.0069 25.6942 97.9982 24.4439C97.9982 23.6015 97.9543 23.3178 97.7702 22.8389C97.1216 21.1808 95.4823 20.6665 93.6678 21.5355C91.9146 22.3779 90.0387 23.9296 86.7076 27.2992C85.3314 28.7002 84.2444 29.7731 84.3057 29.7022C85.9187 27.5918 88.1715 24.7011 89.1971 23.4242C89.9335 22.502 90.5208 21.6951 90.5033 21.6153C90.477 21.4823 90.1176 21.4645 87.8121 21.4379L85.156 21.4113L82.237 25.2597C80.4224 27.6539 79.2653 29.0904 79.1952 29.0638C79.1251 29.0372 78.5378 29.6313 77.7839 30.5091C76.1183 32.4422 73.2782 35.3152 72.0247 36.326C69.7981 38.1261 68.0887 39.0571 66.6687 39.2345C66.2216 39.2877 66.1252 39.27 65.8797 39.0837C65.6255 38.8798 65.608 38.8266 65.643 38.2857C65.7219 37.1507 66.1778 36.4679 71.9195 28.8332C74.9262 24.8429 77.2053 21.7217 77.2053 21.6153C77.2053 21.4202 77.179 21.4113 74.4353 21.4379L71.6652 21.4645L70.552 22.9986C69.9384 23.8498 69.4299 24.5237 69.4124 24.506C69.3949 24.4883 69.4299 24.3286 69.4825 24.1424C69.5351 23.9562 69.579 23.5217 69.579 23.167C69.579 21.5975 68.5095 21.0123 66.2742 21.3404C63.8285 21.7039 60.5676 23.1848 58.0254 25.0824C54.5366 27.6805 52.1347 31.4402 51.7315 34.9161C51.4597 37.2482 52.2136 39.199 53.6863 39.9616C54.3174 40.2897 55.6323 40.334 56.4651 40.0503C58.0868 39.5005 59.989 37.9133 62.0315 35.4127C62.4435 34.9073 62.7941 34.5082 62.8116 34.526C62.8292 34.5437 62.7766 34.7388 62.6977 34.9693C62.4347 35.7319 62.3207 36.9379 62.4435 37.665C62.7064 39.2256 63.5129 40.0857 64.9593 40.3518C67.3962 40.804 70.3942 39.3409 73.8129 36.0334L74.8473 35.0314L74.1022 36.0068C71.937 38.8443 71.7003 39.1813 71.7529 39.3232C71.8055 39.4473 72.1737 39.465 74.4002 39.465H76.9862L77.8014 38.4276C80.1069 35.5102 85.4453 29.8086 88.8114 26.6873C92.3967 23.3621 94.7635 21.8015 95.3596 22.4045C95.7979 22.8478 95.1492 23.7523 92.16 26.8558C88.2504 30.917 86.9443 32.655 86.243 34.7388C85.6119 36.6098 86.1378 39.0926 87.3475 39.8818C87.8823 40.2365 88.2855 40.3518 88.9955 40.3429C92.0548 40.3429 95.4297 37.5231 98.8222 32.1496C99.2166 31.5288 99.5585 30.9968 99.5936 30.9702C99.6199 30.9436 99.4884 31.2451 99.2868 31.6441C98.4978 33.2491 98.1121 34.9605 98.1998 36.5211C98.3225 38.6758 99.3656 39.9882 101.093 40.1301C102.67 40.2542 104.993 39.0571 107.474 36.8226C108.324 36.06 108.605 35.6698 104.222 41.3715C100.374 46.3815 98.4978 48.7756 97.3407 50.1323C96.2537 51.4092 96.2625 51.6132 97.4284 51.2851C97.8141 51.1787 98.9799 50.9304 100.014 50.7442C104.029 50.0082 106.44 49.1658 109.061 47.5963C111.191 46.3105 112.751 45.0248 115.074 42.6218C117.125 40.5025 119.764 37.2926 122.148 34.0028C122.28 33.8255 122.306 33.8077 122.271 33.9407C121.447 36.6718 121.631 38.667 122.797 39.6867C123.288 40.1123 123.91 40.2985 124.778 40.2897C126.049 40.2719 127.355 39.7133 128.933 38.5251C129.827 37.8423 132.212 35.4836 132.887 34.6058C133.325 34.0294 133.456 33.9673 133.272 34.4196C133.009 35.0669 132.808 36.4502 132.869 37.3192C133.001 39.4118 134.044 40.4848 135.928 40.4759C137.235 40.4759 138.523 39.9261 140.127 38.7113C141.223 37.8778 143.213 35.8738 144.563 34.2334C145.141 33.5328 145.659 32.9033 145.72 32.8323C145.781 32.7614 145.72 33.1161 145.606 33.6126C144.677 37.3369 145.974 40.2365 148.63 40.405C150.506 40.5291 152.812 39.6956 155.38 37.9576C157.116 36.7871 159.509 34.7388 161.157 33.0097C161.63 32.5131 161.981 32.1673 161.937 32.2382C161.893 32.3092 160.719 33.8964 159.307 35.7851C157.896 37.665 156.739 39.2966 156.712 39.4207L156.669 39.6424H162.165L162.998 38.5428C165.461 35.262 171.448 28.5938 174.244 26.0046C174.858 25.4459 175.358 25.0026 175.375 25.0203C175.393 25.038 175.34 25.2952 175.261 25.5878C174.858 27.1041 175.717 27.9731 177.295 27.645C179.416 27.2016 181.397 24.9139 181.406 22.8921C181.406 22.4311 181.362 22.2271 181.196 21.97C180.793 21.367 180.521 21.234 179.697 21.234C179.022 21.234 178.873 21.2694 178.136 21.633C176.252 22.5463 172.78 25.7031 169.739 29.2588C169.406 29.649 169.108 29.9682 169.081 29.9682C169.029 29.9682 168.888 30.1544 172.246 25.774C173.815 23.7257 175.095 21.9788 175.095 21.8902C175.095 21.7394 174.876 21.7217 172.482 21.7039L169.87 21.6773L168.433 23.6015C167.635 24.6656 166.802 25.7297 166.557 25.9691C166.32 26.2085 165.557 27.042 164.856 27.8223C163.454 29.383 160.245 32.6195 158.886 33.8432C154.907 37.4078 151.427 39.4473 149.34 39.4384C148.376 39.4384 148.034 39.0217 148.21 38.0817C148.341 37.399 149.104 35.8295 149.787 34.8186L150.305 34.056L151.742 33.4708C156.441 31.5643 160.245 28.9839 161.77 26.6607C162.516 25.5257 162.796 24.6745 162.796 23.504C162.796 22.2448 162.244 21.5177 161.06 21.2074C160.526 21.0655 160.324 21.0566 159.693 21.163C156.336 21.6773 150.41 25.6499 147.859 29.0815C146.421 31.0145 143.572 34.1536 141.688 35.8827C139.514 37.8689 137.331 39.2345 136.27 39.27C135.92 39.2788 135.736 39.2433 135.674 39.1369C135.394 38.7113 136.016 37.2128 137.042 35.8206C137.34 35.4216 139.891 32.123 142.713 28.4962C145.536 24.8695 147.833 21.8369 147.824 21.7571C147.806 21.633 147.403 21.6064 145.001 21.5887L142.205 21.5709L140.373 24.036C137.813 27.4676 135.823 29.9416 134.202 31.7239C130.958 35.2708 129.003 37.1152 127.312 38.2236C126.435 38.8 125.795 39.0483 125.225 39.0483C124.498 39.0483 124.428 38.5872 124.98 37.4167C125.436 36.4413 125.821 35.9359 131.212 28.9928C137.156 21.3493 136.805 21.8192 136.717 21.6773C136.674 21.6064 135.779 21.5709 133.868 21.5709H131.09L127.759 25.8449C125.926 28.1948 124.261 30.3584 124.059 30.651C123.858 30.9436 123.595 31.2717 123.481 31.387C123.367 31.4934 122.823 32.1496 122.271 32.8501C119.238 36.6984 115.048 41.2473 112.26 43.7213C111.208 44.6524 109.762 45.7342 108.736 46.3637C107.798 46.9401 105.607 48.0131 104.757 48.3234L104.178 48.5362L104.765 47.9244C105.09 47.5874 109.692 41.6198 114.987 34.6679C120.281 27.7159 124.664 21.97 124.708 21.899C124.769 21.8192 124.761 21.7305 124.682 21.633C124.585 21.5089 124.147 21.4823 121.842 21.4823H119.115L117.871 23.2291C117.187 24.1868 116.608 24.9582 116.591 24.9405C116.573 24.9227 116.626 24.6922 116.705 24.4351C117.099 23.2025 116.985 22.1828 116.38 21.5709C115.784 20.968 114.741 20.8438 113.005 21.1453L112.918 21.1808ZM115.162 22.2005C116.126 22.4754 116.126 23.6636 115.136 25.7563C112.681 30.9791 105.028 38.534 101.855 38.8621C101.382 38.9064 101.329 38.8975 101.18 38.6581C101.04 38.4364 101.031 38.3389 101.128 37.9487C101.268 37.3901 101.627 36.6541 102.057 36.0334C102.434 35.5014 109.648 26.2085 110.533 25.1178C111.945 23.3798 112.909 22.5818 114.014 22.2271C114.504 22.0675 114.689 22.0675 115.153 22.1916L115.162 22.2005ZM161.008 22.369C161.271 22.6705 161.288 22.9454 161.078 23.5838C160.324 25.8804 157.256 29.383 154.302 31.3249C153.452 31.8835 151.058 33.187 151.006 33.1249C150.988 33.1072 152.47 31.1742 154.293 28.8421C157.852 24.2843 159.114 22.8833 160.044 22.4488C160.648 22.165 160.815 22.1562 161.017 22.3778L161.008 22.369ZM68.1676 22.4045C69.465 22.9986 67.8345 26.8913 64.5473 31.0411C60.1994 36.5211 57.4732 38.9951 55.5973 39.1547C54.8522 39.2167 54.6681 39.066 54.6768 38.4364C54.7031 36.8758 57.3855 32.9121 63.0308 26.0578C64.7927 23.9208 65.9849 22.8655 67.107 22.4843C67.6943 22.2803 67.8608 22.2714 68.1764 22.4133L68.1676 22.4045Z" fill="black"/>
<path d="M190.014 21.3137C186.587 21.8546 182.309 24.2931 179.408 27.3523C175.884 31.0588 174.411 35.6521 175.814 38.4985C176.585 40.0591 178.093 40.6798 179.925 40.201C181.652 39.7487 183.624 38.1172 185.929 35.2264C187.078 33.79 187.087 33.7811 186.902 34.2333C186.385 35.5013 186.192 37.5674 186.499 38.6049C186.692 39.2788 187.279 39.9704 187.84 40.2098C188.375 40.4315 189.488 40.4315 190.33 40.2098C192.565 39.6246 195.502 37.2304 197.86 34.0648C198.088 33.7634 198.289 33.5239 198.307 33.5505C198.325 33.5771 198.281 33.7368 198.202 33.923C197.895 34.6855 197.737 35.7585 197.781 36.8758C197.816 37.8157 197.86 38.0551 198.088 38.5605C198.807 40.1566 200.349 40.7064 202.129 39.997C203.479 39.4561 205.442 38.0108 207.651 35.9358L208.712 34.9338L208.081 35.7674C207.73 36.2196 206.196 38.2502 204.671 40.263C200.455 45.8051 198.754 47.9332 196.168 50.886L195.712 51.4003L195.94 51.6486C196.212 51.9412 196.282 51.9412 197.124 51.6397C197.501 51.4978 199.026 51.0633 200.525 50.6732C203.803 49.8042 205.67 49.2278 207.415 48.5362C211.026 47.1086 213.341 45.6277 215.69 43.2513C217.075 41.8503 217.899 40.7951 218.802 39.261C220.678 36.0688 221.063 32.8766 219.827 30.7485C219.564 30.2963 219.521 30.2697 219.301 30.4204C219.187 30.4913 219.187 30.5889 219.345 31.0766C220.134 33.6215 218.968 37.3103 216.251 40.8394C213.779 44.0582 209.554 46.8514 204.741 48.4564C204.031 48.6958 203.409 48.8731 203.365 48.8554C203.321 48.8377 203.602 48.4386 203.987 47.9509C206.88 44.3686 224.035 22.165 224.009 22.0409C223.982 21.899 223.684 21.8812 221.326 21.8635L218.67 21.8369L216.531 24.6478C213.419 28.7356 211.43 30.9879 208.344 33.9407C204.136 37.9664 201.41 39.7842 200.797 38.9684C200.551 38.6403 200.691 37.7713 201.121 36.9644C201.366 36.5033 203.409 33.9141 207.213 29.2499C210.614 25.0823 212.937 22.1473 212.937 22.032C212.937 21.8369 212.885 21.828 210.062 21.828H207.187L203.549 26.3503C200.919 29.6224 199.859 30.8726 199.718 30.8638C199.596 30.8638 199.28 31.1653 198.763 31.8126C195.966 35.2974 193.416 37.6561 191.268 38.729C190.435 39.1458 190.163 39.2344 189.594 39.2788C188.927 39.3231 188.91 39.3231 188.796 39.0748C188.647 38.7467 188.778 38.2324 189.252 37.3635C189.69 36.5388 189.585 36.6895 195.607 28.9484C198.509 25.2153 200.875 22.0941 200.875 22.0054C200.875 21.8458 200.683 21.828 198.202 21.8014C196.72 21.7837 195.476 21.7837 195.414 21.8014C195.353 21.8192 194.643 22.7502 193.828 23.8675C192.504 25.6942 192.066 26.2262 192.381 25.6321C192.583 25.2508 192.872 23.8054 192.872 23.167C192.872 22.3867 192.592 21.7571 192.118 21.4822C191.741 21.2605 190.856 21.1985 190.041 21.3226L190.014 21.3137ZM191.68 22.5818C192.171 23.0783 191.776 24.8961 190.716 27.0065C189.971 28.4962 189.182 29.7022 187.762 31.5288C184.273 36.0068 181.809 38.3655 179.925 39.0482C179.057 39.3586 178.522 39.3586 178.215 39.0482C177.935 38.7645 177.926 38.7113 178.128 38.0019C178.592 36.4058 180.389 33.7456 184.904 27.9996C187.963 24.1069 189.12 22.9897 190.575 22.5286C191.136 22.3512 191.47 22.3689 191.689 22.5818H191.68Z" fill="black"/>
</g>
<defs>
<clipPath id="clip0_1046_213">
<rect width="193" height="45.8614" fill="white" transform="translate(31 6)"/>
</clipPath>
</defs>
</svg>
