<svg width="256" height="58" viewBox="0 0 256 58" fill="none" xmlns="http://www.w3.org/2000/svg">
<path d="M128 5C123.253 5 118.613 6.40758 114.666 9.04473C110.72 11.6819 107.643 15.4302 105.827 19.8156C104.01 24.201 103.535 29.0266 104.461 33.6822C105.387 38.3377 107.673 42.6141 111.029 45.9706C114.386 49.327 118.662 51.6128 123.318 52.5388C127.973 53.4649 132.799 52.9896 137.184 51.1731C141.57 49.3566 145.318 46.2805 147.955 42.3337C150.592 38.3869 152 33.7467 152 29C151.988 22.6385 149.456 16.5409 144.957 12.0427C140.459 7.54438 134.362 5.01197 128 5V5ZM150.46 29C150.46 33.4422 149.143 37.7847 146.675 41.4783C144.207 45.1719 140.699 48.0507 136.595 49.7507C132.491 51.4506 127.975 51.8954 123.618 51.0288C119.261 50.1622 115.259 48.023 112.118 44.8819C108.977 41.7407 106.838 37.7387 105.971 33.3818C105.105 29.0249 105.549 24.5089 107.249 20.4048C108.949 16.3007 111.828 12.7929 115.522 10.3249C119.215 7.8569 123.558 6.53962 128 6.53962C133.957 6.53962 139.67 8.90598 143.882 13.1181C148.094 17.3302 150.46 23.0431 150.46 29V29Z" fill="black"/>
<path d="M139.502 18.9201C139.89 19.3199 140.253 19.7434 140.589 20.188L145.479 17.1088C145.208 16.8371 144.845 16.2937 144.574 16.022L141.494 18.0144L141.313 18.1955L141.494 17.9239L142.853 15.2069L141.857 14.2106L139.14 15.5691L138.868 15.7503L139.049 15.5691L141.042 12.4899C140.679 12.2182 140.317 11.9465 139.864 11.5842L136.785 16.3842C137.147 16.6559 137.691 17.1088 138.053 17.3805L140.951 15.868L141.132 15.7774L140.951 15.9586L139.502 18.9201Z" fill="black"/>
<path d="M128.453 12.7615L129.811 9.77287L129.902 9.50117V9.77287L130.083 13.7578C130.57 13.779 131.055 13.8396 131.532 13.9389L131.351 8.14268C130.717 8.05211 129.992 8.05211 129.359 7.96155L128.091 11.2219L128 11.4936L127.909 11.2219L126.642 7.96155C125.974 7.97694 125.308 8.03745 124.649 8.14268L124.468 13.9389C124.944 13.8341 125.429 13.7734 125.917 13.7578L126.098 9.77287V9.52834L126.189 9.80004L127.547 12.7615H128.453Z" fill="black"/>
<path d="M117.766 17.4709C118.491 16.6558 118.943 15.7502 118.219 14.8445C117.993 14.6324 117.713 14.4864 117.409 14.4225C117.106 14.3587 116.791 14.3793 116.498 14.4823H116.408V14.3917C116.496 14.1334 116.499 13.8537 116.418 13.5932C116.336 13.3327 116.174 13.1049 115.955 12.9426C115.81 12.8113 115.635 12.7178 115.445 12.6704C115.256 12.623 115.057 12.6232 114.868 12.6709C114.143 12.7615 113.6 13.2143 112.06 14.9351C111.608 15.4785 110.974 16.203 110.521 16.7464L114.687 20.6407C116.136 19.1011 116.679 18.5849 117.766 17.4709ZM112.332 16.4747C113.147 15.4785 114.053 14.5728 114.415 14.2106C114.529 14.0694 114.69 13.9732 114.868 13.9389C114.933 13.921 115.002 13.9162 115.069 13.9248C115.136 13.9333 115.201 13.955 115.26 13.9887C115.319 14.0223 115.37 14.0672 115.412 14.1208C115.454 14.1744 115.484 14.2357 115.502 14.3011C115.527 14.4352 115.514 14.5734 115.466 14.701C115.419 14.8287 115.337 14.9409 115.23 15.0256C114.777 15.4785 113.147 17.1992 113.147 17.1992L112.332 16.4747ZM113.962 18.0143C113.962 18.0143 115.502 16.3841 116.045 15.8407C116.226 15.6596 116.408 15.4785 116.498 15.4785C116.582 15.4341 116.675 15.4109 116.77 15.4109C116.865 15.4109 116.958 15.4341 117.042 15.4785C117.137 15.527 117.21 15.6113 117.244 15.713C117.278 15.8147 117.27 15.9257 117.223 16.0219C117.122 16.244 117 16.4562 116.86 16.6558C116.679 16.9275 114.777 18.8294 114.777 18.92L113.962 18.0143Z" fill="black"/>
<path d="M128 14.7811V29H113.781C113.788 25.2311 115.289 21.6187 117.954 18.9537C120.619 16.2887 124.231 14.7883 128 14.7811V14.7811Z" fill="#ADADAD"/>
<path d="M142.219 29C142.224 30.8686 141.859 32.7197 141.146 34.447C140.433 36.1742 139.386 37.7436 138.065 39.0649C136.744 40.3862 135.174 41.4334 133.447 42.1462C131.72 42.8591 129.869 43.2236 128 43.2189V29H142.219Z" fill="#ADADAD"/>
<path d="M142.219 29H128V14.7811C131.769 14.7883 135.381 16.2887 138.046 18.9537C140.711 21.6187 142.212 25.2311 142.219 29V29Z" fill="black"/>
<path d="M128 43.2189C126.131 43.2236 124.28 42.8591 122.553 42.1462C120.826 41.4334 119.256 40.3862 117.935 39.0649C116.614 37.7436 115.567 36.1742 114.854 34.447C114.141 32.7197 113.776 30.8686 113.781 29H128V43.2189Z" fill="black"/>
</svg>
