<svg width="256" height="58" viewBox="0 0 256 58" fill="none" xmlns="http://www.w3.org/2000/svg">
<path d="M167.456 29.7716H170.94V30.5781H167.456V29.7716ZM109.512 24.8805L109.201 32.9749V33.1155C109.201 33.8007 109.402 33.9421 110.495 34.0195V34.3945C109.7 34.3333 109.387 34.3175 108.951 34.3175C108.514 34.3175 108.202 34.3333 107.391 34.3945V34.0195C108.482 33.9421 108.639 33.8168 108.67 32.9749L108.998 25.318V25.2257C108.998 24.5071 108.779 24.3516 107.704 24.2895V23.8988C108.311 23.9459 108.545 23.9616 108.982 23.9616C109.477 23.9661 109.972 23.9404 110.464 23.8847L113.363 31.7745L116.31 23.8847C117.013 23.9459 117.34 23.9616 117.808 23.9616C118.197 23.9616 118.447 23.9459 119.039 23.8988V24.2895C117.979 24.3516 117.744 24.5071 117.744 25.2088V25.318L117.916 32.9749C117.933 33.8168 118.073 33.9409 119.196 34.0195V34.3945C118.213 34.301 117.838 34.2688 117.246 34.2688C116.653 34.2688 116.279 34.2994 115.297 34.3945V34.0195C116.356 33.9578 116.591 33.7854 116.591 33.0539V32.9769L116.452 24.8982L113.877 31.8526L113.691 32.3679L113.473 32.9439L113.269 33.5385L113.098 34.0525H112.864L112.693 33.5538L112.474 32.9439L112.256 32.3364L112.068 31.791L109.512 24.8805V24.8805ZM121.221 29.9175C121.377 28.1245 121.969 27.2056 122.967 27.2056C123.981 27.2056 124.496 28.0785 124.589 29.9175H121.221ZM123.249 34.0029C121.83 34.0029 121.205 32.9113 121.191 30.4786H125.838C125.806 28.0773 124.824 26.7983 122.983 26.7983C121.113 26.7983 119.943 28.3114 119.943 30.713C119.943 33.1143 121.113 34.5173 123.124 34.5173C124.652 34.5173 125.651 33.5655 125.852 31.9598H125.228C125.041 33.2851 124.355 34.0029 123.249 34.0029V34.0029ZM126.766 27.3752V27.0952C127.654 27.0175 128.185 26.924 128.824 26.7363C128.902 27.314 128.933 27.5625 128.964 28.031V28.203C129.308 27.314 129.977 26.7988 130.789 26.7988C131.568 26.7988 132.145 27.314 132.145 28.0632C132.145 28.5156 131.88 28.8113 131.49 28.8113C131.132 28.8113 130.851 28.5925 130.851 28.2816C130.851 28.2505 130.868 28.1893 130.882 28.1245L130.913 27.9694V27.8276C130.913 27.6092 130.725 27.4537 130.445 27.4537C129.635 27.4537 129.12 28.4359 129.12 29.9799V33.2384C129.12 33.9103 129.276 34.0348 130.227 34.0811V34.3933C129.369 34.3163 129.042 34.299 128.496 34.299C127.935 34.299 127.607 34.3163 126.75 34.3933V34.0811C127.701 34.0348 127.872 33.9103 127.872 33.2384V28.141C127.857 27.4699 127.778 27.3929 126.969 27.3764L126.766 27.3752V27.3752ZM138.111 26.6594V29.233H137.767C137.486 27.8751 136.91 27.2205 135.959 27.2205C134.788 27.2205 134.103 28.4846 134.103 30.7142C134.103 32.8968 134.711 34.0041 135.911 34.0041C136.878 34.0041 137.455 33.3185 137.642 31.9469H138.281C138.078 33.6158 137.19 34.5198 135.787 34.5198C133.978 34.5198 132.747 32.991 132.747 30.7155C132.747 28.3907 133.994 26.8008 135.834 26.8008C136.504 26.8008 136.925 26.9728 137.425 27.4562L137.845 26.6606H138.111V26.6594H138.111ZM140.671 29.9175C140.827 28.1245 141.419 27.2056 142.417 27.2056C143.431 27.2056 143.945 28.0785 144.038 29.9175H140.671V29.9175ZM142.698 34.0029C141.279 34.0029 140.656 32.9113 140.64 30.4786H145.286C145.255 28.0773 144.272 26.7983 142.434 26.7983C140.561 26.7983 139.391 28.3114 139.391 30.713C139.391 33.1143 140.561 34.5173 142.574 34.5173C144.102 34.5173 145.1 33.5655 145.302 31.9598H144.678C144.491 33.2851 143.805 34.0029 142.698 34.0029V34.0029ZM149.605 34.0976C148.482 34.0976 147.89 32.927 147.89 30.6985C147.89 28.4387 148.435 27.3309 149.558 27.3309C150.713 27.3309 151.305 28.5156 151.305 30.8093C151.305 32.9745 150.728 34.0976 149.605 34.0976V34.0976ZM152.536 32.7711V23.7687C151.757 23.9773 151.056 24.101 150.183 24.1945V24.4603C151.165 24.4603 151.29 24.5695 151.29 25.38V28.1083C150.713 27.1734 150.261 26.8918 149.418 26.8918C147.75 26.8918 146.58 28.4665 146.58 30.7118C146.58 32.9576 147.764 34.531 149.465 34.531C150.354 34.531 150.962 34.1258 151.398 33.2533C151.46 33.8458 151.46 33.9079 151.617 34.4996C152.255 34.2966 152.521 34.2346 153.441 34.1258L153.675 34.0952V33.8301C152.63 33.7991 152.536 33.7222 152.536 32.7711V32.7711ZM155.545 29.9175C155.701 28.1245 156.293 27.2056 157.291 27.2056C158.305 27.2056 158.819 28.0785 158.912 29.9175H155.545ZM157.572 34.0029C156.152 34.0029 155.53 32.9113 155.513 30.4786H160.16C160.129 28.0773 159.147 26.7983 157.307 26.7983C155.435 26.7983 154.266 28.3114 154.266 30.713C154.266 33.1143 155.435 34.5173 157.447 34.5173C158.975 34.5173 159.973 33.5655 160.175 31.9598H159.551C159.365 33.2851 158.678 34.0029 157.572 34.0029V34.0029ZM161.484 34.5335V31.9284L161.827 31.9135C162.107 33.333 162.763 34.0195 163.855 34.0195C164.774 34.0195 165.46 33.4108 165.46 32.6172C165.46 32.0871 165.165 31.729 164.399 31.385L163.807 31.1191L163.09 30.792C161.951 30.2623 161.592 29.8252 161.592 28.9205C161.592 27.6882 162.558 26.8475 163.932 26.8475C164.54 26.8475 164.993 26.9877 165.522 27.3446L165.787 26.7057H166.068V29.1227H165.708C165.567 27.8747 165.053 27.2834 164.071 27.2834C163.245 27.2834 162.604 27.8449 162.604 28.5776C162.604 29.2008 162.838 29.4047 164.258 30.0278L164.913 30.3094C166.097 30.8222 166.519 31.3225 166.519 32.243C166.519 33.553 165.474 34.4871 164.01 34.4871C163.292 34.4871 162.73 34.2998 162.138 33.8325L161.762 34.5335H161.484H161.484ZM175.192 29.1533C176.017 29.1533 176.485 29.2943 176.844 29.652C177.203 30.0121 177.407 30.682 177.407 31.4293C177.407 32.9886 176.626 33.8628 175.239 33.8628H174.678C173.851 33.8628 173.711 33.7371 173.711 33.0511V29.1521L175.192 29.1533V29.1533ZM173.71 24.4281H175.035C176.345 24.4281 176.922 25.0686 176.922 26.518C176.922 27.235 176.751 27.7506 176.408 28.1547C176.065 28.5458 175.644 28.6691 174.771 28.6691H173.711V24.4277H173.71V24.4281V24.4281ZM178.309 26.4866C178.309 25.6757 177.967 24.9594 177.374 24.5059C176.844 24.1163 176.237 23.9455 175.222 23.9455H171.121V24.3351C172.244 24.3979 172.4 24.5224 172.4 25.3643V32.9266C172.4 33.7689 172.274 33.8769 171.121 33.9719V34.347H175.066C176.219 34.347 176.844 34.2056 177.499 33.8003C178.278 33.3016 178.793 32.3501 178.793 31.3696C178.793 30.5257 178.434 29.7624 177.826 29.2963C177.499 29.0469 177.156 28.9047 176.594 28.7968C177.718 28.3738 178.309 27.5782 178.309 26.4866V26.4866ZM181.338 29.9175C181.495 28.1245 182.087 27.2056 183.086 27.2056C184.099 27.2056 184.614 28.0785 184.706 29.9175H181.338ZM183.367 34.0029C181.947 34.0029 181.323 32.9113 181.308 30.4786H185.955C185.924 28.0773 184.941 26.7983 183.101 26.7983C181.23 26.7983 180.06 28.3114 180.06 30.713C180.06 33.1143 181.23 34.5173 183.24 34.5173C184.768 34.5173 185.767 33.5655 185.969 31.9598H185.345C185.16 33.2851 184.474 34.0029 183.367 34.0029V34.0029ZM186.78 27.4372V27.1734C187.685 27.0477 188.215 26.924 188.837 26.7053C188.916 27.0654 188.963 27.4695 188.994 28.062C189.556 27.2193 190.194 26.8463 191.099 26.8463C192.035 26.8463 192.845 27.3277 193.158 28.0926C193.315 28.4677 193.393 28.9035 193.393 29.4953V33.238C193.393 33.9091 193.548 34.0336 194.499 34.0799V34.3921C193.673 34.3135 193.361 34.2986 192.8 34.2986C192.222 34.2986 191.911 34.3135 191.099 34.3921V34.0799C191.941 34.0501 192.144 33.8934 192.144 33.2698V29.449C192.144 28.0926 191.739 27.546 190.741 27.546C189.68 27.546 189.119 28.2175 189.119 29.4953V33.2698C189.119 33.8934 189.323 34.0501 190.134 34.0799V34.3921C189.323 34.3135 189.011 34.2986 188.449 34.2986C187.904 34.2986 187.575 34.3135 186.765 34.3921V34.0799C187.715 34.0336 187.872 33.9091 187.872 33.238V28.1869C187.856 27.546 187.763 27.4537 186.984 27.4537C186.935 27.4537 186.858 27.4372 186.78 27.4372V27.4372ZM195.105 34.347L199.33 27.3917H197.412C196.399 27.3917 196.148 27.6092 195.588 29.0131H195.277L195.636 26.9861H201L196.758 33.9409H198.582C199.643 33.9409 200.079 33.5208 200.547 32.1008H200.875L200.47 34.347H195.105Z" fill="black"/>
<path d="M96.459 40.2377C98.5365 36.7831 99.6314 32.8269 99.6257 28.7958C99.6257 16.5107 89.6661 6.552 77.3815 6.552C65.0964 6.552 55.1377 16.5111 55.1377 28.7958C55.132 32.827 56.2272 36.7833 58.3051 40.2377L58.2242 40.3026L58.3208 40.2651C62.2142 46.7208 69.2931 51.0396 77.3815 51.0396C85.4703 51.0396 92.5484 46.7208 96.4413 40.2651L96.538 40.3026L96.459 40.2377ZM96.8929 28.7958C96.8967 32.2022 96.0036 35.5497 94.3035 38.5015L80.5429 27.4185L77.7207 9.29446C88.3388 9.47573 96.8929 18.1341 96.8929 28.7958ZM57.8725 28.7958C57.8725 18.1345 66.4257 9.47613 77.0439 9.29446L74.2217 27.4185L60.4611 38.5015C58.7615 35.5495 57.8687 32.2021 57.8725 28.7958V28.7958ZM77.3823 48.3056C70.4593 48.3056 64.3826 44.6962 60.9199 39.2601L77.3823 32.8913L93.8447 39.2605C90.3816 44.6962 84.3061 48.3056 77.3823 48.3056Z" fill="black"/>
</svg>
