<svg width="256" height="58" viewBox="0 0 256 58" fill="none" xmlns="http://www.w3.org/2000/svg">
<g clip-path="url(#clip0_1046_441)">
<path d="M170.362 17.6844H153.738C153.388 18.5409 153.048 19.3719 152.673 20.2884C152.933 20.2982 153.126 20.3115 153.318 20.312C157.53 20.313 161.742 20.313 165.955 20.313C166.817 20.313 167.68 20.313 168.543 20.313C168.707 20.313 168.871 20.313 169.119 20.313C167.666 24.0638 166.246 27.7325 164.809 31.4433H164.199C158.937 31.4433 153.677 31.4494 148.416 31.4325C147.976 31.431 147.767 31.5755 147.582 31.9702C146.586 34.1011 145.603 36.2403 144.533 38.3343C141.841 43.6064 137.922 47.675 132.662 50.3595C128.37 52.5499 123.82 53.3993 119.032 52.8272C116.089 52.4756 113.346 51.4903 110.752 50.0622C107.376 48.204 104.343 45.8614 101.468 43.3045C97.5101 39.7865 93.9009 35.9281 90.5469 31.8231C90.4505 31.7052 90.3515 31.5899 90.1947 31.4038C89.534 32.9662 88.9742 34.5087 88.3738 36.0342C87.7745 37.5577 87.1878 39.0868 86.5951 40.6133C85.9973 42.1532 85.3984 43.6931 84.7981 45.237H73C73.035 44.8577 87.8389 7.03237 88.2353 6.30447C88.3586 6.2978 88.4921 6.2855 88.6261 6.28499C92.8377 6.26807 97.0493 6.24193 101.261 6.24141C103.595 6.24141 105.929 6.25782 108.262 6.31779C109.833 6.35829 111.403 6.4767 112.933 6.8955C117.908 8.25801 121.589 12.7003 122.119 17.8669C122.367 20.2899 121.89 22.4808 120.508 24.4718C119.653 25.7041 118.58 26.7104 117.353 27.5551C115.252 29.0017 112.921 29.8824 110.444 30.3878C109.583 30.5636 108.708 30.6677 107.84 30.8061C107.71 30.8266 107.58 30.8538 107.354 30.8963C109.043 33.0175 110.892 34.8444 113.133 36.2428C113.183 36.189 113.224 36.1654 113.222 36.1444C113.137 34.5369 113.456 32.9842 113.855 31.4438C113.975 30.9814 114.132 30.5293 114.249 30.0664C114.326 29.7573 114.496 29.5866 114.789 29.4569C116.377 28.7531 117.855 27.8642 119.15 26.6863C120.941 25.0572 122.157 23.0919 122.541 20.6601C122.85 18.7096 122.582 16.8109 121.94 14.9604C121.745 14.397 121.508 13.848 121.27 13.3011C121.182 13.0986 121.168 12.9268 121.246 12.7167C122.005 10.6878 122.753 8.65426 123.506 6.62382C123.653 6.22911 123.658 6.22604 124.091 6.22604C127.897 6.2245 131.703 6.22501 135.509 6.22604C135.64 6.22604 135.771 6.24449 135.949 6.25731C135.896 6.43313 135.862 6.57717 135.809 6.71353C132.581 15.0839 129.356 23.4558 126.116 31.8216C125.805 32.6253 125.534 33.4235 125.564 34.299C125.588 35.029 125.751 35.7194 126.135 36.3459C126.881 37.5618 128.2 38.0139 129.531 37.5069C130.467 37.1501 131.186 36.5119 131.728 35.681C131.996 35.2704 132.229 34.827 132.415 34.3718C133.339 32.0968 134.234 29.8101 135.155 27.5336C137.584 21.5258 140.023 15.5212 142.457 9.51493C142.848 8.55071 143.235 7.58547 143.627 6.62126C143.69 6.46491 143.766 6.31318 143.841 6.14709H174.985C173.445 10.0209 171.906 13.8372 170.361 17.6849L170.362 17.6844ZM95.8415 17.6541C95.4883 18.5086 95.1589 19.3042 94.7956 20.1828C95.095 20.1828 95.2944 20.1828 95.4934 20.1828C99.8354 20.1828 104.178 20.1828 108.52 20.1828C108.689 20.1828 108.859 20.189 109.027 20.1777C109.915 20.1167 110.609 19.2673 110.504 18.3738C110.434 17.7777 110.302 17.6562 109.708 17.6562C105.264 17.6551 100.82 17.6551 96.3769 17.6551C96.21 17.6551 96.043 17.6551 95.841 17.6551L95.8415 17.6541Z" fill="black"/>
<path d="M183 9.63956C182.992 11.6382 181.375 13.2693 179.41 13.2606C177.437 13.2519 175.818 11.6198 175.814 9.63751C175.81 7.61783 177.432 5.9903 179.436 6.00004C181.42 6.00978 183.008 7.63167 182.999 9.63956H183ZM176.379 9.60778C176.377 11.325 177.691 12.6742 179.38 12.6875C181.09 12.7009 182.456 11.3353 182.45 9.61752C182.445 7.91258 181.109 6.57006 179.415 6.56596C177.719 6.56186 176.382 7.90131 176.379 9.60778Z" fill="black"/>
<path d="M181.019 11.5808C180.585 11.6368 180.274 11.4994 180.086 11.1686C179.959 10.9472 179.82 10.7329 179.694 10.511C179.422 10.0312 179.019 9.87329 178.439 10.0066V11.6008C178.227 11.611 178.069 11.6182 177.876 11.6274V7.74545C178.606 7.74135 179.323 7.66805 180.037 7.82132C180.465 7.91359 180.703 8.20782 180.782 8.63021C180.859 9.03979 180.667 9.45038 180.297 9.67593C180.156 9.76205 179.999 9.82151 179.815 9.90968C180.347 10.391 180.66 10.9841 181.019 11.5808ZM178.452 9.48063C178.903 9.45243 179.29 9.455 179.667 9.39656C180.028 9.34017 180.177 9.12744 180.162 8.80706C180.148 8.50411 179.956 8.28318 179.611 8.25652C179.233 8.2273 178.851 8.24986 178.452 8.24986V9.48114V9.48063Z" fill="black"/>
</g>
<defs>
<clipPath id="clip0_1046_441">
<rect width="110" height="47" fill="white" transform="translate(73 6)"/>
</clipPath>
</defs>
</svg>
